<svg width="1920" height="290" viewBox="0 0 1920 290" fill="none" xmlns="http://www.w3.org/2000/svg">
<path d="M1625.17 97.5577C1543.06 61.3485 1447.15 70.045 1361.09 96.5912" stroke="white" stroke-width="9" stroke-miterlimit="10" stroke-linecap="round" stroke-linejoin="round"/>
<path d="M1850.44 205.95C1772.9 193.712 1699.8 156.74 1644.25 101.787" stroke="white" stroke-width="9" stroke-miterlimit="10" stroke-linecap="round" stroke-linejoin="round"/>
<path d="M1574.56 144.835L1626.71 136.972L1649.98 183.854L1669.43 135.229L1721.99 138.491L1689.04 97.7419L1718.58 54.1073L1666.18 61.9844L1642.91 15.1019L1623.71 63.9553L1570.9 60.4657L1603.85 101.214L1574.56 144.835Z" fill="#FF0000"/>
<path d="M1804.35 267.99L1844.06 252.123L1871.39 284.714L1877.28 242.689L1919.43 235.404L1885.64 209.488L1900.46 169.612L1860.77 185.721L1833.44 153.13L1827.55 195.155L1785.38 202.199L1819.19 228.356L1804.35 267.99Z" fill="#FF0000"/>
<path d="M1308.34 161.925L1348.03 145.816L1375.36 178.407L1381.25 136.382L1423.4 129.097L1389.61 103.181L1404.43 63.3057L1364.74 79.4146L1337.41 46.8237L1331.52 88.8487L1289.36 96.1335L1323.16 122.049L1308.34 161.925Z" fill="#FF0000"/>
<path d="M276.772 90.313C360.206 57.2687 455.711 69.6247 540.7 99.4411" stroke="white" stroke-width="9" stroke-miterlimit="10" stroke-linecap="round" stroke-linejoin="round"/>
<path d="M47.5224 190.016C125.476 180.751 199.936 146.599 257.538 93.8101" stroke="white" stroke-width="9" stroke-miterlimit="10" stroke-linecap="round" stroke-linejoin="round"/>
<path d="M325.539 139.49L273.722 129.639L248.682 175.598L231.099 126.264L178.459 127.515L212.936 88.0554L185.093 43.3239L237.153 53.198L262.193 7.23911L279.51 56.7905L332.416 55.3221L297.939 94.7819L325.539 139.49Z" fill="#FF0000"/>
<path d="M91.2034 253.773L52.1369 236.399L23.578 267.922L19.2991 225.702L-22.5476 216.811L12.2169 192.206L-1.071 151.793L37.9724 169.407L66.5312 137.885L70.8101 180.104L112.68 188.754L77.8923 213.6L91.2034 253.773Z" fill="#FF0000"/>
<path d="M590.911 166.744L551.868 149.129L523.309 180.652L519.03 138.432L477.183 129.542L511.948 104.937L498.66 64.5235L537.703 82.1376L566.262 50.6153L570.541 92.8347L612.387 101.725L577.623 126.331L590.911 166.744Z" fill="#FF0000"/>
<path d="M964.164 201.058C884.282 241.947 788.032 238.802 700.577 217.269" stroke="white" stroke-width="9" stroke-miterlimit="10" stroke-linecap="round" stroke-linejoin="round"/>
<path d="M1182.8 79.8407C1106.1 96.535 1035.25 137.666 982.974 195.733" stroke="white" stroke-width="9" stroke-miterlimit="10" stroke-linecap="round" stroke-linejoin="round"/>
<path d="M911.993 157.383L963.385 162.118L963.748 162.151L963.891 161.816L983.973 114.697L1005.73 161.106L1005.88 161.434L1006.24 161.391L1057.39 155.236L1027.52 196.895L1027.3 197.196L1027.53 197.49L1058.83 238.441L1007.2 233.706L1006.84 233.673L1006.7 234.008L986.62 281.119L965.106 234.479L964.953 234.147L964.59 234.192L913.202 240.583L943.072 198.929L943.287 198.63L943.064 198.336L911.993 157.383Z" fill="#FF0000" stroke="white"/>
<path d="M1150.77 59.0747L1134.13 21.3979L1173.6 34.5885L1173.95 34.7032L1174.16 34.4129L1198.9 1.19972L1206.98 41.7125L1207.06 42.0702L1207.42 42.1114L1248.79 46.8212L1217.41 73.899L1217.13 74.1403L1217.28 74.4785L1233.92 112.392L1194.44 98.9668L1194.1 98.8496L1193.88 99.1415L1169.15 132.355L1161.06 91.8418L1160.99 91.482L1160.63 91.4426L1119.26 86.9687L1150.64 59.6539L1150.92 59.4119L1150.77 59.0747Z" fill="#FF0000" stroke="white"/>
<path d="M661.704 193.841L645.06 155.927L684.537 169.353L684.881 169.47L685.099 169.178L709.833 135.965L717.919 176.477L717.991 176.835L718.353 176.876L759.724 181.586L728.343 208.664L728.063 208.905L728.212 209.243L744.855 247.157L705.379 233.731L705.034 233.614L704.817 233.906L680.082 267.119L671.997 226.607L671.925 226.249L671.563 226.208L630.191 221.498L661.573 194.42L661.852 194.179L661.704 193.841Z" fill="#FF0000" stroke="white"/>
</svg>
