<svg width="134" height="135" viewBox="0 0 134 135" fill="none" xmlns="http://www.w3.org/2000/svg">
<path d="M134 67.4883C134 104.782 104.006 135 67.0116 135C29.9938 135 0 104.782 0 67.4883C0 30.2175 29.9938 0 67.0116 0C104.006 0 134 30.2175 134 67.4883Z" fill="#ED1C2B"/>
<path d="M83.7176 79.7849C91.7677 84.0554 101.7 89.8819 110.458 89.9989C115.453 90.0691 120.472 86.8165 122.504 82.0898C125.525 75.0933 127 67.535 127 59.9184C127 30.6922 103.477 7 74.4592 7C46.3942 7 23.4753 29.1478 22 57.0168C24.451 46.2413 31.8273 37.6421 44.1174 37.6421C55.3271 37.6421 68.4421 48.1367 66.8739 60.5385C65.7239 69.7229 75.0169 75.257 81.917 78.8255L83.7176 79.7849Z" fill="#EE253F"/>
<path d="M101.48 48.9075C101.48 48.9075 91.3994 56.912 101.48 67.701C111.561 78.5133 126.952 82.2182 130.282 71.9186C133.612 61.6306 125.59 32.5027 101.48 48.9075Z" fill="#F4F4F4"/>
</svg>
