<svg width="493" height="658" viewBox="0 0 493 658" fill="none" xmlns="http://www.w3.org/2000/svg">
<path d="M114.334 655.201C177.478 655.201 228.667 607.328 228.667 548.274C228.667 489.22 177.478 441.347 114.334 441.347C51.1889 441.347 0 489.22 0 548.274C0 607.328 51.1889 655.201 114.334 655.201Z" fill="#1A6D17"/>
<path d="M113.957 208V439.044" stroke="white" stroke-width="2.37548" stroke-miterlimit="10"/>
<path d="M114.912 439.044C114.912 439.044 167.014 433.63 158.33 420.095C152.541 409.267 129.385 411.974 114.912 439.044Z" stroke="white" stroke-width="2.37548" stroke-miterlimit="10"/>
<path d="M112.973 439.044C112.973 439.044 60.8716 433.63 69.5551 420.095C75.3442 409.267 98.5003 411.974 112.973 439.044Z" stroke="white" stroke-width="2.37548" stroke-miterlimit="10"/>
<path d="M114.448 611.375L114.362 557.857" stroke="white" stroke-width="6.7871" stroke-miterlimit="10"/>
<path d="M103.884 590.233L114.391 580.38L124.927 590.179" stroke="white" stroke-width="6.7871" stroke-miterlimit="10"/>
<path d="M108.921 601.791L114.42 596.647L119.92 601.764" stroke="white" stroke-width="6.7871" stroke-miterlimit="10"/>
<path d="M98.9635 578.649L114.362 564.221L129.79 578.595" stroke="white" stroke-width="6.7871" stroke-miterlimit="10"/>
<path d="M114.449 615.679C117.183 615.679 119.399 613.606 119.399 611.05C119.399 608.493 117.183 606.421 114.449 606.421C111.716 606.421 109.5 608.493 109.5 611.05C109.5 613.606 111.716 615.679 114.449 615.679Z" fill="white"/>
<path d="M66.6899 592.968L107.097 555.069" stroke="white" stroke-width="6.7871" stroke-miterlimit="10"/>
<path d="M75.2285 571.04L90.1064 571.013L90.1353 584.9" stroke="white" stroke-width="6.7871" stroke-miterlimit="10"/>
<path d="M70.0475 582.546H77.8337V589.801" stroke="white" stroke-width="6.7871" stroke-miterlimit="10"/>
<path d="M80.5255 559.591L102.321 559.563L102.35 579.947" stroke="white" stroke-width="6.7871" stroke-miterlimit="10"/>
<path d="M66.9503 597.381C69.6839 597.381 71.8999 595.309 71.8999 592.752C71.8999 590.196 69.6839 588.123 66.9503 588.123C64.2167 588.123 62.0006 590.196 62.0006 592.752C62.0006 595.309 64.2167 597.381 66.9503 597.381Z" fill="white"/>
<path d="M46.8622 548.38L104.087 548.299" stroke="white" stroke-width="6.7871" stroke-miterlimit="10"/>
<path d="M69.4684 538.529L80.0044 548.329L69.5262 558.182" stroke="white" stroke-width="6.7871" stroke-miterlimit="10"/>
<path d="M57.1088 543.212L62.6083 548.355L57.1088 553.526" stroke="white" stroke-width="6.7871" stroke-miterlimit="10"/>
<path d="M81.8569 533.926L97.2847 548.3L81.9148 562.728" stroke="white" stroke-width="6.7871" stroke-miterlimit="10"/>
<path d="M47.2095 553.01C49.9431 553.01 52.1591 550.937 52.1591 548.381C52.1591 545.824 49.9431 543.752 47.2095 543.752C44.4759 543.752 42.2599 545.824 42.2599 548.381C42.2599 550.937 44.4759 553.01 47.2095 553.01Z" fill="white"/>
<path d="M66.5444 503.717L107.068 541.507" stroke="white" stroke-width="6.7871" stroke-miterlimit="10"/>
<path d="M89.9903 511.729L90.0193 525.617L75.1704 525.644" stroke="white" stroke-width="6.7871" stroke-miterlimit="10"/>
<path d="M77.6886 506.858V514.14H69.9023" stroke="white" stroke-width="6.7871" stroke-miterlimit="10"/>
<path d="M102.234 516.657L102.263 537.041L80.4674 537.068" stroke="white" stroke-width="6.7871" stroke-miterlimit="10"/>
<path d="M66.7762 508.59C69.5098 508.59 71.7258 506.518 71.7258 503.961C71.7258 501.405 69.5098 499.332 66.7762 499.332C64.0426 499.332 61.8265 501.405 61.8265 503.961C61.8265 506.518 64.0426 508.59 66.7762 508.59Z" fill="white"/>
<path d="M114.218 485.174L114.304 538.692" stroke="white" stroke-width="6.7871" stroke-miterlimit="10"/>
<path d="M124.754 506.341L114.276 516.167L103.74 506.368" stroke="white" stroke-width="6.7871" stroke-miterlimit="10"/>
<path d="M119.746 494.755L114.247 499.898L108.718 494.782" stroke="white" stroke-width="6.7871" stroke-miterlimit="10"/>
<path d="M129.674 517.899L114.305 532.355L98.8768 517.954" stroke="white" stroke-width="6.7871" stroke-miterlimit="10"/>
<path d="M114.218 490.127C116.952 490.127 119.168 488.055 119.168 485.498C119.168 482.942 116.952 480.869 114.218 480.869C111.484 480.869 109.268 482.942 109.268 485.498C109.268 488.055 111.484 490.127 114.218 490.127Z" fill="white"/>
<path d="M161.977 503.58L121.57 541.478" stroke="white" stroke-width="6.7871" stroke-miterlimit="10"/>
<path d="M153.409 525.509L138.56 525.536L138.531 511.649" stroke="white" stroke-width="6.7871" stroke-miterlimit="10"/>
<path d="M158.619 514.003L150.833 514.03V506.748" stroke="white" stroke-width="6.7871" stroke-miterlimit="10"/>
<path d="M148.141 536.957L126.345 536.984L126.316 516.601" stroke="white" stroke-width="6.7871" stroke-miterlimit="10"/>
<path d="M161.716 508.427C164.45 508.427 166.666 506.354 166.666 503.798C166.666 501.241 164.45 499.169 161.716 499.169C158.983 499.169 156.767 501.241 156.767 503.798C156.767 506.354 158.983 508.427 161.716 508.427Z" fill="white"/>
<path d="M181.804 548.163L124.58 548.244" stroke="white" stroke-width="6.7871" stroke-miterlimit="10"/>
<path d="M159.198 558.016L148.662 548.217L159.141 538.363" stroke="white" stroke-width="6.7871" stroke-miterlimit="10"/>
<path d="M171.558 553.333L166.058 548.19L171.529 543.02" stroke="white" stroke-width="6.7871" stroke-miterlimit="10"/>
<path d="M146.81 562.646L131.382 548.245L146.752 533.816" stroke="white" stroke-width="6.7871" stroke-miterlimit="10"/>
<path d="M181.457 552.791C184.191 552.791 186.407 550.719 186.407 548.162C186.407 545.606 184.191 543.533 181.457 543.533C178.723 543.533 176.507 545.606 176.507 548.162C176.507 550.719 178.723 552.791 181.457 552.791Z" fill="white"/>
<path d="M162.122 592.83L121.599 555.04" stroke="white" stroke-width="6.7871" stroke-miterlimit="10"/>
<path d="M138.676 584.845L138.647 570.931L153.496 570.904" stroke="white" stroke-width="6.7871" stroke-miterlimit="10"/>
<path d="M150.978 589.689V582.407H158.735" stroke="white" stroke-width="6.7871" stroke-miterlimit="10"/>
<path d="M126.432 579.918L126.403 559.508L148.199 559.48" stroke="white" stroke-width="6.7871" stroke-miterlimit="10"/>
<path d="M161.89 597.216C164.624 597.216 166.84 595.144 166.84 592.587C166.84 590.031 164.624 587.958 161.89 587.958C159.157 587.958 156.941 590.031 156.941 592.587C156.941 595.144 159.157 597.216 161.89 597.216Z" fill="white"/>
<path d="M376.902 654.573C314.548 654.573 264 608.201 264 550.998C264 493.795 314.548 447.423 376.902 447.423C439.257 447.423 489.805 493.795 489.805 550.998C489.805 608.201 439.257 654.573 376.902 654.573Z" fill="#CFF3F3"/>
<path d="M377.874 444.802C371.1 479.572 369.528 514.551 369.299 549.688C369.499 584.825 371.043 619.805 377.874 654.574C384.705 619.805 386.249 584.825 386.449 549.688C386.22 514.551 384.648 479.572 377.874 444.802Z" fill="#BF1B2C"/>
<path d="M377.874 447.423C365.927 462.579 356.151 478.994 347.834 496.116C339.545 513.632 332.685 531.594 331.027 551.024C329.598 570.376 336.772 589.806 345.29 607.138C354.093 624.182 364.783 640.23 377.874 654.573C366.184 629.086 354.236 604.149 347.748 577.456C345.862 569.301 344.49 560.176 345.261 551.863C345.719 543.42 347.92 534.138 350.092 525.878C357.409 499.184 368.013 473.697 377.874 447.423V447.423Z" fill="#BF1B2C"/>
<path d="M377.874 447.423C313.449 482.166 266.716 553.961 321.309 615.11C336.458 632.18 356.037 645.789 377.874 654.573C368.413 648.123 359.553 641.174 351.407 633.648C278.006 567.963 312.705 503.825 377.874 447.423V447.423Z" fill="#BF1B2C"/>
<path d="M378.784 448.291C341.337 458.736 305.283 481.662 288.227 516.234C271.034 551.172 278.086 596.554 308.728 622.64C328.08 639.769 353.09 650.371 378.784 654.601C354.457 647.368 331.005 635.644 313.183 618.305C286.15 592.872 280.136 551.955 295.307 519.263C310.86 485.709 344.398 462.861 378.784 448.291Z" fill="#BF1B2C"/>
<path d="M376.902 448.291C411.279 462.835 444.781 485.709 460.357 519.263C475.523 551.955 469.511 592.846 442.485 618.305C424.641 635.644 401.223 647.368 376.902 654.601C402.616 650.397 427.593 639.769 446.967 622.666C477.6 596.58 484.65 551.198 467.462 516.26C450.383 481.714 414.367 458.762 376.93 448.317L376.902 448.291Z" fill="#BF1B2C"/>
<path d="M377.874 447.423C387.735 473.697 398.311 499.184 405.657 525.878C407.829 534.138 410.03 543.42 410.487 551.863C411.259 560.176 409.887 569.327 408.001 577.456C401.512 604.149 389.565 629.086 377.874 654.573C390.965 640.23 401.655 624.182 410.459 607.138C418.976 589.806 426.151 570.376 424.721 551.024C423.064 531.594 416.204 513.632 407.915 496.116C399.597 478.994 389.822 462.579 377.874 447.423V447.423Z" fill="#BF1B2C"/>
<path d="M377.874 447.423C443.129 503.904 477.685 568.016 404.342 633.648C396.196 641.174 387.335 648.123 377.874 654.573C399.711 645.789 419.262 632.18 434.44 615.11C489.061 553.961 442.3 482.114 377.874 447.423V447.423Z" fill="#BF1B2C"/>
<path d="M376.902 221V444.801" stroke="white" stroke-width="2.37548" stroke-miterlimit="10"/>
<path d="M375.959 444.802C375.959 444.802 324.51 439.558 333.085 426.447C338.802 415.959 361.668 418.581 375.959 444.802Z" stroke="white" stroke-width="2.37548" stroke-miterlimit="10"/>
<path d="M377.874 444.802C377.874 444.802 429.323 439.558 420.748 426.447C415.032 415.959 392.166 418.581 377.874 444.802Z" stroke="white" stroke-width="2.37548" stroke-miterlimit="10"/>
<path d="M376.902 654.573C314.548 654.573 264 608.201 264 550.998C264 493.795 314.548 447.423 376.902 447.423C439.257 447.423 489.805 493.795 489.805 550.998C489.805 608.201 439.257 654.573 376.902 654.573Z" stroke="#1B1A18" stroke-width="5.09032" stroke-miterlimit="10"/>
<path d="M378.041 357.143C425.72 357.143 464.372 320.429 464.372 275.14C464.372 229.851 425.72 193.137 378.041 193.137C330.362 193.137 291.71 229.851 291.71 275.14C291.71 320.429 330.362 357.143 378.041 357.143Z" fill="#BF1B2C"/>
<path d="M378.041 13V190.189" stroke="white" stroke-width="2.37548" stroke-miterlimit="10"/>
<path d="M378.763 190.189C378.763 190.189 418.103 186.037 411.546 175.657C407.175 167.353 389.691 169.429 378.763 190.189Z" stroke="white" stroke-width="2.37548" stroke-miterlimit="10"/>
<path d="M377.32 190.189C377.32 190.189 337.979 186.037 344.536 175.657C348.907 167.353 366.392 169.429 377.32 190.189Z" stroke="white" stroke-width="2.37548" stroke-miterlimit="10"/>
<path d="M297.83 247.57C304.124 242.753 304.387 247.757 314.287 244.061C318.418 242.525 322.199 236.961 328.363 235.529C333.018 234.428 339.137 237.501 345.039 236.691C349.934 236.006 354.83 231.335 360.644 230.982C365.671 230.671 371.2 234.636 376.926 234.636C382.653 234.636 388.444 230.671 393.624 231.003C399.569 231.377 404.596 236.069 409.645 236.754C415.677 237.584 421.928 234.532 426.736 235.653C433.03 237.107 436.986 242.67 441.27 244.207C451.389 247.84 451.477 242.857 458.165 247.487" stroke="#FFF000" stroke-width="3.9409" stroke-miterlimit="10"/>
<path d="M300.584 311.926C306.878 316.742 302.791 318.818 312.692 322.514C316.823 324.05 323.248 321.704 329.412 323.157C334.067 324.257 338.504 329.323 344.427 330.133C349.322 330.818 355.136 327.226 360.95 327.579C365.977 327.89 371.222 332.209 376.948 332.209C382.674 332.209 388.182 327.87 393.362 327.558C399.307 327.185 405.252 330.755 410.3 330.05C416.333 329.219 420.922 324.133 425.731 323.012C432.025 321.559 438.56 323.905 442.844 322.368C452.963 318.735 448.92 316.493 455.608 311.843" stroke="#FFF000" stroke-width="3.9409" stroke-miterlimit="10"/>
<path d="M378.041 262.747L381.8 272.774L391.898 268.207L387.09 277.798L397.646 281.369L387.09 284.94L391.898 294.531L381.8 289.964L378.041 299.991L374.282 289.964L364.185 294.531L368.993 284.94L358.437 281.369L368.993 277.798L364.185 268.207L374.282 272.774L378.041 262.747Z" fill="#FFF000"/>
<path d="M331.007 265.238L328.997 275.701L340.143 276.553L330.942 282.594L338.198 290.69L327.183 288.76L326.286 299.368L319.926 290.607L311.424 297.5L313.435 287.037L302.289 286.185L311.49 280.165L304.234 272.068L315.249 273.978L316.145 263.391L322.505 272.131L331.007 265.238Z" fill="#FFF000"/>
<path d="M425.075 265.238L433.577 272.131L439.937 263.391L440.833 273.978L451.849 272.068L444.592 280.165L453.794 286.185L442.647 287.037L444.658 297.5L436.156 290.607L429.796 299.368L428.9 288.76L417.885 290.69L425.141 282.594L415.939 276.553L427.086 275.701L425.075 265.238Z" fill="#FFF000"/>
<path d="M378.041 357.143C425.72 357.143 464.372 320.429 464.372 275.14C464.372 229.851 425.72 193.137 378.041 193.137C330.362 193.137 291.71 229.851 291.71 275.14C291.71 320.429 330.362 357.143 378.041 357.143Z" stroke="#6FAFFC" stroke-width="1.69677" stroke-miterlimit="10"/>
<path d="M126.075 350.883C75.1729 350.883 33.9085 313.45 33.9085 267.274C33.9085 221.098 75.1729 183.665 126.075 183.665C176.977 183.665 218.242 221.098 218.242 267.274C218.242 313.45 176.977 350.883 126.075 350.883Z" fill="white"/>
<path d="M126.075 0V180.659" stroke="white" stroke-width="2.38" stroke-miterlimit="10"/>
<path d="M125.305 180.659C125.305 180.659 83.3049 176.425 90.3049 165.842C94.9716 157.375 113.638 159.492 125.305 180.659Z" stroke="white" stroke-width="2.38" stroke-miterlimit="10"/>
<path d="M126.845 180.659C126.845 180.659 168.845 176.425 161.845 165.842C157.178 157.375 138.512 159.492 126.845 180.659Z" stroke="white" stroke-width="2.38" stroke-miterlimit="10"/>
<path d="M211.708 239.165C204.988 234.255 204.708 239.356 194.138 235.588C189.728 234.022 185.692 228.349 179.112 226.889C174.142 225.767 167.608 228.9 161.308 228.074C156.082 227.376 150.855 222.613 144.648 222.253C139.282 221.936 133.378 225.978 127.265 225.978C121.152 225.978 114.968 221.936 109.438 222.274C103.092 222.655 97.7249 227.439 92.3349 228.138C85.8949 228.984 79.2216 225.873 74.0883 227.016C67.3683 228.497 63.1449 234.17 58.5716 235.736C47.7683 239.441 47.6749 234.361 40.5349 239.081" stroke="white" stroke-width="2.38" stroke-miterlimit="10"/>
<path d="M208.768 304.784C202.048 309.695 206.412 311.811 195.842 315.579C191.432 317.145 184.572 314.753 177.992 316.235C173.022 317.357 168.285 322.522 161.962 323.347C156.735 324.046 150.528 320.384 144.322 320.744C138.955 321.061 133.355 325.464 127.242 325.464C121.128 325.464 115.248 321.04 109.718 320.723C103.372 320.342 97.025 323.982 91.635 323.263C85.195 322.416 80.295 317.23 75.1616 316.087C68.4416 314.605 61.465 316.997 56.8916 315.431C46.0883 311.727 50.405 309.441 43.265 304.699" stroke="white" stroke-width="2.38" stroke-miterlimit="10"/>
<path d="M126.075 254.637L122.062 264.86L111.282 260.204L116.415 269.983L105.145 273.623L116.415 277.264L111.282 287.043L122.062 282.386L126.075 292.61L130.088 282.386L140.868 287.043L135.735 277.264L147.005 273.623L135.735 269.983L140.868 260.204L130.088 264.86L126.075 254.637Z" fill="#1D1E44"/>
<path d="M176.288 257.178L178.435 267.846L166.535 268.714L176.358 274.873L168.612 283.128L180.372 281.16L181.328 291.976L188.118 283.044L197.195 290.071L195.048 279.403L206.948 278.535L197.125 272.397L204.872 264.142L193.112 266.089L192.155 255.294L185.365 264.205L176.288 257.178Z" fill="#1D1E44"/>
<path d="M75.8618 257.178L66.7851 264.205L59.9951 255.294L59.0384 266.089L47.2785 264.142L55.0251 272.397L45.2018 278.535L57.1018 279.403L54.9551 290.071L64.0318 283.044L70.8218 291.976L71.7784 281.16L83.5384 283.128L75.7918 274.873L85.6151 268.714L73.7151 267.846L75.8618 257.178Z" fill="#1D1E44"/>
</svg>
