<svg width="1943" height="317" viewBox="0 0 1943 317" fill="none" xmlns="http://www.w3.org/2000/svg">
<rect width="1943" height="142.704" fill="#9AB97F"/>
<path fill-rule="evenodd" clip-rule="evenodd" d="M94.8187 213.505L90.8399 213.505L90.8399 235.369L85 235.369L85 185.624L90.8399 185.624L90.8399 205.548L94.8187 205.548L94.8187 185.624L100.658 185.624L100.658 235.369L94.8187 235.369L94.8187 213.505Z" fill="white"/>
<path fill-rule="evenodd" clip-rule="evenodd" d="M110.896 236.024L109.745 236.024C105.04 236.024 102.53 232.743 102.53 226.58L102.53 216.6L108.386 216.6L108.386 225.308C108.386 227.585 108.961 228.79 110.321 228.79C111.732 228.79 112.255 227.585 112.255 224.504L112.255 223.365C112.255 219.816 111.994 218.544 109.851 214.994L106.085 208.832C103.576 204.679 102.844 201.464 102.844 196.507L102.844 194.9C102.844 188.269 105.458 185.188 110.111 185.188L111.21 185.188C116.071 185.188 117.954 187.934 117.954 193.829L117.954 202L112.255 202L112.255 194.833C112.255 193.159 111.994 191.886 110.582 191.886C109.17 191.886 108.856 193.025 108.856 195.369L108.856 196.307C108.856 199.12 109.275 200.66 111.261 203.942L115.026 210.171C117.692 214.592 118.529 217.138 118.529 222.763L118.529 224.371C118.529 231.671 116.071 236.024 110.896 236.024Z" fill="white"/>
<path fill-rule="evenodd" clip-rule="evenodd" d="M133.706 185.624L133.706 192.844L126.251 192.844L126.251 205.883L132.101 205.883L132.101 213.439L126.251 213.439L126.251 227.814L134.016 227.814L134.016 235.369L120.401 235.369L120.401 185.624L133.706 185.624Z" fill="white"/>
<path fill-rule="evenodd" clip-rule="evenodd" d="M149.294 218.587L147.708 200.199L146.175 218.587L149.294 218.587ZM149.927 226.007L145.594 226.007L144.801 235.369L139.462 235.369L144.272 185.624L151.355 185.624L156.482 235.369L150.721 235.369L149.927 226.007Z" fill="white"/>
<path fill-rule="evenodd" clip-rule="evenodd" d="M163.284 206.083L164.864 206.083C166.496 206.083 167.023 204.746 167.023 202.539L167.023 195.586C167.023 193.446 166.654 192.377 164.864 192.377L163.284 192.377L163.284 206.083ZM163.284 235.369L157.333 235.369L157.333 185.624L166.971 185.624C170.921 185.624 172.922 187.763 172.922 193.313L172.922 202.138C172.922 206.284 171.394 207.888 170.341 208.49C171.658 209.225 172.922 210.563 172.922 213.905L172.922 231.357C172.922 233.362 173.237 234.297 173.502 235.033L173.502 235.369L167.602 235.369C167.339 234.833 167.023 233.964 167.023 231.29L167.023 216.313C167.023 214.106 166.708 213.17 164.811 213.17L163.284 213.17L163.284 235.369Z" fill="white"/>
<path fill-rule="evenodd" clip-rule="evenodd" d="M184.574 192.844L184.574 235.369L178.768 235.369L178.768 192.844L173.842 192.844L173.842 185.624L189.5 185.624L189.5 192.844L184.574 192.844Z" fill="white"/>
<path fill-rule="evenodd" clip-rule="evenodd" d="M203.075 218.587L201.489 200.199L199.957 218.587L203.075 218.587ZM203.709 226.007L199.375 226.007L198.582 235.369L193.244 235.369L198.054 185.624L205.136 185.624L210.263 235.369L204.502 235.369L203.709 226.007Z" fill="white"/>
<path fill-rule="evenodd" clip-rule="evenodd" d="M216.574 185.624L221.603 212.301L221.603 185.624L226.943 185.624L226.943 235.369L222.174 235.369L216.574 206.751L216.574 235.369L211.285 235.369L211.285 185.624L216.574 185.624Z" fill="white"/>
<path fill-rule="evenodd" clip-rule="evenodd" d="M235.223 228.147L236.633 228.147C238.407 228.147 238.929 226.944 238.929 224.27L238.929 196.255C238.929 193.38 238.356 192.377 236.893 192.377L235.223 192.377L235.223 228.147ZM229.325 185.624L238.356 185.624C243.417 185.624 244.983 189.301 244.983 195.185L244.983 225.473C244.983 231.557 243.209 235.369 238.356 235.369L229.325 235.369L229.325 185.624Z" fill="white"/>
<path fill-rule="evenodd" clip-rule="evenodd" d="M90.8981 279.419L92.307 279.419C94.0815 279.419 94.6038 278.216 94.6038 275.542L94.6038 247.527C94.6038 244.652 94.0299 243.648 92.5681 243.648L90.8981 243.648L90.8981 279.419ZM85 236.896L94.0299 236.896C99.0917 236.896 100.658 240.573 100.658 246.456L100.658 276.746C100.658 282.829 98.8834 286.64 94.0299 286.64L85 286.64L85 236.896Z" fill="white"/>
<path fill-rule="evenodd" clip-rule="evenodd" d="M116.175 236.896L116.175 244.117L108.721 244.117L108.721 257.154L114.571 257.154L114.571 264.71L108.721 264.71L108.721 279.086L116.486 279.086L116.486 286.64L102.871 286.64L102.871 236.896L116.175 236.896Z" fill="white"/>
<path fill-rule="evenodd" clip-rule="evenodd" d="M126.043 287.295L124.892 287.295C120.187 287.295 117.677 284.014 117.677 277.851L117.677 267.872L123.533 267.872L123.533 276.579C123.533 278.856 124.108 280.062 125.467 280.062C126.879 280.062 127.403 278.856 127.403 275.776L127.403 274.637C127.403 271.087 127.141 269.815 124.998 266.265L121.233 260.102C118.723 255.95 117.991 252.736 117.991 247.781L117.991 246.172C117.991 239.541 120.605 236.46 125.259 236.46L126.357 236.46C131.219 236.46 133.101 239.208 133.101 245.1L133.101 253.273L127.403 253.273L127.403 246.105C127.403 244.431 127.141 243.158 125.729 243.158C124.318 243.158 124.004 244.297 124.004 246.641L124.004 247.579C124.004 250.392 124.422 251.933 126.408 255.214L130.173 261.442C132.839 265.863 133.676 268.408 133.676 274.035L133.676 275.643C133.676 282.941 131.219 287.295 126.043 287.295Z" fill="white"/>
<mask id="mask0_906_2725" style="mask-type:alpha" maskUnits="userSpaceOnUse" x="135" y="236" width="25" height="52">
<path d="M135.229 236.482L159.11 236.482L159.11 287.25L135.229 287.25L135.229 236.482Z" fill="white"/>
</mask>
<g mask="url(#mask0_906_2725)">
<path fill-rule="evenodd" clip-rule="evenodd" d="M135.229 286.628L141.186 286.628L141.186 236.95L135.229 236.95L135.229 286.628Z" fill="white"/>
<path fill-rule="evenodd" clip-rule="evenodd" d="M148.936 287.297C145.457 287.297 143.244 283.358 143.244 278.216L143.244 247.166C143.244 241.625 144.93 236.482 150.571 236.482L151.73 236.482C158.109 236.482 158.847 241.758 158.847 247.635L158.847 252.709L153.048 252.709L153.048 247.099C153.048 244.897 152.626 243.695 151.151 243.695C149.886 243.695 149.305 244.897 149.305 247.099L149.305 276.146C149.305 278.483 150.043 279.685 151.256 279.685C152.785 279.685 153.469 278.35 153.469 276.48L153.469 264.06L150.781 264.06L150.781 256.448L159.11 256.448L159.11 286.629L155.736 286.629C155.684 286.362 155.209 283.892 154.735 281.755C154.313 283.425 152.31 287.297 149.305 287.297L148.936 287.297Z" fill="white"/>
</g>
<path fill-rule="evenodd" clip-rule="evenodd" d="M166.365 236.896L171.395 263.572L171.395 236.896L176.735 236.896L176.735 286.64L171.965 286.64L166.365 258.023L166.365 286.64L161.077 286.64L161.077 236.896L166.365 236.896Z" fill="white"/>
<path fill-rule="evenodd" clip-rule="evenodd" d="M192.248 287.295L191.098 287.295C186.393 287.295 183.883 284.014 183.883 277.851L183.883 267.872L189.739 267.872L189.739 276.579C189.739 278.856 190.314 280.062 191.674 280.062C193.085 280.062 193.607 278.856 193.607 275.776L193.607 274.637C193.607 271.087 193.347 269.815 191.202 266.265L187.438 260.102C184.929 255.95 184.197 252.736 184.197 247.781L184.197 246.172C184.197 239.541 186.811 236.46 191.464 236.46L192.562 236.46C197.424 236.46 199.306 239.208 199.306 245.1L199.306 253.273L193.607 253.273L193.607 246.105C193.607 244.431 193.347 243.158 191.935 243.158C190.523 243.158 190.21 244.297 190.21 246.641L190.21 247.579C190.21 250.392 190.628 251.933 192.614 255.214L196.379 261.442C199.045 265.863 199.881 268.408 199.881 274.035L199.881 275.643C199.881 282.941 197.424 287.295 192.248 287.295Z" fill="white"/>
<path fill-rule="evenodd" clip-rule="evenodd" d="M211.151 276.593L211.151 265.022L216.901 265.022L216.901 276.526C216.901 281.879 215.554 287.295 209.908 287.295L208.613 287.295C202.707 287.295 201.413 281.811 201.413 276.795L201.413 246.427C201.413 241.344 203.122 236.46 208.406 236.46L209.753 236.46C216.176 236.46 216.901 241.946 216.901 246.829L216.901 255.724L211.151 255.724L211.151 246.962C211.151 244.822 210.633 243.685 209.184 243.685C207.732 243.685 207.37 244.756 207.37 246.962L207.37 276.526C207.37 278.734 207.94 279.938 209.235 279.938C210.633 279.938 211.151 278.6 211.151 276.593Z" fill="white"/>
<path fill-rule="evenodd" clip-rule="evenodd" d="M228.591 264.777L224.612 264.777L224.612 286.64L218.773 286.64L218.773 236.896L224.612 236.896L224.612 256.82L228.591 256.82L228.591 236.896L234.431 236.896L234.431 286.64L228.591 286.64L228.591 264.777Z" fill="white"/>
<path fill-rule="evenodd" clip-rule="evenodd" d="M246.794 247.497C246.794 244.889 246.114 243.685 244.754 243.685C243.237 243.685 242.661 244.956 242.661 247.497L242.661 276.126C242.661 278.266 243.132 279.938 244.806 279.938C246.376 279.938 246.794 278.266 246.794 276.126L246.794 247.497ZM252.812 275.591C252.812 282.546 250.98 287.295 245.277 287.295L244.282 287.295C238.631 287.295 236.644 282.546 236.644 275.591L236.644 247.898C236.644 241.009 238.684 236.46 244.23 236.46L245.225 236.46C250.98 236.46 252.812 241.009 252.812 247.831L252.812 275.591Z" fill="white"/>
<path fill-rule="evenodd" clip-rule="evenodd" d="M264.665 247.497C264.665 244.889 263.985 243.685 262.625 243.685C261.107 243.685 260.531 244.956 260.531 247.497L260.531 276.126C260.531 278.266 261.002 279.938 262.676 279.938C264.247 279.938 264.665 278.266 264.665 276.126L264.665 247.497ZM270.683 275.591C270.683 282.546 268.851 287.295 263.148 287.295L262.153 287.295C256.502 287.295 254.514 282.546 254.514 275.591L254.514 247.898C254.514 241.009 256.554 236.46 262.101 236.46L263.096 236.46C268.851 236.46 270.683 241.009 270.683 247.831L270.683 275.591Z" fill="white"/>
<path fill-rule="evenodd" clip-rule="evenodd" d="M278.795 236.896L278.795 278.951L286 278.951L286 286.64L272.895 286.64L272.895 236.896L278.795 236.896Z" fill="white"/>
<path d="M1422.55 236.546V235.781L1425.61 235.016V202.376L1422.55 201.611V200.846L1456.47 200.846V201.611L1453.41 202.376V235.016L1456.47 235.781V236.546H1441.93V235.781L1444.99 235.016L1444.99 202.121H1434.03L1434.03 235.016L1437.09 235.781V236.546L1422.55 236.546ZM1474.81 237.311C1470.46 237.311 1467.07 236.121 1464.66 233.741C1462.24 231.327 1461.04 228.012 1461.04 223.796C1461.04 221.042 1461.56 218.645 1462.62 216.605C1463.67 214.565 1465.13 213.001 1467 211.913C1468.91 210.825 1471.08 210.281 1473.53 210.281C1475.98 210.281 1478.12 210.74 1479.96 211.658C1481.83 212.576 1483.26 213.817 1484.24 215.381C1485.26 216.911 1485.77 218.611 1485.77 220.481C1485.77 221.331 1485.69 222.062 1485.52 222.674L1485.26 223.541C1483.8 223.847 1482.22 224.102 1480.52 224.306C1476.95 224.816 1473.35 225.071 1469.71 225.071C1469.71 229.015 1470.25 231.837 1471.34 233.537C1472.43 235.203 1473.92 236.036 1475.83 236.036C1477.15 236.036 1478.38 235.73 1479.5 235.118C1480.66 234.472 1481.56 233.639 1482.2 232.619C1482.88 231.565 1483.22 230.494 1483.22 229.406H1484.5C1484.5 230.766 1484.09 232.058 1483.27 233.282C1482.46 234.506 1481.32 235.492 1479.86 236.24C1478.39 236.954 1476.71 237.311 1474.81 237.311ZM1469.71 223.796C1471.88 223.796 1473.65 223.711 1475.01 223.541C1475.59 223.507 1476.2 223.422 1476.85 223.286C1476.88 223.116 1476.97 222.742 1477.1 222.164C1477.27 221.314 1477.36 220.413 1477.36 219.461C1477.36 216.639 1476.98 214.582 1476.24 213.29C1475.49 211.964 1474.59 211.301 1473.53 211.301C1470.98 211.301 1469.71 215.466 1469.71 223.796ZM1491.37 237.311C1489.84 237.311 1488.65 236.903 1487.8 236.087C1486.95 235.271 1486.53 234.149 1486.53 232.721C1486.53 231.599 1486.9 230.647 1487.65 229.865C1488.43 229.049 1489.33 228.641 1490.35 228.641C1490.62 228.641 1490.9 228.675 1491.17 228.743C1491.44 228.777 1491.63 228.794 1491.73 228.794L1492.39 228.896V235.781C1493.21 235.407 1493.92 234.659 1494.53 233.537C1495.15 232.415 1495.54 230.528 1495.71 227.876L1496.73 212.831L1493.16 211.811V211.046L1516.87 211.046V211.811L1513.81 212.576V235.016L1516.87 235.781V236.546L1502.59 236.546V235.781L1505.65 235.016V212.321L1498.26 212.321L1497.24 227.876C1497.03 231.106 1496.39 233.486 1495.3 235.016C1494.21 236.546 1492.9 237.311 1491.37 237.311ZM1520.95 236.546V235.781L1524.01 235.016V212.576L1520.95 211.811V211.046L1535.23 211.046V211.811L1532.17 212.576V229.406L1540.33 215.381V212.576L1537.27 211.811V211.046H1551.55V211.811L1548.49 212.576V235.016L1551.55 235.781V236.546H1537.27V235.781L1540.33 235.016V218.186L1532.17 232.211V235.016L1535.23 235.781V236.546L1520.95 236.546ZM1555.62 236.546V235.781L1558.68 235.016V212.576L1555.62 211.811V211.046L1569.9 211.046V211.811L1566.84 212.576V223.031L1574.49 223.031V212.576L1571.43 211.811V211.046H1585.71V211.811L1582.65 212.576V235.016L1585.71 235.781V236.546H1571.43V235.781L1574.49 235.016V224.306L1566.84 224.306V235.016L1569.9 235.781V236.546L1555.62 236.546ZM1601.02 235.781L1605.1 234.251L1619.12 200.336H1620.65L1635.19 235.016L1637.74 235.781V236.546H1631.62C1629.85 236.546 1628.4 236.155 1627.28 235.373C1626.16 234.557 1625.33 233.503 1624.78 232.211L1622.18 226.091L1609.99 226.091L1606.63 234.251L1610.45 235.781V236.546H1601.02L1601.02 235.781ZM1610.5 224.816L1621.67 224.816L1616.06 211.403L1610.5 224.816ZM1638.74 235.781L1641.8 235.016V212.576L1638.74 211.811V211.046L1653.02 211.046V211.811L1649.96 212.576V222.521H1651.75C1652.73 222.521 1653.58 222.215 1654.3 221.603C1655.01 220.957 1655.52 220.158 1655.83 219.206L1657.1 214.616C1657.92 211.896 1659.45 210.536 1661.69 210.536C1663.22 210.536 1664.41 210.944 1665.26 211.76C1666.11 212.576 1666.54 213.698 1666.54 215.126C1666.54 216.418 1666.18 217.421 1665.46 218.135C1664.78 218.849 1663.87 219.206 1662.71 219.206C1662.23 219.206 1661.76 219.172 1661.28 219.104L1660.67 218.951V212.066C1659.65 212.338 1658.97 213.188 1658.63 214.616L1657.36 219.206C1657.02 220.396 1656.45 221.348 1655.67 222.062C1655.4 222.334 1655.03 222.572 1654.55 222.776H1656.08C1658.09 222.776 1659.65 223.184 1660.77 224C1661.93 224.782 1662.74 225.819 1663.22 227.111L1665.77 235.016L1668.32 235.781V236.546H1662.97C1661.16 236.546 1659.7 236.138 1658.58 235.322C1657.49 234.506 1656.74 233.469 1656.34 232.211L1653.53 223.796L1649.96 223.796V235.016L1653.02 235.781V236.546L1638.74 236.546V235.781ZM1668.07 235.271H1672.15C1672.69 234.897 1673.28 234.302 1673.93 233.486C1675.12 231.99 1675.8 230.12 1675.97 227.876L1676.99 212.831L1673.42 211.811V211.046L1697.65 211.046V211.811L1694.59 212.576V235.271L1699.18 235.271V244.961H1697.65C1696.76 244.383 1696.03 243.686 1695.45 242.87C1694.02 241.034 1693.31 238.926 1693.31 236.546L1673.93 236.546C1673.93 238.892 1673.2 241 1671.74 242.87C1671.16 243.686 1670.45 244.383 1669.6 244.961H1668.07L1668.07 235.271ZM1686.43 235.271V212.321H1678.52L1677.5 227.876C1677.33 230.018 1676.68 231.888 1675.56 233.486C1675.05 234.2 1674.51 234.795 1673.93 235.271L1686.43 235.271ZM1707.6 247.511C1706.07 247.511 1704.88 247.103 1704.03 246.287C1703.18 245.471 1702.76 244.349 1702.76 242.921C1702.76 241.629 1703.1 240.626 1703.78 239.912C1704.49 239.198 1705.43 238.841 1706.58 238.841C1706.85 238.841 1707.13 238.858 1707.4 238.892C1707.67 238.96 1707.86 238.994 1707.96 238.994L1708.62 239.096L1708.62 245.981C1709.61 245.811 1710.48 245.267 1711.22 244.349C1711.97 243.431 1712.8 241.85 1713.72 239.606L1714.74 237.056L1701.48 212.576L1698.93 211.811V211.046H1705.31C1707.08 211.046 1708.47 211.42 1709.49 212.168C1710.54 212.882 1711.44 213.953 1712.19 215.381L1718.57 227.162L1723.92 213.341L1720.1 211.811V211.046L1729.53 211.046V211.811L1725.45 213.341L1715.25 239.606C1714.16 242.394 1713.01 244.4 1711.78 245.624C1710.56 246.882 1709.17 247.511 1707.6 247.511ZM1730.78 237.311C1729.25 237.311 1728.06 236.903 1727.21 236.087C1726.36 235.271 1725.94 234.149 1725.94 232.721C1725.94 231.599 1726.31 230.647 1727.06 229.865C1727.84 229.049 1728.74 228.641 1729.76 228.641C1730.04 228.641 1730.31 228.675 1730.58 228.743C1730.85 228.777 1731.04 228.794 1731.14 228.794L1731.8 228.896V235.781C1732.62 235.407 1733.33 234.659 1733.95 233.537C1734.56 232.415 1734.95 230.528 1735.12 227.876L1736.14 212.831L1732.57 211.811V211.046L1756.28 211.046V211.811L1753.22 212.576V235.016L1756.28 235.781V236.546L1742 236.546V235.781L1745.06 235.016V212.321H1737.67L1736.65 227.876C1736.44 231.106 1735.8 233.486 1734.71 235.016C1733.62 236.546 1732.31 237.311 1730.78 237.311ZM1765.97 247.511C1764.44 247.511 1763.25 247.103 1762.4 246.287C1761.55 245.471 1761.13 244.349 1761.13 242.921C1761.13 241.629 1761.47 240.626 1762.15 239.912C1762.86 239.198 1763.8 238.841 1764.95 238.841C1765.23 238.841 1765.5 238.858 1765.77 238.892C1766.04 238.96 1766.23 238.994 1766.33 238.994L1766.99 239.096L1766.99 245.981C1767.98 245.811 1768.85 245.267 1769.59 244.349C1770.34 243.431 1771.18 241.85 1772.09 239.606L1773.11 237.056L1759.85 212.576L1757.3 211.811V211.046L1763.68 211.046C1765.45 211.046 1766.84 211.42 1767.86 212.168C1768.91 212.882 1769.82 213.953 1770.56 215.381L1776.94 227.162L1782.29 213.341L1778.47 211.811V211.046H1787.9V211.811L1783.82 213.341L1773.62 239.606C1772.54 242.394 1771.38 244.4 1770.16 245.624C1768.93 246.882 1767.54 247.511 1765.97 247.511ZM1788.9 236.546V235.781L1791.96 235.016V212.576L1788.9 211.811V211.046H1803.18V211.811L1800.12 212.576V223.031L1807.77 223.031V212.576L1804.71 211.811V211.046L1818.99 211.046V211.811L1815.93 212.576V235.016L1818.99 235.781V236.546L1804.71 236.546V235.781L1807.77 235.016V224.306L1800.12 224.306V235.016L1803.18 235.781V236.546H1788.9ZM1422.55 294.781L1425.61 294.016L1425.61 261.376L1422.55 260.611V259.846H1449.58V269.026H1448.05C1447.4 268.516 1446.84 267.87 1446.37 267.088C1445.28 265.252 1444.74 263.263 1444.74 261.121H1434.03V274.636H1436.83C1442.44 274.636 1446.47 275.537 1448.92 277.339C1451.4 279.141 1452.64 281.725 1452.64 285.091C1452.64 288.457 1451.4 291.041 1448.92 292.843C1446.47 294.645 1442.44 295.546 1436.83 295.546H1422.55V294.781ZM1436.83 294.271C1438.97 294.271 1440.69 293.489 1441.98 291.925C1443.31 290.327 1443.97 288.049 1443.97 285.091C1443.97 282.133 1443.31 279.872 1441.98 278.308C1440.69 276.71 1438.97 275.911 1436.83 275.911H1434.03V294.271H1436.83ZM1455.7 293.251C1455.7 291.245 1456.09 289.426 1456.87 287.794C1457.69 286.128 1458.67 284.683 1459.83 283.459C1460.98 282.235 1462.5 280.79 1464.37 279.124C1466.1 277.594 1467.46 276.319 1468.45 275.299C1469.43 274.245 1470.27 273.072 1470.95 271.78C1471.63 270.454 1471.97 269.026 1471.97 267.496C1471.97 265.252 1471.42 263.501 1470.33 262.243C1469.25 260.985 1467.83 260.356 1466.1 260.356C1465.11 260.356 1464.11 260.492 1463.09 260.764L1462.02 261.121V269.281L1461.36 269.434C1460.81 269.502 1460.35 269.536 1459.98 269.536C1458.82 269.536 1457.89 269.196 1457.18 268.516C1456.5 267.802 1456.16 266.867 1456.16 265.711C1456.16 264.623 1456.56 263.569 1457.38 262.549C1458.23 261.529 1459.47 260.696 1461.1 260.05C1462.77 259.404 1464.77 259.081 1467.12 259.081C1471.71 259.081 1475.11 259.999 1477.32 261.835C1479.53 263.671 1480.64 266.238 1480.64 269.536C1480.64 271.61 1480.09 273.395 1479 274.891C1477.95 276.387 1476.64 277.628 1475.08 278.614C1473.55 279.6 1471.49 280.722 1468.91 281.98C1466.73 283.034 1464.96 283.969 1463.6 284.785C1462.28 285.567 1461.03 286.519 1459.88 287.641C1458.76 288.763 1457.96 290.038 1457.48 291.466H1476.35C1476.59 289.63 1477.17 288.1 1478.09 286.876C1478.46 286.298 1478.9 285.788 1479.41 285.346H1480.94V295.546L1455.7 295.546V293.251ZM1493.94 295.546V294.781L1497.51 293.761V286.111H1482.98L1481.96 284.581L1501.08 259.336L1505.93 259.336V283.816H1511.28V286.111H1505.93V293.761L1509.5 294.781V295.546L1493.94 295.546ZM1484.76 283.816H1497.51L1497.51 266.986L1484.76 283.816ZM1512.03 294.271H1516.11C1516.92 293.659 1517.76 292.775 1518.61 291.619C1520.34 289.137 1521.29 286.196 1521.46 282.796L1522.48 261.631L1518.91 260.611V259.846L1545.69 259.846V260.611L1542.63 261.376L1542.63 294.271H1547.47V304.216H1545.94C1545.13 303.638 1544.4 302.89 1543.75 301.972C1542.32 300 1541.61 297.858 1541.61 295.546L1517.89 295.546C1517.89 297.824 1517.16 299.966 1515.7 301.972C1515.05 302.89 1514.34 303.638 1513.56 304.216H1512.03V294.271ZM1534.21 294.271V261.121L1524.01 261.121L1522.99 282.796C1522.82 286.23 1521.92 289.171 1520.29 291.619C1519.54 292.741 1518.74 293.625 1517.89 294.271H1534.21ZM1562.27 296.311C1559.82 296.311 1557.61 295.818 1555.64 294.832C1553.7 293.812 1552.19 292.469 1551.1 290.803C1550.05 289.137 1549.52 287.318 1549.52 285.346H1550.8C1550.8 287.046 1551.26 288.644 1552.17 290.14C1553.13 291.602 1554.4 292.792 1556 293.71C1557.6 294.594 1559.35 295.036 1561.25 295.036C1563.84 295.036 1565.84 294.288 1567.27 292.792C1568.7 291.296 1569.41 289.154 1569.41 286.366C1569.41 283.51 1568.75 281.317 1567.42 279.787C1566.1 278.223 1564.38 277.441 1562.27 277.441H1558.45V276.166H1561.76C1563.63 276.166 1565.11 275.503 1566.2 274.177C1567.32 272.817 1567.88 270.845 1567.88 268.261C1567.88 265.677 1567.34 263.722 1566.25 262.396C1565.16 261.036 1563.75 260.356 1562.02 260.356C1560.52 260.356 1559.18 260.781 1557.99 261.631C1556.83 262.481 1555.86 263.552 1555.08 264.844C1554.23 266.17 1553.57 267.649 1553.09 269.281H1551.05V259.591H1552.33C1552.4 259.625 1552.74 259.863 1553.35 260.305C1553.96 260.815 1554.55 261.512 1555.13 262.396C1555.88 261.716 1556.63 261.172 1557.38 260.764C1559.28 259.642 1561.17 259.081 1563.04 259.081C1565.89 259.081 1568.34 259.523 1570.38 260.407C1572.42 261.257 1573.95 262.379 1574.97 263.773C1576.03 265.167 1576.55 266.663 1576.55 268.261C1576.55 271.729 1574.68 274.177 1570.94 275.605C1569.31 276.217 1567.44 276.574 1565.33 276.676V276.931C1567.64 277.033 1569.77 277.424 1571.71 278.104C1575.96 279.77 1578.08 282.524 1578.08 286.366C1578.08 288.236 1577.52 289.919 1576.4 291.415C1575.31 292.911 1573.58 294.101 1571.2 294.985C1568.85 295.869 1565.88 296.311 1562.27 296.311ZM1596.71 296.311C1593.96 296.311 1591.46 295.58 1589.21 294.118C1586.97 292.656 1585.18 290.531 1583.86 287.743C1582.57 284.921 1581.92 281.572 1581.92 277.696C1581.92 273.82 1582.57 270.488 1583.86 267.7C1585.18 264.878 1586.97 262.736 1589.21 261.274C1591.46 259.812 1593.96 259.081 1596.71 259.081C1599.46 259.081 1601.96 259.812 1604.21 261.274C1606.45 262.736 1608.22 264.878 1609.51 267.7C1610.84 270.488 1611.5 273.82 1611.5 277.696C1611.5 281.572 1610.84 284.921 1609.51 287.743C1608.22 290.531 1606.45 292.656 1604.21 294.118C1601.96 295.58 1599.46 296.311 1596.71 296.311ZM1596.71 295.291C1600.62 295.291 1602.57 289.426 1602.57 277.696C1602.57 265.966 1600.62 260.101 1596.71 260.101C1592.8 260.101 1590.84 265.966 1590.84 277.696C1590.84 289.426 1592.8 295.291 1596.71 295.291ZM1627.82 296.311C1625.81 296.311 1624.04 295.988 1622.51 295.342C1621.02 294.662 1619.86 293.812 1619.04 292.792C1618.26 291.772 1617.87 290.735 1617.87 289.681C1617.87 288.525 1618.21 287.607 1618.89 286.927C1619.6 286.213 1620.54 285.856 1621.7 285.856C1621.97 285.856 1622.24 285.89 1622.51 285.958C1622.78 285.992 1622.97 286.009 1623.07 286.009L1623.74 286.111V294.271L1624.7 294.679C1625.32 294.917 1626.01 295.036 1626.8 295.036C1628.46 295.036 1629.82 294.594 1630.88 293.71C1631.93 292.826 1632.75 291.194 1633.32 288.814C1633.9 286.434 1634.19 283.068 1634.19 278.716C1633.88 279.226 1633.41 279.736 1632.76 280.246C1631.47 281.266 1629.99 281.776 1628.33 281.776C1625.84 281.776 1623.67 281.317 1621.8 280.399C1619.96 279.447 1618.55 278.138 1617.56 276.472C1616.58 274.806 1616.09 272.919 1616.09 270.811C1616.09 267.173 1617.21 264.317 1619.45 262.243C1621.73 260.135 1624.94 259.081 1629.09 259.081C1633.37 259.081 1636.74 260.611 1639.19 263.671C1641.64 266.731 1642.86 271.406 1642.86 277.696C1642.86 283.816 1641.52 288.457 1638.83 291.619C1636.18 294.747 1632.51 296.311 1627.82 296.311ZM1629.35 280.501C1630.74 280.501 1631.84 279.821 1632.66 278.461C1633.51 277.101 1633.94 274.976 1633.94 272.086C1633.94 267.768 1633.46 264.691 1632.51 262.855C1631.59 261.019 1630.45 260.101 1629.09 260.101C1628.41 260.101 1627.73 260.441 1627.05 261.121C1626.4 261.801 1625.86 262.906 1625.42 264.436C1624.98 265.966 1624.76 267.921 1624.76 270.301C1624.76 272.681 1624.98 274.636 1625.42 276.166C1625.89 277.696 1626.47 278.801 1627.15 279.481C1627.87 280.161 1628.6 280.501 1629.35 280.501Z" fill="white"/>
</svg>
