<svg width="721" height="870" viewBox="0 0 721 870" fill="none" xmlns="http://www.w3.org/2000/svg">
<path d="M639.059 340.497H582.892V869.593H639.059V340.497Z" fill="#8C4838"/>
<path d="M607.59 272.312H0V340.497H607.59V272.312Z" fill="#D69176"/>
<path d="M656.347 272.312H607.59V340.497H656.347V272.312Z" fill="#B76F58"/>
<path d="M582.891 340.497H24.6987V869.593H582.891V340.497Z" fill="#455A64"/>
<path d="M24.6987 340.497V869.593H103.736V512.408H503.856V869.593H582.892V340.497H24.6987Z" fill="#9E5744"/>
<path d="M360.252 256.647C392.363 256.647 418.395 233.303 418.395 204.506C418.395 175.709 392.363 152.364 360.252 152.364C328.14 152.364 302.108 175.709 302.108 204.506C302.108 233.303 328.14 256.647 360.252 256.647Z" fill="#E8EAF6"/>
<path d="M349.08 255.686C349.08 255.686 347.758 255.469 345.278 255.063C344.029 254.907 342.546 254.457 340.761 254.028C338.945 253.653 337.022 252.858 334.783 252.118C330.446 250.385 325.275 247.885 320.169 243.969C315.059 240.093 309.973 234.852 306.082 228.206C302.135 221.605 299.655 213.53 299.331 204.863C299.051 196.215 301.138 186.9 306.111 178.441C311.055 170.01 318.646 162.359 328.26 157.114C333.064 154.509 338.283 152.422 343.772 151.062C345.131 150.683 346.533 150.446 347.918 150.147C349.321 149.926 350.717 149.654 352.137 149.515C353.549 149.325 354.971 149.221 356.395 149.128C357.106 149.064 357.82 149.065 358.533 149.041L359.603 149.013L360.138 149L360.491 149.001L360.743 149.006C363.296 149.028 366.457 149.235 369.205 149.607C372.021 150.011 374.824 150.513 377.545 151.265C378.921 151.592 380.248 152.055 381.592 152.46C382.907 152.939 384.241 153.373 385.517 153.924C388.105 154.951 390.576 156.182 392.956 157.516C402.519 162.84 409.984 170.611 414.783 179.105C417.184 183.362 418.958 187.816 419.956 192.309C420.497 194.546 420.805 196.796 421.037 199.015C421.094 200.13 421.213 201.233 421.21 202.334C421.213 202.883 421.217 203.43 421.221 203.977L421.223 204.386L421.223 204.488C421.218 204.75 421.218 204.616 421.214 204.7L421.2 204.894L421.143 205.67C421.068 206.703 420.992 207.727 420.918 208.746C420.902 209.242 420.807 209.784 420.712 210.323C420.621 210.859 420.531 211.393 420.44 211.924C420.348 212.455 420.257 212.983 420.166 213.51L420.028 214.298L419.82 215.053C419.537 216.054 419.256 217.048 418.978 218.034C418.737 219.027 418.303 219.963 417.947 220.907C417.565 221.844 417.232 222.785 416.819 223.689C416.368 224.578 415.92 225.46 415.478 226.332C415.256 226.766 415.035 227.199 414.815 227.63C414.572 228.05 414.302 228.455 414.05 228.865C410.07 235.468 404.91 240.652 399.736 244.464C394.568 248.316 389.356 250.748 384.991 252.423C382.746 253.146 380.802 253.907 378.992 254.259C377.207 254.67 375.721 255.095 374.457 255.238C371.969 255.615 370.641 255.815 370.641 255.815C370.641 255.815 371.932 255.483 374.352 254.862C375.574 254.61 377.003 254.051 378.701 253.489C379.549 253.205 380.461 252.907 381.385 252.476C382.32 252.078 383.312 251.655 384.361 251.208C388.449 249.245 393.195 246.486 397.826 242.534C402.439 238.585 406.863 233.401 410.197 227.119C410.408 226.728 410.636 226.341 410.836 225.942C411.012 225.532 411.191 225.12 411.369 224.707C411.727 223.883 412.089 223.05 412.454 222.209C412.781 221.358 413.029 220.472 413.324 219.595C413.596 218.711 413.945 217.84 414.103 216.915C414.307 216.003 414.514 215.083 414.721 214.156L414.88 213.461L414.966 212.769C415.024 212.307 415.082 211.843 415.141 211.378C415.202 210.914 415.263 210.448 415.323 209.981C415.388 209.517 415.456 209.052 415.45 208.527C415.478 207.507 415.506 206.479 415.534 205.445L415.555 204.668L415.559 204.473C415.559 204.492 415.565 204.294 415.559 204.491L415.554 204.398L415.534 204.028C415.509 203.532 415.482 203.035 415.456 202.537C415.415 201.541 415.256 200.545 415.163 199.542C414.859 197.545 414.492 195.53 413.912 193.54C413.767 193.043 413.637 192.54 413.481 192.043L412.972 190.559C412.667 189.558 412.22 188.593 411.851 187.599C410.978 185.659 410.065 183.708 408.907 181.847C406.692 178.082 403.813 174.566 400.497 171.371C397.136 168.211 393.314 165.379 389.102 163.035C386.99 161.876 384.803 160.803 382.514 159.918C381.388 159.438 380.208 159.069 379.048 158.652C377.86 158.309 376.691 157.903 375.476 157.628C373.078 156.981 370.607 156.564 368.129 156.223C365.567 155.911 363.363 155.773 360.548 155.741L360.296 155.734L360.17 155.731C360.318 155.732 360.146 155.733 360.146 155.733L359.675 155.743L358.732 155.761C358.104 155.778 357.475 155.769 356.849 155.822C355.595 155.897 354.342 155.976 353.099 156.136C351.847 156.245 350.62 156.482 349.382 156.662C348.164 156.921 346.925 157.113 345.728 157.443C340.888 158.601 336.276 160.408 332.013 162.673C327.792 164.996 323.883 167.733 320.502 170.881C319.628 171.643 318.862 172.491 318.044 173.292C317.298 174.146 316.492 174.959 315.806 175.846C314.344 177.564 313.1 179.401 311.917 181.245C307.34 188.71 305.013 196.945 304.914 204.831C304.94 205.817 304.965 206.796 304.992 207.768C305.014 208.254 304.992 208.741 305.051 209.222C305.111 209.701 305.172 210.18 305.232 210.656C305.358 211.608 305.459 212.557 305.598 213.495C305.802 214.422 306.006 215.342 306.207 216.256C306.306 216.713 306.405 217.169 306.502 217.624C306.644 218.068 306.785 218.51 306.925 218.951C307.208 219.833 307.488 220.707 307.766 221.574C308.078 222.431 308.472 223.252 308.816 224.083C309.19 224.903 309.473 225.751 309.935 226.517C313.188 232.836 317.534 238.071 322.089 242.075C326.661 246.082 331.361 248.904 335.42 250.919C339.558 252.813 342.954 254.028 345.372 254.691C347.792 255.338 349.08 255.686 349.08 255.686Z" fill="#D9DBE8"/>
<path d="M364.062 245.471H357.965L357.204 235.903H364.825L364.062 245.471Z" fill="#6D4C41"/>
<path d="M396.283 234.522C393.753 229.284 386.54 221.393 386.54 221.393L390.158 220.724C389.305 218.477 379.426 205.847 379.426 205.847L384.253 209.158L386.798 207.934C383.763 202.422 376.446 191.951 376.446 191.951L378.671 192.229L380.811 191.231L372.65 181.372L374.984 179.986L360.403 162.138L345.867 179.882L348.724 181.053L339.996 191.63L342.687 192.414L345.2 191.312C345.2 191.312 333.672 207.351 332.736 210.169L335.61 211.023L341.072 207.167C341.072 207.167 331.191 220.492 330.288 222.56L333.452 223.459C333.452 223.459 327.181 232.359 326.047 235.223L341.106 237.454C341.106 237.454 345.104 229.229 347.009 227.788C345.739 231.018 343.358 238.785 343.358 238.785L345.141 238.887L347.521 235.129L347.134 238.996C347.134 238.996 354.872 240.01 359.494 240.01C365.006 240.01 378.446 239.194 383.365 238.533C383.365 238.533 382.254 234.537 381.492 231.408C383.143 232.942 385.302 237.179 385.302 237.179L396.283 234.522Z" fill="#80CBC4"/>
<path d="M350.346 184.65C352.45 184.65 354.156 183.12 354.156 181.233C354.156 179.345 352.45 177.815 350.346 177.815C348.241 177.815 346.535 179.345 346.535 181.233C346.535 183.12 348.241 184.65 350.346 184.65Z" fill="#FF5252"/>
<path d="M376.255 223.602C377.939 223.602 379.304 222.378 379.304 220.869C379.304 219.359 377.939 218.135 376.255 218.135C374.571 218.135 373.207 219.359 373.207 220.869C373.207 222.378 374.571 223.602 376.255 223.602Z" fill="#FF5252"/>
<path d="M332.818 230.436C334.501 230.436 335.866 229.212 335.866 227.703C335.866 226.193 334.501 224.97 332.818 224.97C331.135 224.97 329.771 226.193 329.771 227.703C329.771 229.212 331.135 230.436 332.818 230.436Z" fill="#FF5252"/>
<path d="M355.68 217.452C357.784 217.452 359.49 215.923 359.49 214.035C359.49 212.148 357.784 210.618 355.68 210.618C353.575 210.618 351.869 212.148 351.869 214.035C351.869 215.923 353.575 217.452 355.68 217.452Z" fill="#FF5252"/>
<path d="M367.872 194.217C369.976 194.217 371.682 192.687 371.682 190.8C371.682 188.913 369.976 187.383 367.872 187.383C365.768 187.383 364.062 188.913 364.062 190.8C364.062 192.687 365.768 194.217 367.872 194.217Z" fill="#FF5252"/>
<path d="M365.012 226.575L364.81 230.042L368.635 231.96L364.605 232.281L364.27 236.242L361.834 232.912L357.966 233.522L360.503 230.679L359.219 228.157L362.121 229.041L365.012 226.575Z" fill="white"/>
<path d="M364.17 172.171L363.969 175.638L367.793 177.555L363.763 177.877L363.429 181.837L360.992 178.508L357.124 179.118L359.662 176.275L358.378 173.752L361.278 174.637L364.17 172.171Z" fill="white"/>
<path d="M341.752 215.121L343.793 217.632L347.657 217.027L345.061 219.29L347.321 222.211L343.533 221.132L341.232 223.514L341.204 220.254L338.724 219.152L341.296 218.298L341.752 215.121Z" fill="white"/>
<path d="M372.452 201.507L372.273 204.611L375.695 206.328L372.089 206.615L371.788 210.16L369.608 207.179L366.146 207.726L368.417 205.181L367.268 202.923L369.866 203.715L372.452 201.507Z" fill="white"/>
<path d="M350.191 196.73L351.765 199.498L355.687 199.448L352.726 201.316L353.525 203.852L350.893 202.919L348.199 204.945L348.747 201.721L346.492 200.282L349.182 199.803L350.191 196.73Z" fill="white"/>
<path d="M385.263 222.13L386.839 224.897L390.76 224.849L387.798 226.715L388.597 229.251L385.966 228.318L383.272 230.344L383.82 227.121L381.564 225.682L384.254 225.202L385.263 222.13Z" fill="white"/>
<path d="M408.083 272.366H312.422V269.963C312.422 255.932 325.105 244.557 340.752 244.557H379.753C395.399 244.557 408.083 255.931 408.083 269.963V272.366Z" fill="#FF5252"/>
<path d="M410.531 267.12H309.972V272.367H410.531V267.12Z" fill="#E83A3A"/>
<path d="M80.7409 210.824C80.7409 210.824 120.01 162.595 136.403 162.476C152.796 162.356 202.181 209.94 202.181 209.94L202.734 271.063C202.734 271.063 83.3468 272.776 83.3112 271.932C83.2757 271.087 80.7409 210.824 80.7409 210.824Z" fill="#F1AF78"/>
<path d="M94.2907 239.196C93.8108 236.485 93.6388 217.479 95.5616 203.501C97.4844 189.523 102.972 176.88 104.425 176.478C130.317 169.308 204.094 169.741 199.617 178.307C186.005 204.356 184.241 240.481 181.77 244.184C179.299 247.887 94.2907 239.196 94.2907 239.196Z" fill="white"/>
<path d="M111.935 187.672C111.935 187.672 137.635 181.667 176.727 190.11" stroke="#E6D8D6" stroke-width="4" stroke-miterlimit="10" stroke-linecap="round" stroke-linejoin="round"/>
<path d="M108.269 198.971C108.269 198.971 133.97 192.966 173.061 201.409" stroke="#E6D8D6" stroke-width="4" stroke-miterlimit="10" stroke-linecap="round" stroke-linejoin="round"/>
<path d="M106.754 211.535C106.754 211.535 132.454 205.53 171.546 213.973" stroke="#E6D8D6" stroke-width="4" stroke-miterlimit="10" stroke-linecap="round" stroke-linejoin="round"/>
<path d="M103.389 222.98C103.389 222.98 129.089 216.974 168.181 225.418" stroke="#E6D8D6" stroke-width="4" stroke-miterlimit="10" stroke-linecap="round" stroke-linejoin="round"/>
<path d="M80.7402 210.824C80.7402 210.824 131.824 235.239 135.759 242.386C139.695 249.534 83.3106 271.932 83.3106 271.932L80.7402 210.824Z" fill="#F1AF78"/>
<path d="M202.18 209.94C202.18 209.94 143.106 223.908 144.637 242.128C146.168 260.347 202.733 271.063 202.733 271.063L202.18 209.94Z" fill="#F1AF78"/>
<path d="M157.74 224.946C154.989 225.918 152.298 225.86 149.699 224.158C148.093 226.996 145.902 227.006 143.418 225.597C143.117 228.626 141.034 230.34 137.171 230.739C137.775 232.657 137.2 234.468 134.818 236.117C136.867 238.242 136.587 240.692 135.953 243.192C138.995 241.16 142.268 240.657 145.89 242.456C145.743 239.177 148.383 238.615 152.739 239.725C152.918 236.667 154.994 234.883 159.401 234.668C157.407 232.974 157.447 231.309 159.77 229.675C156.927 228.002 156.197 226.423 157.74 224.946Z" fill="#258A86"/>
<path d="M169.262 254.195C166.883 252.672 164.013 250.661 164.417 247.889C160.732 248.154 157.737 246.515 157.902 243.976C154.686 245.295 151.896 244.639 149.533 242.007C147.901 243.426 145.777 243.925 142.901 243.015C141.792 245.6 139.171 246.641 136.322 247.447C139.92 248.645 142.088 250.791 142.106 254.364C145.347 252.588 147.255 254.24 148.341 258C151.525 256.577 154.381 257.192 156.834 260.317C157.536 257.992 160.682 256.966 163.513 257.84C163.764 254.903 166.985 253.814 169.262 254.195Z" fill="#258A86"/>
<path d="M159.336 252.104C137.623 244.008 121.537 248.321 121.537 248.321" stroke="#303E4E" stroke-width="2" stroke-miterlimit="10" stroke-linecap="round" stroke-linejoin="round"/>
<path d="M153.422 227.873C133.314 238.883 129.319 254.485 129.319 254.485" stroke="#303E4E" stroke-width="2" stroke-miterlimit="10" stroke-linecap="round" stroke-linejoin="round"/>
<path d="M136.376 253.459C135.718 253.182 125.141 228.278 125.141 228.278" stroke="#303E4E" stroke-width="2" stroke-miterlimit="10" stroke-linecap="round" stroke-linejoin="round"/>
<path d="M133.271 229.869L130.367 240.433" stroke="#303E4E" stroke-width="2" stroke-miterlimit="10" stroke-linecap="round" stroke-linejoin="round"/>
<path d="M119.062 233.849C119.395 233.973 129.415 238.24 129.415 238.24" stroke="#303E4E" stroke-width="2" stroke-miterlimit="10" stroke-linecap="round" stroke-linejoin="round"/>
<path d="M134.144 230.578C135.697 230.567 136.946 229.485 136.934 228.162C136.922 226.839 135.654 225.776 134.1 225.787C132.547 225.798 131.298 226.88 131.31 228.203C131.322 229.526 132.591 230.589 134.144 230.578Z" fill="#FE434C"/>
<path d="M124.175 229.135C125.728 229.123 126.978 228.042 126.966 226.719C126.954 225.396 125.685 224.332 124.132 224.344C122.578 224.355 121.329 225.437 121.341 226.76C121.353 228.083 122.622 229.146 124.175 229.135Z" fill="#FE434C"/>
<path d="M119.084 236.244C120.637 236.233 121.886 235.151 121.874 233.828C121.862 232.505 120.593 231.442 119.04 231.453C117.487 231.464 116.238 232.546 116.25 233.869C116.262 235.192 117.53 236.255 119.084 236.244Z" fill="#FE434C"/>
<path d="M570.186 172.369C567.142 169.717 562.966 165.427 559.922 159.342C554.616 148.733 553.485 134.692 558.182 132.819C561.053 131.649 566.359 135.004 568.882 138.67C570.273 140.698 570.708 142.648 570.795 143.897C567.925 138.826 563.662 129.465 567.229 120.26C567.751 119.012 569.491 114.41 571.752 114.41C574.449 114.488 576.536 121.274 578.015 127.515C573.231 114.332 574.71 104.971 576.275 99.7442C576.71 98.418 578.45 92.4894 580.451 92.5674C583.582 92.7234 585.061 107.233 586.018 107.155C587.41 106.999 582.713 78.994 590.889 76.0298C590.976 75.9518 592.716 75.4057 594.369 76.0298C598.805 77.746 597.935 86.3268 597.935 86.8729C601.241 62.6124 604.024 56.0597 606.199 56.0597C607.765 56.0597 610.287 59.4141 610.722 62.7684C610.896 64.1726 610.635 65.4207 610.374 66.2788C611.157 61.0523 612.636 54.8896 615.681 48.259C617.507 44.2806 621.161 36.3238 624.379 36.7138C625.336 36.7918 627.163 37.8059 628.555 44.5146C628.816 40.4582 629.773 34.5296 633.426 28.289C637.514 21.3463 645.082 13.8575 648.04 15.1836C649.171 15.6517 650.04 17.6019 648.91 23.7645C658.304 7.53886 680.573 1.0642 660.653 25.4807C661.61 24.6226 664.741 22.2043 669.439 21.8143C670.048 21.7363 676.746 21.2682 677.963 23.8425C679.442 26.8068 672.918 32.1114 665.785 37.8059C659.087 43.1884 653.085 47.0108 648.997 49.5071C677.789 41.3943 646.213 64.7186 637.862 68.385C637.775 68.463 637.688 68.463 637.688 68.463C637.775 68.697 651.78 63.3925 653.955 66.0448C654.129 66.2788 654.825 67.2149 652.65 70.4132C647.083 78.526 634.992 83.1285 628.033 85.3127C644.56 82.3484 649.084 83.0505 649.78 84.5326C650.997 87.1849 641.951 93.6596 622.553 103.957C626.032 102.084 636.992 96.4678 640.037 99.2761C641.081 100.212 640.82 101.772 640.733 102.396C639.428 111.367 615.594 121.274 611.07 123.069C612.114 122.444 617.942 118.934 624.118 120.962C625.423 121.352 627.163 121.976 627.511 123.069C628.12 125.097 624.031 129.153 603.155 138.046C613.158 136.564 618.638 136.798 619.508 138.67C620.726 141.4 612.723 147.563 595.5 157.08C603.068 156.066 607.243 156.378 608.026 158.016C609.592 161.214 598.544 169.327 574.884 182.355" fill="#126C0F"/>
<path d="M578.276 170.029C581.321 167.376 585.496 163.086 588.541 157.001C593.847 146.392 594.978 132.351 590.28 130.479C587.41 129.309 582.104 132.663 579.581 136.329C578.189 138.357 577.754 140.308 577.667 141.556C580.538 136.485 584.8 127.124 581.234 117.919C580.712 116.671 578.972 112.069 576.71 112.069C574.014 112.147 571.926 118.934 570.447 125.174C575.232 111.991 573.753 102.63 572.187 97.4033C571.752 96.0772 570.012 90.1486 568.012 90.2266C564.88 90.3826 563.401 104.892 562.445 104.814C561.053 104.658 565.75 76.6532 557.573 73.689C557.486 73.6109 555.747 73.0649 554.094 73.689C549.657 75.4051 550.527 83.986 550.527 84.532C547.222 60.2716 544.438 53.7189 542.264 53.7189C540.698 53.7189 538.175 57.0733 537.74 60.4276C537.566 61.8318 537.827 63.0799 538.088 63.938C537.305 58.7114 535.827 52.5488 532.782 45.9181C530.955 41.9397 527.302 33.9829 524.083 34.373C523.126 34.451 521.3 35.4651 519.908 42.1738C519.647 38.1174 518.69 32.1888 515.037 25.9481C510.948 19.0054 503.38 11.5167 500.423 12.8428C499.292 13.3109 498.422 15.2611 499.553 21.4237C490.158 5.19804 467.89 -1.27662 487.81 23.1398C486.853 22.2818 483.721 19.8635 479.024 19.4735C478.415 19.3955 471.717 18.9274 470.499 21.5017C469.02 24.466 475.545 29.7705 482.677 35.4651C489.375 40.8476 495.378 44.67 499.466 47.1663C470.673 39.0535 502.25 62.3778 510.6 66.0442C510.687 66.1222 510.774 66.1222 510.774 66.1222C510.687 66.3562 496.682 61.0517 494.508 63.7039C494.334 63.938 493.638 64.8741 495.812 68.0724C501.38 76.1852 513.471 80.7877 520.43 82.9719C503.902 80.0076 499.379 80.7097 498.683 82.1918C497.465 84.8441 506.512 91.3188 525.91 101.616C522.431 99.7436 511.47 94.127 508.426 96.9353C507.382 97.8714 507.643 99.4316 507.73 100.056C509.035 109.027 532.869 118.934 537.392 120.728C536.348 120.104 530.52 116.593 524.344 118.621C523.039 119.012 521.3 119.636 520.952 120.728C520.343 122.756 524.431 126.812 545.308 135.705C535.305 134.223 529.824 134.457 528.955 136.329C527.737 139.06 535.74 145.222 552.963 154.739C545.395 153.725 541.22 154.037 540.437 155.675C538.871 158.874 549.918 166.986 573.579 180.014" fill="#126C0F"/>
<path d="M616.724 77.3556C620.464 62.3781 622.204 46.9325 621.769 31.565C621.682 28.0546 621.334 24.3103 618.986 21.502C618.725 21.19 618.29 20.7999 617.855 20.7999C617.333 20.7999 616.811 21.19 616.463 21.502C611.853 26.2605 609.939 32.5791 608.112 38.6637C608.199 32.7351 607.416 26.8065 605.938 20.9559C605.503 19.1617 604.285 17.0555 602.284 17.3676C601.588 17.4456 601.066 17.8356 600.631 18.3036C598.718 20.1758 597.935 22.9841 598.892 25.4024C596.891 19.6298 594.194 14.0912 590.889 8.86471C588.453 5.04233 585.235 1.14194 580.537 0.127827C579.841 -0.0281887 579.059 -0.106199 578.537 0.28384C578.102 0.517864 577.928 0.985906 577.754 1.37595C575.492 7.22654 576.449 13.7792 579.146 19.5518C581.842 25.2464 586.105 30.2388 590.367 35.0753C587.757 32.267 584.539 31.1749 580.537 30.6289C579.059 30.4729 577.493 30.4729 576.188 31.0969C574.274 32.033 573.404 34.1392 573.665 36.0114C573.926 37.9616 575.144 39.5998 576.623 41.0039C582.19 46.2305 591.063 47.2446 597.587 51.457C593.237 50.1308 588.714 49.4288 584.191 49.2728C581.668 49.1947 578.537 49.6628 577.841 51.847C577.145 53.8752 579.059 55.7474 580.885 57.0735C589.845 63.8602 599.414 69.8668 609.504 75.0934C609.069 74.7814 608.634 74.3913 608.199 74.0793" fill="#126C0F"/>
<path d="M663.959 19.1621C631.599 49.1951 606.373 85.3908 590.541 124.629C584.365 139.918 579.668 155.832 579.494 171.98" stroke="#131B24" stroke-width="1.5" stroke-miterlimit="10" stroke-linecap="round" stroke-linejoin="round"/>
<path d="M590.106 22.0479C595.152 28.2885 601.415 37.4934 606.112 49.3506C610.983 61.5978 612.636 72.4409 613.158 80.2417" stroke="#131B24" stroke-width="1.5" stroke-miterlimit="10" stroke-linecap="round" stroke-linejoin="round"/>
<path d="M715.194 88.3548C720.152 87.2627 723.632 81.1 717.456 79.0718C709.192 75.7175 699.623 78.2917 691.272 81.334C692.577 81.5681 700.928 76.9656 699.188 72.9092C693.447 70.569 681.443 77.4337 676.224 81.6461C678.398 79.6179 689.881 70.4129 681.182 70.647C670.657 72.3631 662.393 79.6179 653.955 85.0004C656.043 82.9722 666.829 72.8312 659.696 72.2851C648.736 75.0934 640.037 83.5183 632.121 90.539C641.777 69.3988 600.11 102.942 603.155 115.423C604.459 124.706 625.771 121.82 632.817 119.402C641.168 115.735 629.425 111.913 624.727 113.395C635.862 114.565 647.257 115.657 658.13 113.239C670.135 109.417 656.478 104.892 650.476 105.672C656.13 105.828 670.135 105.984 677.442 103.176C679.181 102.474 679.964 101.85 679.964 101.226C679.964 98.9638 669.874 96.7795 670.57 96.7795C672.831 96.9356 713.28 103.722 689.185 90.1489C696.579 90.617 707.8 89.8369 715.194 88.3548Z" fill="#126C0F"/>
<path d="M595.5 116.048C624.727 99.1203 658.565 88.5893 693.186 85.625" stroke="#131B24" stroke-width="1.5" stroke-miterlimit="10" stroke-linecap="round" stroke-linejoin="round"/>
<path d="M484.504 16.8994C516.863 46.9324 542.089 83.1281 557.921 122.366C564.097 137.656 568.794 153.569 568.968 169.717" stroke="#131B24" stroke-width="1.5" stroke-miterlimit="10" stroke-linecap="round" stroke-linejoin="round"/>
<path d="M425.875 65.1087C420.917 64.0166 417.437 57.8539 423.613 55.8257C431.877 52.4714 441.446 55.0457 449.796 58.088C448.492 58.322 440.141 53.7195 441.881 49.6631C447.622 47.3229 459.626 54.1876 464.845 58.4C462.67 56.3718 451.188 47.1669 459.887 47.4009C470.412 49.117 478.676 56.3718 487.114 61.7543C485.026 59.7261 474.24 49.5851 481.373 49.039C492.333 51.8473 501.032 60.2722 508.948 67.2929C499.292 46.1527 540.959 79.6961 537.914 92.1774C536.609 101.46 515.298 98.574 508.252 96.1558C499.901 92.4894 511.644 88.667 516.341 90.1492C505.207 91.3193 493.812 92.4114 482.938 89.9932C470.934 86.1708 484.591 81.6463 490.593 82.4264C484.939 82.5824 470.934 82.7384 463.627 79.9301C461.888 79.2281 461.105 78.604 461.105 77.9799C461.105 75.7177 471.195 73.5335 470.499 73.5335C468.238 73.6895 427.789 80.4762 451.884 66.9028C444.403 67.3709 433.269 66.5908 425.875 65.1087Z" fill="#126C0F"/>
<path d="M545.569 92.801C516.342 75.8733 482.504 65.3422 447.883 62.3779" stroke="#131B24" stroke-width="1.5" stroke-miterlimit="10" stroke-linecap="round" stroke-linejoin="round"/>
<path d="M468.672 113.707C474.774 113.707 479.72 109.271 479.72 103.8C479.72 98.3281 474.774 93.8926 468.672 93.8926C462.571 93.8926 457.625 98.3281 457.625 103.8C457.625 109.271 462.571 113.707 468.672 113.707Z" fill="#A5B48D"/>
<path d="M650.736 67.1363C656.838 67.1363 661.784 62.7007 661.784 57.2293C661.784 51.7578 656.838 47.3223 650.736 47.3223C644.635 47.3223 639.689 51.7578 639.689 57.2293C639.689 62.7007 644.635 67.1363 650.736 67.1363Z" fill="#ED1C24"/>
<path d="M472.674 77.589C471.456 76.7309 469.629 77.277 468.673 78.3691C467.716 79.4612 467.542 80.8654 467.368 82.2695C466.846 87.8081 466.933 93.3466 467.629 98.8852" stroke="#131B24" stroke-width="1.5" stroke-miterlimit="10" stroke-linecap="round" stroke-linejoin="round"/>
<path d="M686.923 120.338C692.784 120.338 697.535 116.077 697.535 110.821C697.535 105.565 692.784 101.304 686.923 101.304C681.062 101.304 676.311 105.565 676.311 110.821C676.311 116.077 681.062 120.338 686.923 120.338Z" fill="#A5B48D"/>
<path d="M688.228 91.7085C688.228 90.4604 687.445 89.6023 686.749 89.5243C686.14 89.4463 685.618 89.9144 685.531 90.0704C684.922 90.6944 684.922 91.4745 684.835 91.7866C684.574 95.843 684.661 99.8994 685.096 103.878" stroke="#131B24" stroke-width="1.5" stroke-miterlimit="10" stroke-linecap="round" stroke-linejoin="round"/>
<path d="M585.496 71.5043C591.02 71.5043 595.499 67.4879 595.499 62.5334C595.499 57.5789 591.02 53.5625 585.496 53.5625C579.971 53.5625 575.492 57.5789 575.492 62.5334C575.492 67.4879 579.971 71.5043 585.496 71.5043Z" fill="#A5B48D"/>
<path d="M565.228 135.003C570.753 135.003 575.232 130.987 575.232 126.032C575.232 121.078 570.753 117.062 565.228 117.062C559.703 117.062 555.225 121.078 555.225 126.032C555.225 130.987 559.703 135.003 565.228 135.003Z" fill="#ED1C24"/>
<path d="M499.292 57.6195C504.817 57.6195 509.296 53.6031 509.296 48.6486C509.296 43.6941 504.817 39.6777 499.292 39.6777C493.767 39.6777 489.289 43.6941 489.289 48.6486C489.289 53.6031 493.767 57.6195 499.292 57.6195Z" fill="#ED1C24"/>
<path d="M618.29 246.477C618.29 253.498 615.159 259.895 609.94 264.497C604.807 269.1 597.761 271.986 589.846 271.986H553.224C546.787 271.986 540.959 270.114 536.175 266.916C529.303 262.235 524.866 254.902 524.866 246.555C524.866 239.535 527.998 233.138 533.217 228.536C538.349 223.933 545.482 221.047 553.311 221.047H589.933C594.456 221.047 598.718 221.983 602.546 223.699C611.853 227.834 618.29 236.492 618.29 246.477Z" fill="#B0CFF8"/>
<path d="M596.544 190.077H546.613V237.818H596.544V190.077Z" fill="#B0CFF8"/>
<path d="M591.15 169.405H552.093V187.191H591.15V169.405Z" fill="#B0CFF8"/>
<path d="M605.416 192.495C605.416 195.538 604.024 198.268 601.85 200.296C599.675 202.246 596.543 203.494 593.151 203.494H550.005C543.22 203.494 537.74 198.58 537.74 192.495C537.74 189.453 539.132 186.723 541.307 184.773C543.481 182.822 546.613 181.574 550.005 181.574H593.151C596.109 181.574 598.805 182.51 600.893 184.07C603.676 186.021 605.416 189.063 605.416 192.495Z" fill="#B0CFF8"/>
</svg>
