<svg width="465" height="533" viewBox="0 0 465 533" fill="none" xmlns="http://www.w3.org/2000/svg">
<path fill-rule="evenodd" clip-rule="evenodd" d="M446.247 477.867C468.188 499.462 474.138 533.002 446.247 533.002H18.5899C-9.30074 533.002 -2.88588 499.094 18.5899 477.867C31.1408 465.554 76.5096 426.868 89.4323 364.657L90.0831 364.749L130.153 404.354L167.34 367.598L204.528 404.354L241.715 367.598L278.903 404.354L316.091 367.598L353.464 404.354L379.495 378.625L379.96 378.441C396.695 428.889 434.905 466.657 446.247 477.867Z" fill="#1A6D17"/>
<path fill-rule="evenodd" clip-rule="evenodd" d="M269.605 57.8326V96.7026C296.194 103.594 319.994 117.838 337.844 137.962L337.937 137.87L372.243 153.032C399.947 164.243 409.058 142.556 409.058 131.346V20.8004C409.058 2.42213 384.886 -3.91837 371.871 2.42213L269.605 57.5569V57.8326C266.536 39.7312 251.011 30.267 232.417 30.267C213.824 30.267 198.577 39.9156 195.23 57.8344L195.416 96.6125C207.316 93.4882 219.681 91.9261 232.417 91.9261C245.154 91.9261 257.705 93.5801 269.605 96.7044V57.8344V57.8326ZM195.23 57.8344L195.416 96.6125C168.362 103.596 144.19 118.207 126.247 138.791H126.154L93.1499 153.218C67.3975 164.52 55.7764 142.374 55.7764 131.347V21.0779C55.7764 2.69964 79.8553 -4.37599 92.964 2.69964L195.23 57.8344Z" fill="#B10202"/>
<path fill-rule="evenodd" clip-rule="evenodd" d="M379.961 378.445L379.496 378.628L353.464 404.358L316.091 367.602L278.903 404.358L241.716 367.602L204.528 404.358L167.341 367.602L130.153 404.358L90.0834 364.753L89.4326 364.661C91.6639 354.094 92.9654 342.791 92.9654 330.845V229.765C92.9654 193.284 105.609 162.133 126.155 138.792H126.248C144.191 118.209 168.363 103.598 195.417 96.6142C207.317 93.4899 219.682 91.9277 232.419 91.9277C245.156 91.9277 257.706 93.5818 269.606 96.7061C296.196 103.598 319.996 117.841 337.846 137.965C358.95 161.489 371.872 192.916 371.872 229.765V330.845C371.872 347.569 374.94 363.558 379.961 378.445Z" fill="white"/>
</svg>
