<svg width="1920" height="2708" viewBox="0 0 1920 2708" fill="none" xmlns="http://www.w3.org/2000/svg">
<path d="M1968.77 1569.07C1968.77 1569.07 1171.21 1727.13 84.4683 1126.79" stroke="#FF0404" stroke-width="2" stroke-miterlimit="10" stroke-linecap="round" stroke-linejoin="round"/>
<path d="M1161.54 1616.44C1185.58 1626.22 1212.24 1616.52 1221.09 1594.77C1229.93 1573.03 1217.6 1547.48 1193.55 1537.7C1169.51 1527.93 1142.85 1537.63 1134.01 1559.37C1125.17 1581.11 1137.49 1606.67 1161.54 1616.44Z" fill="white"/>
<path d="M602.539 1453.44C626.585 1463.22 653.244 1453.52 662.085 1431.77C670.926 1410.03 658.599 1384.48 634.554 1374.7C610.508 1364.93 583.848 1374.63 575.007 1396.37C566.167 1418.11 578.493 1443.67 602.539 1453.44Z" fill="white"/>
<path d="M733.539 1504.44C757.585 1514.22 784.244 1504.52 793.085 1482.77C801.926 1461.03 789.599 1435.48 765.554 1425.7C741.508 1415.93 714.848 1425.63 706.007 1447.37C697.167 1469.11 709.493 1494.67 733.539 1504.44Z" fill="white"/>
<path d="M875.539 1548.44C899.585 1558.22 926.244 1548.52 935.085 1526.77C943.926 1505.03 931.599 1479.48 907.554 1469.7C883.508 1459.93 856.848 1469.63 848.007 1491.37C839.167 1513.11 851.493 1538.67 875.539 1548.44Z" fill="white"/>
<path d="M1393.61 1660.27C1419.27 1664.24 1442.97 1648.65 1446.55 1625.45C1450.14 1602.25 1432.25 1580.23 1406.6 1576.27C1380.95 1572.3 1357.24 1587.89 1353.66 1611.09C1350.07 1634.29 1367.96 1656.31 1393.61 1660.27Z" fill="white"/>
<path d="M1516.61 1667.27C1542.27 1671.24 1565.97 1655.65 1569.55 1632.45C1573.14 1609.25 1555.25 1587.23 1529.6 1583.27C1503.95 1579.3 1480.24 1594.89 1476.66 1618.09C1473.07 1641.29 1490.96 1663.31 1516.61 1667.27Z" fill="white"/>
<path d="M1640.61 1677.27C1666.27 1681.24 1689.97 1665.65 1693.55 1642.45C1697.14 1619.25 1679.25 1597.23 1653.6 1593.27C1627.95 1589.3 1604.24 1604.89 1600.66 1628.09C1597.07 1651.29 1614.96 1673.31 1640.61 1677.27Z" fill="white"/>
<path d="M1786.77 1674.94C1812.65 1673.05 1832.26 1652.54 1830.55 1629.13C1828.84 1605.72 1806.46 1588.27 1780.58 1590.16C1754.69 1592.05 1735.09 1612.56 1736.8 1635.97C1738.5 1659.38 1760.88 1676.83 1786.77 1674.94Z" fill="white"/>
<path d="M1900.77 1664.94C1926.65 1663.05 1946.26 1642.54 1944.55 1619.13C1942.84 1595.72 1920.46 1578.27 1894.58 1580.16C1868.69 1582.05 1849.09 1602.56 1850.8 1625.97C1852.5 1649.38 1874.88 1666.83 1900.77 1664.94Z" fill="white"/>
<path d="M472.539 1404.44C496.585 1414.22 523.244 1404.52 532.085 1382.77C540.926 1361.03 528.599 1335.48 504.554 1325.7C480.508 1315.93 453.848 1325.63 445.007 1347.37C436.167 1369.11 448.493 1394.67 472.539 1404.44Z" fill="white"/>
<path d="M225.539 1299.44C249.585 1309.22 276.244 1299.52 285.085 1277.77C293.926 1256.03 281.599 1230.48 257.554 1220.7C233.508 1210.93 206.848 1220.63 198.007 1242.37C189.167 1264.11 201.493 1289.67 225.539 1299.44Z" fill="white"/>
<path d="M0.258217 1573.1C0.258217 1573.1 816.792 1733.8 1927.69 1130.34" stroke="#FF0404" stroke-width="2" stroke-miterlimit="10" stroke-linecap="round" stroke-linejoin="round"/>
<path d="M165.34 1671.25C191.102 1674.43 214.317 1658.13 217.192 1634.83C220.067 1611.53 201.514 1590.07 175.752 1586.89C149.99 1583.71 126.775 1600.02 123.9 1623.32C121.025 1646.61 139.578 1668.07 165.34 1671.25Z" fill="white"/>
<path d="M36.1448 1660.79C61.9067 1663.97 85.1217 1647.66 87.9969 1624.36C90.8722 1601.07 72.3188 1579.61 46.5569 1576.43C20.795 1573.25 -2.41994 1589.55 -5.29516 1612.85C-8.17038 1636.14 10.3829 1657.61 36.1448 1660.79Z" fill="white"/>
<path d="M638.336 1655.18C664.051 1651.64 682.305 1629.92 679.108 1606.67C675.911 1583.42 652.472 1567.43 626.757 1570.97C601.041 1574.5 582.787 1596.22 585.984 1619.47C589.182 1642.73 612.62 1658.71 638.336 1655.18Z" fill="white"/>
<path d="M785.879 1634.29C811.594 1630.75 829.849 1609.03 826.651 1585.78C823.454 1562.53 800.016 1546.54 774.3 1550.08C748.585 1553.61 730.33 1575.33 733.528 1598.58C736.725 1621.84 760.164 1637.82 785.879 1634.29Z" fill="white"/>
<path d="M924.879 1605.29C950.594 1601.75 968.849 1580.03 965.651 1556.78C962.454 1533.53 939.016 1517.54 913.3 1521.08C887.585 1524.61 869.33 1546.33 872.528 1569.58C875.725 1592.84 899.164 1608.82 924.879 1605.29Z" fill="white"/>
<path d="M1046.88 1573.29C1072.59 1569.75 1090.85 1548.03 1087.65 1524.78C1084.45 1501.53 1061.02 1485.54 1035.3 1489.08C1009.58 1492.61 991.33 1514.33 994.528 1537.58C997.725 1560.84 1021.16 1576.82 1046.88 1573.29Z" fill="white"/>
<path d="M1250.88 1515.29C1276.59 1511.75 1294.85 1490.03 1291.65 1466.78C1288.45 1443.53 1265.02 1427.54 1239.3 1431.08C1213.58 1434.61 1195.33 1456.33 1198.53 1479.58C1201.72 1502.84 1225.16 1518.82 1250.88 1515.29Z" fill="white"/>
<path d="M1392.88 1470.29C1418.59 1466.75 1436.85 1445.03 1433.65 1421.78C1430.45 1398.53 1407.02 1382.54 1381.3 1386.08C1355.58 1389.61 1337.33 1411.33 1340.53 1434.58C1343.72 1457.84 1367.16 1473.82 1392.88 1470.29Z" fill="white"/>
<path d="M1520.88 1420.29C1546.59 1416.75 1564.85 1395.03 1561.65 1371.78C1558.45 1348.53 1535.02 1332.54 1509.3 1336.08C1483.58 1339.61 1465.33 1361.33 1468.53 1384.58C1471.72 1407.84 1495.16 1423.82 1520.88 1420.29Z" fill="white"/>
<path d="M1640.52 1370.38C1665.69 1364.01 1681.41 1340.4 1675.65 1317.64C1669.89 1294.89 1644.82 1281.61 1619.65 1287.98C1594.49 1294.36 1578.76 1317.97 1584.53 1340.72C1590.29 1363.48 1615.36 1376.75 1640.52 1370.38Z" fill="white"/>
<path d="M1751.93 1319.69C1776.68 1311.85 1790.99 1287.35 1783.89 1264.98C1776.8 1242.6 1750.99 1230.82 1726.25 1238.67C1701.5 1246.51 1687.19 1271.01 1694.29 1293.39C1701.38 1315.76 1727.19 1327.54 1751.93 1319.69Z" fill="white"/>
<path d="M1850.12 1270.46C1874.86 1262.62 1889.17 1238.12 1882.07 1215.75C1874.98 1193.37 1849.17 1181.59 1824.43 1189.44C1799.68 1197.28 1785.38 1221.78 1792.47 1244.15C1799.56 1266.53 1825.37 1278.31 1850.12 1270.46Z" fill="white"/>
</svg>
