<svg width="1920" height="2199" viewBox="0 0 1920 2199" fill="none" xmlns="http://www.w3.org/2000/svg">
<path d="M1186.01 1180.88C1187.06 1179.57 1187.99 1177.95 1188.69 1176.12C1190.9 1170.34 1189.95 1164.6 1186.57 1163.29C1183.19 1161.99 1178.67 1165.62 1176.46 1171.4C1175.76 1173.23 1175.38 1175.05 1175.29 1176.74C1167.07 1175.93 1159.29 1180.1 1156.46 1187.49C1153 1196.56 1158.33 1207.07 1168.38 1210.95C1178.43 1214.83 1189.38 1210.62 1192.84 1201.54C1195.66 1194.15 1192.65 1185.81 1186.01 1180.88Z" fill="#FFF000"/>
<path d="M627.007 1017.88C628.06 1016.57 628.991 1014.95 629.69 1013.12C631.896 1007.34 630.947 1001.6 627.57 1000.29C624.193 998.99 619.667 1002.62 617.46 1008.4C616.762 1010.23 616.382 1012.05 616.292 1013.74C608.073 1012.93 600.286 1017.1 597.465 1024.49C594 1033.56 599.335 1044.07 609.38 1047.95C619.426 1051.83 630.378 1047.62 633.843 1038.54C636.664 1031.15 633.649 1022.81 627.007 1017.88Z" fill="#FFF000"/>
<path d="M758.007 1068.88C759.06 1067.57 759.991 1065.95 760.69 1064.12C762.896 1058.34 761.947 1052.6 758.57 1051.29C755.193 1049.99 750.667 1053.62 748.46 1059.4C747.762 1061.23 747.382 1063.05 747.292 1064.74C739.073 1063.93 731.286 1068.1 728.465 1075.49C725 1084.56 730.335 1095.07 740.38 1098.95C750.426 1102.83 761.378 1098.62 764.843 1089.54C767.664 1082.15 764.649 1073.81 758.007 1068.88Z" fill="#FFF000"/>
<path d="M900.007 1112.88C901.06 1111.57 901.991 1109.95 902.69 1108.12C904.896 1102.34 903.947 1096.6 900.57 1095.29C897.193 1093.99 892.667 1097.62 890.46 1103.4C889.762 1105.23 889.382 1107.05 889.292 1108.74C881.073 1107.93 873.286 1112.1 870.465 1119.49C867 1128.56 872.335 1139.07 882.38 1142.95C892.426 1146.83 903.378 1142.62 906.843 1133.54C909.664 1126.15 906.649 1117.81 900.007 1112.88Z" fill="#FFF000"/>
<path d="M1407.14 1220.26C1407.86 1218.74 1408.4 1216.96 1408.65 1215.02C1409.47 1208.89 1407.22 1203.52 1403.63 1203.03C1400.05 1202.53 1396.48 1207.11 1395.66 1213.24C1395.41 1215.18 1395.46 1217.05 1395.76 1218.71C1387.58 1219.82 1380.96 1225.67 1379.92 1233.51C1378.64 1243.14 1386.26 1252.13 1396.93 1253.59C1407.6 1255.05 1417.28 1248.42 1418.56 1238.79C1419.6 1230.95 1414.74 1223.53 1407.14 1220.26Z" fill="#FFF000"/>
<path d="M1530.14 1227.26C1530.86 1225.74 1531.4 1223.96 1531.65 1222.02C1532.47 1215.89 1530.22 1210.52 1526.63 1210.03C1523.05 1209.53 1519.48 1214.11 1518.66 1220.24C1518.41 1222.18 1518.46 1224.05 1518.76 1225.71C1510.58 1226.82 1503.96 1232.67 1502.92 1240.51C1501.64 1250.14 1509.26 1259.13 1519.93 1260.59C1530.6 1262.05 1540.28 1255.42 1541.56 1245.79C1542.6 1237.95 1537.74 1230.53 1530.14 1227.26Z" fill="#FFF000"/>
<path d="M1654.14 1237.26C1654.86 1235.74 1655.4 1233.96 1655.65 1232.02C1656.47 1225.89 1654.22 1220.52 1650.63 1220.03C1647.05 1219.53 1643.48 1224.11 1642.66 1230.24C1642.41 1232.18 1642.46 1234.05 1642.76 1235.71C1634.58 1236.82 1627.96 1242.67 1626.92 1250.51C1625.64 1260.14 1633.26 1269.13 1643.93 1270.59C1654.6 1272.05 1664.28 1265.42 1665.56 1255.79C1666.6 1247.95 1661.74 1240.53 1654.14 1237.26Z" fill="#FFF000"/>
<path d="M1788.95 1233.14C1789.32 1231.5 1789.44 1229.64 1789.25 1227.69C1788.67 1221.53 1785.27 1216.8 1781.67 1217.13C1778.06 1217.46 1775.61 1222.72 1776.2 1228.88C1776.38 1230.83 1776.85 1232.63 1777.51 1234.18C1769.79 1237.1 1764.65 1244.28 1765.4 1252.16C1766.31 1261.83 1775.75 1268.88 1786.48 1267.91C1797.2 1266.94 1805.15 1258.31 1804.24 1248.64C1803.49 1240.76 1797.09 1234.62 1788.95 1233.14Z" fill="#FFF000"/>
<path d="M1902.95 1223.14C1903.32 1221.5 1903.44 1219.64 1903.25 1217.69C1902.67 1211.53 1899.27 1206.8 1895.67 1207.13C1892.06 1207.46 1889.61 1212.72 1890.2 1218.88C1890.38 1220.83 1890.85 1222.63 1891.51 1224.18C1883.79 1227.1 1878.65 1234.28 1879.4 1242.16C1880.31 1251.83 1889.75 1258.88 1900.48 1257.91C1911.2 1256.94 1919.15 1248.31 1918.24 1238.64C1917.49 1230.76 1911.09 1224.62 1902.95 1223.14Z" fill="#FFF000"/>
<path d="M497.007 968.875C498.06 967.565 498.991 965.953 499.69 964.124C501.896 958.343 500.947 952.599 497.57 951.295C494.193 949.99 489.667 953.619 487.46 959.4C486.762 961.229 486.382 963.054 486.292 964.736C478.073 963.932 470.286 968.096 467.465 975.487C464 984.564 469.335 995.068 479.38 998.949C489.426 1002.83 500.378 998.617 503.843 989.541C506.664 982.149 503.649 973.812 497.007 968.875Z" fill="#FFF000"/>
<path d="M250.007 863.875C251.06 862.565 251.991 860.953 252.69 859.124C254.896 853.343 253.947 847.599 250.57 846.295C247.193 844.99 242.667 848.619 240.46 854.4C239.762 856.229 239.382 858.054 239.292 859.736C231.073 858.932 223.286 863.096 220.465 870.487C217 879.564 222.335 890.068 232.38 893.949C242.426 897.83 253.378 893.617 256.843 884.541C259.664 877.149 256.649 868.812 250.007 863.875Z" fill="#FFF000"/>
<path d="M177.362 1230.85C178.038 1229.31 178.517 1227.51 178.715 1225.57C179.341 1219.41 176.929 1214.11 173.329 1213.73C169.729 1213.35 166.303 1218.03 165.678 1224.19C165.48 1226.14 165.587 1228 165.939 1229.64C157.794 1231.01 151.359 1237.05 150.56 1244.93C149.577 1254.59 157.463 1263.35 168.172 1264.48C178.882 1265.61 188.36 1258.69 189.342 1249.02C190.142 1241.15 185.06 1233.89 177.362 1230.85Z" fill="#FFF000"/>
<path d="M48.1668 1220.39C48.8424 1218.85 49.3221 1217.05 49.52 1215.1C50.1456 1208.94 47.734 1203.64 44.1337 1203.26C40.5336 1202.88 37.1078 1207.57 36.4823 1213.72C36.2843 1215.67 36.3921 1217.53 36.744 1219.18C28.5989 1220.54 22.1642 1226.59 21.3643 1234.46C20.382 1244.13 28.2676 1252.88 38.9771 1254.01C49.6866 1255.14 59.1646 1248.22 60.1469 1238.56C60.9467 1230.69 55.8645 1223.42 48.1668 1220.39Z" fill="#FFF000"/>
<path d="M637.282 1213.34C637.54 1211.68 637.542 1209.82 637.233 1207.89C636.259 1201.78 632.569 1197.28 628.991 1197.83C625.414 1198.39 623.304 1203.79 624.279 1209.9C624.587 1211.84 625.169 1213.61 625.931 1215.11C618.409 1218.52 613.741 1226.01 614.987 1233.82C616.517 1243.42 626.385 1249.86 637.026 1248.2C647.667 1246.55 655.053 1237.43 653.523 1227.84C652.277 1220.02 645.501 1214.31 637.282 1213.34Z" fill="#FFF000"/>
<path d="M784.825 1192.45C785.083 1190.79 785.085 1188.93 784.777 1187C783.802 1180.89 780.112 1176.38 776.534 1176.94C772.957 1177.5 770.847 1182.9 771.822 1189.01C772.13 1190.94 772.712 1192.72 773.475 1194.22C765.952 1197.63 761.284 1205.12 762.53 1212.93C764.061 1222.53 773.928 1228.97 784.569 1227.31C795.211 1225.66 802.597 1216.54 801.066 1206.94C799.82 1199.13 793.044 1193.41 784.825 1192.45Z" fill="#FFF000"/>
<path d="M923.825 1163.45C924.083 1161.79 924.085 1159.93 923.777 1158C922.802 1151.89 919.112 1147.38 915.534 1147.94C911.957 1148.5 909.847 1153.9 910.822 1160.01C911.13 1161.94 911.712 1163.72 912.475 1165.22C904.952 1168.63 900.284 1176.12 901.53 1183.93C903.061 1193.53 912.928 1199.97 923.569 1198.31C934.211 1196.66 941.597 1187.54 940.066 1177.94C938.82 1170.13 932.044 1164.41 923.825 1163.45Z" fill="#FFF000"/>
<path d="M1045.82 1131.45C1046.08 1129.79 1046.09 1127.93 1045.78 1126C1044.8 1119.89 1041.11 1115.38 1037.53 1115.94C1033.96 1116.5 1031.85 1121.9 1032.82 1128.01C1033.13 1129.94 1033.71 1131.72 1034.47 1133.22C1026.95 1136.63 1022.28 1144.12 1023.53 1151.93C1025.06 1161.53 1034.93 1167.97 1045.57 1166.31C1056.21 1164.66 1063.6 1155.54 1062.07 1145.94C1060.82 1138.13 1054.04 1132.41 1045.82 1131.45Z" fill="#FFF000"/>
<path d="M1249.82 1073.45C1250.08 1071.79 1250.09 1069.93 1249.78 1068C1248.8 1061.89 1245.11 1057.38 1241.53 1057.94C1237.96 1058.5 1235.85 1063.9 1236.82 1070.01C1237.13 1071.94 1237.71 1073.72 1238.47 1075.22C1230.95 1078.63 1226.28 1086.12 1227.53 1093.93C1229.06 1103.53 1238.93 1109.97 1249.57 1108.31C1260.21 1106.66 1267.6 1097.54 1266.07 1087.94C1264.82 1080.13 1258.04 1074.41 1249.82 1073.45Z" fill="#FFF000"/>
<path d="M1391.82 1028.45C1392.08 1026.79 1392.09 1024.93 1391.78 1023C1390.8 1016.89 1387.11 1012.38 1383.53 1012.94C1379.96 1013.5 1377.85 1018.9 1378.82 1025.01C1379.13 1026.94 1379.71 1028.72 1380.47 1030.22C1372.95 1033.63 1368.28 1041.12 1369.53 1048.93C1371.06 1058.53 1380.93 1064.97 1391.57 1063.31C1402.21 1061.66 1409.6 1052.54 1408.07 1042.94C1406.82 1035.13 1400.04 1029.41 1391.82 1028.45Z" fill="#FFF000"/>
<path d="M1519.82 978.454C1520.08 976.793 1520.09 974.931 1519.78 972.997C1518.8 966.887 1515.11 962.384 1511.53 962.94C1507.96 963.496 1505.85 968.9 1506.82 975.011C1507.13 976.944 1507.71 978.715 1508.47 980.217C1500.95 983.625 1496.28 991.12 1497.53 998.934C1499.06 1008.53 1508.93 1014.97 1519.57 1013.31C1530.21 1011.66 1537.6 1002.54 1536.07 992.945C1534.82 985.132 1528.04 979.415 1519.82 978.454Z" fill="#FFF000"/>
<path d="M1633.82 928.981C1633.9 927.301 1633.69 925.451 1633.17 923.564C1631.52 917.6 1627.35 913.535 1623.86 914.486C1620.37 915.436 1618.87 921.041 1620.52 927.005C1621.04 928.893 1621.82 930.588 1622.74 931.996C1615.64 936.219 1611.84 944.187 1613.95 951.813C1616.53 961.178 1627.06 966.478 1637.45 963.651C1647.84 960.824 1654.16 950.941 1651.58 941.577C1649.47 933.95 1642.1 929.022 1633.82 928.981Z" fill="#FFF000"/>
<path d="M1742.28 878.777C1742.25 877.096 1741.94 875.261 1741.3 873.408C1739.31 867.551 1734.91 863.739 1731.48 864.894C1728.04 866.048 1726.88 871.732 1728.88 877.588C1729.51 879.442 1730.38 881.088 1731.39 882.439C1724.55 887.073 1721.22 895.251 1723.78 902.74C1726.91 911.936 1737.73 916.607 1747.93 913.173C1758.14 909.739 1763.87 899.501 1760.74 890.305C1758.19 882.816 1750.54 878.33 1742.28 878.777Z" fill="#FFF000"/>
<path d="M1840.46 829.546C1840.43 827.866 1840.12 826.031 1839.49 824.177C1837.49 818.321 1833.09 814.509 1829.66 815.663C1826.23 816.818 1825.06 822.501 1827.06 828.358C1827.69 830.211 1828.57 831.858 1829.57 833.209C1822.74 837.843 1819.41 846.021 1821.96 853.51C1825.09 862.706 1835.91 867.377 1846.12 863.943C1856.32 860.509 1862.06 850.27 1858.92 841.074C1856.37 833.585 1848.72 829.1 1840.46 829.546Z" fill="#FFF000"/>
</svg>
