<svg width="478" height="226" viewBox="0 0 478 226" fill="none" xmlns="http://www.w3.org/2000/svg">
<path d="M367.418 185.977C367.418 185.977 338.357 156.662 348.739 134.877C359.121 113.092 388.078 133.351 388.078 133.351C388.078 133.351 421.371 101.094 452.445 125.438C483.519 149.783 438.503 165.93 438.503 165.93C438.503 165.93 461.883 171.447 456.558 183.849C451.234 196.25 406.485 209.38 406.485 209.38L367.418 185.977Z" fill="white"/>
<path d="M40.533 102.393C39.746 98.7729 11.1884 85.1478 9.33674 68.7475C7.48508 52.3471 29.108 57.3629 29.108 57.3629C29.108 57.3629 10.7734 31.1318 37.0581 29.5284C61.7753 28.0207 68.9153 49.7831 68.9153 49.7831C68.9153 49.7831 89.0777 44.9789 97.577 61.45C113.258 91.8397 66.4518 109.796 66.4518 109.796L40.533 102.393Z" fill="white"/>
<path d="M262.711 170.141C256.182 166.134 271.302 164.393 281.43 166.783C291.557 169.173 296.422 171.065 296.422 171.065C296.422 171.065 300.597 164.558 315.534 163.628C330.471 162.697 342.663 171.376 342.663 171.376C342.663 171.376 353.879 161.845 373.786 170.546C393.694 179.247 391.483 189.692 391.483 189.692C391.483 189.692 408.562 192.076 416.47 196.829C424.379 201.581 420.644 206.545 420.644 206.545C420.644 206.545 449.865 212.378 451.709 219.439C453.553 226.499 269.24 174.147 262.711 170.141Z" fill="white"/>
<path d="M19.5178 99.6734C11.8018 95.28 29.667 94.5408 35.3296 95.9199C40.9922 97.2989 50.1025 102.221 50.1025 102.221C50.1025 102.221 52.0147 85.7516 70.5522 89.4993C89.0896 93.2471 98.0629 113.838 98.0629 113.838C98.0629 113.838 108.588 112.352 117.417 116.807C126.245 121.262 130.411 127.48 130.411 127.48C130.411 127.48 140.057 129.074 146.79 132.545C153.523 136.015 156.954 138.56 152.169 139.108C147.384 139.657 27.6948 104.329 19.5178 99.6734Z" fill="white"/>
<path d="M389.409 181.293C390.414 168.411 399.028 150.353 431.048 131.702" stroke="#E6D8D6" stroke-width="1.66167" stroke-miterlimit="10" stroke-linecap="round" stroke-linejoin="round"/>
<path d="M374.655 132.628C374.655 132.628 359.925 156.645 390.122 176.479" stroke="#E6D8D6" stroke-width="1.66167" stroke-miterlimit="10" stroke-linecap="round" stroke-linejoin="round"/>
<path d="M429.066 180.25C429.066 180.25 415.973 187.907 389.493 180.376" stroke="#E6D8D6" stroke-width="1.66167" stroke-miterlimit="10" stroke-linecap="round" stroke-linejoin="round"/>
<path d="M61.1679 87.2924C61.7068 77.9708 59.6069 65.8553 50.4373 52.2388" stroke="#E6D8D6" stroke-width="1.66167" stroke-miterlimit="10" stroke-linecap="round" stroke-linejoin="round"/>
<path d="M33.2092 68.9747C33.2092 68.9747 54.7504 74.5357 61.0992 87.5328" stroke="#E6D8D6" stroke-width="1.66167" stroke-miterlimit="10" stroke-linecap="round" stroke-linejoin="round"/>
<path d="M61.1631 81.7921C61.1631 81.7921 79.0769 76.2957 78.1326 67.1202" stroke="#E6D8D6" stroke-width="1.66167" stroke-miterlimit="10" stroke-linecap="round" stroke-linejoin="round"/>
<path d="M262.711 170.139C256.182 166.133 271.302 164.391 281.429 166.781C291.557 169.171 296.422 171.063 296.422 171.063C296.422 171.063 300.597 164.557 315.534 163.626C330.47 162.696 342.663 171.375 342.663 171.375C342.663 171.375 353.879 161.843 373.786 170.545C393.694 179.246 391.483 189.69 391.483 189.69C391.483 189.69 408.561 192.075 416.47 196.827C424.379 201.58 420.644 206.544 420.644 206.544C420.644 206.544 449.865 212.377 451.709 219.437C453.553 226.497 269.24 174.145 262.711 170.139Z" stroke="#E6D8D6" stroke-width="1.66167" stroke-miterlimit="10" stroke-linecap="round" stroke-linejoin="round"/>
<path d="M19.518 99.6724C11.802 95.279 29.6673 94.5398 35.3298 95.9189C40.9924 97.2979 50.1027 102.22 50.1027 102.22C50.1027 102.22 52.0149 85.7506 70.5524 89.4983C89.0899 93.2461 98.0632 113.837 98.0632 113.837C98.0632 113.837 108.589 112.351 117.417 116.806C126.246 121.261 130.412 127.479 130.412 127.479C130.412 127.479 140.057 129.073 146.79 132.544C153.524 136.014 156.954 138.559 152.169 139.107C147.384 139.656 27.695 104.328 19.518 99.6724Z" stroke="#E6D8D6" stroke-width="1.66167" stroke-miterlimit="10" stroke-linecap="round" stroke-linejoin="round"/>
</svg>
