<svg width="516" height="561" viewBox="0 0 516 561" fill="none" xmlns="http://www.w3.org/2000/svg">
<path d="M210.472 269.4H100.582C85.84 246.863 77.1482 221.509 74.5963 195.576H153.975H154.117L154.257 195.549L155.345 195.341C159.497 212.877 168.771 229.511 183.056 243.175L210.472 269.4ZM173.204 115.752H85.791C94.7858 93.0028 108.753 71.7402 127.605 53.7076C132.041 49.4639 136.559 45.5527 141.317 41.8956L141.345 41.9278H142.028H364.798H365.499L365.949 41.3901L366.246 41.0353C371.404 44.9022 376.389 49.1744 381.12 53.6989L381.129 53.7074C381.14 53.719 381.159 53.7375 381.184 53.7629C381.234 53.8136 381.31 53.8916 381.41 53.9959C381.611 54.2046 381.905 54.5183 382.273 54.929C383.008 55.7509 384.036 56.9593 385.189 58.4908C387.499 61.5603 390.287 65.8942 392.249 70.9883C394.209 76.0803 395.324 81.8785 394.365 87.9182C393.409 93.9353 390.376 100.313 383.84 106.565C370.069 119.738 355.773 119.539 344.822 116.063C339.317 114.315 334.66 111.734 331.374 109.581C329.733 108.507 328.442 107.544 327.564 106.854C327.126 106.509 326.791 106.232 326.569 106.044C326.458 105.95 326.375 105.878 326.321 105.831C326.294 105.808 326.274 105.79 326.262 105.779L326.262 105.779C286.428 67.695 221.979 67.6991 182.251 105.798C178.986 108.922 175.88 112.24 173.204 115.752ZM445.112 502.874H445.771L446.217 502.388L449.313 499.013C452.717 503.815 454.045 508.525 453.462 513.167C452.817 518.299 449.802 523.621 444.075 529.099L424.001 548.301C424 548.302 424 548.302 424 548.302C417.431 554.538 411.206 557.493 405.153 557.504C399.103 557.515 392.88 554.585 386.315 548.305L338.82 502.874H445.112ZM293.92 349.225C319.912 374.178 347.078 400.167 371.089 423.049H255.168C241.652 410.165 228.16 397.284 215.253 384.959C201.946 372.254 189.259 360.14 177.802 349.225H293.92Z" fill="#FF5959" stroke="white" stroke-width="3"/>
<path d="M74.3276 192.574C72.3248 167.768 75.7312 142.469 84.6352 118.749H170.929C154.847 140.616 149.52 167.237 154.696 192.408L153.832 192.574H74.3276ZM443.712 492.583C443.751 492.621 443.786 492.655 443.818 492.686L444.042 492.915C445.32 494.213 446.477 495.395 447.463 496.588L444.452 499.87H335.682C323.636 488.396 310.147 475.517 295.951 461.963C283.771 450.333 271.071 438.207 258.315 426.045H374.235C394.033 444.983 411.438 461.632 423.921 473.584C430.208 479.604 435.245 484.432 438.711 487.76C440.444 489.425 441.783 490.714 442.688 491.589C443.141 492.027 443.484 492.359 443.712 492.583ZM145.253 38.9257C209.355 -8.26421 299.238 -8.35291 363.415 38.9257H145.253ZM124.893 298.624C116.356 290.458 108.947 281.716 102.584 272.398H213.607L290.784 346.223H174.654L124.893 298.624Z" fill="white" stroke="white" stroke-width="3"/>
<path fill-rule="evenodd" clip-rule="evenodd" d="M514 462.965H493.922H514ZM503.961 453.361V472.568V453.361ZM22.0784 78.8285H2H22.0784ZM12.0392 69.225V88.4319V69.225ZM62.2353 318.914H42.1569H62.2353ZM52.1961 309.31V328.517V309.31ZM52.1961 462.965H12.0392H52.1961ZM32.1176 443.758V482.172V443.758ZM433.686 232.483H393.529H433.686ZM413.608 213.276V251.69V213.276ZM393.529 501.378H333.294H393.529ZM313.216 424.551H252.98H313.216ZM232.902 347.724H172.667H232.902ZM152.588 270.897H99.0491H152.588ZM112.431 194.069H72.6962H112.431ZM132.51 117.242H82.3137H132.51ZM293.137 40.4148H140.662H293.137ZM383.49 107.639C354.939 134.951 323.847 106.851 323.847 106.851C284.634 69.3403 221.076 69.3403 181.863 106.842C142.669 144.343 143.513 204.585 182.706 242.086C182.706 242.086 443.645 491.804 443.726 491.881C456.997 504.576 457.218 517.282 443.726 530.189L423.647 549.367C410.235 562.197 397.334 562.226 383.892 549.367C383.611 549.088 122.471 299.707 122.471 299.707C51.9049 232.195 54.6356 120.133 125.201 52.6304C195.777 -14.872 310.194 -14.8816 380.77 52.6304C380.77 52.6304 410.466 81.8247 383.49 107.639Z" stroke="white" stroke-width="3" stroke-linecap="round" stroke-linejoin="round"/>
</svg>
