<svg width="516" height="561" viewBox="0 0 516 561" fill="none" xmlns="http://www.w3.org/2000/svg">
<path d="M210.472 269.4H100.582C85.84 246.863 77.1482 221.509 74.5963 195.576H153.975H154.117L154.257 195.549L155.345 195.341C159.497 212.877 168.771 229.511 183.056 243.175L210.472 269.4ZM173.204 115.752H85.791C94.7858 93.0028 108.753 71.7402 127.605 53.7076C132.041 49.4639 136.559 45.5527 141.317 41.8956L141.345 41.9278H142.028H364.798H365.499L365.949 41.3901L366.246 41.0353C371.404 44.9021 376.389 49.1742 381.12 53.6987L381.129 53.7074C381.14 53.719 381.159 53.7375 381.184 53.7629C381.234 53.8136 381.31 53.8916 381.41 53.9959C381.611 54.2046 381.905 54.5183 382.273 54.929C383.008 55.7509 384.036 56.9593 385.189 58.4908C387.499 61.5603 390.287 65.8942 392.249 70.9883C394.209 76.0803 395.324 81.8785 394.365 87.9182C393.409 93.9353 390.376 100.313 383.84 106.565C370.069 119.738 355.773 119.539 344.822 116.063C339.317 114.315 334.66 111.734 331.374 109.581C329.733 108.507 328.442 107.544 327.564 106.854C327.126 106.509 326.791 106.232 326.569 106.044C326.458 105.95 326.375 105.878 326.321 105.831C326.294 105.808 326.274 105.79 326.262 105.779L326.262 105.779C286.428 67.695 221.979 67.6991 182.251 105.798C178.986 108.922 175.88 112.24 173.204 115.752ZM445.112 502.874H445.771L446.217 502.388L449.313 499.013C452.717 503.815 454.045 508.525 453.462 513.167C452.817 518.299 449.802 523.621 444.075 529.099L424.001 548.301C424 548.302 424 548.302 424 548.302C417.431 554.538 411.206 557.493 405.153 557.504C399.103 557.515 392.88 554.585 386.315 548.305L372.248 534.849L372.04 534.65L371.935 534.55L371.83 534.45L371.725 534.349L371.62 534.248L371.514 534.147L371.408 534.045L371.194 533.841L371.087 533.739L370.979 533.636L370.872 533.533L370.763 533.429L370.655 533.325L370.546 533.221L370.107 532.802L369.886 532.59L369.775 532.484L369.664 532.377L369.552 532.27L369.44 532.163L369.215 531.948L368.988 531.731L368.874 531.622L368.76 531.513L368.646 531.404L368.531 531.294L368.416 531.184L368.301 531.074L367.837 530.63L367.603 530.406L367.485 530.293L367.367 530.181L367.249 530.068L367.131 529.954L366.893 529.727L366.773 529.613L366.654 529.498L366.413 529.268L366.293 529.153L366.172 529.037L365.929 528.805L365.807 528.688L365.685 528.571L365.562 528.454L365.44 528.337L365.317 528.219L365.193 528.101L365.069 527.983L364.945 527.864L364.821 527.745L364.697 527.626L364.446 527.387L364.321 527.267L364.195 527.146L363.943 526.905L363.434 526.418L363.178 526.173L363.049 526.05L362.92 525.927L362.791 525.803L362.662 525.68L362.532 525.556L362.402 525.431L362.272 525.307L362.141 525.182L362.01 525.056L361.879 524.931L361.352 524.426L361.219 524.3L361.086 524.172L360.953 524.045L360.82 523.917L360.686 523.789L360.552 523.661L360.283 523.404L360.148 523.275L360.013 523.146L359.877 523.016L359.742 522.886L359.606 522.756L359.469 522.626L359.333 522.495L359.196 522.364L358.921 522.101L358.783 521.97L358.645 521.838L358.507 521.705L358.369 521.573L358.23 521.44L358.091 521.307L357.951 521.174L357.812 521.04L357.672 520.906L357.531 520.772L357.391 520.638L357.25 520.503L356.968 520.233L356.826 520.097L356.684 519.962L356.542 519.826L356.4 519.69L356.257 519.553L356.114 519.416L355.971 519.279L355.827 519.142L355.251 518.591L355.106 518.452L354.961 518.313L354.816 518.174L354.67 518.035L354.524 517.895L354.378 517.756L354.232 517.616L354.085 517.475L352.902 516.344L352.753 516.201L352.604 516.059L352.305 515.772L352.155 515.629L352.004 515.485L351.703 515.197L351.552 515.052L351.401 514.908L351.249 514.763L351.097 514.617L350.945 514.472L350.793 514.326L350.64 514.18L350.487 514.034L350.334 513.888L350.181 513.741L350.027 513.594L349.874 513.447L349.72 513.3L349.565 513.152L349.256 512.856L349.101 512.708L348.945 512.559L348.79 512.41L348.634 512.261L348.478 512.112L348.322 511.963L348.165 511.813L348.009 511.663L346.746 510.455L346.428 510.151L346.268 509.998L346.109 509.846L345.949 509.693L345.789 509.54L345.629 509.386L345.468 509.233L345.307 509.079L345.146 508.925L344.985 508.771L344.823 508.616L344.662 508.461L344.5 508.306L344.337 508.151L344.175 507.996L344.012 507.84L343.85 507.685L343.686 507.529L343.523 507.372L343.36 507.216L343.196 507.059L343.032 506.902L342.868 506.745L342.703 506.588L342.538 506.43L342.374 506.273L342.208 506.115L342.043 505.957L341.877 505.798L341.712 505.64L341.546 505.481L340.21 504.203L340.042 504.042L339.873 503.881L339.705 503.72L339.536 503.559L339.367 503.397L339.198 503.235L339.029 503.073L338.86 502.911L338.82 502.874H445.112ZM293.92 349.225C319.912 374.178 347.078 400.167 371.089 423.049H255.168C241.651 410.164 228.159 397.282 215.25 384.957C201.944 372.252 189.258 360.139 177.802 349.225H293.92Z" fill="#FFF000" stroke="#BF1B2C" stroke-width="3"/>
<path d="M74.3276 192.574C72.3248 167.768 75.7312 142.469 84.6352 118.749H170.929C154.847 140.616 149.52 167.237 154.696 192.408L153.832 192.574H74.3276ZM443.712 492.583C443.751 492.621 443.786 492.655 443.818 492.686L444.042 492.915C445.32 494.213 446.477 495.395 447.463 496.588L444.452 499.87H335.682C323.636 488.396 310.147 475.517 295.951 461.963C283.771 450.333 271.071 438.207 258.315 426.045H374.235C394.033 444.983 411.438 461.632 423.921 473.584C430.208 479.604 435.245 484.432 438.711 487.76C440.444 489.425 441.783 490.714 442.688 491.589C443.141 492.027 443.484 492.359 443.712 492.583ZM145.253 38.9257C209.355 -8.26421 299.238 -8.35291 363.415 38.9257H145.253ZM124.893 298.624C116.356 290.458 108.947 281.716 102.584 272.398H213.607L290.784 346.223H174.654L124.893 298.624Z" fill="#BF1B2C" stroke="#BF1B2C" stroke-width="3"/>
<path fill-rule="evenodd" clip-rule="evenodd" d="M514 462.965H493.922H514ZM503.961 453.361V472.568V453.361ZM22.0784 78.8285H2H22.0784ZM12.0392 69.225V88.4319V69.225ZM62.2353 318.914H42.1569H62.2353ZM52.1961 309.31V328.517V309.31ZM52.1961 462.965H12.0392H52.1961ZM32.1176 443.758V482.172V443.758ZM433.686 232.483H393.529H433.686ZM413.608 213.276V251.69V213.276ZM393.529 501.378H333.294H393.529ZM313.216 424.551H252.98H313.216ZM232.902 347.724H172.667H232.902ZM152.588 270.897H99.0491H152.588ZM112.431 194.069H72.6962H112.431ZM132.51 117.242H82.3137H132.51ZM293.137 40.4148H140.662H293.137ZM383.49 107.639C354.939 134.951 323.847 106.851 323.847 106.851C284.634 69.3403 221.076 69.3403 181.863 106.842C142.669 144.343 143.513 204.585 182.706 242.086C182.706 242.086 443.645 491.804 443.726 491.881C456.997 504.576 457.218 517.282 443.726 530.189L423.647 549.367C410.235 562.197 397.334 562.226 383.892 549.367C383.611 549.088 122.471 299.707 122.471 299.707C51.9049 232.195 54.6356 120.133 125.201 52.6304C195.777 -14.872 310.194 -14.8816 380.77 52.6304C380.77 52.6304 410.466 81.8247 383.49 107.639Z" stroke="#BF1B2C" stroke-width="3" stroke-linecap="round" stroke-linejoin="round"/>
</svg>
