<svg width="559" height="241" viewBox="0 0 559 241" fill="none" xmlns="http://www.w3.org/2000/svg">
<path fill-rule="evenodd" clip-rule="evenodd" d="M110.362 158.526C106.858 155.042 103.565 161.701 102.368 159.603C101.172 157.506 93.2112 160.801 93.2112 160.801L92.7992 157.941C92.7992 157.941 93.0912 153.884 96.1442 155.236C99.1962 156.587 104.333 153.913 104.535 150.448C102.133 150.088 98.5532 147.519 97.3382 144.105C96.6612 141.851 93.8362 142.509 93.8362 142.509L96.5042 139.441C96.5042 139.441 92.5472 137.716 91.9612 136.269C91.3762 134.824 95.4292 135.228 93.1392 131.38C90.8492 127.532 88.5782 126.891 87.6422 127.55C86.7052 128.208 86.6202 127.29 80.6542 123.79C76.4112 121.299 61.8562 124.776 56.6962 126.126C56.6752 125.87 56.6332 125.613 56.5552 125.357C55.9812 123.442 53.9632 122.355 52.0472 122.93C50.1322 123.505 49.0462 125.525 49.6212 127.439C50.1952 129.354 52.2142 130.44 54.1302 129.865C55.0012 129.603 55.6882 129.035 56.1382 128.32C57.5992 130.107 60.0462 132.632 62.0712 132.394C65.1742 132.028 67.7882 136.136 67.2882 136.733C67.2882 136.733 66.3522 137.815 65.9902 139.31C65.6282 140.806 69.1202 145.184 68.6202 144.801C64.1992 141.404 60.3312 145.933 60.2432 148.923C60.1212 153.161 61.4582 155.806 63.0502 157.046C59.6062 157.685 51.9792 184.373 55.4312 187.683C58.8822 190.994 86.8062 202.169 86.8062 202.169L113.538 195.841C113.538 195.841 111.522 181.894 106.354 176.643C103.554 173.796 99.3042 173.06 96.6272 173.516C95.6552 174.248 94.3712 173.72 93.7582 173.716C92.6302 173.708 93.4532 171.812 95.7172 171.427C99.8862 170.836 103.629 166.31 103.629 166.31C103.629 166.31 107.404 167.359 109.619 166.119C111.833 164.879 113.864 162.01 110.362 158.526Z" fill="white"/>
<path d="M173.833 207.588C136.61 207.588 109.407 204.653 108.869 204.594L109.229 201.355C110.297 201.473 217.003 212.974 297.483 189.98C344.911 176.429 386.778 154.104 409.473 130.26C467.309 69.5023 512.319 57.0452 512.766 56.9272L513.602 60.0763C513.163 60.1943 468.959 72.4933 411.834 132.507C388.408 157.116 347.056 179.206 298.377 193.114C257.91 204.676 210.903 207.588 173.833 207.588Z" fill="white"/>
<path d="M148.719 215.308C143.45 215.084 139.274 218.073 139.029 222.259C138.923 224.056 140.288 225.619 142.085 225.725C143.892 225.831 145.417 224.482 145.523 222.686C145.751 222.234 147.548 221.477 149.532 221.974C151.462 222.457 152.371 223.776 152.312 226.004C152.263 227.877 151.628 229.294 150.314 230.463C146.821 233.571 139.13 234.723 127.444 233.892C126.964 230.845 125.968 225.992 124.15 222.261C135.469 218.704 145.602 207.755 140.219 195.102C136.575 186.538 132.291 178.064 139.934 175.974C139.46 177.318 139.386 178.817 139.828 180.287C140.934 183.974 144.82 186.065 148.506 184.958C152.192 183.851 153.697 180.093 153.176 176.279C152.543 171.65 147.987 167.095 139.642 166.452C131.129 165.795 120.648 175.503 120.903 184.273C121.349 199.611 83.7472 201.563 72.6042 192.73C55.4892 179.16 70.1522 165.685 50.4872 147.4C25.4482 124.119 8.83917 136.472 5.71417 141.156C4.55617 142.892 2.94217 147.041 3.92917 150.326C5.52517 155.64 11.1262 158.653 16.4402 157.057C21.7532 155.462 24.7672 149.86 23.1712 144.547C22.8862 143.594 22.4672 142.721 21.9482 141.93C32.2882 139.607 38.3592 160.763 24.0062 169.61C12.1302 176.93 9.65516 198.972 15.3792 206.704C16.1202 207.705 17.2572 208.677 19.2282 209.655C18.8922 210.007 18.5722 210.363 18.2692 210.712C17.4912 211.614 14.6732 215.044 13.4342 218.727C10.3822 217.211 8.23416 215.457 7.21716 213.573C6.29416 211.858 6.27917 209.927 7.17117 207.67C7.83117 205.996 7.01117 204.104 5.33917 203.442C3.66117 202.778 1.77217 203.6 1.11017 205.274C-0.486835 209.313 -0.358832 213.252 1.48117 216.665C5.25217 223.663 15.3462 227.074 23.1512 228.703C37.4382 231.683 107.628 238.661 124.276 240.176C127.331 240.453 130.782 240.689 134.294 240.689C141.944 240.689 149.884 239.571 154.648 235.335C157.326 232.952 158.732 229.871 158.829 226.178C159.013 219.012 153.718 215.52 148.719 215.308ZM19.4682 221.056C20.1872 218.486 23.8862 213.583 26.2002 212.147C30.4722 213.324 36.3672 214.55 44.5922 215.883C65.8482 219.326 110.035 223.364 116.232 223.472C116.598 223.479 116.967 223.472 117.336 223.458C118.482 224.729 119.994 229.407 120.785 233.305C99.0762 231.255 37.5442 225.048 24.4782 222.322C22.6982 221.951 21.0262 221.525 19.4682 221.056Z" fill="white"/>
<path fill-rule="evenodd" clip-rule="evenodd" d="M444.868 131.485C437.562 129.859 431.298 129.861 428.128 135.155C428.022 135.313 423.985 141.252 424.204 138.23C424.587 132.949 418.589 123.756 415.858 120.557C413.348 117.619 412.1 116.188 409.411 113.444C418.64 109.432 420.469 100.485 416.247 97.1489C410.112 99.7479 401.572 104.498 395.519 107.062C395.356 106.726 392.669 108.186 388.565 108.001C388.455 109.61 390.626 110.973 392.205 111.418C393.784 111.862 396.488 111.584 396.488 111.584C396.488 111.584 399.182 130.095 400.176 135.602C388.668 138.468 372.523 149.601 369.477 153.915C369.477 153.915 367.206 153.44 361.23 154.77C362.302 155.657 363.077 156.958 365.43 157.97C367.782 158.982 369.248 159.582 369.248 159.582C373.61 169.212 369.697 172.802 367.964 172.689C365.728 172.544 359.553 170.685 358.192 170.757C356.829 170.829 354.567 178.456 352.552 182.336C352.097 188.313 349.625 187.42 346.719 189.962C345.36 191.15 345.217 195.891 344.322 197.609C344.68 197.9 352.259 194.083 353.272 192.389C355.452 188.75 356.221 184.203 357.579 180.19C358.809 176.556 361.969 175.883 365.249 177.364C366.027 177.715 366.939 178.635 365.897 182.484C364.629 187.169 361.995 189.263 362.004 190.223C362.036 193.212 362.611 196.861 357.461 196.415C357.957 197.202 353.61 203.562 353.733 205.228C358.351 202.414 364.83 199.683 365.998 193.868C366.508 191.334 370.354 181.932 371.203 179.471C373.216 179.162 381.569 177.769 385.076 176.792C388.708 175.78 390.135 173.625 390.722 169.744C391.018 167.799 391.574 165.066 393.16 164.15C399.235 160.646 406.755 156.898 413.176 154.072C417.77 152.051 423.467 154.002 426.686 157.079C423.054 160.948 420.873 164.839 414.216 163.527C412.142 163.433 408.225 165.612 406.846 169.191C407.302 169.367 414.659 170.005 420.729 167.471C425.337 165.547 428.331 162.252 431.092 159.836C432.986 158.18 432.886 156.477 431.383 154.572C429.701 152.443 427.381 150.55 425.636 148.45C430.158 143.91 431.236 139.679 433.762 136.077C434.397 135.17 438.386 133.994 442.308 136.275C446.797 134.212 447.416 136.452 448.717 137.763C450.656 137.878 453.671 137.826 456.18 135.38C456.514 135.052 448.349 132.26 444.868 131.485Z" fill="white"/>
<path d="M416.889 79.2429C415.62 76.0269 411.764 73.2199 407.721 72.5689C404.496 72.0499 401.696 72.9929 399.839 75.2219C397.156 78.4409 397.664 81.6749 399.031 83.6279C400.783 86.1279 404.127 87.1099 407.163 86.0139C408.009 85.7089 408.447 84.7759 408.142 83.9289C407.835 83.0819 406.906 82.6409 406.055 82.9499C404.124 83.6469 402.444 82.8199 401.7 81.7579C400.808 80.4869 401.043 78.8649 402.342 77.3059C403.74 75.6289 405.758 75.5539 407.203 75.7859C410.041 76.2419 413.025 78.3289 413.857 80.4379C416.873 88.0779 411.318 92.0649 405.439 96.2849C403.985 97.3279 402.613 98.3139 401.39 99.3549C399.847 100.668 398.864 101.857 398.261 102.913C394.598 97.9879 388.758 97.4039 383.9 96.9329L383.053 96.8489C376.588 96.2009 369.892 94.6869 369.253 88.3799C369.163 87.4839 368.367 86.8309 367.468 86.9229C366.573 87.0139 365.92 87.8129 366.012 88.7069C366.296 91.5169 367.453 93.5989 369.038 95.1739C365.285 95.1109 361.722 93.1829 360.084 90.0789C359.664 89.2829 358.68 88.9799 357.884 89.3979C357.088 89.8179 356.784 90.8039 357.203 91.5999C359.456 95.8689 364.163 98.4489 369.169 98.4489C370.345 98.4489 371.538 98.3059 372.719 98.0099C372.841 97.9789 372.953 97.9339 373.061 97.8789C376.595 99.4719 380.564 99.8739 382.729 100.09L383.585 100.174C386.352 100.443 389.165 100.719 391.588 101.752C387.862 101.495 383.453 102.095 379.654 104.215C373.11 106.267 368.218 108.537 362.527 112.238C362.398 112.192 362.263 112.155 362.12 112.144C360.106 111.973 359.348 111.397 359.075 111.068C358.804 110.74 358.812 110.421 358.817 110.357C358.953 109.491 358.378 108.668 357.509 108.504C356.63 108.337 355.774 108.918 355.607 109.803C355.575 109.974 355.324 111.517 356.446 112.995C357.014 113.743 357.82 114.317 358.839 114.724C357.398 115.665 353.619 117.078 350.585 116.408C349.079 116.075 347.992 115.293 347.261 114.015C346.051 111.9 346.077 109.581 347.333 107.811C348.771 105.783 351.433 104.957 354.638 105.553C355.524 105.716 356.372 105.133 356.536 104.248C356.7 103.363 356.116 102.514 355.231 102.349C350.795 101.528 346.847 102.864 344.675 105.925C342.696 108.715 342.602 112.435 344.432 115.633C345.613 117.694 347.496 119.062 349.881 119.588C350.665 119.762 351.478 119.838 352.292 119.838C355.706 119.838 359.17 118.494 360.877 117.285C365.205 114.222 368.76 112.085 372.579 110.344C372.266 110.67 371.961 110.989 371.637 111.331C363.388 120.005 353.118 130.798 340.452 120.715C334.754 116.178 334.22 110.906 334.774 107.282C335.664 101.474 339.831 96.4819 343.182 95.1879C344.022 94.8639 344.439 93.9209 344.116 93.0809C343.793 92.2429 342.849 91.8259 342.01 92.1479C337.778 93.7819 332.676 99.4679 331.555 106.788C331.528 106.964 331.514 107.137 331.492 107.311C330.537 106.655 329.66 105.613 329.985 104.057C330.17 103.176 329.605 102.313 328.726 102.128C327.851 101.947 326.98 102.507 326.797 103.388C325.938 107.486 328.999 109.925 331.42 110.959C331.837 115.658 334.234 119.928 338.422 123.262C342.743 126.702 346.847 128.071 350.696 128.071C360.21 128.07 368.165 119.707 373.997 113.575C375.962 111.509 377.818 109.557 379.367 108.31C379.906 107.877 380.484 107.5 381.083 107.16C381.216 107.106 381.339 107.038 381.448 106.954C386.272 104.399 392.602 104.593 395.87 105.932C396.117 106.033 396.321 106.133 396.506 106.23C396.737 106.662 396.958 107.116 397.152 107.618C397.402 108.264 398.018 108.66 398.673 108.66C398.832 108.66 398.994 108.619 399.154 108.569C399.234 108.572 399.314 108.575 399.395 108.566C399.466 108.558 399.533 108.538 399.6 108.521C399.812 108.493 400.023 108.438 400.219 108.322C400.991 107.863 401.247 106.863 400.788 106.089C400.335 105.327 401.451 103.576 403.5 101.831C404.62 100.877 405.939 99.9299 407.336 98.9259C413.352 94.6159 420.836 89.2449 416.889 79.2429Z" fill="white"/>
<path fill-rule="evenodd" clip-rule="evenodd" d="M537.678 62.9804C530.207 63.4714 529.969 70.0244 528.85 65.7094C527.519 60.5844 524.111 49.6814 521.145 46.7004C518.418 43.9614 518.309 44.5734 515.418 42.0424C525.544 41.2194 528.276 30.5714 523.815 27.5674C517.896 30.6274 505.677 31.7754 499.836 34.7934C499.648 34.4704 497.08 36.1314 492.972 36.2594C492.986 37.8724 495.254 39.0654 496.863 39.3884C498.472 39.7104 501.147 39.2274 501.147 39.2274C501.147 39.2274 503.7 55.9734 505.111 61.3894C493.852 65.1234 480.146 78.9604 477.437 83.4934C477.437 83.4934 475.137 83.1914 469.28 84.9734C470.418 85.7754 471.288 87.0154 473.711 87.8454C476.135 88.6754 477.643 89.1614 477.643 89.1614C482.726 98.4324 479.098 102.308 477.36 102.328C475.12 102.353 468.821 100.97 467.468 101.145C466.114 101.321 464.44 109.098 462.729 113.12C462.729 119.113 460.197 118.413 457.493 121.168C456.228 122.456 456.447 127.195 455.685 128.976C456.065 129.239 463.331 124.856 464.211 123.091C466.106 119.295 466.528 114.705 467.577 110.599C468.526 106.881 471.625 105.971 475.009 107.197C475.811 107.487 476.791 108.335 476.046 112.252C475.137 117.02 472.67 119.31 472.754 120.266C473.012 123.244 473.864 126.837 468.695 126.786C469.25 127.534 465.399 134.207 465.648 135.857C470.041 132.699 476.292 129.482 477.011 123.596C477.327 121.03 480.448 111.363 481.107 108.845C483.089 108.383 491.311 106.358 494.735 105.116C498.279 103.83 499.537 101.573 499.828 97.6584C499.975 95.6974 500.321 92.9294 501.833 91.8954C507.623 87.9374 510.058 85.3294 516.246 82.0224C520.672 79.6584 527.545 83.9864 530.99 86.8084C527.663 90.9434 520.645 96.3634 516.002 92.9564C513.926 93.0214 511.014 94.3384 509.911 98.0124C510.381 98.1544 518.25 98.6554 523.494 97.0254C528.265 95.5434 532.912 90.6614 535.482 88.0424C537.244 86.2474 534.582 83.9914 532.937 82.2064C531.099 80.2114 529.754 79.0874 527.854 77.1264C532.238 74.0734 533.739 70.7294 537.648 67.5654C538.509 66.8684 542.59 67.1334 546.676 69.1084C551.355 68.5724 550.011 72.4834 551.406 73.6924C553.35 73.6584 558.645 75.5114 558.645 75.5114C558.423 73.0454 552.634 66.1794 548.959 64.9124C545.365 63.6694 539.475 62.8614 537.678 62.9804Z" fill="white"/>
<path d="M527.026 7.95812C526.1 4.62712 522.558 1.43512 518.604 0.367116C515.448 -0.486884 512.565 0.161139 510.488 2.18514C507.485 5.10714 507.653 8.37612 508.811 10.4621C510.293 13.1321 513.516 14.4521 516.65 13.6801C517.522 13.4641 518.055 12.5811 517.839 11.7081C517.623 10.8351 516.741 10.3021 515.866 10.5181C513.875 11.0101 512.289 10.0141 511.659 8.87914C510.904 7.52314 511.305 5.93413 512.759 4.52013C514.326 2.99413 516.34 3.13111 517.754 3.51311C520.529 4.26311 523.279 6.64811 523.887 8.83211C526.09 16.7441 520.153 20.1321 513.866 23.7171C512.311 24.6031 510.844 25.4411 509.519 26.3491C507.848 27.4951 506.747 28.5751 506.038 29.5621C502.908 24.2841 497.162 23.0961 492.38 22.1221L491.545 21.9511C485.182 20.6321 478.679 18.4301 478.699 12.0911C478.702 11.1911 477.974 10.4591 477.075 10.4561C477.073 10.4561 477.072 10.4561 477.07 10.4561C476.173 10.4561 475.444 11.1821 475.441 12.0801C475.432 14.8941 476.344 17.0921 477.748 18.8211C474.034 18.3581 470.706 16.0761 469.404 12.8281C469.068 11.9911 468.121 11.5861 467.285 11.9221C466.45 12.2571 466.046 13.2051 466.38 14.0411C468.358 18.9721 473.503 22.1771 479.083 22.1771C479.765 22.1771 480.454 22.1291 481.144 22.0301C481.267 22.0121 481.384 21.9791 481.496 21.9361C484.848 23.8891 488.754 24.7001 490.885 25.1411L491.731 25.3151C494.454 25.8701 497.221 26.4371 499.523 27.7151C495.842 27.0721 491.395 27.2101 487.397 28.9241C480.677 30.2831 475.577 32.0321 469.531 35.1201C469.407 35.0611 469.276 35.0101 469.135 34.9841C467.151 34.6061 466.455 33.9531 466.22 33.5981C465.982 33.2431 466.024 32.9261 466.036 32.8641C466.261 32.0171 465.772 31.1391 464.928 30.8861C464.065 30.6271 463.157 31.1171 462.9 31.9801C462.85 32.1471 462.441 33.6561 463.405 35.2431C463.894 36.0481 464.637 36.7031 465.61 37.2141C464.072 38.0001 460.164 39.0091 457.217 38.0271C455.755 37.5401 454.756 36.6491 454.161 35.3021C453.179 33.0731 453.445 30.7691 454.88 29.1391C456.522 27.2721 459.258 26.7301 462.379 27.6551C463.24 27.9091 464.148 27.4181 464.403 26.5541C464.659 25.6921 464.166 24.7841 463.303 24.5301C458.97 23.2491 454.91 24.1691 452.432 26.9881C450.172 29.5571 449.693 33.2471 451.18 36.6171C452.139 38.7891 453.869 40.3461 456.187 41.1181C457.406 41.5251 458.722 41.6921 460.026 41.6921C462.947 41.6921 465.802 40.8501 467.366 39.9721C471.988 37.3761 475.745 35.6201 479.724 34.2861C479.381 34.5781 479.044 34.8631 478.687 35.1681C469.577 42.9381 458.241 52.6041 446.694 41.2571C441.498 36.1531 441.514 30.8551 442.444 27.3091C443.932 21.6251 448.597 17.0931 452.065 16.1541C452.932 15.9181 453.446 15.0241 453.211 14.1561C452.975 13.2861 452.078 12.7731 451.213 13.0091C446.834 14.1941 441.168 19.3191 439.291 26.4831C439.246 26.6541 439.214 26.8251 439.174 26.9961C438.295 26.2441 437.531 25.1161 438.018 23.6031C438.292 22.7461 437.821 21.8291 436.963 21.5541C436.105 21.2791 435.191 21.7521 434.914 22.6071C433.635 26.5931 436.426 29.3361 438.725 30.6161C438.651 35.3341 440.591 39.8301 444.411 43.5811C448.941 48.0331 453.471 49.7311 457.831 49.7301C466.637 49.7301 474.753 42.8061 480.802 37.6461C482.971 35.7961 485.019 34.0491 486.689 32.9701C487.27 32.5951 487.885 32.2791 488.519 32.0021C488.654 31.9611 488.782 31.9081 488.898 31.8381C493.962 29.7971 500.238 30.6491 503.351 32.3201C503.586 32.4471 503.779 32.5671 503.951 32.6841C504.138 33.1381 504.308 33.6131 504.449 34.1321C504.647 34.8581 505.304 35.3351 506.021 35.3351C506.136 35.3351 506.252 35.3131 506.369 35.2881C506.434 35.2961 506.498 35.3071 506.564 35.3071C506.571 35.3071 506.578 35.3071 506.584 35.3071C506.625 35.3071 506.666 35.2981 506.706 35.2941C506.721 35.2951 506.733 35.3001 506.747 35.3001C506.975 35.3001 507.206 35.2521 507.427 35.1511C508.244 34.7751 508.602 33.8071 508.226 32.9901C507.856 32.1841 509.147 30.5591 511.367 29.0371C512.579 28.2061 513.989 27.4001 515.484 26.5491C521.909 22.8791 529.911 18.3151 527.026 7.95812Z" fill="white"/>
<path fill-rule="evenodd" clip-rule="evenodd" d="M287.636 191.297C287.636 191.297 269.932 191.085 265.28 191.799C260.63 192.514 251.003 193.626 244.521 195.537C244.43 199.122 247.891 199.598 249.53 199.529C248.887 201.916 248.618 209.1 244.406 210.297C240.194 211.493 235.938 205.828 234.52 206.138C233.101 206.448 226.268 215.006 226.268 215.006C226.268 215.006 226.311 217.974 223.764 219.281C221.218 220.587 218.793 219.998 218.793 219.998L214.772 226.018C214.772 226.018 221.243 225.826 223.288 224.23C224.757 223.084 228.674 219.946 229.252 218.942C229.406 218.673 232.824 214.181 234.566 211.807C236.96 213.087 239.332 213.634 240.035 214.629C239.931 216.935 232.759 223.897 232.759 223.897C232.759 223.897 233.427 226.124 231.136 227.626C228.535 229.33 226.689 228.492 226.689 228.492L222.188 233.761C222.188 233.761 229.313 233.949 233.102 230.894C235.813 228.71 244.025 216.764 244.025 216.764C244.025 216.764 257.78 218.681 261.917 216.398C264.031 215.23 262.179 213.335 266.417 212.319C270.655 211.302 293.858 212.132 295.345 212.272C296.832 212.408 298.611 213.862 299.15 213.793C309.658 212.454 318.397 208.548 319.648 208.355C320.902 208.163 327.057 215.459 327.057 215.459C327.057 215.459 329.758 213.807 330.637 217.152C331.517 220.497 330.675 221.128 330.675 221.128L337.307 224.962C337.307 224.962 334.117 214.923 331.462 213.133C328.807 211.343 322.409 204.269 320.62 204.543C318.831 204.818 310.904 205.668 310.904 205.668C310.904 205.668 318.901 201.693 322.948 201.805C326.993 201.916 334.718 206.315 334.718 206.315C334.718 206.315 338.083 205.395 339.473 206.866C341.058 208.546 341.345 210.699 341.345 210.699L348.824 211.107C348.824 211.107 338.217 201.657 335.711 202.042C333.206 202.427 327.242 197.573 323.822 197.367C320.402 197.159 311.395 198.725 311.395 198.725C311.395 198.725 312.505 189.856 309.835 186.787C307.167 183.717 295.505 177.542 290.545 174.458C293.634 173.708 298.88 166.128 298.798 163.21C298.718 160.292 295.724 158.097 295.724 158.097C295.724 158.097 280.597 166.921 278.188 169.122C275.78 171.323 275.67 171.798 275.67 171.798L269.53 173.565C269.53 173.565 271.402 177.398 277.947 175.294C278.192 178.095 280.077 183.207 282.229 185.898C284.849 189.173 287.636 191.297 287.636 191.297Z" fill="white"/>
<path d="M293.995 144.397C292.867 141.54 289.452 139.048 285.874 138.473C282.993 138.01 280.495 138.855 278.833 140.85C276.429 143.737 276.89 146.646 278.123 148.406C279.7 150.655 282.705 151.536 285.428 150.555C286.274 150.249 286.713 149.315 286.407 148.469C286.102 147.623 285.167 147.185 284.322 147.49C282.751 148.056 281.393 147.393 280.792 146.536C280.079 145.519 280.278 144.207 281.337 142.936C282.486 141.557 284.156 141.498 285.357 141.691C287.752 142.076 290.267 143.827 290.964 145.594C293.339 151.616 289.644 154.848 283.734 159.091C282.47 159.998 281.274 160.856 280.208 161.765C278.979 162.812 278.156 163.771 277.611 164.64C274.32 160.503 269.158 159.998 265.192 159.614L264.459 159.541C258.936 158.987 253.216 157.702 252.676 152.385C252.586 151.489 251.785 150.839 250.892 150.929C249.996 151.02 249.345 151.819 249.436 152.714C249.666 154.985 250.532 156.721 251.74 158.068C248.762 157.85 246.006 156.256 244.699 153.781C244.28 152.986 243.294 152.681 242.498 153.1C241.702 153.52 241.397 154.506 241.817 155.301C243.81 159.076 247.97 161.358 252.392 161.358C253.43 161.358 254.482 161.233 255.523 160.972C255.607 160.951 255.684 160.919 255.761 160.886C258.836 162.249 262.256 162.594 264.134 162.782L264.877 162.855C266.777 163.039 268.699 163.232 270.456 163.751C267.52 163.748 264.263 164.354 261.397 165.949C255.748 167.723 251.509 169.686 246.601 172.869C246.501 172.841 246.398 172.821 246.292 172.811C244.401 172.651 243.59 172.038 243.621 171.498C243.751 170.635 243.175 169.819 242.311 169.656C241.423 169.49 240.576 170.072 240.409 170.956C240.36 171.214 240.169 172.568 241.179 173.895C241.622 174.478 242.221 174.943 242.96 175.297C241.546 176.075 238.657 177.033 236.311 176.516C235.068 176.241 234.17 175.596 233.568 174.543C232.56 172.783 232.58 170.857 233.619 169.392C234.816 167.703 237.05 167.02 239.742 167.52C240.631 167.685 241.477 167.099 241.641 166.215C241.805 165.33 241.22 164.48 240.335 164.316C236.399 163.587 232.895 164.78 230.96 167.507C229.194 169.998 229.108 173.314 230.739 176.162C231.794 178.005 233.477 179.227 235.608 179.698C236.301 179.851 237.018 179.918 237.739 179.918C240.754 179.918 243.813 178.732 245.32 177.665C248.66 175.301 251.469 173.583 254.38 172.169C254.38 172.17 254.379 172.171 254.378 172.172C247.279 179.635 238.446 188.921 227.607 180.295C222.744 176.423 222.287 171.929 222.76 168.841C223.521 163.877 227.07 159.617 229.921 158.516C230.761 158.192 231.179 157.249 230.854 156.41C230.531 155.571 229.59 155.153 228.748 155.477C225.019 156.916 220.525 161.916 219.54 168.348C219.535 168.378 219.533 168.408 219.529 168.438C218.886 167.904 218.38 167.129 218.604 166.056C218.789 165.175 218.224 164.311 217.344 164.127C216.464 163.945 215.599 164.507 215.415 165.387C214.655 169.012 217.284 171.189 219.432 172.145C219.829 176.231 221.933 179.942 225.578 182.843C229.383 185.872 232.991 187.076 236.372 187.076C244.698 187.076 251.644 179.772 256.738 174.416C258.437 172.629 260.042 170.943 261.374 169.869C261.816 169.514 262.292 169.196 262.788 168.91C262.883 168.873 262.972 168.83 263.055 168.778C266.573 166.876 271.178 166.618 274.38 167.472C275.068 167.655 275.577 167.861 275.95 168.05C276.137 168.403 276.314 168.771 276.471 169.177C276.721 169.823 277.337 170.219 277.992 170.219C278.134 170.219 278.275 170.178 278.418 170.139C278.492 170.142 278.568 170.145 278.645 170.137C278.714 170.129 278.778 170.11 278.844 170.093C279.049 170.063 279.253 170.008 279.444 169.896C280.217 169.437 280.472 168.438 280.013 167.663C279.735 167.194 280.45 165.835 282.321 164.242C283.286 163.421 284.426 162.602 285.636 161.735C290.633 158.147 297.479 153.232 293.995 144.397Z" fill="white"/>
</svg>
