<svg width="543" height="625" viewBox="0 0 543 625" fill="none" xmlns="http://www.w3.org/2000/svg">
<path d="M415.97 432.546C415.97 432.546 414.74 428.406 411.822 421.435C408.968 414.434 404.193 404.658 397.478 393.322C394.07 387.683 390.237 381.617 385.76 375.421C381.385 369.16 376.25 362.854 370.752 356.437C367.918 353.289 365.113 350.022 362.012 346.907C360.48 345.334 358.981 343.716 357.377 342.168C355.754 340.634 354.124 339.091 352.486 337.543C349.266 334.391 345.679 331.513 342.255 328.454C338.668 325.554 335.089 322.605 331.36 319.804C327.58 317.063 323.901 314.185 319.988 311.599C316.132 308.945 312.294 306.276 308.284 303.875C306.301 302.641 304.325 301.413 302.361 300.189C300.346 299.035 298.3 297.939 296.273 296.839C294.239 295.749 292.249 294.612 290.187 293.621C288.105 292.663 286.04 291.709 283.99 290.766C281.917 289.864 279.887 288.917 277.818 288.093C275.724 287.325 273.646 286.566 271.591 285.812C269.527 285.088 267.483 284.372 265.466 283.664C263.422 283.016 261.36 282.481 259.354 281.897C255.321 280.778 251.435 279.604 247.557 278.832C243.687 278.033 239.97 277.228 236.385 276.547C232.768 275.973 229.281 275.523 225.985 275.075C222.689 274.629 219.562 274.249 216.58 274.119C210.641 273.768 205.52 273.354 201.238 273.512C196.977 273.566 193.639 273.684 191.368 273.793C189.099 273.923 187.888 273.991 187.888 273.991C187.367 274.02 186.972 274.421 187.007 274.881C187.033 275.226 187.286 275.506 187.63 275.616L187.679 275.63C187.679 275.63 188.82 275.994 190.961 276.677C193.097 277.341 196.231 278.272 200.197 279.358C201.187 279.626 202.231 279.909 203.325 280.204C204.406 280.551 205.536 280.914 206.715 281.292C209.067 282 211.613 282.768 214.33 283.585C215.685 283.984 217.082 284.394 218.519 284.817C219.937 285.292 221.396 285.781 222.894 286.283C225.883 287.241 229.026 288.248 232.306 289.299C238.74 291.687 245.772 293.966 252.962 296.89C254.77 297.588 256.602 298.294 258.459 299.01C260.284 299.782 262.13 300.564 263.996 301.355C265.875 302.117 267.774 302.886 269.689 303.665C271.575 304.499 273.476 305.339 275.396 306.187C277.332 307.004 279.287 307.826 281.256 308.656C283.193 309.543 285.141 310.439 287.103 311.339C289.079 312.226 291.066 313.12 293.06 314.016C295.015 314.986 296.982 315.96 298.953 316.939C306.908 320.786 314.612 325.311 322.085 330.137C325.8 332.574 329.391 335.167 333.001 337.714C336.453 340.424 340.08 342.957 343.362 345.778C345.033 347.163 346.7 348.542 348.355 349.913C349.966 351.331 351.568 352.74 353.162 354.142C356.403 356.908 359.364 359.841 362.365 362.669C368.225 368.432 373.658 374.213 378.551 379.889C383.519 385.522 387.858 391.095 391.764 396.313C399.512 406.786 405.086 416.038 408.791 422.593C412.506 429.165 414.196 433.064 414.196 433.064C414.379 433.492 414.919 433.704 415.4 433.539C415.846 433.386 416.083 432.961 415.967 432.561L415.97 432.546Z" fill="#FF8000"/>
<path d="M470.792 588.075C470.792 588.075 467.456 584.667 461.157 579.156C458.021 576.38 454.111 573.106 449.49 569.48C444.903 565.816 439.559 561.857 433.662 557.595C427.708 553.402 421.2 548.903 414.086 544.413C407.01 539.874 399.321 535.366 391.22 530.891C383.133 526.396 374.585 522.006 365.703 517.846C361.282 515.735 356.718 513.791 352.186 511.737C347.571 509.846 342.983 507.842 338.296 506.027C328.94 502.374 319.523 498.78 310.069 495.61C307.705 494.813 305.353 494.019 303.01 493.23C300.659 492.454 298.279 491.802 295.927 491.106C293.572 490.421 291.231 489.725 288.888 489.102C286.526 488.53 284.183 487.963 281.858 487.399C279.52 486.881 277.202 486.367 274.905 485.857C272.599 485.378 270.289 485.017 268.011 484.621C263.452 483.855 258.994 483.11 254.596 482.666C250.214 482.16 245.96 481.653 241.82 481.339C237.668 481.087 233.672 480.808 229.83 480.631C225.992 480.431 222.287 480.495 218.786 480.447C215.278 480.468 211.968 480.392 208.839 480.604C202.591 480.916 197.174 481.178 192.721 481.713C188.267 482.214 184.784 482.683 182.418 483.034C180.054 483.401 178.792 483.597 178.792 483.597C178.278 483.678 177.934 484.111 178.025 484.567C178.092 484.912 178.39 485.17 178.752 485.242L178.792 485.248C178.792 485.248 180.042 485.49 182.388 485.942C184.729 486.375 188.155 486.97 192.493 487.63C194.664 487.915 197.054 488.382 199.65 488.854C202.242 489.286 205.045 489.754 208.042 490.254C211.033 490.695 214.193 491.331 217.524 491.932C220.85 492.547 224.353 493.084 227.984 493.785C231.606 494.535 235.386 495.22 239.282 495.967C243.189 496.654 247.171 497.645 251.3 498.428C255.43 499.208 259.617 500.25 263.924 501.167C266.077 501.625 268.253 502.087 270.452 502.556C272.641 503.055 274.85 503.561 277.079 504.069C279.317 504.541 281.577 505.018 283.85 505.497C286.101 506.056 288.39 506.554 290.689 507.068C292.993 507.578 295.308 508.092 297.637 508.608C299.955 509.169 302.284 509.733 304.623 510.298C314 512.521 323.396 515.24 332.678 518.253C337.325 519.752 341.886 521.444 346.484 523.023C351.003 524.765 355.561 526.404 359.992 528.212C364.42 530.022 368.834 531.796 373.125 533.676C377.456 535.49 381.67 537.4 385.804 539.309C389.969 541.166 393.935 543.202 397.894 545.084C401.766 547.092 405.625 548.971 409.286 550.932C416.681 554.769 423.489 558.67 429.745 562.323C435.944 566.045 441.593 569.525 446.463 572.772C451.354 575.998 455.55 578.898 458.967 581.325C465.815 586.188 469.46 589.214 469.46 589.214C469.836 589.526 470.425 589.509 470.776 589.175C471.103 588.876 471.099 588.391 470.792 588.075Z" fill="#FF8000"/>
<path d="M542.24 449.073C542.24 449.073 539.764 442.28 534.817 430.603C529.903 418.914 522.327 402.4 512.348 382.908C507.341 373.17 501.737 362.685 495.493 351.724C489.263 340.756 482.315 329.356 474.832 317.694C459.85 294.382 442.242 270.263 422.534 247.397C412.771 235.902 402.445 224.754 391.775 214.112C381.122 203.459 369.936 193.456 358.337 184.494C346.686 175.592 334.696 167.668 322.692 161.013C319.667 159.376 316.706 157.739 313.733 156.208C310.727 154.724 307.768 153.264 304.858 151.828C301.88 150.503 298.951 149.2 296.078 147.92C293.158 146.732 290.292 145.563 287.484 144.42C284.643 143.34 281.854 142.304 279.111 141.334C276.377 140.349 273.615 139.563 270.979 138.704C268.35 137.833 265.724 137.127 263.183 136.426C260.644 135.72 258.194 135.01 255.749 134.512C246.102 132.159 237.503 130.861 230.439 129.988C226.922 129.486 223.714 129.358 220.973 129.1C218.233 128.834 215.871 128.797 213.969 128.739C210.171 128.646 208.146 128.596 208.146 128.596C207.63 128.584 207.2 128.945 207.186 129.401C207.175 129.79 207.465 130.124 207.867 130.223L207.909 130.233C207.909 130.233 209.843 130.712 213.47 131.612C217.096 132.436 222.354 133.87 228.947 135.759C232.222 136.789 235.871 137.786 239.735 139.185C241.674 139.838 243.696 140.517 245.788 141.22C247.85 141.999 249.984 142.804 252.188 143.635C254.398 144.438 256.621 145.406 258.933 146.323C261.242 147.254 263.617 148.193 265.991 149.297C270.796 151.378 275.715 153.795 280.859 156.253C283.388 157.556 285.968 158.887 288.6 160.243C291.175 161.678 293.8 163.139 296.471 164.627C299.102 166.161 301.78 167.723 304.5 169.306C307.168 170.956 309.876 172.632 312.624 174.33C323.503 181.262 334.596 189.047 345.7 197.541C356.856 205.977 368.086 215.078 379.116 224.748C390.164 234.406 400.704 244.871 410.888 255.629C420.979 266.453 430.651 277.621 439.729 288.92C448.795 300.225 457.447 311.547 465.473 322.72C473.5 333.891 480.887 344.911 487.759 355.44C494.616 365.975 500.823 376.089 506.393 385.501C517.543 404.325 525.975 420.421 531.77 431.728C537.537 443.05 540.487 449.642 540.487 449.642C540.678 450.066 541.217 450.274 541.696 450.105C542.158 449.938 542.388 449.483 542.24 449.073Z" fill="#FF8000"/>
<path d="M99.1361 263.939L105.215 290.541L77.8314 309.332L109.72 307.648L119.736 328.883L132.191 309.665L163.194 310.385L139.676 291.012L146.432 270.181L124.918 280.022L99.1361 263.939Z" fill="#FF8000"/>
<path d="M75.5207 559.665L81.6017 586.264L54.216 605.056L86.1067 603.372L96.1233 624.607L108.578 605.388L139.579 606.109L116.061 586.735L122.819 565.904L101.305 575.746L75.5207 559.665Z" fill="#FF8000"/>
<path d="M314.921 -1.04861e-06L320.999 26.6019L293.616 45.3934L325.504 43.7091L335.521 64.9444L347.976 45.7257L378.979 46.4461L355.461 27.0726L362.216 6.2418L340.702 16.0813L314.921 -1.04861e-06Z" fill="#FF8000"/>
<path d="M10.4723 365.105L13.4618 378.181L0.000178926 387.418L15.6747 386.591L20.5982 397.029L26.721 387.581L41.9609 387.936L30.4008 378.413L33.7203 368.175L23.1459 373.011L10.4723 365.105Z" fill="#FF8000"/>
<path d="M39.9037 224.576L42.8907 237.652L29.4315 246.889L45.106 246.059L50.0296 256.499L56.1501 247.052L71.3899 247.405L59.8299 237.883L63.1516 227.643L52.5772 232.482L39.9037 224.576Z" fill="#FF8000"/>
<path d="M97.9992 486.914L100.989 499.99L87.527 509.226L103.204 508.399L108.127 518.839L114.248 509.392L129.488 509.744L117.928 500.223L121.25 489.983L110.673 494.821L97.9992 486.914Z" fill="#FF8000"/>
<path d="M167.576 150.08L170.565 163.156L157.103 172.392L172.778 171.565L177.701 182.003L183.824 172.557L199.064 172.91L187.504 163.387L190.824 153.147L180.249 157.985L167.576 150.08Z" fill="#FF8000"/>
<path d="M119.901 29.7617L122.888 42.8377L109.429 52.0745L125.104 51.2468L130.027 61.6849L136.15 52.2396L151.39 52.5926L139.828 43.0689L143.149 32.829L132.575 37.6672L119.901 29.7617Z" fill="#FF8000"/>
</svg>
