<svg width="543" height="625" viewBox="0 0 543 625" fill="none" xmlns="http://www.w3.org/2000/svg">
<path d="M126.315 432.546C126.315 432.546 127.545 428.406 130.462 421.435C133.317 414.434 138.091 404.658 144.807 393.322C148.215 387.683 152.048 381.617 156.525 375.421C160.9 369.16 166.035 362.854 171.533 356.437C174.366 353.289 177.172 350.022 180.273 346.907C181.805 345.334 183.304 343.716 184.908 342.168C186.531 340.634 188.16 339.091 189.799 337.543C193.019 334.391 196.605 331.513 200.029 328.454C203.616 325.554 207.196 322.605 210.925 319.804C214.704 317.063 218.384 314.185 222.296 311.599C226.153 308.945 229.991 306.276 234.001 303.875C235.983 302.641 237.959 301.413 239.924 300.189C241.939 299.035 243.985 297.939 246.012 296.839C248.046 295.749 250.035 294.612 252.097 293.621C254.18 292.663 256.244 291.709 258.295 290.766C260.368 289.864 262.397 288.917 264.466 288.093C266.561 287.325 268.639 286.566 270.694 285.812C272.758 285.088 274.801 284.372 276.819 283.664C278.862 283.016 280.924 282.481 282.93 281.897C286.964 280.778 290.85 279.604 294.727 278.832C298.598 278.033 302.315 277.228 305.899 276.547C309.516 275.973 313.003 275.523 316.299 275.075C319.596 274.629 322.722 274.249 325.705 274.119C331.644 273.768 336.765 273.354 341.047 273.512C345.308 273.566 348.646 273.684 350.917 273.793C353.186 273.923 354.397 273.991 354.397 273.991C354.917 274.02 355.313 274.421 355.278 274.881C355.252 275.226 354.999 275.506 354.655 275.616L354.606 275.63C354.606 275.63 353.465 275.994 351.324 276.677C349.187 277.341 346.054 278.272 342.088 279.358C341.098 279.626 340.054 279.909 338.959 280.204C337.878 280.551 336.749 280.914 335.57 281.292C333.218 282 330.672 282.768 327.955 283.585C326.6 283.984 325.202 284.394 323.766 284.817C322.348 285.292 320.888 285.781 319.391 286.283C316.402 287.241 313.259 288.248 309.979 289.299C303.545 291.687 296.513 293.966 289.323 296.89C287.514 297.588 285.683 298.294 283.825 299.01C282 299.782 280.155 300.564 278.288 301.355C276.41 302.117 274.511 302.886 272.595 303.665C270.71 304.499 268.809 305.339 266.889 306.187C264.952 307.004 262.997 307.826 261.028 308.656C259.092 309.543 257.144 310.439 255.182 311.339C253.206 312.226 251.219 313.12 249.224 314.016C247.269 314.986 245.303 315.96 243.331 316.939C235.377 320.786 227.673 325.311 220.2 330.137C216.485 332.574 212.894 335.167 209.284 337.714C205.832 340.424 202.205 342.957 198.923 345.778C197.252 347.163 195.585 348.542 193.93 349.913C192.319 351.331 190.717 352.74 189.123 354.142C185.882 356.908 182.921 359.841 179.92 362.669C174.059 368.432 168.627 374.213 163.734 379.889C158.766 385.522 154.426 391.095 150.521 396.313C142.773 406.786 137.199 416.038 133.493 422.593C129.779 429.165 128.089 433.064 128.089 433.064C127.905 433.492 127.366 433.704 126.885 433.539C126.438 433.386 126.201 432.961 126.317 432.561L126.315 432.546Z" fill="#B10202"/>
<path d="M71.4929 588.075C71.4929 588.075 74.8285 584.667 81.1281 579.156C84.2639 576.38 88.1739 573.106 92.7952 569.48C97.3815 565.816 102.726 561.857 108.623 557.595C114.576 553.402 121.085 548.903 128.198 544.413C135.274 539.874 142.964 535.366 151.065 530.891C159.152 526.396 167.7 522.006 176.582 517.846C181.003 515.735 185.566 513.791 190.099 511.737C194.713 509.846 199.302 507.842 203.988 506.027C213.345 502.374 222.761 498.78 232.216 495.61C234.58 494.813 236.932 494.019 239.275 493.23C241.625 492.454 244.006 491.802 246.358 491.106C248.713 490.421 251.054 489.725 253.397 489.102C255.759 488.53 258.102 487.963 260.426 487.399C262.765 486.881 265.083 486.367 267.379 485.857C269.685 485.378 271.996 485.017 274.274 484.621C278.832 483.855 283.291 483.11 287.689 482.666C292.071 482.16 296.325 481.653 300.465 481.339C304.616 481.087 308.612 480.808 312.455 480.631C316.293 480.431 319.998 480.495 323.499 480.447C327.007 480.468 330.317 480.392 333.446 480.604C339.694 480.916 345.11 481.178 349.564 481.713C354.018 482.214 357.5 482.683 359.867 483.034C362.231 483.401 363.493 483.597 363.493 483.597C364.007 483.678 364.351 484.111 364.26 484.567C364.193 484.912 363.895 485.17 363.532 485.242L363.493 485.248C363.493 485.248 362.242 485.49 359.897 485.942C357.556 486.375 354.13 486.97 349.792 487.63C347.621 487.915 345.231 488.382 342.635 488.854C340.043 489.286 337.239 489.754 334.243 490.254C331.251 490.695 328.092 491.331 324.761 491.932C321.435 492.547 317.931 493.084 314.301 493.785C310.679 494.535 306.899 495.22 303.003 495.967C299.095 496.654 295.113 497.645 290.985 498.428C286.854 499.208 282.668 500.25 278.36 501.167C276.208 501.625 274.032 502.087 271.833 502.556C269.643 503.055 267.435 503.561 265.206 504.069C262.967 504.541 260.708 505.018 258.434 505.497C256.184 506.056 253.894 506.554 251.595 507.068C249.292 507.578 246.976 508.092 244.647 508.608C242.33 509.169 240.001 509.733 237.662 510.298C228.285 512.521 218.889 515.24 209.607 518.253C204.96 519.752 200.399 521.444 195.801 523.023C191.282 524.765 186.724 526.404 182.293 528.212C177.865 530.022 173.45 531.796 169.159 533.676C164.829 535.49 160.614 537.4 156.481 539.309C152.316 541.166 148.35 543.202 144.391 545.084C140.518 547.092 136.66 548.971 132.998 550.932C125.604 554.769 118.795 558.67 112.54 562.323C106.34 566.045 100.692 569.525 95.8217 572.772C90.9309 575.998 86.735 578.898 83.3178 581.325C76.4697 586.188 72.8248 589.214 72.8248 589.214C72.4482 589.526 71.86 589.509 71.509 589.175C71.1813 588.876 71.186 588.391 71.4929 588.075Z" fill="#BF1B2C"/>
<path d="M0.0449896 449.073C0.0449896 449.073 2.52063 442.28 7.46731 430.603C12.3814 418.914 19.9572 402.4 29.9366 382.908C34.9437 373.17 40.5482 362.685 46.7919 351.724C53.0218 340.756 59.9699 329.356 67.4527 317.694C82.4345 294.382 100.043 270.263 119.751 247.397C129.514 235.902 139.84 224.754 150.509 214.112C161.163 203.459 172.349 193.456 183.948 184.494C195.599 175.592 207.589 167.668 219.593 161.013C222.617 159.376 225.579 157.739 228.552 156.208C231.558 154.724 234.517 153.264 237.427 151.828C240.405 150.503 243.334 149.2 246.207 147.92C249.127 146.732 251.993 145.563 254.801 144.42C257.642 143.34 260.431 142.304 263.174 141.334C265.908 140.349 268.669 139.563 271.305 138.704C273.934 137.833 276.561 137.127 279.102 136.426C281.64 135.72 284.09 135.01 286.536 134.512C296.183 132.159 304.781 130.861 311.846 129.988C315.363 129.486 318.571 129.358 321.311 129.1C324.052 128.834 326.414 128.797 328.315 128.739C332.114 128.646 334.138 128.596 334.138 128.596C334.654 128.584 335.084 128.945 335.098 129.401C335.11 129.79 334.819 130.124 334.417 130.223L334.375 130.233C334.375 130.233 332.441 130.712 328.815 131.612C325.189 132.436 319.931 133.87 313.338 135.759C310.063 136.789 306.413 137.786 302.55 139.185C300.611 139.838 298.589 140.517 296.497 141.22C294.435 141.999 292.301 142.804 290.097 143.635C287.886 144.438 285.664 145.406 283.351 146.323C281.043 147.254 278.667 148.193 276.294 149.297C271.489 151.378 266.57 153.795 261.426 156.253C258.897 157.556 256.316 158.887 253.685 160.243C251.109 161.678 248.485 163.139 245.814 164.627C243.183 166.161 240.505 167.723 237.785 169.306C235.117 170.956 232.408 172.632 229.661 174.33C218.782 181.262 207.689 189.047 196.585 197.541C185.429 205.977 174.199 215.078 163.169 224.748C152.12 234.406 141.581 244.871 131.397 255.629C121.306 266.453 111.633 277.621 102.556 288.92C93.4901 300.225 84.8381 311.547 76.8114 322.72C68.7846 333.891 61.3972 344.911 54.5258 355.44C47.6684 365.975 41.4618 376.089 35.8921 385.501C24.7412 404.325 16.31 420.421 10.5149 431.728C4.74765 443.05 1.79778 449.642 1.79778 449.642C1.60716 450.066 1.06782 450.274 0.588958 450.105C0.12637 449.938 -0.103782 449.483 0.0449896 449.073Z" fill="#BF1B2C"/>
<path d="M443.149 263.939L437.07 290.541L464.453 309.332L432.565 307.648L422.548 328.883L410.093 309.665L379.091 310.385L402.608 291.012L395.853 270.181L417.367 280.022L443.149 263.939Z" fill="#BF1B2C"/>
<path d="M466.764 559.665L460.683 586.264L488.069 605.056L456.178 603.372L446.161 624.607L433.706 605.388L402.706 606.109L426.223 586.735L419.466 565.904L440.98 575.746L466.764 559.665Z" fill="#B10202"/>
<path d="M227.364 -1.04861e-06L221.285 26.6019L248.669 45.3934L216.78 43.7091L206.764 64.9444L194.309 45.7257L163.306 46.4461L186.824 27.0726L180.069 6.2418L201.582 16.0813L227.364 -1.04861e-06Z" fill="#B10202"/>
<path d="M531.812 365.105L528.823 378.181L542.284 387.418L526.61 386.591L521.686 397.029L515.564 387.581L500.324 387.936L511.884 378.413L508.564 368.175L519.139 373.011L531.812 365.105Z" fill="#B10202"/>
<path d="M502.381 224.576L499.394 237.652L512.853 246.889L497.179 246.059L492.255 256.499L486.134 247.052L470.895 247.405L482.455 237.883L479.133 227.643L489.707 232.482L502.381 224.576Z" fill="#BF1B2C"/>
<path d="M444.285 486.914L441.296 499.99L454.758 509.226L439.081 508.399L434.157 518.839L428.037 509.392L412.797 509.744L424.357 500.223L421.035 489.983L431.612 494.821L444.285 486.914Z" fill="#BF1B2C"/>
<path d="M374.709 150.08L371.72 163.156L385.181 172.392L369.507 171.565L364.583 182.003L358.46 172.557L343.22 172.91L354.781 163.387L351.461 153.147L362.035 157.985L374.709 150.08Z" fill="#BF1B2C"/>
<path d="M422.383 29.7617L419.396 42.8377L432.856 52.0745L417.181 51.2468L412.258 61.6849L406.135 52.2396L390.895 52.5926L402.457 43.0689L399.135 32.829L409.71 37.6672L422.383 29.7617Z" fill="#BF1B2C"/>
</svg>
