<svg width="216" height="266" viewBox="0 0 216 266" fill="none" xmlns="http://www.w3.org/2000/svg">
<path d="M47.7095 229.306C43.7646 226.096 7.94502 195.828 11.1009 146.756C14.0991 99.9776 50.0765 74.4481 54.8103 71.3907C55.1259 88.5122 55.5993 105.634 55.9149 122.755C74.8504 108.538 89.0521 88.8179 98.5198 67.5689C107.988 46.167 112.879 23.2364 115.088 0C138.6 28.2811 150.277 65.4287 147.279 101.506C156.746 91.5696 163.689 79.4928 167.161 66.3459C182.152 86.9835 195.564 109.15 202.192 133.609C206.294 149.049 211.344 179.012 194.617 206.987C188.306 217.535 180.731 224.72 175.051 229.306" fill="#FBE099"/>
<path d="M137.825 219.676C154.551 210.504 167.806 181.458 157.707 160.209C152.342 150.884 145.084 133.61 145.399 124.743C139.876 132.54 133.564 140.795 127.253 148.285C127.726 123.52 112.578 101.965 98.3759 82.5508C99.7961 104.106 81.334 123.367 82.4386 145.075C76.7579 137.431 70.2883 130.399 63.3453 123.826C62.5563 132.998 53.2464 144.922 46.9345 151.954C32.1017 171.216 39.8337 201.179 67.1324 219.523" fill="#FBC143"/>
<path d="M152.115 264.884C152.115 247.916 166.317 234.157 183.832 234.157C201.348 234.157 215.549 247.916 215.549 264.884H152.115Z" fill="#6E4D41"/>
<path d="M183.832 234.31H31.5591V265.037H183.832V234.31Z" fill="#6E4D41"/>
<path d="M0 264.884C0 247.916 14.2016 234.157 31.7169 234.157C49.2323 234.157 63.4339 247.916 63.4339 264.884H0Z" fill="#C79E8F"/>
</svg>
