<svg width="368" height="395" viewBox="0 0 368 395" fill="none" xmlns="http://www.w3.org/2000/svg">
<path d="M120.785 140.502C123.285 141.984 126.526 141.243 128.193 139.021C130.23 136.336 129.304 132.169 126.341 130.595C123.193 128.928 119.119 130.965 118.193 134.206C117.544 136.428 118.563 139.113 120.785 140.502Z" fill="#CFF3F3"/>
<path d="M28.7852 135.502C31.2852 136.984 34.5259 136.243 36.1926 134.021C38.2296 131.336 37.3037 127.169 34.3407 125.595C31.1926 123.928 27.1185 125.965 26.1926 129.206C25.5444 131.428 26.563 134.113 28.7852 135.502Z" fill="#CFF3F3"/>
<path d="M243.785 150.502C246.285 151.984 249.526 151.243 251.193 149.021C253.23 146.336 252.304 142.169 249.341 140.595C246.193 138.928 242.119 140.965 241.193 144.206C240.544 146.428 241.563 149.113 243.785 150.502Z" fill="#CFF3F3"/>
<path d="M234.785 267.502C237.285 268.984 240.526 268.243 242.193 266.021C244.23 263.336 243.304 259.169 240.341 257.595C237.193 255.928 233.119 257.965 232.193 261.206C231.544 263.428 232.563 266.113 234.785 267.502Z" fill="#CFF3F3"/>
<path d="M238.785 76.5022C241.285 77.9837 244.526 77.243 246.193 75.0207C248.23 72.3355 247.304 68.1689 244.341 66.5948C241.193 64.9282 237.119 66.9652 236.193 70.2059C235.544 72.4282 236.563 75.1133 238.785 76.5022Z" fill="#CFF3F3"/>
<path d="M247.785 10.5022C250.285 11.9837 253.526 11.243 255.193 9.02074C257.23 6.33555 256.304 2.1689 253.341 0.594823C250.193 -1.07185 246.119 0.965189 245.193 4.20593C244.544 6.42816 245.563 9.11334 247.785 10.5022Z" fill="#CFF3F3"/>
<path d="M8.78517 31.5022C11.2852 32.9837 14.5259 32.243 16.1926 30.0207C18.2296 27.3355 17.3037 23.1689 14.3407 21.5948C11.1926 19.9282 7.11852 21.9652 6.19259 25.2059C5.54445 27.4282 6.56295 30.1133 8.78517 31.5022Z" fill="#CFF3F3"/>
<path d="M288.785 55.5022C291.285 56.9837 294.526 56.243 296.193 54.0207C298.23 51.3355 297.304 47.1689 294.341 45.5948C291.193 43.9282 287.119 45.9652 286.193 49.2059C285.544 51.4282 286.563 54.1133 288.785 55.5022Z" fill="#CFF3F3"/>
<path d="M336.785 26.5022C339.285 27.9837 342.526 27.243 344.193 25.0207C346.23 22.3355 345.304 18.1689 342.341 16.5948C339.193 14.9282 335.119 16.9652 334.193 20.2059C333.544 22.4282 334.563 25.1133 336.785 26.5022Z" fill="#CFF3F3"/>
<path d="M358.785 137.502C361.285 138.984 364.526 138.243 366.193 136.021C368.23 133.336 367.304 129.169 364.341 127.595C361.193 125.928 357.119 127.965 356.193 131.206C355.544 133.428 356.563 136.113 358.785 137.502Z" fill="#CFF3F3"/>
<path d="M354.785 204.502C357.285 205.984 360.526 205.243 362.193 203.021C364.23 200.336 363.304 196.169 360.341 194.595C357.193 192.928 353.119 194.965 352.193 198.206C351.544 200.428 352.563 203.113 354.785 204.502Z" fill="#CFF3F3"/>
<path d="M306.785 264.502C309.285 265.984 312.526 265.243 314.193 263.021C316.23 260.336 315.304 256.169 312.341 254.595C309.193 252.928 305.119 254.965 304.193 258.206C303.544 260.428 304.563 263.113 306.785 264.502Z" fill="#CFF3F3"/>
<path d="M323.785 357.502C326.285 358.984 329.526 358.243 331.193 356.021C333.23 353.336 332.304 349.169 329.341 347.595C326.193 345.928 322.119 347.965 321.193 351.206C320.544 353.428 321.563 356.113 323.785 357.502Z" fill="#CFF3F3"/>
<path d="M317.785 112.502C320.285 113.984 323.526 113.243 325.193 111.021C327.23 108.336 326.304 104.169 323.341 102.595C320.193 100.928 316.119 102.965 315.193 106.206C314.544 108.428 315.563 111.113 317.785 112.502Z" fill="#CFF3F3"/>
<path d="M273.785 204.502C276.285 205.984 279.526 205.243 281.193 203.021C283.23 200.336 282.304 196.169 279.341 194.595C276.193 192.928 272.119 194.965 271.193 198.206C270.544 200.428 271.563 203.113 273.785 204.502Z" fill="#CFF3F3"/>
<path d="M126.785 246.502C129.285 247.984 132.526 247.243 134.193 245.021C136.23 242.336 135.304 238.169 132.341 236.595C129.193 234.928 125.119 236.965 124.193 240.206C123.544 242.428 124.563 245.113 126.785 246.502Z" fill="#CFF3F3"/>
<path d="M151.785 393.502C154.285 394.984 157.526 394.243 159.193 392.021C161.23 389.336 160.304 385.169 157.341 383.595C154.193 381.928 150.119 383.965 149.193 387.206C148.544 389.428 149.563 392.113 151.785 393.502Z" fill="#CFF3F3"/>
<path d="M137.785 27.5022C140.285 28.9837 143.526 28.243 145.193 26.0207C147.23 23.3355 146.304 19.1689 143.341 17.5948C140.193 15.9282 136.119 17.9652 135.193 21.2059C134.544 23.4282 135.563 26.1133 137.785 27.5022Z" fill="#CFF3F3"/>
<path d="M2.78517 256.502C5.28517 257.984 8.52591 257.243 10.1926 255.021C12.2296 252.336 11.3037 248.169 8.34073 246.595C5.19258 244.928 1.11852 246.965 0.192594 250.206C-0.455554 252.428 0.562953 255.113 2.78517 256.502Z" fill="#CFF3F3"/>
<path d="M84.7852 182.502C87.2852 183.984 90.5259 183.243 92.1926 181.021C94.2296 178.336 93.3037 174.169 90.3407 172.595C87.1926 170.928 83.1185 172.965 82.1926 176.206C81.5444 178.428 82.563 181.113 84.7852 182.502Z" fill="#CFF3F3"/>
<path d="M256.785 382.502C259.285 383.984 262.526 383.243 264.193 381.021C266.23 378.336 265.304 374.169 262.341 372.595C259.193 370.928 255.119 372.965 254.193 376.206C253.544 378.428 254.563 381.113 256.785 382.502Z" fill="#CFF3F3"/>
<path d="M97.7852 76.5022C100.285 77.9837 103.526 77.243 105.193 75.0207C107.23 72.3355 106.304 68.1689 103.341 66.5948C100.193 64.9282 96.1185 66.9652 95.1926 70.2059C94.5444 72.4282 95.563 75.1133 97.7852 76.5022Z" fill="#CFF3F3"/>
</svg>
