<svg width="1879" height="61" viewBox="0 0 1879 61" fill="none" xmlns="http://www.w3.org/2000/svg">
<path d="M201.004 61C239.637 61 239.694 0 201.004 0C162.36 0 162.304 61 201.004 61Z" fill="white"/>
<path d="M531.004 61C569.637 61 569.694 0 531.004 0C492.36 0 492.304 61 531.004 61Z" fill="white"/>
<path d="M284.004 61C322.637 61 322.694 0 284.004 0C245.36 0 245.304 61 284.004 61Z" fill="#FFF000"/>
<path d="M367.004 61C405.637 61 405.694 0 367.004 0C328.36 0 328.304 61 367.004 61Z" fill="white"/>
<path d="M450.004 61C488.637 61 488.694 0 450.004 0C411.36 0 411.304 61 450.004 61Z" fill="white"/>
<path d="M112.004 61C150.637 61 150.694 0 112.004 0C73.3604 0 73.3039 61 112.004 61Z" fill="white"/>
<path d="M29.0035 61C67.6373 61 67.6937 0 29.0035 0C-9.63962 0 -9.69605 61 29.0035 61Z" fill="white"/>
<path d="M613.004 61C651.637 61 651.694 0 613.004 0C574.36 0 574.304 61 613.004 61Z" fill="white"/>
<path d="M949.004 61C987.637 61 987.694 0 949.004 0C910.36 0 910.304 61 949.004 61Z" fill="white"/>
<path d="M696.004 61C734.637 61 734.694 0 696.004 0C657.36 0 657.304 61 696.004 61Z" fill="white"/>
<path d="M1279 61C1317.64 61 1317.69 0 1279 0C1240.36 0 1240.3 61 1279 61Z" fill="#FFF000"/>
<path d="M1032 61C1070.64 61 1070.69 0 1032 0C993.36 0 993.304 61 1032 61Z" fill="white"/>
<path d="M1115 61C1153.64 61 1153.69 0 1115 0C1076.36 0 1076.3 61 1115 61Z" fill="white"/>
<path d="M1198 61C1236.64 61 1236.69 0 1198 0C1159.36 0 1159.3 61 1198 61Z" fill="white"/>
<path d="M860.004 61C898.637 61 898.694 0 860.004 0C821.36 0 821.304 61 860.004 61Z" fill="#FFF000"/>
<path d="M777.004 61C815.637 61 815.694 0 777.004 0C738.36 0 738.304 61 777.004 61Z" fill="white"/>
<path d="M1362 61C1400.64 61 1400.69 0 1362 0C1323.36 0 1323.3 61 1362 61Z" fill="white"/>
<path d="M1693 61C1731.64 61 1731.69 0 1693 0C1654.36 0 1654.3 61 1693 61Z" fill="white"/>
<path d="M1446 61C1484.64 61 1484.69 0 1446 0C1407.36 0 1407.3 61 1446 61Z" fill="white"/>
<path d="M1529 61C1567.64 61 1567.69 0 1529 0C1490.36 0 1490.3 61 1529 61Z" fill="white"/>
<path d="M1612 61C1650.64 61 1650.69 0 1612 0C1573.36 0 1573.3 61 1612 61Z" fill="white"/>
<path d="M1776 61C1814.64 61 1814.69 0 1776 0C1737.36 0 1737.3 61 1776 61Z" fill="#FFF000"/>
<path d="M1850 61C1888.64 61 1888.69 0 1850 0C1811.36 0 1811.3 61 1850 61Z" fill="white"/>
</svg>
