<svg width="369" height="355" viewBox="0 0 369 355" fill="none" xmlns="http://www.w3.org/2000/svg">
<path d="M25.0001 130.108H344V354.952H25.0001V130.108Z" fill="#89CFD1"/>
<path d="M66.0001 184.952H150V300.784H66.0001V184.952Z" fill="white"/>
<path d="M71.0001 191.847H106V240.11H71.0001V191.847Z" fill="#F6C500"/>
<path d="M110 245.626H145V293.889H110V245.626Z" fill="#F6C500"/>
<path d="M71.0001 245.626H106V293.889H71.0001V245.626Z" fill="#F6C500"/>
<path d="M110 191.847H145V240.11H110V191.847Z" fill="#F6C500"/>
<path d="M61.0001 299.405H155V315.952H61.0001V299.405Z" fill="white"/>
<path d="M204 184.952H298V354.952H204V184.952Z" fill="#F6C500"/>
<path d="M49.6213 27.8685C58.2299 11.328 75.3272 0.952148 93.9738 0.952148H275.026C293.673 0.952148 310.77 11.3281 319.379 27.8685L365.982 117.41C374.644 134.053 362.568 153.952 343.805 153.952H25.1948C6.43256 153.952 -5.64348 134.053 3.01853 117.41L49.6213 27.8685Z" fill="white"/>
</svg>
