<svg width="401" height="432" viewBox="0 0 401 432" fill="none" xmlns="http://www.w3.org/2000/svg">
<path d="M75.0001 39.4759H104V137.476H75.0001V39.4759Z" fill="#EA4E24"/>
<path d="M70.0001 39.4759H110V59.4759H70.0001V39.4759Z" fill="#EA4E24"/>
<path d="M41.0001 206.632L199 25.4759L360 206.632V431.476H41.0001V206.632Z" fill="#EA4E24"/>
<path d="M0 228.231C0 222.984 1.87043 217.908 5.27552 213.915L179.567 9.54661C189.48 -2.07684 207.407 -2.17016 217.441 9.34946L395.509 213.797C399.05 217.862 401 223.071 401 228.461C401 249.027 375.55 258.656 361.937 243.24L202.177 62.3263C200.173 60.0568 196.627 60.0753 194.647 62.3656L38.7503 242.661C25.3842 258.119 0 248.666 0 228.231Z" fill="white"/>
<path d="M67.0001 40.6723C67.0001 36.9719 70.4167 34.2165 74.0331 35.0005L76.6024 35.5574C77.6851 35.7921 78.805 35.7972 79.8898 35.5722L84.1883 34.681C88.022 33.886 91.9781 33.886 95.8119 34.681L100.11 35.5722C101.195 35.7972 102.315 35.7921 103.398 35.5574L105.967 35.0005C109.583 34.2165 113 36.9719 113 40.6723C113 43.8775 110.402 46.4759 107.196 46.4759H72.8036C69.5984 46.4759 67.0001 43.8775 67.0001 40.6723Z" fill="white"/>
<path d="M88.0001 258.476H172V342.476H88.0001V258.476Z" fill="white"/>
<path d="M93.0001 263.476H128V298.476H93.0001V263.476Z" fill="#31313D"/>
<path d="M132 302.476H167V337.476H132V302.476Z" fill="#31313D"/>
<path d="M93.0001 302.476H128V337.476H93.0001V302.476Z" fill="#31313D"/>
<path d="M132 263.476H167V298.476H132V263.476Z" fill="#31313D"/>
<path d="M83.0001 341.476H177V353.476H83.0001V341.476Z" fill="white"/>
<path d="M223 293.627C223 283.768 227.847 274.54 235.963 268.944C256.455 254.815 283.545 254.815 304.037 268.944C312.154 274.54 317 283.768 317 293.627V431.476H223V293.627Z" fill="#31313D"/>
<path fill-rule="evenodd" clip-rule="evenodd" d="M212.172 237.366V237.437C211.581 240.883 208.586 242.712 205 242.712C201.414 242.712 198.509 240.918 197.827 237.437V230.403C198.455 226.956 201.414 225.128 205 225.128C208.586 225.128 211.581 226.921 212.172 230.403V237.366ZM239.069 228.645V244.47C239.069 247.987 234.443 248.708 231.896 247.354L212.172 237.366V230.403V230.333L231.896 220.433C234.407 219.22 239.069 219.782 239.069 223.299V228.645ZM197.827 230.403V237.437L178.103 247.442C175.593 248.655 170.931 247.987 170.931 244.47V226.886V223.369C170.931 219.853 175.557 219.149 178.103 220.521L197.827 230.403Z" fill="#F4F83D"/>
<path fill-rule="evenodd" clip-rule="evenodd" d="M224.724 196.994C224.724 193.899 225.352 190.945 226.499 188.255C223.756 187.147 221.174 185.512 218.95 183.314C216.709 181.133 215.041 178.601 213.894 175.911C211.15 177.036 208.156 177.651 205 177.651C201.844 177.651 198.85 177.036 196.106 175.911C194.959 178.601 193.291 181.133 191.05 183.314C188.826 185.512 186.244 187.147 183.501 188.255C184.648 190.945 185.276 193.899 185.276 196.994C185.276 200.089 184.648 203.025 183.501 205.716C186.244 206.841 188.826 208.476 191.05 210.674C193.291 212.855 194.959 215.387 196.106 218.077C198.85 216.952 201.844 216.337 205 216.337C208.156 216.337 211.15 216.952 213.894 218.077C215.041 215.387 216.709 212.855 218.95 210.674C221.174 208.476 223.756 206.841 226.499 205.716C225.352 203.025 224.724 200.089 224.724 196.994ZM251.208 184.843C254.741 187.745 257 192.106 257 196.994C257 201.865 254.741 206.226 251.208 209.127C252.786 213.382 252.517 218.253 250.043 222.491C249.021 224.214 244.448 228.645 239.069 228.645V223.3C239.069 219.783 234.407 219.22 231.897 220.434L212.172 230.334V230.404C211.581 226.922 208.586 225.129 205 225.129C201.414 225.129 198.455 226.957 197.828 230.404L178.103 220.522C175.557 219.15 170.931 219.853 170.931 223.37V226.887C165.552 226.887 161.015 224.267 159.975 222.491C157.483 218.271 157.214 213.382 158.792 209.127C155.259 206.226 153 201.865 153 196.994C153 192.123 155.259 187.762 158.792 184.843C157.214 180.606 157.483 175.717 159.975 171.497C162.45 167.277 166.628 164.604 171.182 163.83C171.971 159.364 174.697 155.267 179 152.84C183.303 150.396 188.288 150.132 192.628 151.68C195.586 148.216 200.033 146 205 146C209.967 146 214.414 148.216 217.372 151.68C221.712 150.132 226.697 150.396 231 152.823C235.303 155.267 238.029 159.364 238.818 163.813C243.372 164.604 247.55 167.277 250.025 171.497C252.517 175.717 252.786 180.606 251.208 184.843Z" fill="#177A03"/>
<path fill-rule="evenodd" clip-rule="evenodd" d="M182.174 169.633C183.572 171.004 183.572 173.238 182.174 174.609C180.775 175.981 178.498 175.981 177.099 174.609C175.701 173.238 175.701 171.004 177.099 169.633C178.498 168.261 180.775 168.261 182.174 169.633ZM205 158.309C206.972 158.309 208.586 159.891 208.586 161.826C208.586 163.76 206.972 165.342 205 165.342C203.027 165.342 201.414 163.76 201.414 161.826C201.414 159.891 203.027 158.309 205 158.309ZM169.138 193.477C171.11 193.477 172.724 195.06 172.724 196.994C172.724 198.928 171.11 200.511 169.138 200.511C167.165 200.511 165.552 198.928 165.552 196.994C165.552 195.06 167.165 193.477 169.138 193.477ZM240.862 193.477C242.852 193.477 244.448 195.042 244.448 196.994C244.448 198.928 242.834 200.511 240.862 200.511C238.89 200.511 237.276 198.928 237.276 196.994C237.276 195.06 238.89 193.477 240.862 193.477ZM227.826 174.609C226.427 173.238 226.427 171.005 227.826 169.633C229.225 168.261 231.502 168.261 232.901 169.633C234.299 171.005 234.299 173.238 232.901 174.609C231.502 175.981 229.225 175.981 227.826 174.609Z" fill="#F4F83D"/>
</svg>
