<svg width="311" height="471" viewBox="0 0 311 471" fill="none" xmlns="http://www.w3.org/2000/svg">
<path d="M51.1025 41.6033H75.5136V127.831H51.1025V41.6033Z" fill="#EA4E24"/>
<path d="M46.8936 41.6033H80.5641V59.2009H46.8936V41.6033Z" fill="#EA4E24"/>
<path d="M22.7442 218.486L155.938 15.2191L291.661 218.486V470.772H22.7442V218.486Z" fill="#EA4E24"/>
<path d="M0 207.781C0 204.012 1.15611 200.332 3.31239 197.24L133.27 10.8713C143.159 -3.3098 164.112 -3.41365 174.141 10.6687L306.926 197.124C309.18 200.289 310.391 204.079 310.391 207.965C310.391 226.097 287.166 233.605 276.551 218.905L156.95 53.2619C155.289 50.9621 151.859 50.9792 150.221 53.2954L33.4775 218.421C23.101 233.097 0 225.756 0 207.781Z" fill="white"/>
<path d="M44.6606 43.5854C44.6606 40.0753 47.957 37.4982 51.3634 38.3452L52.4574 38.6173C53.4317 38.8595 54.4498 38.8647 55.4265 38.6324L58.8452 37.8193C61.9987 37.0692 65.2841 37.0692 68.4376 37.8193L71.8563 38.6324C72.833 38.8647 73.8511 38.8595 74.8254 38.6173L75.9193 38.3452C79.3257 37.4982 82.6222 40.0753 82.6222 43.5854C82.6222 46.5676 80.2046 48.9851 77.2224 48.9851H50.0604C47.0782 48.9851 44.6606 46.5676 44.6606 43.5854Z" fill="white"/>
<path d="M48.1368 232.627H103.868V336.729H48.1368V232.627Z" fill="white"/>
<path d="M51.4542 238.824H74.6756V282.199H51.4542V238.824Z" fill="#F6C500"/>
<path d="M77.3295 287.157H100.551V330.533H77.3295V287.157Z" fill="#F6C500"/>
<path d="M51.4542 287.157H74.6756V330.533H51.4542V287.157Z" fill="#F6C500"/>
<path d="M77.3295 238.824H100.551V282.199H77.3295V238.824Z" fill="#F6C500"/>
<path d="M44.8195 335.49H107.186V350.361H44.8195V335.49Z" fill="white"/>
<path d="M214.74 232.627H271.065V336.729H214.74V232.627Z" fill="white"/>
<path d="M218.093 238.824H241.561V282.199H218.093V238.824Z" fill="#F6C500"/>
<path d="M244.243 287.157H267.712V330.533H244.243V287.157Z" fill="#F6C500"/>
<path d="M218.093 287.157H241.561V330.533H218.093V287.157Z" fill="#F6C500"/>
<path d="M244.243 238.824H267.712V282.199H244.243V238.824Z" fill="#F6C500"/>
<path d="M211.387 335.49H274.417V350.361H211.387V335.49Z" fill="white"/>
<path d="M128 232.772H191V470.772H128V232.772Z" fill="#F6C500"/>
<path fill-rule="evenodd" clip-rule="evenodd" d="M160.293 209.407V209.482C159.65 213.157 156.396 215.107 152.5 215.107C148.603 215.107 145.447 213.194 144.707 209.482V201.984C145.389 198.309 148.603 196.36 152.5 196.36C156.396 196.36 159.65 198.272 160.293 201.984V209.407ZM189.517 200.109V216.981C189.517 220.731 184.491 221.499 181.724 220.056L160.293 209.408V201.984V201.909L181.724 191.354C184.452 190.061 189.517 190.661 189.517 194.41V200.109ZM144.707 201.984V209.483L123.276 220.15C120.548 221.443 115.483 220.731 115.483 216.981V198.235V194.485C115.483 190.736 120.509 189.986 123.276 191.448L144.707 201.984Z" fill="#990303"/>
<path fill-rule="evenodd" clip-rule="evenodd" d="M173.931 166.366C173.931 163.067 174.613 159.917 175.86 157.049C172.879 155.868 170.073 154.124 167.658 151.781C165.222 149.456 163.41 146.757 162.163 143.889C159.183 145.088 155.929 145.745 152.5 145.745C149.071 145.745 145.817 145.088 142.837 143.889C141.59 146.757 139.778 149.456 137.342 151.781C134.927 154.124 132.121 155.868 129.14 157.049C130.387 159.917 131.069 163.067 131.069 166.366C131.069 169.666 130.387 172.796 129.14 175.665C132.121 176.864 134.927 178.608 137.342 180.951C139.778 183.276 141.59 185.975 142.837 188.844C145.817 187.644 149.071 186.988 152.5 186.988C155.929 186.988 159.183 187.644 162.163 188.844C163.41 185.975 165.222 183.276 167.658 180.951C170.073 178.608 172.879 176.864 175.86 175.665C174.613 172.796 173.931 169.666 173.931 166.366ZM202.707 153.412C206.545 156.505 209 161.154 209 166.366C209 171.559 206.545 176.208 202.707 179.302C204.422 183.838 204.129 189.031 201.441 193.549C200.33 195.386 195.362 200.111 189.517 200.111V194.412C189.517 190.662 184.452 190.062 181.724 191.356L160.293 201.91V201.985C159.65 198.273 156.397 196.361 152.5 196.361C148.603 196.361 145.389 198.311 144.707 201.985L123.276 191.45C120.509 189.987 115.483 190.737 115.483 194.487V198.236C109.638 198.236 104.709 195.443 103.579 193.549C100.871 189.05 100.578 183.838 102.293 179.302C98.4548 176.208 96 171.559 96 166.366C96 161.173 98.4548 156.524 102.293 153.412C100.578 148.894 100.871 143.682 103.579 139.183C106.267 134.684 110.807 131.834 115.756 131.009C116.613 126.248 119.574 121.88 124.25 119.293C128.926 116.687 134.342 116.406 139.057 118.055C142.272 114.362 147.103 112 152.5 112C157.897 112 162.728 114.362 165.943 118.055C170.658 116.406 176.074 116.687 180.75 119.274C185.426 121.88 188.387 126.248 189.244 130.991C194.193 131.834 198.733 134.684 201.421 139.183C204.129 143.682 204.422 148.894 202.707 153.412Z" fill="white"/>
<path fill-rule="evenodd" clip-rule="evenodd" d="M127.698 137.195C129.218 138.657 129.218 141.038 127.698 142.5C126.179 143.963 123.704 143.963 122.185 142.5C120.665 141.038 120.665 138.657 122.185 137.195C123.704 135.733 126.179 135.733 127.698 137.195ZM152.5 125.122C154.643 125.122 156.396 126.809 156.396 128.872C156.396 130.934 154.643 132.621 152.5 132.621C150.357 132.621 148.603 130.934 148.603 128.872C148.603 126.809 150.357 125.122 152.5 125.122ZM113.534 162.616C115.677 162.616 117.431 164.303 117.431 166.365C117.431 168.428 115.677 170.115 113.534 170.115C111.391 170.115 109.638 168.428 109.638 166.365C109.638 164.303 111.391 162.616 113.534 162.616ZM191.465 162.616C193.628 162.616 195.362 164.285 195.362 166.365C195.362 168.428 193.609 170.115 191.465 170.115C189.322 170.115 187.569 168.428 187.569 166.365C187.569 164.303 189.322 162.616 191.465 162.616ZM177.301 142.501C175.782 141.038 175.782 138.657 177.301 137.195C178.821 135.733 181.295 135.733 182.815 137.195C184.335 138.657 184.335 141.038 182.815 142.501C181.295 143.963 178.821 143.963 177.301 142.501Z" fill="#990303"/>
</svg>
