<svg width="520" height="366" viewBox="0 0 520 366" fill="none" xmlns="http://www.w3.org/2000/svg">
<path d="M422.539 10.3943H466.266V108.394H422.539V10.3943Z" fill="#F8A5A1"/>
<path d="M415 10.3943H475.313V30.3943H415V10.3943Z" fill="#F8A5A1"/>
<path d="M19 140.55L138.119 49.9723H378.619L500 140.55V365.394H19V140.55Z" fill="#F8A5A1"/>
<path d="M0 145.944C0 135.975 4.66123 126.58 12.5989 120.55L102.372 52.3446C119.427 39.3876 140.191 32.2485 161.607 31.9785L254.813 30.8034L356.176 32.0084C377.271 32.2592 397.747 39.1754 414.674 51.7677L507.225 120.618C515.263 126.598 520 136.026 520 146.044C520 169.619 495.174 184.94 474.101 174.368L389.559 131.956C377.026 125.668 363.198 122.394 349.177 122.394H172.411C158.328 122.394 144.437 125.654 131.824 131.919L46.0793 174.507C24.8791 185.037 0 169.615 0 145.944Z" fill="white"/>
<path d="M413 6.38994C413 2.71102 416.278 -0.102804 419.915 0.455051L427.076 1.55362C428.278 1.73801 429.501 1.742 430.704 1.56545L437.288 0.599322C442.733 -0.199774 448.267 -0.199774 453.712 0.599323L460.296 1.56545C461.499 1.742 462.722 1.73801 463.924 1.55362L471.085 0.455051C474.722 -0.102804 478 2.71101 478 6.38994C478 9.70603 475.312 12.3943 471.996 12.3943H419.004C415.688 12.3943 413 9.70603 413 6.38994Z" fill="white"/>
<path d="M82 192.394H166V302.036H82V192.394Z" fill="white"/>
<path d="M87 198.921H122V244.605H87V198.921Z" fill="#31313D"/>
<path d="M126 249.826H161V295.51H126V249.826Z" fill="#31313D"/>
<path d="M87 249.826H122V295.51H87V249.826Z" fill="#31313D"/>
<path d="M126 198.921H161V244.605H126V198.921Z" fill="#31313D"/>
<path d="M77 300.731H171V316.394H77V300.731Z" fill="white"/>
<path d="M354 192.394H438V302.036H354V192.394Z" fill="white"/>
<path d="M359 198.921H394V244.605H359V198.921Z" fill="#31313D"/>
<path d="M398 249.826H433V295.51H398V249.826Z" fill="#31313D"/>
<path d="M359 249.826H394V295.51H359V249.826Z" fill="#31313D"/>
<path d="M398 198.921H433V244.605H398V198.921Z" fill="#31313D"/>
<path d="M349 300.731H443V316.394H349V300.731Z" fill="white"/>
<path d="M213 227.545C213 217.687 217.847 208.458 225.963 202.862C246.455 188.733 273.545 188.733 294.037 202.862C302.153 208.458 307 217.687 307 227.545V365.394H213V227.545Z" fill="#31313D"/>
</svg>
