<svg width="204" height="679" viewBox="0 0 204 679" fill="none" xmlns="http://www.w3.org/2000/svg">
<path d="M9.00004 8.29586H38V152.296H9.00004V8.29586Z" fill="#8395A9"/>
<path d="M4.00004 8.29586H44V37.2959H4.00004V8.29586Z" fill="#8395A9"/>
<path d="M-2.99996 222.923L84 68.2959L171 222.923V678.296H-2.99996V222.923Z" fill="#8395A9"/>
<path d="M-12 279.296H181V297.296H-12V279.296Z" fill="#596E86"/>
<path d="M-12 461.296H181V479.296H-12V461.296Z" fill="#596E86"/>
<path d="M-35 223.791C-35 221.164 -34.3104 218.583 -33.0002 216.306L61.8009 51.5571C71.3647 34.9368 95.3078 34.8273 105.023 51.3594L201.899 216.206C203.274 218.547 204 221.213 204 223.929C204 239.415 183.586 245.035 175.66 231.732L85.9342 81.1434C84.7252 79.1142 81.782 79.1278 80.5917 81.168L-7.02969 231.354C-14.749 244.585 -35 239.109 -35 223.791Z" fill="white"/>
<path d="M-26.6717 459.475C-26.6717 456.879 -25.32 454.471 -23.1043 453.118L-9.43269 444.773C-0.630615 439.4 10.0996 438.203 19.8692 441.505C27.1447 443.963 35.0286 443.948 42.295 441.463L44.3612 440.756C52.8255 437.861 62.0013 437.796 70.5062 440.569L73.4214 441.52C81.0288 444.001 89.1205 444.62 97.0167 443.325L122.941 439.073C133.914 437.273 145.175 439.183 154.941 444.5L161.302 447.963C164.717 449.822 168.543 450.796 172.432 450.796H187.664C192.106 450.796 195.708 454.397 195.708 458.839C195.708 463.44 191.856 467.103 187.262 466.873L85.962 461.796L-18.8606 466.914C-23.1115 467.122 -26.6717 463.731 -26.6717 459.475Z" fill="white"/>
<path d="M195.387 280.084C195.387 278.078 194.196 276.263 192.356 275.465L174.792 267.845C167.986 264.893 160.404 264.233 153.189 265.965L148.87 267.003C141.535 268.764 133.886 268.754 126.556 266.972L122.969 266.1C115.384 264.256 107.473 264.214 99.8693 265.976L92.3333 267.723C86.7375 269.02 80.9601 269.343 75.2546 268.678L41.3742 264.729C33.302 263.788 25.122 264.829 17.5427 267.761L6.76618 271.931C3.93814 273.025 0.931999 273.586 -2.10034 273.586H-20.9211C-24.0971 273.586 -26.6717 276.161 -26.6717 279.337C-26.6717 282.593 -23.9706 285.2 -20.7164 285.084L82.9155 281.393L190.177 285.115C193.025 285.214 195.387 282.933 195.387 280.084Z" fill="white"/>
<path d="M3.8147e-05 7.68219C3.8147e-05 3.40601 3.99697 0.253933 8.15535 1.2507L9.90225 1.66944C11.1067 1.95814 12.3615 1.96434 13.5687 1.68755L17.9355 0.686329C21.9268 -0.228776 26.0733 -0.228776 30.0645 0.686329L34.4313 1.68755C35.6385 1.96434 36.8934 1.95814 38.0978 1.66944L39.8447 1.2507C44.0031 0.253933 48 3.40601 48 7.68219C48 11.3348 45.039 14.2959 41.3864 14.2959H6.61371C2.96108 14.2959 3.8147e-05 11.3348 3.8147e-05 7.68219Z" fill="white"/>
<path d="M42 324.296H126V408.296H42V324.296Z" fill="white"/>
<path d="M47 329.296H82V364.296H47V329.296Z" fill="#31313D"/>
<path d="M86 368.296H121V403.296H86V368.296Z" fill="#31313D"/>
<path d="M47 368.296H82V403.296H47V368.296Z" fill="#31313D"/>
<path d="M86 329.296H121V364.296H86V329.296Z" fill="#31313D"/>
<path d="M37 407.296H131V419.296H37V407.296Z" fill="white"/>
<path d="M42 194.296C42 171.1 60.8041 152.296 84 152.296C107.196 152.296 126 171.1 126 194.296C126 217.492 107.196 236.296 84 236.296C60.8041 236.296 42 217.492 42 194.296Z" fill="white"/>
<path d="M47 192.296C47 172.966 62.6701 157.296 82 157.296V192.296H47Z" fill="#31313D"/>
<path d="M86 196.296H121C121 215.626 105.33 231.296 86 231.296V196.296Z" fill="#31313D"/>
<path d="M47 196.296H82V231.296C62.6701 231.296 47 215.626 47 196.296Z" fill="#31313D"/>
<path d="M86 157.296C105.33 157.296 121 172.966 121 192.296H86V157.296Z" fill="#31313D"/>
<path d="M37 540.447C37 530.588 41.8466 521.36 49.9629 515.764C70.4549 501.635 97.5451 501.635 118.037 515.764C126.153 521.36 131 530.588 131 540.447V678.296H37V540.447Z" fill="#31313D"/>
</svg>
