<svg width="358" height="540" viewBox="0 0 358 540" fill="none" xmlns="http://www.w3.org/2000/svg">
<path d="M262.474 28.9271H288.364V138.321H262.474V28.9271Z" fill="#9AB97F"/>
<path d="M258.01 28.9271H293.721V51.1476H258.01V28.9271Z" fill="#9AB97F"/>
<path d="M36.6036 151.14L179 19.0987L321.397 151.14V540H36.6036V151.14Z" fill="#9AB97F"/>
<path d="M28.5687 199H328.539V214.383H28.5687V199Z" fill="#86A174"/>
<path d="M28.5687 354.544H328.539V369.927H28.5687V354.544Z" fill="#86A174"/>
<path d="M0 151.776C0 147.084 2.07599 142.612 5.71344 139.469L159.487 6.55992C169.528 -2.11845 184.775 -2.19478 194.91 6.38257L352.097 139.411C355.851 142.588 358 147.153 358 151.949C358 166.313 340.339 174.002 329.03 164.562L180.58 40.6489C178.6 38.9963 175.645 39.0111 173.684 40.6834L28.8402 164.159C17.6733 173.678 0 166.09 0 151.776Z" fill="white"/>
<path d="M24.1048 353.498C24.1048 351.036 25.6804 348.825 28.0751 347.927L54.1124 338.162C62.78 334.912 72.2575 334.185 81.3549 336.074L93.1166 338.516C100.587 340.067 108.319 340.057 115.785 338.488L129.923 335.518C137.263 333.975 144.86 333.94 152.215 335.413L171.283 339.234C176.692 340.318 182.245 340.588 187.741 340.034L243.926 334.372C251.73 333.586 259.62 334.463 267.029 336.941L287.265 343.71C290.947 344.941 294.82 345.57 298.72 345.57H326.202C330.204 345.57 333.449 348.676 333.449 352.507C333.449 356.426 330.061 359.567 325.969 359.441L180.786 354.971L30.5507 359.478C27.0239 359.584 24.1048 356.876 24.1048 353.498Z" fill="white"/>
<path d="M333.003 199.952C333.003 198.118 331.726 196.509 329.881 196.017L299.32 187.872C293.023 186.194 286.424 185.819 279.964 186.772L260.918 189.582C255.518 190.379 250.022 190.374 244.623 189.568L224.224 186.521C218.918 185.729 213.517 185.71 208.205 186.467L183.756 189.948C179.854 190.504 175.9 190.642 171.966 190.36L110.167 185.935C104.534 185.531 98.8698 185.99 93.3873 187.293L68.9571 193.1C66.1077 193.778 63.1828 194.12 60.2469 194.12H29.2721C26.4183 194.12 24.1048 196.335 24.1048 199.067C24.1048 201.843 26.4909 204.075 29.3902 204.012L176.548 200.792L328.641 204.035C331.034 204.086 333.003 202.243 333.003 199.952Z" fill="white"/>
<path d="M255.332 28.3044C255.332 26.3734 257.112 24.8862 259.11 25.1471L264.128 25.8021C264.808 25.8909 265.497 25.8928 266.177 25.8079L270.343 25.2877C273.713 24.8669 277.125 24.8669 280.495 25.2877L284.661 25.8079C285.341 25.8928 286.03 25.8909 286.71 25.8021L291.728 25.1471C293.726 24.8862 295.506 26.3735 295.506 28.3044C295.506 30.0643 294.016 31.491 292.178 31.491H258.66C256.822 31.491 255.332 30.0643 255.332 28.3044Z" fill="white"/>
<path d="M78.5637 237.459H153.556V309.248H78.5637V237.459Z" fill="white"/>
<path d="M83.0275 241.732H114.274V271.644H83.0275V241.732Z" fill="#F6C500"/>
<path d="M117.845 275.063H149.092V304.975H117.845V275.063Z" fill="#F6C500"/>
<path d="M83.0275 275.063H114.274V304.975H83.0275V275.063Z" fill="#F6C500"/>
<path d="M117.845 241.732H149.092V271.644H117.845V241.732Z" fill="#F6C500"/>
<path d="M74.0999 308.393H158.02V318.649H74.0999V308.393Z" fill="white"/>
<path d="M201.766 237.459H276.758V309.248H201.766V237.459Z" fill="white"/>
<path d="M206.229 241.732H237.476V271.644H206.229V241.732Z" fill="#F6C500"/>
<path d="M241.047 275.063H272.294V304.975H241.047V275.063Z" fill="#F6C500"/>
<path d="M206.229 275.063H237.476V304.975H206.229V275.063Z" fill="#F6C500"/>
<path d="M241.047 241.732H272.294V271.644H241.047V241.732Z" fill="#F6C500"/>
<path d="M197.302 308.393H281.222V318.649H197.302V308.393Z" fill="white"/>
<path d="M78.5637 393.002H153.556V464.792H78.5637V393.002Z" fill="white"/>
<path d="M83.0275 397.276H114.274V427.188H83.0275V397.276Z" fill="#F6C500"/>
<path d="M117.845 430.606H149.092V460.519H117.845V430.606Z" fill="#F6C500"/>
<path d="M83.0275 430.606H114.274V460.519H83.0275V430.606Z" fill="#F6C500"/>
<path d="M117.845 397.276H149.092V427.188H117.845V397.276Z" fill="#F6C500"/>
<path d="M74.0999 463.937H158.02V474.193H74.0999V463.937Z" fill="white"/>
<path d="M141.057 125.501C141.057 105.677 157.845 89.6063 178.554 89.6063C199.262 89.6063 216.05 105.677 216.05 125.501C216.05 145.325 199.262 161.396 178.554 161.396C157.845 161.396 141.057 145.325 141.057 125.501Z" fill="white"/>
<path d="M145.521 123.792C145.521 107.272 159.511 93.8795 176.768 93.8795V123.792H145.521Z" fill="#F6C500"/>
<path d="M180.339 127.21H211.586C211.586 143.73 197.596 157.123 180.339 157.123V127.21Z" fill="#F6C500"/>
<path d="M145.521 127.21H176.768V157.123C159.511 157.123 145.521 143.73 145.521 127.21Z" fill="#F6C500"/>
<path d="M180.339 93.8795C197.596 93.8795 211.586 107.272 211.586 123.792H180.339V93.8795Z" fill="#F6C500"/>
<path d="M197.787 422.051C197.787 413.79 202.007 406.051 209.087 401.328C227.217 389.233 251.3 389.233 269.431 401.328C276.51 406.051 280.73 413.79 280.73 422.051V540H197.787V422.051Z" fill="#F6C500"/>
</svg>
