<svg width="228" height="461" viewBox="0 0 228 461" fill="none" xmlns="http://www.w3.org/2000/svg">
<path d="M167.008 21.7962H183.4V115.719H167.008V21.7962Z" fill="#9AB97F"/>
<path d="M164.182 21.7962H186.791V40.8743H164.182V21.7962Z" fill="#9AB97F"/>
<path d="M24.0017 126.726L114.158 13.3577L204.314 126.726V460.593H24.0017V126.726Z" fill="#9AB97F"/>
<path d="M18.9145 167.817H208.836V181.025H18.9145V167.817Z" fill="#86A174"/>
<path d="M18.9145 301.364H208.836V314.572H18.9145V301.364Z" fill="#86A174"/>
<path d="M0.82666 125.541C0.82666 122.574 1.88435 119.705 3.80975 117.448L97.3291 7.8363C105.565 -1.8165 120.455 -1.89401 128.79 7.67252L224.384 117.381C226.386 119.679 227.489 122.623 227.489 125.671C227.489 137.292 213.109 142.734 205.414 134.025L115.332 32.0575C114.079 30.6393 111.864 30.6508 110.625 32.082L22.7243 133.698C15.1697 142.431 0.82666 137.088 0.82666 125.541Z" fill="white"/>
<path d="M16.0882 300.225C16.0882 298.222 17.2123 296.389 18.9971 295.482L32.835 288.444C39.6942 284.956 47.615 284.177 55.0223 286.263L57.101 286.848C63.5469 288.662 70.3701 288.652 76.8101 286.816L79.0156 286.188C86.2903 284.115 93.9928 284.068 101.292 286.051L106.291 287.409C111.669 288.87 117.286 289.235 122.808 288.48L150.897 284.642C158.653 283.582 166.551 284.735 173.681 287.969L182.063 291.771C184.807 293.015 187.785 293.659 190.798 293.659H206.017C209.291 293.659 211.945 296.313 211.945 299.586C211.945 302.957 209.138 305.649 205.77 305.509L115.288 301.731L21.6254 305.541C18.6044 305.664 16.0882 303.248 16.0882 300.225Z" fill="white"/>
<path d="M211.662 168.504C211.662 166.984 210.709 165.626 209.279 165.11L192.075 158.891C186.981 157.05 181.479 156.638 176.167 157.701L169.064 159.123C163.651 160.206 158.077 160.199 152.668 159.103L145.776 157.708C140.458 156.631 134.981 156.606 129.654 157.635L119.357 159.623C115.441 160.379 111.436 160.567 107.465 160.182L73.7612 156.909C68.1094 156.36 62.405 156.975 57.0004 158.718L45.09 162.557C42.89 163.266 40.5926 163.627 38.2811 163.627H20.3206C17.9832 163.627 16.0883 165.522 16.0883 167.86C16.0883 170.246 18.0606 172.161 20.4462 172.09L112.605 169.356L207.948 172.112C209.982 172.171 211.662 170.539 211.662 168.504Z" fill="white"/>
<path d="M162.486 21.3202C162.486 19.6549 163.99 18.3936 165.63 18.6839L167.915 19.0884C168.437 19.1808 168.971 19.1828 169.493 19.0943L171.99 18.6715C174.118 18.3113 176.29 18.3113 178.418 18.6715L180.915 19.0943C181.437 19.1828 181.971 19.1808 182.493 19.0884L184.778 18.6839C186.418 18.3936 187.922 19.6549 187.922 21.3202C187.922 22.7988 186.723 23.9975 185.245 23.9975H165.163C163.685 23.9975 162.486 22.7988 162.486 21.3202Z" fill="white"/>
<path d="M50.568 200.837H98.0483V262.474H50.568V200.837Z" fill="white"/>
<path d="M53.3943 204.506H73.1777V230.188H53.3943V204.506Z" fill="#F6C500"/>
<path d="M75.4387 233.123H95.2221V258.805H75.4387V233.123Z" fill="#F6C500"/>
<path d="M53.3943 233.123H73.1777V258.805H53.3943V233.123Z" fill="#F6C500"/>
<path d="M75.4387 204.506H95.2221V230.188H75.4387V204.506Z" fill="#F6C500"/>
<path d="M47.7418 261.74H100.875V270.545H47.7418V261.74Z" fill="white"/>
<path d="M128.571 200.837H176.052V262.474H128.571V200.837Z" fill="white"/>
<path d="M131.398 204.506H151.181V230.188H131.398V204.506Z" fill="#F6C500"/>
<path d="M153.442 233.123H173.226V258.805H153.442V233.123Z" fill="#F6C500"/>
<path d="M131.398 233.123H151.181V258.805H131.398V233.123Z" fill="#F6C500"/>
<path d="M153.442 204.506H173.226V230.188H153.442V204.506Z" fill="#F6C500"/>
<path d="M125.745 261.74H178.878V270.545H125.745V261.74Z" fill="white"/>
<path d="M50.5256 333.65H98.0059V395.287H50.5256V333.65Z" fill="white"/>
<path d="M53.3519 337.319H73.1353V363.001H53.3519V337.319Z" fill="#F6C500"/>
<path d="M75.3963 365.936H95.1797V391.618H75.3963V365.936Z" fill="#F6C500"/>
<path d="M53.3519 365.936H73.1353V391.618H53.3519V365.936Z" fill="#F6C500"/>
<path d="M75.3963 337.319H95.1797V363.001H75.3963V337.319Z" fill="#F6C500"/>
<path d="M47.6994 394.553H100.832V403.358H47.6994V394.553Z" fill="white"/>
<path d="M77.2633 109.15C77.2633 89.8781 92.8864 74.2551 112.158 74.2551H116.313C135.584 74.2551 151.208 89.8781 151.208 109.15V113.304C151.208 132.576 135.584 148.199 116.313 148.199H112.158C92.8864 148.199 77.2633 132.576 77.2633 113.304V109.15Z" fill="white"/>
<path d="M81.6647 109.467C81.6647 92.4508 95.4589 78.6567 112.475 78.6567V109.467H81.6647Z" fill="#F6C500"/>
<path d="M115.996 112.988H146.806C146.806 130.004 133.012 143.798 115.996 143.798V112.988Z" fill="#F6C500"/>
<path d="M81.6647 112.988H112.475V143.798C95.4589 143.798 81.6647 130.004 81.6647 112.988Z" fill="#F6C500"/>
<path d="M115.996 78.6567C133.012 78.6567 146.806 92.4508 146.806 109.467H115.996V78.6567Z" fill="#F6C500"/>
<path d="M131.268 355.22C131.268 350.674 133.206 346.344 136.597 343.316C148.706 332.504 167.002 332.504 179.111 343.316C182.502 346.344 184.441 350.674 184.441 355.22V460.593H131.268V355.22Z" fill="#F6C500"/>
</svg>
