<svg width="245" height="355" viewBox="0 0 245 355" fill="none" xmlns="http://www.w3.org/2000/svg">
<path d="M233.846 20.3429H257.967V100.778H233.846V20.3429Z" fill="#F5C96B"/>
<path d="M229.687 20.3429H262.957V36.7581H229.687V20.3429Z" fill="#F5C96B"/>
<path d="M11.5665 139.339L77.2023 52.4934H209.72L276.602 139.339V354.917H11.5665V139.339Z" fill="#F5C96B"/>
<path d="M0.765625 151.276C0.765625 145.904 2.34404 140.65 5.30479 136.167L47.826 71.7816C62.798 49.1113 87.9081 35.1931 115.068 34.5106L141.325 33.8508L172.231 34.5831C199.148 35.2209 224.088 48.8631 239.143 71.1852L282.959 136.147C285.989 140.64 287.607 145.935 287.607 151.353C287.607 175.58 258.318 187.713 241.186 170.584L217.217 146.62C209.485 138.888 198.997 134.544 188.062 134.544H101.224C90.228 134.544 79.6766 138.884 71.8623 146.619L47.4731 170.762C30.1607 187.9 0.765625 175.637 0.765625 151.276Z" fill="white"/>
<path d="M228.584 6.82441C228.584 3.09257 232.192 0.423104 235.761 1.51424C236.797 1.83104 237.903 1.83778 238.943 1.53366L241.982 0.644929C244.94 -0.220185 248.084 -0.220184 251.042 0.644929L254.081 1.53366C255.121 1.83779 256.227 1.83104 257.263 1.51424C260.832 0.423104 264.439 3.09257 264.439 6.82442V7.53412C264.439 10.8909 261.718 13.6121 258.361 13.6121H234.662C231.305 13.6121 228.584 10.8909 228.584 7.53411V6.82441Z" fill="white"/>
<path d="M45.8962 184.596H92.2322V277.894H45.8962V184.596Z" fill="white"/>
<path d="M48.6544 190.149H67.961V229.024H48.6544V190.149Z" fill="#31313D"/>
<path d="M70.1675 233.466H89.4741V272.341H70.1675V233.466Z" fill="#31313D"/>
<path d="M48.6544 233.466H67.961V272.341H48.6544V233.466Z" fill="#31313D"/>
<path d="M70.1675 190.149H89.4741V229.024H70.1675V190.149Z" fill="#31313D"/>
<path d="M43.1381 276.783H94.9903V290.112H43.1381V276.783Z" fill="white"/>
<path d="M197.108 184.596H243.444V277.894H197.108V184.596Z" fill="white"/>
<path d="M199.866 190.149H219.173V229.024H199.866V190.149Z" fill="#31313D"/>
<path d="M221.379 233.466H240.686V272.341H221.379V233.466Z" fill="#31313D"/>
<path d="M199.866 233.466H219.173V272.341H199.866V233.466Z" fill="#31313D"/>
<path d="M221.379 190.149H240.686V229.024H221.379V190.149Z" fill="#31313D"/>
<path d="M194.35 276.783H246.202V290.112H194.35V276.783Z" fill="white"/>
<path d="M117.913 205.725C117.913 202.375 119.057 199.125 121.156 196.513C132.93 181.86 155.239 181.86 167.013 196.513C169.112 199.125 170.256 202.375 170.256 205.725V354.917H117.913V205.725Z" fill="#31313D"/>
</svg>
