<svg width="298" height="706" viewBox="0 0 298 706" fill="none" xmlns="http://www.w3.org/2000/svg">
<path d="M54.862 8.6347H91.021V158.516H54.862V8.6347Z" fill="#F8A1DA"/>
<path d="M48.6277 8.6347H98.5021V38.8192H48.6277V8.6347Z" fill="#F8A1DA"/>
<path d="M39.8996 232.028L148.377 71.0853L256.854 232.028V706H39.8996V232.028Z" fill="#F8A1DA"/>
<path d="M28.6779 290.703H269.322V309.439H28.6779V290.703Z" fill="#D869B1"/>
<path d="M28.6779 480.137H269.322V498.872H28.6779V480.137Z" fill="#D869B1"/>
<path d="M0 232.932C0 230.197 0.859818 227.511 2.4935 225.141L120.697 53.6629C132.622 36.3638 162.476 36.2498 174.59 53.4571L295.38 225.036C297.095 227.473 298 230.249 298 233.075C298 249.193 272.547 255.043 262.664 241.197L150.788 84.4576C149.281 82.3456 145.611 82.3597 144.127 84.4832L34.8751 240.803C25.2502 254.575 0 248.875 0 232.932Z" fill="white"/>
<path d="M10.3842 478.242C10.3842 475.54 12.0696 473.033 14.8323 471.625L31.8789 462.939C42.8539 457.347 56.233 456.101 68.4144 459.537C77.4859 462.096 87.3161 462.081 96.3762 459.494L98.9524 458.759C109.506 455.745 120.947 455.677 131.552 458.564L135.187 459.553C144.672 462.136 154.761 462.78 164.607 461.432L196.931 457.006C210.613 455.133 224.653 457.12 236.83 462.655L244.762 466.259C249.02 468.194 253.79 469.208 258.639 469.208H277.631C283.17 469.208 287.661 472.956 287.661 477.58C287.661 482.368 282.858 486.181 277.13 485.941L150.823 480.657L20.1237 485.985C14.8233 486.201 10.3842 482.672 10.3842 478.242Z" fill="white"/>
<path d="M287.26 291.523C287.26 289.435 285.776 287.547 283.481 286.716L261.582 278.785C253.095 275.712 243.641 275.025 234.646 276.828L229.26 277.908C220.115 279.742 210.578 279.731 201.438 277.876L196.966 276.968C187.509 275.049 177.645 275.005 168.163 276.84L158.767 278.658C151.79 280.008 144.586 280.344 137.472 279.652L95.2281 275.541C85.1631 274.562 74.9639 275.645 65.5135 278.697L52.0767 283.037C48.5505 284.176 44.8022 284.76 41.0213 284.76H17.5544C13.5944 284.76 10.3842 287.44 10.3842 290.746C10.3842 294.135 13.7522 296.848 17.8097 296.728L147.024 292.886L280.765 296.76C284.315 296.863 287.26 294.489 287.26 291.523Z" fill="white"/>
<path d="M43.6402 7.99596C43.6402 3.54513 48.6238 0.264304 53.8088 1.30179L55.9869 1.73762C57.4886 2.03812 59.0533 2.04457 60.5585 1.75647L66.0033 0.714361C70.9798 -0.23812 76.15 -0.23812 81.1265 0.714361L86.5713 1.75647C88.0765 2.04457 89.6412 2.03812 91.1429 1.73762L93.321 1.30179C98.506 0.264304 103.49 3.54513 103.49 7.99596C103.49 11.7978 99.7976 14.8798 95.2433 14.8798H51.8866C47.3322 14.8798 43.6402 11.7978 43.6402 7.99596Z" fill="white"/>
<path d="M96.0084 337.541H200.745V424.972H96.0084V337.541Z" fill="white"/>
<path d="M102.243 342.746H145.883V379.175H102.243V342.746Z" fill="#31313D"/>
<path d="M150.87 383.338H194.51V419.768H150.87V383.338Z" fill="#31313D"/>
<path d="M102.243 383.338H145.883V419.768H102.243V383.338Z" fill="#31313D"/>
<path d="M150.87 342.746H194.51V379.175H150.87V342.746Z" fill="#31313D"/>
<path d="M89.7741 423.931H206.979V436.421H89.7741V423.931Z" fill="white"/>
<path d="M96.0084 202.232C96.0084 178.088 119.454 158.516 148.377 158.516C177.299 158.516 200.745 178.088 200.745 202.232C200.745 226.375 177.299 245.947 148.377 245.947C119.454 245.947 96.0084 226.375 96.0084 202.232Z" fill="white"/>
<path d="M102.243 200.15C102.243 180.03 121.781 163.72 145.883 163.72V200.15H102.243Z" fill="#31313D"/>
<path d="M150.87 204.313H194.51C194.51 224.433 174.972 240.743 150.87 240.743V204.313Z" fill="#31313D"/>
<path d="M102.243 204.313H145.883V240.743C121.781 240.743 102.243 224.433 102.243 204.313Z" fill="#31313D"/>
<path d="M150.87 163.72C174.972 163.72 194.51 180.03 194.51 200.15H150.87V163.72Z" fill="#31313D"/>
<path d="M89.7741 562.521C89.7741 552.26 95.8171 542.654 105.937 536.83C131.488 522.124 165.265 522.124 190.816 536.83C200.936 542.654 206.979 552.26 206.979 562.521V706H89.7741V562.521Z" fill="#31313D"/>
</svg>
