<svg width="369" height="354" viewBox="0 0 369 354" fill="none" xmlns="http://www.w3.org/2000/svg">
<path d="M24.8389 129.156H343.839V354H24.8389V129.156Z" fill="#89CFD1"/>
<path d="M65.8389 184H149.839V299.832H65.8389V184Z" fill="white"/>
<path d="M70.8389 190.895H105.839V239.158H70.8389V190.895Z" fill="#31313D"/>
<path d="M109.839 244.674H144.839V292.937H109.839V244.674Z" fill="#31313D"/>
<path d="M70.8389 244.674H105.839V292.937H70.8389V244.674Z" fill="#31313D"/>
<path d="M109.839 190.895H144.839V239.158H109.839V190.895Z" fill="#31313D"/>
<path d="M60.8389 298.453H154.839V315H60.8389V298.453Z" fill="white"/>
<path d="M203.839 184H297.839V354H203.839V184Z" fill="#31313D"/>
<path d="M49.4601 26.9164C58.0687 10.3759 75.1661 0 93.8126 0H274.865C293.512 0 310.609 10.3759 319.218 26.9164L365.821 116.458C374.483 133.101 362.406 153 343.644 153H25.0337C6.27143 153 -5.80462 133.101 2.8574 116.458L49.4601 26.9164Z" fill="white"/>
</svg>
