<svg width="433" height="305" viewBox="0 0 433 305" fill="none" xmlns="http://www.w3.org/2000/svg">
<path d="M351.41 9.40543H387.74V90.8271H351.41V9.40543Z" fill="#9EB4E3"/>
<path d="M345.146 9.40543H395.256V26.0221H345.146V9.40543Z" fill="#9EB4E3"/>
<path d="M16.1359 117.543L115.104 42.2882H314.919L415.767 117.543V304.351H16.1359V117.543Z" fill="#9EB4E3"/>
<path d="M0.350098 122.025C0.350098 113.742 4.2228 105.937 10.8177 100.926L85.4045 44.2591C99.5738 33.494 116.825 27.5627 134.619 27.3383L212.057 26.362L296.273 27.3632C313.8 27.5715 330.812 33.3178 344.875 43.7799L421.77 100.983C428.448 105.951 432.383 113.784 432.383 122.107C432.383 141.695 411.757 154.424 394.249 145.64L324.009 110.403C313.596 105.179 302.107 102.459 290.458 102.459H143.595C131.894 102.459 120.353 105.167 109.874 110.372L38.6343 145.756C21.0205 154.505 0.350098 141.692 0.350098 122.025Z" fill="white"/>
<path d="M343.484 6.07851C343.484 3.02193 346.208 0.684119 349.229 1.1476L355.179 2.06033C356.178 2.21353 357.193 2.21684 358.193 2.07016L363.663 1.26747C368.188 0.603552 372.785 0.603552 377.309 1.26747L382.78 2.07016C383.779 2.21684 384.795 2.21353 385.794 2.06033L391.743 1.1476C394.765 0.684119 397.488 3.02193 397.488 6.0785C397.488 8.83363 395.255 11.0671 392.5 11.0671H348.473C345.718 11.0671 343.484 8.83363 343.484 6.07851Z" fill="white"/>
<path d="M68.4784 160.617H138.268V251.711H68.4784V160.617Z" fill="white"/>
<path d="M72.6326 166.039H101.712V203.995H72.6326V166.039Z" fill="#31313D"/>
<path d="M105.035 208.333H134.114V246.289H105.035V208.333Z" fill="#31313D"/>
<path d="M72.6326 208.333H101.712V246.289H72.6326V208.333Z" fill="#31313D"/>
<path d="M105.035 166.039H134.114V203.995H105.035V166.039Z" fill="#31313D"/>
<path d="M64.3243 250.627H142.423V263.64H64.3243V250.627Z" fill="white"/>
<path d="M294.465 160.617H364.255V251.711H294.465V160.617Z" fill="white"/>
<path d="M298.619 166.039H327.698V203.995H298.619V166.039Z" fill="#31313D"/>
<path d="M331.022 208.333H360.101V246.289H331.022V208.333Z" fill="#31313D"/>
<path d="M298.619 208.333H327.698V246.289H298.619V208.333Z" fill="#31313D"/>
<path d="M331.022 166.039H360.101V203.995H331.022V166.039Z" fill="#31313D"/>
<path d="M290.311 250.627H368.409V263.64H290.311V250.627Z" fill="white"/>
<path d="M177.318 189.822C177.318 181.631 181.344 173.964 188.088 169.314C205.113 157.575 227.62 157.575 244.646 169.314C251.389 173.964 255.416 181.631 255.416 189.822V304.351H177.318V189.822Z" fill="#31313D"/>
</svg>
