<svg width="78" height="72" viewBox="0 0 78 72" fill="none" xmlns="http://www.w3.org/2000/svg">
<path d="M51.1741 35.8553C51.1741 38.4226 48.9449 40.499 46.2003 40.499H4.9738C2.22038 40.499 0 38.4226 0 35.8553C0 33.2877 2.22038 31.2112 4.9738 31.2112H46.2003C48.9449 31.2112 51.1741 33.2877 51.1741 35.8553Z" fill="#FAB71D"/>
<path d="M69.9461 27.5878C69.9461 29.3519 68.4174 30.7864 66.5318 30.7864H55.6724C53.7868 30.7864 52.2581 29.3519 52.2581 27.5878V12.6677C52.2581 10.9036 53.7868 9.48239 55.6724 9.48239H66.5318C68.4174 9.48239 69.9461 10.9036 69.9461 12.6677V27.5878ZM71.3735 -0.00029472H50.8352C47.2755 -0.00029472 44.3899 2.69426 44.3899 6.03744V34.2276C44.3899 37.5613 47.2755 40.2559 50.8352 40.2559H71.3735C74.9287 40.2559 77.8099 37.5613 77.8099 34.2276V6.03744C77.8099 2.69426 74.9287 -0.00029472 71.3735 -0.00029472Z" fill="#FAB71D"/>
<path d="M69.9461 59.0347C69.9461 60.8067 68.4174 62.2234 66.5318 62.2234H55.6724C53.7868 62.2234 52.2581 60.8067 52.2581 59.0347V44.113C52.2581 42.3568 53.7868 40.9273 55.6724 40.9273H66.5318C68.4174 40.9273 69.9461 42.3568 69.9461 44.113V59.0347ZM71.3735 31.4545H50.8352C47.2755 31.4545 44.3899 34.1491 44.3899 37.4828V65.6729C44.3899 69.0144 47.2755 71.7012 50.8352 71.7012H71.3735C74.9287 71.7012 77.8099 69.0144 77.8099 65.6729V37.4828C77.8099 34.1491 74.9287 31.4545 71.3735 31.4545Z" fill="#FAB71D"/>
</svg>
