<svg width="78" height="72" viewBox="0 0 78 72" fill="none" xmlns="http://www.w3.org/2000/svg">
<path d="M51.3643 36.0585C51.3643 38.6257 49.1351 40.7021 46.3905 40.7021H5.16399C2.41056 40.7021 0.190186 38.6257 0.190186 36.0585C0.190186 33.4908 2.41056 31.4144 5.16399 31.4144H46.3905C49.1351 31.4144 51.3643 33.4908 51.3643 36.0585Z" fill="#F6CB7A"/>
<path d="M70.1363 27.7909C70.1363 29.555 68.6076 30.9895 66.722 30.9895H55.8626C53.977 30.9895 52.4483 29.555 52.4483 27.7909V12.8709C52.4483 11.1068 53.977 9.68552 55.8626 9.68552H66.722C68.6076 9.68552 70.1363 11.1068 70.1363 12.8709V27.7909ZM71.5636 0.20283H51.0253C47.4657 0.20283 44.5801 2.89739 44.5801 6.24057V34.4307C44.5801 37.7644 47.4657 40.459 51.0253 40.459H71.5636C75.1189 40.459 78.0001 37.7644 78.0001 34.4307V6.24057C78.0001 2.89739 75.1189 0.20283 71.5636 0.20283Z" fill="#F6CB7A"/>
<path d="M70.1363 59.2379C70.1363 61.0098 68.6076 62.4265 66.722 62.4265H55.8626C53.977 62.4265 52.4483 61.0098 52.4483 59.2379V44.3162C52.4483 42.5599 53.977 41.1304 55.8626 41.1304H66.722C68.6076 41.1304 70.1363 42.5599 70.1363 44.3162V59.2379ZM71.5636 31.6576H51.0253C47.4657 31.6576 44.5801 34.3522 44.5801 37.6859V65.876C44.5801 69.2175 47.4657 71.9043 51.0253 71.9043H71.5636C75.1189 71.9043 78.0001 69.2175 78.0001 65.876V37.6859C78.0001 34.3522 75.1189 31.6576 71.5636 31.6576Z" fill="#F6CB7A"/>
</svg>
