<svg width="131" height="377" viewBox="0 0 131 377" fill="none" xmlns="http://www.w3.org/2000/svg">
<path d="M64.2858 309.022L63.3264 229.921C63.2922 227.096 60.6957 224.834 57.524 224.873L44.1059 225.035C40.9343 225.074 38.3952 227.398 38.4295 230.223L39.3889 309.324L64.2858 309.022Z" fill="#1D1E44"/>
<path d="M39.3962 309.939L40.132 370.599C40.17 373.738 42.7678 376.255 45.9395 376.217L59.3576 376.054C62.5292 376.015 65.067 373.436 65.0289 370.297L64.2931 309.637L39.3962 309.939Z" fill="#0F1325"/>
<path d="M95.8959 308.639L94.9364 229.537C94.9022 226.712 92.3075 224.451 89.1429 224.489L75.7353 224.652C72.5637 224.69 70.0246 227.014 70.0589 229.839L71.0183 308.94L95.8959 308.639Z" fill="#1D1E44"/>
<path d="M71.0258 309.555L71.7616 370.216C71.7997 373.354 74.3975 375.871 77.5691 375.833L90.9766 375.67C94.1412 375.632 96.6772 373.053 96.6392 369.914L95.9034 309.254L71.0258 309.555Z" fill="#0F1325"/>
<path d="M64.4597 323.362L52.054 327.183L39.5628 323.664L39.5894 325.857L48.3474 328.325L39.6519 331.005L39.6785 333.199L52.0806 329.376L64.5754 332.897L64.5488 330.703L55.7908 328.235L64.4863 325.555L64.4597 323.362Z" fill="#FAB71D"/>
<path d="M64.5989 334.833L52.1932 338.654L39.702 335.135L39.7286 337.33L48.4866 339.799L39.791 342.477L39.8176 344.67L52.2198 340.847L64.7146 344.368L64.688 342.175L55.93 339.708L64.6255 337.028L64.5989 334.833Z" fill="#FAB71D"/>
<path d="M64.7446 346.859L52.3389 350.679L39.8477 347.161L39.8743 349.353L48.6323 351.822L39.9367 354.5L39.9634 356.697L52.3655 352.874L64.8603 356.395L64.8337 354.198L56.0757 351.731L64.7712 349.051L64.7446 346.859Z" fill="#FAB71D"/>
<path d="M102.109 256.23C102.16 260.414 99.1119 263.841 95.3004 263.887L38.8459 264.572C35.0379 264.618 31.9044 261.266 31.8537 257.082L33.3202 214.155C33.2695 209.971 36.3172 206.547 40.127 206.501L93.1736 205.857C96.9869 205.811 100.113 209.16 100.164 213.344L102.109 256.23Z" fill="#BF1B2C"/>
<path d="M80.174 264.071L66.3472 201.324L54.0518 264.388L80.174 264.071Z" fill="#0F1325"/>
<path d="M124.407 196.384C124.441 199.173 121.38 201.474 117.574 201.52L109.222 201.621C105.413 201.668 102.296 199.441 102.263 196.653L101.594 141.556C101.56 138.766 104.622 136.469 108.432 136.423L116.783 136.321C120.589 136.275 123.705 138.497 123.739 141.287L124.407 196.384Z" fill="#861623"/>
<path d="M30.2269 197.527C30.2608 200.317 27.1959 202.616 23.3879 202.663L15.0401 202.764C11.2285 202.81 8.10879 200.585 8.07495 197.795L7.40667 142.698C7.37283 139.909 10.4377 137.611 14.2493 137.565L22.597 137.464C26.4051 137.418 29.5248 139.64 29.5587 142.43L30.2269 197.527Z" fill="#861623"/>
<path d="M127.493 136.191C127.535 139.685 124.481 142.558 120.675 142.605L100.446 142.85C96.6398 142.896 93.5166 140.098 93.4743 136.604C93.4319 133.109 96.4863 130.238 100.293 130.192L120.521 129.947C124.327 129.901 127.45 132.696 127.493 136.191Z" fill="#F9A72B"/>
<path d="M36.6321 137.294C36.6745 140.788 33.6236 143.661 29.8156 143.707L9.59235 143.952C5.78253 143.999 2.66116 141.2 2.61878 137.707C2.57639 134.211 5.629 131.341 9.43882 131.295L29.6621 131.05C33.4701 131.003 36.5897 133.799 36.6321 137.294Z" fill="#F9A72B"/>
<path d="M100.269 208.213C100.31 211.563 97.7494 214.306 94.5548 214.345L38.7245 215.022C35.5335 215.061 32.9072 212.38 32.8666 209.031L26.4189 134.055C26.3782 130.705 31.5642 122.874 41.0015 122.759L89.191 122.175C99.545 122.049 103.577 128.793 103.617 132.141L100.269 208.213Z" fill="#BF1B2C"/>
<path d="M105.277 204.588C105.341 209.904 103.243 214.239 100.588 214.272L33.9045 215.08C31.2512 215.113 29.0481 210.829 28.9836 205.513C28.9192 200.202 31.0178 195.867 33.6711 195.834L100.354 195.026C103.009 194.993 105.213 199.276 105.277 204.588Z" fill="#0F1325"/>
<path d="M127.693 152.705C127.7 153.207 127.262 153.62 126.717 153.627C126.171 153.633 125.723 153.231 125.717 152.729L125.528 137.123C125.522 136.62 125.959 136.21 126.506 136.203C127.051 136.197 127.498 136.596 127.504 137.099L127.693 152.705Z" fill="#F9A72B"/>
<path d="M124.465 152.744C124.471 153.246 124.037 153.659 123.489 153.666C122.946 153.672 122.498 153.27 122.492 152.768L122.303 137.162C122.297 136.659 122.735 136.249 123.278 136.243C123.826 136.236 124.27 136.635 124.276 137.138L124.465 152.744Z" fill="#F9A72B"/>
<path d="M121.242 152.783C121.249 153.285 120.813 153.698 120.268 153.705C119.72 153.711 119.274 153.309 119.268 152.807L119.079 137.201C119.073 136.698 119.508 136.288 120.057 136.282C120.601 136.275 121.047 136.675 121.053 137.177L121.242 152.783Z" fill="#F9A72B"/>
<path d="M118.02 152.822C118.026 153.324 117.588 153.737 117.04 153.744C116.495 153.75 116.048 153.348 116.042 152.846L115.853 137.24C115.846 136.738 116.284 136.327 116.829 136.321C117.377 136.314 117.824 136.714 117.831 137.216L118.02 152.822Z" fill="#F9A72B"/>
<path d="M114.792 152.861C114.798 153.363 114.364 153.776 113.816 153.783C113.271 153.79 112.825 153.387 112.819 152.885L112.63 137.279C112.624 136.777 113.06 136.366 113.604 136.36C114.153 136.353 114.597 136.753 114.603 137.255L114.792 152.861Z" fill="#F9A72B"/>
<path d="M111.569 152.9C111.575 153.402 111.137 153.815 110.593 153.822C110.048 153.829 109.602 153.426 109.596 152.924L109.407 137.318C109.401 136.816 109.837 136.405 110.381 136.399C110.926 136.392 111.374 136.792 111.38 137.294L111.569 152.9Z" fill="#F9A72B"/>
<path d="M108.343 152.939C108.349 153.441 107.916 153.854 107.37 153.861C106.822 153.868 106.372 153.465 106.366 152.963L106.177 137.357C106.171 136.855 106.61 136.444 107.159 136.438C107.705 136.431 108.147 136.831 108.153 137.333L108.343 152.939Z" fill="#F9A72B"/>
<path d="M24.1422 153.961C24.1483 154.463 23.7107 154.876 23.1624 154.883C22.6177 154.889 22.1738 154.487 22.1677 153.985L21.9784 138.378C21.9723 137.876 22.4063 137.466 22.9511 137.459C23.4994 137.453 23.9468 137.852 23.9529 138.355L24.1422 153.961Z" fill="#F9A72B"/>
<path d="M20.9162 154C20.9223 154.502 20.4847 154.915 19.9417 154.922C19.3952 154.928 18.946 154.526 18.9399 154.024L18.7506 138.418C18.7445 137.915 19.1838 137.505 19.7304 137.498C20.2734 137.492 20.7208 137.891 20.7269 138.394L20.9162 154Z" fill="#F9A72B"/>
<path d="M17.6933 154.04C17.6994 154.542 17.2601 154.955 16.7171 154.962C16.1688 154.968 15.7214 154.566 15.7153 154.064L15.526 138.458C15.5199 137.955 15.9575 137.545 16.5058 137.538C17.0488 137.532 17.498 137.931 17.5041 138.434L17.6933 154.04Z" fill="#F9A72B"/>
<path d="M14.4636 154.078C14.4697 154.58 14.0357 154.993 13.4927 155C12.9444 155.006 12.5004 154.604 12.4943 154.102L12.305 138.496C12.299 137.993 12.733 137.583 13.2813 137.577C13.8243 137.57 14.2682 137.969 14.2743 138.472L14.4636 154.078Z" fill="#F9A72B"/>
<path d="M11.2444 154.118C11.2505 154.62 10.8112 155.033 10.2682 155.04C9.7234 155.046 9.2724 154.644 9.26631 154.142L9.07702 138.536C9.07093 138.033 9.51207 137.623 10.0568 137.617C10.5998 137.61 11.049 138.009 11.0551 138.512L11.2444 154.118Z" fill="#F9A72B"/>
<path d="M8.01825 154.156C8.02434 154.658 7.58675 155.071 7.03846 155.078C6.49546 155.084 6.04803 154.682 6.04194 154.18L5.85265 138.574C5.84656 138.072 6.28413 137.661 6.82713 137.655C7.37542 137.648 7.82286 138.048 7.82896 138.55L8.01825 154.156Z" fill="#F9A72B"/>
<path d="M93.2564 137.968C93.2706 139.137 92.249 140.103 90.9691 140.118L39.6555 140.741C38.3809 140.756 37.3327 139.815 37.3185 138.647C37.3043 137.474 38.3294 136.512 39.604 136.497L90.9176 135.874C92.1975 135.859 93.2422 136.795 93.2564 137.968Z" fill="#0F1325"/>
<path d="M93.3782 148C93.3924 149.171 92.3708 150.135 91.0909 150.15L39.7773 150.773C38.5027 150.788 37.4545 149.849 37.4403 148.679C37.4261 147.506 38.4512 146.544 39.7258 146.529L91.0394 145.907C92.3194 145.891 93.364 146.827 93.3782 148Z" fill="#0F1325"/>
<path d="M93.4998 158.031C93.514 159.202 92.4924 160.165 91.2125 160.181L39.8989 160.803C38.6243 160.818 37.5761 159.881 37.5619 158.709C37.5477 157.538 38.5728 156.573 39.8474 156.558L91.161 155.935C92.4409 155.92 93.4856 156.859 93.4998 158.031Z" fill="#0F1325"/>
<path d="M93.6214 168.062C93.6356 169.234 92.614 170.198 91.3341 170.214L40.0205 170.836C38.7458 170.852 37.6977 169.913 37.6835 168.741C37.6693 167.569 38.6944 166.606 39.969 166.591L91.2826 165.969C92.5625 165.953 93.6072 166.891 93.6214 168.062Z" fill="#0F1325"/>
<path d="M93.7432 178.095C93.7574 179.264 92.7358 180.227 91.4559 180.242L40.1423 180.865C38.8677 180.88 37.8195 179.942 37.8054 178.773C37.7911 177.599 38.8162 176.64 40.0909 176.625L91.4045 176.003C92.6844 175.987 93.729 176.921 93.7432 178.095Z" fill="#0F1325"/>
<path d="M30.6072 196.314C30.6496 199.811 27.5934 202.683 23.7836 202.729L13.9779 202.848C10.1681 202.894 7.04668 200.097 7.00427 196.601L6.89511 187.601C6.8527 184.104 9.90532 181.231 13.7151 181.185L23.5209 181.066C27.3307 181.02 30.4556 183.818 30.498 187.315L30.6072 196.314Z" fill="#FAB684"/>
<path d="M35.1844 188.908C35.2072 190.792 33.5667 192.337 31.5146 192.362C29.4625 192.387 27.7833 190.882 27.7604 188.998L27.7307 186.547C27.7079 184.665 29.3501 183.117 31.4022 183.093C33.4543 183.068 35.1318 184.575 35.1546 186.457L35.1844 188.908Z" fill="#FAB684"/>
<path d="M101.802 195.45C101.844 198.947 104.971 201.744 108.776 201.698L118.587 201.579C122.398 201.532 125.453 198.661 125.41 195.164L125.301 186.164C125.259 182.668 122.135 179.869 118.324 179.916L108.513 180.035C104.708 180.081 101.65 182.954 101.693 186.451L101.802 195.45Z" fill="#FAB684"/>
<path d="M97.0478 188.157C97.0706 190.041 98.7481 191.546 100.8 191.521C102.849 191.497 104.495 189.951 104.472 188.067L104.442 185.616C104.419 183.735 102.736 182.227 100.688 182.252C98.6357 182.277 96.9952 183.825 97.018 185.706L97.0478 188.157Z" fill="#FAB684"/>
<path d="M99.3265 368.891C99.3719 372.634 96.6567 375.705 93.2648 375.746L76.7297 375.947C73.3394 375.988 70.5506 372.984 70.5052 369.241L70.4793 367.107C70.4194 362.174 77.1277 359.047 82.8927 358.977L86.6937 358.931C92.806 358.856 99.2458 362.241 99.2981 366.547L99.3265 368.891Z" fill="#1D1E44"/>
<path d="M101.162 372.82C101.181 374.382 99.8037 375.667 98.0883 375.688L71.9079 376.005C70.1943 376.026 68.7861 374.775 68.7672 373.213C68.7482 371.65 70.1256 370.364 71.8392 370.343L98.0196 370.026C99.735 370.005 101.143 371.257 101.162 372.82Z" fill="#1D1E44"/>
<path d="M65.8135 369.277C65.8584 372.973 63.1797 376.007 59.8248 376.048L43.4942 376.246C40.1428 376.286 37.3896 373.318 37.3448 369.622L37.3192 367.515C37.2601 362.643 43.886 359.554 49.5751 359.485L53.3338 359.44C59.3721 359.366 65.7339 362.709 65.7855 366.961L65.8135 369.277Z" fill="#1D1E44"/>
<path d="M67.6258 373.157C67.6445 374.702 66.2828 375.969 64.5868 375.99L38.7308 376.304C37.0348 376.324 35.6445 375.09 35.6258 373.545C35.607 372.001 36.967 370.732 38.663 370.711L64.5189 370.398C66.2149 370.377 67.607 371.613 67.6258 373.157Z" fill="#1D1E44"/>
<path d="M96.0454 322.978L83.645 326.8L71.1502 323.28L71.1768 325.473L79.9366 327.941L71.2393 330.621L71.2659 332.815L83.6716 328.992L96.161 332.513L96.1344 330.319L87.3746 327.851L96.072 325.171L96.0454 322.978Z" fill="#FAB71D"/>
<path d="M96.1845 334.449L83.7841 338.27L71.2894 334.751L71.316 336.946L80.0758 339.415L71.3784 342.093L71.405 344.286L83.8107 340.463L96.3002 343.984L96.2736 341.791L87.5138 339.324L96.2112 336.644L96.1845 334.449Z" fill="#FAB71D"/>
<path d="M96.3303 346.476L83.9299 350.296L71.4351 346.778L71.4617 348.97L80.2215 351.439L71.5241 354.118L71.5508 356.314L83.9565 352.492L96.4459 356.012L96.4193 353.816L87.6595 351.348L96.3569 348.668L96.3303 346.476Z" fill="#FAB71D"/>
<path d="M70.1526 314.299L96.8413 313.975L96.6914 301.622L70.0028 301.946L70.1526 314.299Z" fill="#FAB71D"/>
<path d="M64.8776 314.363L38.1912 314.687L38.0413 302.334L64.7277 302.01L64.8776 314.363Z" fill="#FAB71D"/>
<path d="M76.4958 211.882L57.9156 212.107L57.7473 198.223L76.3274 197.998L76.4958 211.882ZM54.1306 195.587L54.364 214.833L80.1142 214.521L79.8808 195.275L54.1306 195.587Z" fill="#FAB71D"/>
<path d="M56.022 205.579L67.1288 205.444L67.1049 203.47L55.998 203.604L56.022 205.579Z" fill="#FAB71D"/>
<path d="M94.7534 137.949C94.7739 139.643 93.047 141.04 90.8997 141.066C88.7523 141.092 86.9938 139.737 86.9733 138.044C86.9527 136.348 88.6779 134.952 90.8252 134.926C92.9725 134.9 94.7328 136.253 94.7534 137.949Z" fill="white"/>
<path d="M94.8749 147.982C94.8955 149.676 93.1686 151.074 91.0212 151.1C88.8739 151.126 87.1154 149.77 87.0948 148.077C87.0743 146.38 88.7994 144.982 90.9467 144.956C93.094 144.93 94.8544 146.286 94.8749 147.982Z" fill="white"/>
<path d="M94.9965 158.013C95.0171 159.707 93.2901 161.105 91.1428 161.131C88.9955 161.157 87.237 159.802 87.2164 158.107C87.1958 156.409 88.921 155.014 91.0683 154.987C93.2156 154.961 94.9759 156.315 94.9965 158.013Z" fill="white"/>
<path d="M95.1181 168.045C95.1387 169.742 93.4117 171.137 91.2644 171.163C89.1171 171.189 87.3586 169.837 87.338 168.139C87.3174 166.442 89.0426 165.047 91.1899 165.021C93.3372 164.995 95.0975 166.347 95.1181 168.045Z" fill="white"/>
<path d="M95.2397 178.077C95.2602 179.772 93.5333 181.169 91.386 181.195C89.2387 181.221 87.4801 179.866 87.4596 178.171C87.439 176.477 89.1642 175.079 91.3115 175.053C93.4588 175.027 95.2191 176.382 95.2397 178.077Z" fill="white"/>
<path d="M41.2077 138.599C41.2283 140.292 39.5014 141.689 37.3558 141.715C35.2085 141.742 33.4464 140.387 33.4259 138.693C33.4053 136.997 35.134 135.601 37.2814 135.575C39.4269 135.549 41.1871 136.903 41.2077 138.599Z" fill="white"/>
<path d="M41.3293 148.632C41.3498 150.325 39.623 151.724 37.4774 151.75C35.3301 151.776 33.568 150.419 33.5475 148.726C33.5269 147.03 35.2556 145.631 37.4029 145.605C39.5484 145.579 41.3087 146.936 41.3293 148.632Z" fill="white"/>
<path d="M41.4509 158.662C41.4714 160.357 39.7446 161.754 37.599 161.78C35.4517 161.806 33.6896 160.451 33.6691 158.756C33.6485 157.059 35.3772 155.663 37.5245 155.637C39.67 155.611 41.4303 156.964 41.4509 158.662Z" fill="white"/>
<path d="M41.5727 168.696C41.5933 170.392 39.8664 171.786 37.7208 171.812C35.5735 171.838 33.8115 170.486 33.7909 168.79C33.7703 167.091 35.499 165.697 37.6463 165.67C39.7919 165.644 41.5521 166.997 41.5727 168.696Z" fill="white"/>
<path d="M41.6943 178.725C41.7148 180.421 39.988 181.818 37.8424 181.844C35.6951 181.87 33.933 180.515 33.9124 178.819C33.8919 177.126 35.6206 175.727 37.7679 175.701C39.9134 175.675 41.6737 177.032 41.6943 178.725Z" fill="white"/>
<path d="M71.8832 376.006C71.8815 376.006 71.8797 376.006 71.8779 376.006C71.8797 376.006 71.8815 376.006 71.8832 376.006ZM71.8585 376.006C71.8567 376.006 71.855 376.006 71.8533 376.006C71.855 376.006 71.8567 376.006 71.8585 376.006ZM101.162 372.82C101.162 372.814 101.162 372.809 101.162 372.803C101.162 372.809 101.162 372.814 101.162 372.82ZM101.162 372.798C101.162 372.793 101.162 372.789 101.162 372.786C101.162 372.789 101.162 372.793 101.162 372.798ZM101.162 372.781C101.162 372.776 101.162 372.771 101.161 372.766C101.162 372.771 101.162 372.776 101.162 372.781ZM101.161 372.763C101.161 372.759 101.161 372.753 101.161 372.749C101.161 372.753 101.161 372.759 101.161 372.763ZM101.161 372.741C101.161 372.737 101.159 372.736 101.159 372.734C101.159 372.736 101.161 372.737 101.161 372.741ZM101.159 372.724C101.159 372.722 101.159 372.722 101.159 372.721C101.159 372.722 101.159 372.722 101.159 372.724ZM70.6395 370.578C70.632 370.534 70.6243 370.489 70.6167 370.445C70.6243 370.489 70.632 370.534 70.6413 370.578L70.6395 370.578ZM99.3258 368.977C99.3258 368.976 99.3258 368.976 99.3258 368.975C99.3258 368.976 99.3258 368.976 99.3258 368.977ZM99.3253 368.934C99.3252 368.933 99.3252 368.933 99.3252 368.933L99.3253 368.934ZM70.4789 367.076C70.4789 367.075 70.4789 367.075 70.4789 367.073C70.4789 367.075 70.4789 367.076 70.4789 367.076ZM99.2981 366.547C99.298 366.54 99.2979 366.531 99.2978 366.524C99.2979 366.531 99.298 366.54 99.2981 366.547ZM99.2959 366.516C99.2959 366.511 99.2958 366.507 99.2957 366.501C99.2958 366.507 99.2959 366.511 99.2959 366.516ZM99.2956 366.491C99.2956 366.487 99.2955 366.483 99.2955 366.479C99.2955 366.483 99.2956 366.487 99.2956 366.491ZM99.2953 366.467C99.2953 366.465 99.2953 366.462 99.2952 366.458C99.2953 366.462 99.2953 366.465 99.2953 366.467Z" fill="#1E5651"/>
<path d="M71.3319 334.763L71.2894 334.751L71.3319 334.763ZM71.2659 332.816L71.3081 332.803L71.2659 332.816ZM71.1927 323.292L71.1503 323.28L71.1927 323.292Z" fill="#287D72"/>
<path d="M71.5508 356.314L71.5929 356.3L71.5929 356.302L71.5508 356.314Z" fill="#1E5651"/>
<path d="M71.6819 363.631L71.593 356.299L83.9565 352.491L96.446 356.012L96.4193 353.815L87.6596 351.348L96.3569 348.668L96.3303 346.475L83.9299 350.295L71.4776 346.789L71.4471 344.274L83.8107 340.464L96.3001 343.985L96.2735 341.792L87.5137 339.325L96.2111 336.645L96.1845 334.449L83.7841 338.271L71.3317 334.763L71.308 332.803L83.6715 328.993L96.161 332.514L96.1344 330.32L87.3746 327.851L96.0719 325.171L96.0453 322.979L83.6449 326.8L71.1926 323.292L71.0834 314.287L95.961 313.986L96.5426 361.943C94.0902 360.069 90.3324 358.886 86.6936 358.93L82.8926 358.977C78.635 359.028 73.8616 360.747 71.6819 363.631Z" fill="#0A0D1A"/>
<path d="M71.5242 354.117L71.5663 354.104L71.5242 354.117ZM71.5042 348.984L71.4617 348.97L71.5042 348.982L71.5042 348.984Z" fill="#1E5651"/>
<path d="M71.5664 354.104L71.5043 348.982L80.2216 351.439L71.5664 354.104Z" fill="#0A0D1A"/>
<path d="M71.3784 342.094L71.4206 342.079L71.4206 342.081L71.3784 342.094Z" fill="#1E5651"/>
<path d="M71.4204 342.081L71.3583 336.959L80.0756 339.416L71.4204 342.081Z" fill="#0A0D1A"/>
<path d="M71.239 330.621L71.2812 330.607L71.2812 330.608L71.239 330.621Z" fill="#287D72"/>
<path d="M71.2815 330.608L71.2194 325.487L79.9367 327.941L71.2815 330.608Z" fill="#0A0D1A"/>
<path d="M95.8112 301.633L70.9336 301.935L70.4758 264.188L95.3004 263.887C95.3181 263.887 95.3357 263.887 95.3533 263.887L95.8112 301.633Z" fill="#1D1E44"/>
<path d="M95.3003 263.887L80.1738 264.071L69.2841 214.651L100.205 214.276L102.109 256.23C102.109 256.245 102.109 256.262 102.109 256.277L102.109 256.279C102.109 256.283 102.109 256.287 102.109 256.291C102.11 256.295 102.11 256.299 102.11 256.304C102.11 256.306 102.11 256.309 102.11 256.313C102.11 256.318 102.11 256.323 102.11 256.327C102.11 256.351 102.109 256.373 102.109 256.397C102.109 256.398 102.109 256.4 102.109 256.401C102.078 260.486 99.0867 263.804 95.3531 263.881L95.3532 263.886C95.3356 263.887 95.3179 263.887 95.3003 263.887Z" fill="#8E121F"/>
<path d="M80.1737 264.071L67.8945 264.22L67.2936 214.676L69.284 214.652L80.1737 264.071Z" fill="#0A0D1A"/>
<path d="M124.243 182.865C123.007 181.068 120.813 179.886 118.324 179.916L108.513 180.035C106.152 180.063 104.078 181.181 102.853 182.862C102.619 182.71 102.362 182.584 102.091 182.487L101.942 170.217L101.942 170.209L103.147 142.817L106.243 142.78L106.366 152.963C106.373 153.466 106.822 153.868 107.37 153.861C107.917 153.855 108.349 153.442 108.343 152.939L108.219 142.756L109.473 142.74L109.596 152.924C109.602 153.426 110.048 153.829 110.593 153.822C111.137 153.816 111.575 153.403 111.569 152.9L111.445 142.716L112.695 142.701L112.819 152.885C112.825 153.387 113.271 153.79 113.816 153.783C114.364 153.776 114.798 153.363 114.792 152.861L114.668 142.677L115.918 142.662L116.042 152.846C116.048 153.348 116.495 153.751 117.04 153.744C117.588 153.737 118.026 153.324 118.02 152.822L117.896 142.638L119.144 142.623L119.268 152.807C119.274 153.309 119.72 153.711 120.268 153.705C120.813 153.698 121.249 153.285 121.243 152.783L121.119 142.587C121.547 142.556 121.964 142.49 122.367 142.391L122.492 152.768C122.499 153.27 122.946 153.672 123.489 153.666C123.632 153.664 123.767 153.635 123.888 153.583L124.243 182.865Z" fill="#651018"/>
<path d="M119.145 142.623L117.896 142.638L117.831 137.216C117.824 136.714 117.377 136.314 116.829 136.321C116.284 136.328 115.846 136.738 115.853 137.24L115.918 142.662L114.668 142.678L114.603 137.255C114.597 136.753 114.153 136.353 113.604 136.36C113.06 136.367 112.624 136.777 112.63 137.279L112.696 142.702L111.446 142.717L111.38 137.294C111.374 136.792 110.926 136.393 110.382 136.399C109.837 136.406 109.401 136.816 109.407 137.318L109.473 142.741L108.219 142.756L108.154 137.334C108.147 136.831 107.705 136.432 107.159 136.438C106.611 136.445 106.171 136.855 106.177 137.358L106.243 142.78L103.147 142.817L103.617 132.141C103.61 131.563 103.484 130.884 103.228 130.157L120.521 129.947C124.328 129.901 127.451 132.696 127.493 136.192C127.496 136.414 127.484 136.633 127.462 136.847C127.34 136.47 126.955 136.198 126.506 136.204C125.959 136.21 125.522 136.621 125.528 137.123L125.571 140.644C125.201 141.001 124.785 141.314 124.33 141.582L124.33 141.591L124.276 137.138C124.27 136.636 123.826 136.236 123.278 136.243C122.735 136.249 122.297 136.66 122.303 137.162L122.367 142.391C121.964 142.49 121.547 142.557 121.119 142.587L121.053 137.177C121.047 136.675 120.602 136.275 120.057 136.282C119.509 136.288 119.073 136.699 119.079 137.201L119.145 142.623Z" fill="#FAB71D"/>
<path d="M100.847 195.07C100.684 195.038 100.52 195.024 100.354 195.026L67.0602 195.429L66.8796 180.54L88.5608 180.277C89.2749 180.854 90.2789 181.208 91.3861 181.195C93.5334 181.168 95.2603 179.771 95.2398 178.076C95.2192 176.382 93.4589 175.027 91.3116 175.053C90.2044 175.066 89.211 175.443 88.5094 176.037L66.8282 176.3L66.758 170.512L88.4427 170.249C89.1568 170.825 90.159 171.176 91.2644 171.162C93.4117 171.136 95.1387 169.742 95.1181 168.044C95.0975 166.347 93.3372 164.995 91.1899 165.021C90.0845 165.034 89.0911 165.411 88.3895 166.004L66.7065 166.267L66.6363 160.479L88.321 160.216C89.0351 160.791 90.0373 161.144 91.1427 161.13C93.2901 161.104 95.017 159.707 94.9964 158.012C94.9758 156.315 93.2155 154.961 91.0682 154.987C89.9628 155.001 88.9694 155.377 88.2678 155.97L66.5848 156.233L66.5146 150.448L88.1994 150.185C88.9152 150.761 89.9157 151.113 91.0211 151.1C93.1684 151.074 94.8953 149.675 94.8748 147.982C94.8542 146.286 93.0939 144.929 90.9465 144.955C89.8394 144.969 88.846 145.347 88.1444 145.941L66.4631 146.204L66.3929 140.416L88.0795 140.153C88.7935 140.727 89.7957 141.08 90.8994 141.066C93.0467 141.04 94.7736 139.643 94.7531 137.95C94.7325 136.253 92.9722 134.9 90.8249 134.926C89.7195 134.939 88.7243 135.316 88.0244 135.909L66.3414 136.172L66.1751 122.454L82.8406 122.252L89.1908 122.175C90.9027 122.154 92.4423 122.321 93.8196 122.63C93.8196 122.63 93.8196 122.63 93.8214 122.629C93.8214 122.631 93.8197 122.634 93.8197 122.635C99.329 123.869 102.24 127.37 103.224 130.157L103.228 130.157C103.484 130.884 103.61 131.563 103.617 132.141L103.147 142.817L101.942 170.209L101.41 182.309C101.176 182.268 100.935 182.249 100.688 182.252C98.6356 182.277 96.9951 183.825 97.018 185.706L97.0477 188.158C97.0705 190.042 98.748 191.547 100.8 191.522C100.869 191.521 100.936 191.519 101.003 191.515L100.847 195.07Z" fill="#8E121F"/>
<path d="M100.588 214.272L80.1142 214.52L79.8807 195.274L67.0603 195.43L100.354 195.026C100.52 195.024 100.684 195.039 100.847 195.07C101.176 195.133 101.495 195.264 101.802 195.451C101.828 197.59 103.007 199.466 104.789 200.59C105.073 201.751 105.244 203.034 105.274 204.388C105.275 204.41 105.275 204.431 105.275 204.452C105.275 204.453 105.275 204.454 105.275 204.456C105.276 204.477 105.276 204.497 105.276 204.518C105.276 204.52 105.276 204.521 105.276 204.522C105.276 204.545 105.277 204.566 105.277 204.588C105.341 209.904 103.243 214.24 100.588 214.272Z" fill="#0A0D1A"/>
<path d="M126.717 153.627C126.171 153.633 125.723 153.231 125.717 152.729L125.571 140.644L125.528 137.123C125.522 136.62 125.959 136.21 126.506 136.203C126.955 136.198 127.34 136.47 127.462 136.847C127.462 136.851 127.462 136.856 127.461 136.86L127.504 137.099L127.693 152.705C127.7 153.207 127.262 153.62 126.717 153.627Z" fill="#FAB71D"/>
<path d="M123.489 153.666C122.946 153.672 122.498 153.27 122.492 152.768L122.367 142.391L122.303 137.162C122.297 136.659 122.735 136.249 123.278 136.243C123.826 136.236 124.27 136.635 124.276 137.138L124.33 141.59L124.465 152.744C124.465 152.748 124.465 152.751 124.465 152.755C124.465 152.755 124.465 152.756 124.465 152.758C124.465 152.761 124.465 152.763 124.465 152.766C124.465 152.766 124.465 152.767 124.465 152.769C124.464 152.776 124.464 152.783 124.464 152.79C124.464 152.791 124.464 152.791 124.464 152.793C124.464 152.795 124.464 152.798 124.464 152.802C124.462 152.811 124.463 152.818 124.463 152.825C124.463 152.826 124.463 152.826 124.461 152.826C124.461 152.837 124.459 152.848 124.458 152.859C124.455 152.883 124.451 152.904 124.446 152.926C124.446 152.928 124.446 152.928 124.446 152.928C124.445 152.935 124.445 152.942 124.443 152.949C124.441 152.95 124.441 152.95 124.441 152.951C124.441 152.953 124.441 152.956 124.44 152.958C124.44 152.96 124.44 152.961 124.44 152.961C124.438 152.964 124.438 152.965 124.438 152.968C124.436 152.971 124.436 152.974 124.434 152.977C124.435 152.978 124.435 152.978 124.435 152.979C124.435 152.982 124.433 152.985 124.433 152.986C124.357 153.252 124.155 153.468 123.888 153.582L123.888 153.583C123.767 153.635 123.632 153.664 123.489 153.666Z" fill="#FAB71D"/>
<path d="M120.268 153.705C119.72 153.711 119.274 153.309 119.268 152.807L119.144 142.623L119.079 137.201C119.073 136.698 119.508 136.288 120.057 136.282C120.601 136.275 121.047 136.675 121.053 137.177L121.119 142.587L121.242 152.783C121.249 153.285 120.813 153.698 120.268 153.705Z" fill="#FAB71D"/>
<path d="M117.04 153.744C116.495 153.75 116.048 153.348 116.042 152.846L115.918 142.662L115.853 137.24C115.846 136.738 116.284 136.327 116.829 136.321C117.377 136.314 117.824 136.714 117.831 137.216L117.896 142.638L118.02 152.822C118.026 153.324 117.588 153.737 117.04 153.744Z" fill="#FAB71D"/>
<path d="M113.816 153.783C113.271 153.79 112.825 153.387 112.819 152.885L112.696 142.701L112.63 137.279C112.624 136.777 113.06 136.366 113.604 136.36C114.153 136.353 114.597 136.753 114.603 137.255L114.669 142.677L114.792 152.861C114.798 153.363 114.364 153.776 113.816 153.783Z" fill="#FAB71D"/>
<path d="M110.593 153.822C110.048 153.829 109.602 153.426 109.596 152.924L109.473 142.74L109.407 137.318C109.401 136.816 109.837 136.405 110.381 136.399C110.926 136.392 111.374 136.792 111.38 137.294L111.445 142.716L111.569 152.9C111.575 153.402 111.137 153.815 110.593 153.822Z" fill="#FAB71D"/>
<path d="M107.37 153.861C106.822 153.868 106.372 153.465 106.366 152.963L106.243 142.779L106.177 137.357C106.171 136.855 106.61 136.444 107.159 136.438C107.705 136.431 108.147 136.831 108.153 137.333L108.219 142.755L108.343 152.939C108.349 153.441 107.916 153.854 107.37 153.861Z" fill="#FAB71D"/>
<path d="M88.0796 140.153L66.3931 140.416L66.3416 136.172L88.0246 135.909C87.3631 136.468 86.9631 137.22 86.9731 138.044C86.9831 138.867 87.403 139.61 88.0796 140.153Z" fill="#0A0D1A"/>
<path d="M88.1994 150.185L66.5146 150.448L66.4632 146.204L88.1444 145.941C87.4847 146.502 87.0847 147.254 87.0947 148.076C87.1047 148.899 87.5246 149.642 88.1994 150.185Z" fill="#0A0D1A"/>
<path d="M88.3212 160.215L66.6365 160.479L66.585 156.233L88.268 155.97C87.6065 156.531 87.2065 157.283 87.2165 158.107C87.2265 158.929 87.6464 159.673 88.3212 160.215Z" fill="#0A0D1A"/>
<path d="M88.4428 170.249L66.7581 170.512L66.7066 166.267L88.3896 166.004C87.7281 166.563 87.3281 167.315 87.3381 168.138C87.3481 168.964 87.768 169.706 88.4428 170.249Z" fill="#0A0D1A"/>
<path d="M88.5609 180.277L66.8796 180.54L66.8282 176.3L88.5095 176.037C87.8497 176.597 87.4498 177.349 87.4597 178.171C87.4697 178.992 87.8878 179.734 88.5609 180.277Z" fill="#0A0D1A"/>
<path d="M118.587 201.579L108.776 201.698C108.767 201.698 108.756 201.698 108.746 201.698C108.744 201.698 108.74 201.698 108.739 201.698C108.728 201.698 108.717 201.698 108.709 201.698C108.707 201.698 108.707 201.698 108.705 201.698C108.694 201.699 108.686 201.699 108.675 201.699C108.673 201.699 108.672 201.699 108.672 201.699C108.659 201.699 108.649 201.698 108.638 201.698L108.636 201.698C107.21 201.689 105.884 201.279 104.789 200.585C104.789 200.587 104.79 200.588 104.79 200.59C103.007 199.466 101.828 197.589 101.802 195.45L101.753 191.397C103.337 190.991 104.491 189.648 104.472 188.067L104.442 185.616C104.428 184.473 103.803 183.469 102.854 182.862C104.078 181.181 106.152 180.063 108.513 180.035L118.324 179.916C120.813 179.886 123.007 181.068 124.244 182.865L124.244 182.885C124.885 183.823 125.274 184.922 125.3 186.107C125.3 186.116 125.3 186.124 125.301 186.132C125.301 186.135 125.301 186.137 125.301 186.138C125.301 186.146 125.301 186.155 125.301 186.164L125.41 195.164C125.453 198.661 122.398 201.532 118.587 201.579Z" fill="#B88660"/>
<path d="M100.8 191.521C98.7481 191.546 97.0706 190.041 97.0478 188.157L97.018 185.706C96.9952 183.825 98.6357 182.277 100.688 182.252C100.935 182.249 101.176 182.268 101.41 182.308C101.411 182.308 101.411 182.308 101.413 182.308L101.411 182.313C101.643 182.35 101.871 182.411 102.091 182.492L102.091 182.487C102.362 182.584 102.619 182.71 102.853 182.862C103.802 183.469 104.428 184.473 104.442 185.616L104.472 188.067C104.491 189.648 103.336 190.991 101.753 191.397L101.752 191.38C101.51 191.443 101.262 191.484 101.003 191.499L101.003 191.515C100.936 191.518 100.869 191.521 100.8 191.521Z" fill="#B88660"/>
<path d="M67.2612 211.993L76.4956 211.881L76.3272 197.997L67.0928 198.109L67.2612 211.993Z" fill="#0A0D1A"/>
<path d="M70.6412 370.578C70.6318 370.534 70.6242 370.489 70.6166 370.445C70.5501 370.053 70.51 369.651 70.505 369.241L70.4791 367.107C70.479 367.095 70.4789 367.085 70.4787 367.076C70.4787 367.076 70.4787 367.075 70.4787 367.073C70.4786 367.063 70.4785 367.055 70.4784 367.045C70.4772 365.785 70.9289 364.644 71.682 363.642L71.6818 363.631C73.8615 360.747 78.6349 359.028 82.8925 358.977L86.6935 358.931C90.3323 358.886 94.0901 360.069 96.5426 361.943L96.5427 361.957C98.1783 363.206 99.2392 364.756 99.2951 366.458C99.2951 366.462 99.2952 366.465 99.2952 366.467C99.2952 366.472 99.2953 366.476 99.2953 366.479C99.2954 366.483 99.2954 366.487 99.2955 366.491C99.2955 366.495 99.2956 366.498 99.2956 366.501C99.2957 366.507 99.2957 366.511 99.2958 366.516C99.2958 366.519 99.2976 366.522 99.2976 366.524C99.2977 366.531 99.2978 366.54 99.2979 366.547L99.3264 368.891C99.3265 368.905 99.3267 368.919 99.3251 368.933C99.3251 368.933 99.3251 368.933 99.3251 368.934C99.3253 368.948 99.3254 368.962 99.3256 368.975C99.3256 368.976 99.3256 368.976 99.3256 368.977C99.3258 368.991 99.326 369.006 99.3261 369.019C99.3263 369.033 99.3265 369.049 99.3249 369.063C99.3209 369.459 99.2868 369.849 99.2227 370.23C98.8508 370.094 98.4443 370.021 98.0194 370.026L71.8391 370.344C71.4142 370.349 71.0079 370.431 70.6412 370.578Z" fill="#1D1E44"/>
<path d="M98.0882 375.687L71.9078 376.005C71.899 376.005 71.8919 376.005 71.8831 376.005C71.8813 376.005 71.8796 376.005 71.8778 376.005C71.8708 376.005 71.8637 376.005 71.8584 376.005C71.8566 376.006 71.8549 376.006 71.8532 376.006C70.7458 376 69.78 375.457 69.2342 374.652L69.199 371.753C69.5313 371.238 70.0323 370.818 70.6395 370.58C70.6395 370.579 70.6394 370.577 70.6394 370.577L70.6412 370.577C71.0079 370.431 71.4142 370.348 71.8391 370.343L98.0195 370.025C98.4444 370.02 98.8508 370.093 99.2227 370.229C99.2228 370.23 99.221 370.232 99.221 370.234C100.314 370.635 101.103 371.59 101.159 372.721C101.159 372.722 101.159 372.722 101.159 372.723C101.159 372.726 101.159 372.73 101.159 372.733C101.159 372.736 101.161 372.737 101.161 372.74C101.161 372.743 101.161 372.746 101.161 372.748C101.161 372.753 101.161 372.758 101.161 372.762C101.161 372.764 101.161 372.764 101.161 372.765C101.161 372.771 101.161 372.775 101.162 372.78C101.162 372.781 101.162 372.783 101.162 372.786C101.162 372.788 101.162 372.793 101.162 372.797C101.162 372.798 101.162 372.801 101.162 372.803C101.162 372.808 101.162 372.814 101.162 372.82C101.181 374.382 99.8036 375.667 98.0882 375.687Z" fill="#1D1E44"/>
<path d="M96.161 332.513L83.6716 328.992L71.308 332.802L71.2659 332.815L71.2393 330.621L71.2814 330.608L79.9366 327.941L71.2193 325.486L71.2193 325.485L71.1768 325.473L71.1502 323.28L71.1927 323.292L83.645 326.8L96.0454 322.978L96.072 325.171L87.3746 327.851L96.1344 330.319L96.161 332.513Z" fill="#B88614"/>
<path d="M96.3002 343.984L83.8107 340.463L71.4472 344.273L71.4472 344.272L71.405 344.286L71.3784 342.093L71.4206 342.08L80.0758 339.415L71.3585 336.958L71.3584 336.956L71.316 336.946L71.2894 334.751L71.3318 334.763L83.7841 338.27L96.1845 334.449L96.2112 336.644L87.5138 339.324L96.2736 341.791L96.3002 343.984Z" fill="#B88614"/>
<path d="M96.4459 356.012L83.9565 352.492L71.5929 356.3L71.5508 356.314L71.5241 354.118L71.5663 354.105L80.2215 351.439L71.5042 348.982L71.4617 348.97L71.4351 346.778L71.4776 346.791L71.4776 346.79L83.9299 350.296L96.3303 346.476L96.3569 348.668L87.6595 351.348L96.4193 353.816L96.4459 356.012Z" fill="#B88614"/>
<path d="M96.8407 313.975L70.1526 314.299L70.0028 301.946L96.6909 301.622L96.8407 313.975Z" fill="#B88614"/>
<path d="M80.1142 214.52L67.2937 214.676L67.2612 211.993L76.4957 211.881L76.3273 197.998L67.0928 198.11L67.0603 195.43L79.8807 195.274L80.1142 214.52Z" fill="#B88614"/>
<path d="M90.8997 141.066C89.796 141.079 88.7938 140.727 88.0797 140.153C87.4031 139.61 86.9832 138.866 86.9733 138.044C86.9633 137.22 87.3632 136.468 88.0247 135.909C88.7246 135.316 89.7198 134.939 90.8252 134.926C92.9725 134.9 94.7328 136.253 94.7534 137.949C94.7739 139.643 93.047 141.04 90.8997 141.066Z" fill="#BDBBBC"/>
<path d="M91.0212 151.1C89.9159 151.114 88.9154 150.761 88.1995 150.185C87.5247 149.643 87.1048 148.899 87.0948 148.077C87.0849 147.254 87.4848 146.502 88.1445 145.942C88.8462 145.347 89.8396 144.969 90.9467 144.956C93.094 144.93 94.8544 146.286 94.8749 147.982C94.8955 149.676 93.1686 151.074 91.0212 151.1Z" fill="#BDBBBC"/>
<path d="M91.1428 161.131C90.0374 161.144 89.0352 160.792 88.3211 160.216C87.6463 159.673 87.2264 158.929 87.2164 158.107C87.2064 157.283 87.6064 156.531 88.2679 155.971C88.9695 155.378 89.9629 155.001 91.0683 154.987C93.2156 154.961 94.9759 156.315 94.9965 158.013C95.0171 159.707 93.2901 161.105 91.1428 161.131Z" fill="#BDBBBC"/>
<path d="M91.2644 171.163C90.159 171.176 89.1568 170.825 88.4427 170.249C87.7679 169.706 87.348 168.964 87.338 168.139C87.328 167.315 87.728 166.563 88.3895 166.004C89.0911 165.411 90.0845 165.035 91.1899 165.021C93.3372 164.995 95.0975 166.347 95.1181 168.045C95.1387 169.742 93.4117 171.137 91.2644 171.163Z" fill="#BDBBBC"/>
<path d="M91.386 181.195C90.2788 181.208 89.2748 180.855 88.5607 180.277C87.8876 179.734 87.4695 178.992 87.4596 178.171C87.4496 177.349 87.8496 176.597 88.5093 176.038C89.2109 175.443 90.2043 175.067 91.3115 175.053C93.4588 175.027 95.2191 176.382 95.2397 178.077C95.2602 179.772 93.5333 181.169 91.386 181.195Z" fill="#BDBBBC"/>
<path d="M102.389 87.7337C102.451 92.8533 97.2433 97.0698 90.7533 97.1485C84.2625 97.2272 78.954 93.1383 78.8919 88.0187C78.8298 82.8961 84.0376 78.6811 90.5284 78.6023C97.0184 78.5236 102.327 82.6111 102.389 87.7337Z" fill="#0A0D1A"/>
<path d="M111.071 103.788C111.152 110.419 104.403 115.879 95.9974 115.981C87.5953 116.083 80.7138 110.788 80.6334 104.157C80.553 97.5253 87.304 92.0632 95.706 91.9613C104.111 91.8594 110.991 97.1561 111.071 103.788Z" fill="#F03F26"/>
<path d="M27.6825 88.6398C27.7446 93.7594 33.0559 97.8483 39.5454 97.7696C46.0346 97.6909 51.2429 93.4744 51.1808 88.3548C51.1187 83.2322 45.8097 79.1447 39.3204 79.2234C32.8309 79.3021 27.6203 83.5172 27.6825 88.6398Z" fill="#0F1325"/>
<path d="M19.3968 104.9C19.4773 111.531 26.3529 116.827 34.7585 116.725C43.1643 116.623 49.908 111.162 49.8275 104.531C49.7471 97.8993 42.873 92.6026 34.4672 92.7045C26.0615 92.8065 19.3164 98.2684 19.3968 104.9Z" fill="#0F1325"/>
<path d="M38.2874 123.351L94.176 122.673L93.641 78.5647L37.7524 79.2426L38.2874 123.351Z" fill="#FAB684"/>
<path d="M65.1295 99.13L64.9163 99.1325C64.8258 98.8423 64.7346 98.5492 64.6425 98.2575C63.9478 96.0526 63.2822 93.7542 63.3636 91.4663C63.4421 89.3542 64.1146 87.3234 64.9621 85.3266L65.0131 89.5318C64.822 90.4351 64.7291 91.3507 64.7902 92.2824C64.8361 93.0041 64.9353 93.7177 65.0725 94.4262L65.1295 99.13Z" fill="#F89F67"/>
<path d="M58.5093 110.648C58.102 105.806 55.0088 101.57 52.5186 97.2468C50.2161 93.2415 48.6702 88.4087 49.1261 83.8354L50.5774 83.8177C50.4393 85.1258 50.4717 86.4453 50.6359 87.7346C51.194 92.0824 53.2391 95.8626 55.5889 99.7637C57.6807 103.24 59.3848 106.673 59.8579 110.433C59.4296 110.476 58.9793 110.546 58.5093 110.648Z" fill="#F89F67"/>
<path d="M54.2236 95.18C53.8713 95.1842 53.517 95.0084 53.5149 94.648C53.4754 90.8375 53.8977 87.3067 55.6659 83.7565L57.1877 83.7381C56.3828 85.2794 55.6841 86.8526 55.343 88.5069C54.9253 90.5361 54.9012 92.5831 54.923 94.6309C54.9274 94.9913 54.5765 95.1757 54.2236 95.18Z" fill="#F89F67"/>
<path d="M45.3937 123.264L43.7952 123.284C45.3343 121.064 46.6672 118.708 47.4691 116.263C47.7978 116.517 48.179 116.753 48.6184 116.962C47.8527 119.15 46.7322 121.245 45.3937 123.264ZM49.4454 113.823C48.9451 113.809 48.5019 113.728 48.1109 113.6C48.1481 113.358 48.1779 113.115 48.2025 112.871C48.6817 112.859 49.1492 112.807 49.5985 112.72C49.5714 112.994 49.5369 113.268 49.4934 113.542C49.4782 113.635 49.4622 113.728 49.4454 113.823ZM45.9194 102.451C45.1569 100.808 44.2834 99.1882 43.4166 97.571C41.0991 93.258 38.9741 88.713 39.0218 83.9585L40.4391 83.9413C40.4266 84.6397 40.4753 85.3448 40.568 86.0525C41.2159 91.0628 43.9343 95.5391 46.3059 100.134C46.6606 100.82 47.0028 101.513 47.3248 102.21C46.8392 102.252 46.3691 102.333 45.9194 102.451Z" fill="#F89F67"/>
<path d="M65.623 119.283C63.6084 119.307 61.9643 118.495 61.9519 117.478L61.9044 113.562C61.8921 112.541 63.5161 111.695 65.5306 111.671C67.5421 111.647 69.1847 112.453 69.1971 113.474L69.2445 117.389C69.2569 118.407 67.6344 119.258 65.623 119.283Z" fill="#BF1B2C"/>
<path d="M54.7874 131.221L76.7409 130.954L76.5011 111.183L54.5475 111.45L54.7874 131.221Z" fill="#1D1E44"/>
<path d="M59.5205 120.737L54.6599 120.796L54.5466 111.45L59.4071 111.391L59.5205 120.737Z" fill="white"/>
<path d="M60.3579 120.727L65.2192 120.668L65.1058 111.322L60.2446 111.381L60.3579 120.727Z" fill="white"/>
<path d="M66.0598 120.657L70.9196 120.598L70.8062 111.252L65.9465 111.311L66.0598 120.657Z" fill="white"/>
<path d="M71.7544 120.588L76.6141 120.529L76.5008 111.183L71.641 111.242L71.7544 120.588Z" fill="white"/>
<path d="M59.6386 130.464L54.7781 130.523L54.701 124.173L59.5616 124.114L59.6386 130.464Z" fill="white"/>
<path d="M60.4758 130.454L65.3371 130.395L65.26 124.044L60.3988 124.103L60.4758 130.454Z" fill="white"/>
<path d="M66.1775 130.385L71.0372 130.326L70.9602 123.975L66.1005 124.034L66.1775 130.385Z" fill="white"/>
<path d="M71.8726 130.315L76.7323 130.256L76.6553 123.906L71.7955 123.965L71.8726 130.315Z" fill="white"/>
<path d="M83.3514 97.5357C83.3662 98.7563 82.1261 99.7609 80.5805 99.7796C79.0349 99.7983 77.7754 98.8241 77.7605 97.6035C77.7458 96.3859 78.9813 95.3799 80.5269 95.3611C82.0725 95.3424 83.3366 96.3181 83.3514 97.5357Z" fill="#1D1E44"/>
<path d="M71.0427 96.8193L90.047 96.5888L90.0127 93.7586L71.0084 93.9891L71.0427 96.8193Z" fill="#1D1E44"/>
<path d="M54.093 97.8901C54.1078 99.1107 52.869 100.115 51.3234 100.134C49.7765 100.153 48.5124 99.1786 48.4976 97.958C48.4829 96.7419 49.7229 95.7343 51.2698 95.7156C52.8155 95.6968 54.0782 96.674 54.093 97.8901Z" fill="#1D1E44"/>
<path d="M60.7889 96.9443L41.781 97.1748L41.7467 94.3447L60.7545 94.1142L60.7889 96.9443Z" fill="#1D1E44"/>
<path d="M67.2469 99.1048L63.9291 99.1451L61.5817 108.976L64.0649 110.342L65.7228 110.322L67.3827 110.302L69.8365 108.876L67.2469 99.1048Z" fill="#E86941"/>
<path d="M54.7952 107.442C54.8311 110.397 51.8267 112.829 48.0853 112.874C44.3454 112.919 41.2847 110.561 41.2488 107.607C41.2131 104.657 44.2157 102.225 47.9556 102.18C51.697 102.134 54.7594 104.492 54.7952 107.442Z" fill="#F24F71"/>
<path d="M49.8905 112.662C49.8861 112.662 49.8816 112.662 49.8772 112.662C49.8831 112.66 49.8897 112.659 49.8957 112.657L49.8905 112.662Z" fill="#FBC49A"/>
<path d="M49.8769 112.663C48.3052 112.679 46.8585 112.27 45.71 111.571C45.5572 111.292 45.4926 111.105 45.4926 111.105C45.4926 111.105 45.4709 111.213 45.4507 111.404C44.0465 110.456 43.1511 109.054 43.1297 107.479C43.1011 105.12 45.487 103.181 48.4713 103.141C50.8937 103.111 52.8681 104.629 52.8981 106.538C52.917 108.093 51.3396 109.366 49.3832 109.397C47.7759 109.417 46.4602 108.409 46.4426 107.143C46.43 106.107 47.4794 105.25 48.7976 105.233C49.878 105.22 50.7633 105.898 50.7788 106.752C50.7858 107.46 50.0736 108.046 49.173 108.057C48.4239 108.066 47.8088 107.598 47.8001 107.003C47.7941 106.508 48.2975 106.096 48.9298 106.089L49.2142 106.307L48.9352 106.535C48.6166 106.538 48.3626 106.746 48.3641 106.996C48.3699 107.345 48.7276 107.617 49.1676 107.613C49.7531 107.604 50.2196 107.223 50.2148 106.761C50.203 106.153 49.5729 105.668 48.803 105.677C47.7977 105.691 46.9963 106.345 47.0059 107.135C47.0211 108.155 48.0796 108.967 49.3757 108.951C51.0214 108.925 52.3499 107.854 52.3341 106.544C52.3072 104.882 50.5877 103.561 48.4767 103.587C45.8061 103.623 43.6681 105.358 43.6938 107.472C43.7304 110.134 46.4949 112.258 49.8848 112.217L50.1692 112.436L49.8955 112.658C49.8894 112.66 49.8828 112.662 49.8769 112.663Z" fill="#F47086"/>
<path d="M90.8402 107.395C90.8761 110.348 87.8689 112.78 84.1311 112.825C80.3896 112.87 77.3274 110.513 77.2916 107.559C77.2558 104.609 80.2599 102.176 84.0013 102.131C87.7392 102.086 90.8045 104.445 90.8402 107.395Z" fill="#EF313F"/>
<path d="M65.5294 111.563C65.5294 111.563 69.8637 108.322 76.8797 112.077C83.8962 115.835 85.5447 110.619 85.5447 110.619C85.5447 110.619 87.3744 118.59 74.7432 117.545C65.5927 116.785 65.5294 111.563 65.5294 111.563Z" fill="#1D1E44"/>
<path d="M65.5295 111.563C65.5295 111.563 61.1132 108.427 54.1919 112.352C47.2699 116.278 45.4927 111.105 45.4927 111.105C45.4927 111.105 43.8605 119.117 56.4627 117.766C65.5928 116.784 65.5295 111.563 65.5295 111.563Z" fill="#1D1E44"/>
<path d="M100.739 92.5703C99.1613 92.1555 97.4671 91.9403 95.7059 91.9616C95.0618 91.9694 94.4276 92.0086 93.8048 92.0778L93.6982 83.2949L100.405 83.2135L100.398 82.6625L100.398 82.6686C101.558 84.0224 102.272 85.6354 102.375 87.382L102.375 87.3835C102.377 87.397 102.377 87.4105 102.378 87.4225C102.378 87.424 102.378 87.4255 102.378 87.427C102.38 87.4405 102.38 87.4555 102.38 87.469C102.38 87.4705 102.38 87.4705 102.38 87.472C102.382 87.484 102.382 87.4975 102.382 87.5096C102.382 87.5111 102.383 87.5141 102.383 87.5171C102.383 87.5291 102.383 87.5426 102.385 87.5561C102.385 87.5576 102.385 87.5591 102.385 87.5621C102.385 87.5726 102.385 87.5846 102.385 87.5951C102.385 87.5981 102.385 87.6026 102.386 87.6056C102.386 87.6176 102.386 87.6311 102.386 87.6446C102.386 87.6461 102.386 87.6477 102.386 87.6492C102.388 87.6611 102.388 87.6716 102.388 87.6837C102.388 87.6882 102.388 87.6912 102.389 87.6942C102.389 87.7077 102.389 87.7197 102.389 87.7332C102.389 87.7452 102.389 87.7572 102.389 87.7707C102.389 87.7737 102.39 87.7768 102.39 87.7813C102.39 87.7903 102.39 87.7993 102.388 87.8098C102.388 87.8128 102.388 87.8158 102.388 87.8188C102.388 87.8308 102.388 87.8428 102.389 87.8564C102.389 87.8579 102.389 87.8594 102.389 87.8609C102.389 87.8714 102.389 87.8819 102.389 87.8924C102.389 87.8954 102.389 87.8999 102.389 87.9029C102.389 87.9149 102.388 87.9254 102.388 87.9375C102.388 87.9375 102.388 87.9389 102.388 87.9404C102.388 87.9524 102.388 87.966 102.388 87.9795C102.388 87.981 102.388 87.981 102.388 87.9825C102.386 87.9945 102.387 88.0065 102.387 88.0185C102.387 88.02 102.387 88.0215 102.387 88.023C102.365 88.7726 102.234 89.5024 102 90.2005C101.998 90.205 101.997 90.2096 101.995 90.2141C101.993 90.2201 101.991 90.2262 101.989 90.2322C101.708 91.0615 101.284 91.8474 100.739 92.5703Z" fill="#0A0D1A"/>
<path d="M95.9975 115.982C95.9783 115.982 95.9589 115.982 95.9403 115.983C95.9374 115.983 95.9343 115.983 95.9321 115.983C95.3079 115.987 94.6982 115.962 94.094 115.909L94.0941 115.912L93.805 92.0779C94.4278 92.0087 95.062 91.9695 95.7062 91.9617C97.4673 91.9404 99.1615 92.1555 100.739 92.5704L100.741 92.5718C100.741 92.5733 100.739 92.5749 100.738 92.5764C106.156 94.0002 110.216 97.7725 110.952 102.393C110.952 102.394 110.952 102.396 110.952 102.397C110.954 102.406 110.956 102.415 110.956 102.424C110.958 102.426 110.958 102.427 110.958 102.429C110.962 102.457 110.966 102.486 110.97 102.514C110.97 102.514 110.97 102.514 110.97 102.516C110.972 102.523 110.972 102.532 110.974 102.54C110.974 102.543 110.974 102.546 110.974 102.549C110.976 102.556 110.977 102.564 110.979 102.571C110.979 102.574 110.979 102.579 110.981 102.582C110.981 102.589 110.983 102.597 110.983 102.604C110.983 102.606 110.983 102.607 110.983 102.607C110.985 102.624 110.987 102.639 110.989 102.654C110.991 102.658 110.991 102.663 110.991 102.667C110.993 102.673 110.993 102.681 110.993 102.687C110.995 102.691 110.995 102.696 110.995 102.702C110.997 102.708 110.997 102.714 110.997 102.721C110.999 102.726 111 102.732 111 102.736C111.002 102.742 111.002 102.748 111.002 102.754C111.004 102.765 111.004 102.775 111.006 102.786C111.006 102.79 111.008 102.795 111.008 102.799C111.008 102.807 111.01 102.813 111.01 102.82C111.01 102.825 111.012 102.831 111.012 102.835C111.012 102.841 111.012 102.849 111.014 102.855C111.014 102.861 111.014 102.865 111.016 102.87C111.016 102.879 111.017 102.886 111.019 102.895C111.019 102.898 111.019 102.901 111.019 102.904C111.021 102.916 111.021 102.927 111.023 102.937C111.023 102.942 111.023 102.946 111.023 102.949C111.025 102.957 111.025 102.964 111.025 102.973C111.027 102.976 111.027 102.982 111.027 102.987C111.027 102.994 111.029 103 111.029 103.008C111.03 103.012 111.03 103.017 111.032 103.021C111.032 103.032 111.032 103.041 111.034 103.051C111.034 103.053 111.034 103.054 111.034 103.056C111.034 103.068 111.036 103.078 111.036 103.09C111.036 103.093 111.038 103.098 111.038 103.102C111.038 103.11 111.038 103.117 111.04 103.125C111.04 103.129 111.041 103.134 111.041 103.138C111.041 103.146 111.043 103.153 111.043 103.161C111.043 103.165 111.043 103.17 111.043 103.174C111.045 103.185 111.045 103.195 111.045 103.207C111.045 103.209 111.047 103.212 111.047 103.215C111.047 103.224 111.047 103.233 111.048 103.243C111.05 103.248 111.05 103.251 111.05 103.255C111.05 103.263 111.05 103.27 111.052 103.278C111.052 103.282 111.052 103.287 111.052 103.291C111.052 103.299 111.052 103.308 111.054 103.315C111.054 103.318 111.054 103.323 111.054 103.327C111.054 103.338 111.055 103.35 111.057 103.362C111.057 103.363 111.057 103.365 111.057 103.368C111.057 103.377 111.057 103.387 111.057 103.396C111.059 103.401 111.059 103.404 111.059 103.408C111.059 103.416 111.059 103.425 111.059 103.432C111.059 103.437 111.059 103.44 111.06 103.444C111.062 103.453 111.062 103.461 111.062 103.468C111.062 103.473 111.062 103.476 111.062 103.48C111.062 103.491 111.062 103.503 111.064 103.515C111.064 103.518 111.064 103.521 111.064 103.522C111.064 103.533 111.064 103.54 111.065 103.551C111.065 103.554 111.065 103.558 111.065 103.561C111.065 103.57 111.065 103.578 111.065 103.587C111.067 103.59 111.067 103.594 111.067 103.597C111.067 103.608 111.067 103.617 111.067 103.626C111.067 103.629 111.067 103.632 111.068 103.633C111.068 103.645 111.068 103.657 111.068 103.669C111.068 103.672 111.068 103.675 111.068 103.678C111.068 103.686 111.068 103.696 111.068 103.704C111.068 103.708 111.068 103.713 111.069 103.716C111.069 103.725 111.071 103.732 111.071 103.741C111.071 103.744 111.071 103.749 111.071 103.752C111.071 103.764 111.071 103.776 111.071 103.788C111.152 110.419 104.403 115.88 95.9975 115.982Z" fill="#0A0D1A"/>
<path d="M94.1759 122.672L81.4181 122.826C82.2131 122.255 83.0952 121.763 84.0569 121.335C87.2701 119.899 90.8946 119.219 94.1166 117.779L94.1759 122.672ZM79.4079 122.851L76.6429 122.884L76.6144 120.529L76.6085 120.044C76.8492 119.229 77.1448 118.425 77.4875 117.631C83.5707 117.467 85.1811 114.699 85.5432 112.69C88.5977 112.14 90.8715 109.965 90.8404 107.395C90.8175 105.512 89.5594 103.868 87.6804 102.939C88.1394 102.354 88.5886 101.77 89.0237 101.188C91.7786 97.4999 93.3258 93.6281 93.5452 89.352C93.6491 87.3146 93.4044 85.292 92.9121 83.3038L93.6983 83.2943L93.8049 92.0772L94.0939 115.911L94.1008 116.48C93.5246 116.768 92.9306 117.047 92.3244 117.313C89.1891 118.688 85.6141 119.278 82.5314 120.75C81.3588 121.312 80.3086 122.035 79.4079 122.851ZM81.4625 113.437C80.9802 113.442 80.4451 113.386 79.8527 113.249C80.0992 112.863 80.3538 112.477 80.6146 112.095C81.5391 112.524 82.6043 112.783 83.7417 112.82C83.1626 113.171 82.4151 113.425 81.4625 113.437ZM78.5516 112.847C78.0311 112.649 77.4752 112.395 76.8798 112.076C76.7555 112.01 76.6322 111.946 76.5095 111.882L76.501 111.183L74.9932 111.201C73.1533 110.483 71.5422 110.247 70.1937 110.264C69.643 110.27 69.1359 110.319 68.6753 110.393C68.6602 110.123 68.6421 109.853 68.6202 109.582L69.8363 108.875L67.2467 99.1038L66.3789 99.1144C65.8702 97.5634 65.3779 96.0078 65.0726 94.4258L65.0132 89.5314C65.3274 88.0455 65.9097 86.5925 66.5201 85.1571C66.7421 84.6378 66.9819 84.1244 67.2358 83.6153L71.8117 83.5598C70.8391 85.8419 70.2294 88.2233 70.073 90.6983C69.9539 92.5827 70.1737 94.5336 71.0364 96.2935L71.0428 96.819L71.3154 96.8157C71.5181 97.1661 71.749 97.5071 72.01 97.8373C73.5649 99.802 76.5606 101.081 79.3786 101.503C79.9133 101.584 80.419 101.618 80.8976 101.613C84.4621 101.569 86.4998 99.2803 87.36 96.621L90.047 96.5885L90.0127 93.7584L87.8452 93.7847C87.8681 93.0366 87.8095 92.3106 87.6766 91.6455C87.1521 89.0271 84.1513 85.6805 80.9025 85.7199C79.7657 85.7337 78.5988 86.1623 77.4957 87.1832C75.3443 89.1674 76.1828 92.5417 79.6095 93.0888C79.6669 93.0971 79.7219 93.1009 79.774 93.1003C80.5393 93.091 80.8057 92.1388 79.9695 92.0063C77.2226 91.5741 77.1985 88.9707 78.9136 87.6045C79.5922 87.0617 80.288 86.8355 80.9643 86.8273C82.718 86.806 84.3461 88.2548 85.2456 89.5082C86.04 90.6143 86.4851 92.1885 86.498 93.801L71.6676 93.9809C71.4043 92.6777 71.4279 91.317 71.5292 90.05C71.7115 87.7999 72.3265 85.6272 73.2666 83.5421L91.4416 83.3217C91.9703 85.431 92.2239 87.5812 92.1122 89.7733C91.8806 94.3799 89.6417 98.3412 86.5961 102.203C86.5324 102.283 86.468 102.365 86.4037 102.447C85.6557 102.232 84.8457 102.12 84.0015 102.13C80.2601 102.176 77.2559 104.609 77.2917 107.559C77.3104 109.098 78.1505 110.474 79.4806 111.434C79.1615 111.901 78.8507 112.374 78.5516 112.847ZM65.9336 111.311L65.2775 111.319L65.2655 110.327L65.7226 110.321L67.315 110.302C67.3248 110.438 67.3331 110.575 67.3415 110.713C66.713 110.913 66.2386 111.142 65.9336 111.311ZM80.6773 100.482C80.5607 100.483 80.4425 100.481 80.3213 100.478C77.4834 100.385 74.4982 98.8717 73.0226 97.0082C72.9668 96.9383 72.9132 96.8683 72.861 96.7969L77.9721 96.7349C77.8318 97.0024 77.7566 97.2961 77.7604 97.6024C77.7752 98.823 79.0347 99.7972 80.5803 99.7785C82.1259 99.7597 83.366 98.7552 83.3512 97.5346C83.3475 97.2283 83.2644 96.9365 83.1177 96.6725L86.0417 96.637C85.2909 98.7604 83.5806 100.446 80.6773 100.482ZM64.9622 85.3261L64.9418 83.6431L65.7198 83.6337C65.5257 84.0459 65.3376 84.4612 65.1552 84.8778C65.0903 85.0272 65.0251 85.1767 64.9622 85.3261Z" fill="#B88660"/>
<path d="M81.4181 122.827L79.408 122.852C80.3086 122.036 81.3588 121.313 82.5314 120.751C85.6142 119.279 89.1892 118.689 92.3245 117.313C92.9307 117.048 93.5247 116.769 94.1009 116.481L94.1166 117.78C90.8946 119.22 87.2701 119.9 84.057 121.336C83.0953 121.763 82.2131 122.256 81.4181 122.827Z" fill="#B7744A"/>
<path d="M76.6084 120.045L76.5792 117.637C76.7843 117.64 76.9835 117.639 77.1798 117.637C77.2829 117.636 77.3862 117.634 77.4874 117.632C77.1447 118.426 76.8491 119.23 76.6084 120.045ZM79.8526 113.25C79.4464 113.156 79.0129 113.024 78.5515 112.848C78.8506 112.375 79.1614 111.902 79.4805 111.435C79.8268 111.686 80.2071 111.906 80.6145 112.097C80.3537 112.478 80.0991 112.864 79.8526 113.25ZM87.6803 102.94C87.281 102.742 86.8532 102.576 86.4036 102.448C86.4679 102.366 86.5323 102.284 86.596 102.204C89.6416 98.3423 91.8805 94.381 92.1121 89.7744C92.2238 87.5822 91.9702 85.4321 91.4416 83.3228L92.912 83.3049C93.4044 85.293 93.649 87.3157 93.5451 89.3531C93.3257 93.6292 91.7785 97.501 89.0236 101.189C88.5885 101.771 88.1393 102.355 87.6803 102.94Z" fill="#B7744A"/>
<path d="M80.8974 101.613C80.4188 101.619 79.913 101.584 79.3784 101.504C76.5603 101.081 73.5646 99.8025 72.0098 97.8377C71.7488 97.5076 71.5178 97.1665 71.3151 96.8161L72.8608 96.7973C72.913 96.8688 72.9665 96.9387 73.0224 97.0086C74.498 98.8721 77.4832 100.386 80.3211 100.479C80.4423 100.482 80.5605 100.483 80.6771 100.482C83.5803 100.447 85.2907 98.7608 86.0415 96.6375L87.3598 96.6215C86.4996 99.2807 84.4619 101.57 80.8974 101.613ZM71.0362 96.2939C70.1735 94.534 69.9537 92.5831 70.0728 90.6987C70.2292 88.2237 70.8388 85.8424 71.8115 83.5602L73.2664 83.5425C72.3263 85.6276 71.7113 87.8003 71.5289 90.0504C71.4277 91.3175 71.404 92.6782 71.6674 93.9813L71.0082 93.9893L71.0362 96.2939ZM87.845 93.7851L86.4978 93.8014C86.4849 92.1889 86.0398 90.6147 85.2454 89.5086C84.3459 88.2552 82.7178 86.8064 80.9641 86.8277C80.2878 86.8359 79.5919 87.0621 78.9134 87.6049C77.1983 88.9711 77.2224 91.5745 79.9693 92.0067C80.8055 92.1392 80.5391 93.0914 79.7738 93.1007C79.7217 93.1013 79.6667 93.0975 79.6093 93.0892C76.1826 92.5421 75.3441 89.1678 77.4954 87.1836C78.5985 86.1627 79.7655 85.7341 80.9023 85.7203C84.151 85.6809 87.1518 89.0276 87.6764 91.6459C87.8092 92.311 87.8679 93.037 87.845 93.7851Z" fill="#B7744A"/>
<path d="M67.3413 110.713C67.333 110.575 67.3246 110.439 67.3148 110.302L67.3823 110.301L68.62 109.582C68.6419 109.854 68.66 110.124 68.6751 110.394C68.1746 110.476 67.7285 110.588 67.3413 110.713ZM66.3787 99.1147L65.5866 99.1243L65.1295 99.1298L65.0724 94.4261C65.3777 96.0081 65.87 97.5637 66.3787 99.1147ZM65.013 89.5317L64.962 85.3264C65.0249 85.177 65.0901 85.0276 65.155 84.8781C65.3374 84.4615 65.5255 84.0463 65.7197 83.634L67.2356 83.6156C66.9817 84.1247 66.7419 84.6381 66.5199 85.1574C65.9095 86.5928 65.3272 88.0459 65.013 89.5317Z" fill="#B7744A"/>
<path d="M76.7408 130.955L65.5173 131.091L65.2946 112.723C65.5353 112.036 65.5295 111.563 65.5295 111.563C65.5295 111.563 65.5376 112.232 65.9684 113.128L66.0597 120.657L70.9195 120.598L70.8738 116.835C71.1393 116.917 71.419 116.995 71.7119 117.068L71.7546 120.588L76.6144 120.529L76.643 122.885L76.6553 123.906L71.7956 123.965L71.8726 130.316L76.7324 130.257L76.7408 130.955ZM66.1007 124.034L66.1777 130.385L71.0375 130.326L70.9605 123.975L66.1007 124.034ZM65.5295 111.563C65.5295 111.563 65.4441 111.502 65.2786 111.41L65.2775 111.32L65.9336 111.312C65.6672 111.46 65.5295 111.563 65.5295 111.563Z" fill="#1D1E44"/>
<path d="M70.9196 120.598L66.0598 120.657L65.9685 113.128C66.5388 114.313 67.8519 115.894 70.8739 116.834L70.9196 120.598Z" fill="#BDBBBC"/>
<path d="M76.6142 120.529L71.7544 120.588L71.7117 117.067C72.5914 117.283 73.5951 117.448 74.7431 117.544C75.3926 117.598 76.0038 117.628 76.5791 117.636L76.6083 120.044L76.6142 120.529ZM76.5093 111.883C75.9882 111.619 75.483 111.394 74.9931 111.201L76.5008 111.183L76.5093 111.883Z" fill="#BDBBBC"/>
<path d="M66.1775 130.385L71.0372 130.326L70.9602 123.975L66.1005 124.034L66.1775 130.385Z" fill="#BDBBBC"/>
<path d="M71.8726 130.315L76.7323 130.256L76.6553 123.906L71.7955 123.965L71.8726 130.315Z" fill="#BDBBBC"/>
<path d="M80.5805 99.7796C79.0349 99.7983 77.7754 98.8241 77.7605 97.6035C77.7568 97.2972 77.832 97.0035 77.9723 96.736L83.1179 96.6736C83.2646 96.9376 83.3477 97.2294 83.3514 97.5357C83.3662 98.7563 82.1261 99.7609 80.5805 99.7796Z" fill="#1D1E44"/>
<path d="M90.047 96.5888L71.0427 96.8193L71.0084 93.9893L90.0126 93.7588L90.047 96.5888Z" fill="#1D1E44"/>
<path d="M67.3822 110.301L65.2651 110.327L65.1293 99.1301L67.2464 99.1044L69.836 108.875L68.6198 109.582L67.3822 110.301Z" fill="#AB4D2F"/>
<path d="M83.7417 112.821C82.6042 112.784 81.5391 112.525 80.6146 112.096C80.2072 111.906 79.8269 111.685 79.4806 111.434C78.1505 110.474 77.3104 109.099 77.2917 107.56C77.2559 104.609 80.26 102.177 84.0015 102.131C84.8457 102.121 85.6556 102.233 86.4037 102.447C86.8533 102.576 87.2811 102.742 87.6804 102.939C89.5594 103.869 90.8175 105.513 90.8404 107.395C90.8715 109.966 88.5977 112.14 85.5431 112.691C85.5717 112.533 85.5921 112.378 85.6074 112.231C88.0045 111.406 89.6739 109.512 89.6525 107.324C89.6238 104.964 87.1916 103.083 84.2111 103.118C84.2103 103.118 84.2098 103.118 84.2098 103.118C81.7836 103.148 79.8435 104.712 79.8651 106.621C79.884 108.172 81.4842 109.408 83.4489 109.39C85.0562 109.371 86.3426 108.333 86.3334 107.072C86.3208 106.028 85.2457 105.202 83.9355 105.215C82.8522 105.228 81.9823 105.931 81.9927 106.785C82.0021 107.496 82.7305 108.058 83.6275 108.049C84.3815 108.04 84.9732 107.549 84.9735 106.966C84.9675 106.466 84.4528 106.07 83.825 106.073L83.5436 106.299L83.8266 106.519C84.1454 106.517 84.4072 106.72 84.4102 106.97C84.4085 107.311 84.0619 107.598 83.6226 107.603C83.6226 107.603 83.6226 107.603 83.6221 107.603C83.0363 107.61 82.5637 107.246 82.5559 106.778C82.5507 106.17 83.169 105.671 83.941 105.661C84.9381 105.65 85.7597 106.28 85.7694 107.077C85.7764 108.093 84.7396 108.93 83.4458 108.946C81.7923 108.96 80.4442 107.921 80.4284 106.616C80.4105 104.951 82.0995 103.59 84.2165 103.563C86.8835 103.533 89.063 105.216 89.0886 107.329C89.1066 109.254 87.6957 110.932 85.6363 111.73C85.6467 111.064 85.5448 110.619 85.5448 110.619C85.5448 110.619 85.3237 111.318 84.6975 112.021C84.1639 112.148 83.5991 112.219 83.0151 112.226L82.7355 112.453L83.0205 112.672C83.3802 112.668 83.7336 112.641 84.0772 112.593C83.9725 112.673 83.8605 112.749 83.7417 112.821Z" fill="#B33A50"/>
<path d="M83.0205 112.673L82.7355 112.454L83.0151 112.227C83.5991 112.22 84.1638 112.148 84.6975 112.022C84.5237 112.217 84.3179 112.414 84.0772 112.594C83.7336 112.641 83.3802 112.668 83.0205 112.673ZM85.6074 112.231C85.6246 112.054 85.6336 111.887 85.6363 111.731C87.6957 110.933 89.1066 109.255 89.0886 107.33C89.063 105.216 86.8835 103.534 84.2165 103.563C82.0994 103.59 80.4105 104.952 80.4284 106.617C80.4442 107.921 81.7923 108.961 83.4458 108.947C84.7395 108.931 85.7764 108.094 85.7694 107.077C85.7597 106.28 84.9381 105.65 83.9409 105.661C83.169 105.672 82.5506 106.17 82.5559 106.779C82.5637 107.247 83.0363 107.611 83.622 107.603C83.6226 107.603 83.6226 107.603 83.6226 107.603C84.0618 107.598 84.4084 107.312 84.4102 106.971C84.4072 106.72 84.1454 106.518 83.8265 106.52L83.5436 106.3L83.8249 106.074C84.4528 106.071 84.9674 106.467 84.9735 106.967C84.9732 107.55 84.3815 108.04 83.6274 108.049C82.7305 108.059 82.002 107.497 81.9927 106.785C81.9823 105.931 82.8522 105.228 83.9355 105.215C85.2457 105.202 86.3208 106.029 86.3334 107.072C86.3426 108.333 85.0561 109.371 83.4489 109.391C81.4841 109.409 79.8839 108.173 79.8651 106.622C79.8435 104.712 81.7836 103.148 84.2098 103.119C84.2098 103.119 84.2103 103.119 84.2111 103.119C87.1916 103.084 89.6238 104.965 89.6525 107.325C89.6739 109.512 88.0045 111.406 85.6074 112.231Z" fill="#B55261"/>
<path d="M77.1798 117.637C76.9835 117.639 76.7843 117.64 76.5791 117.637C76.0039 117.629 75.3926 117.599 74.7432 117.545C73.5952 117.449 72.5914 117.284 71.7117 117.068C71.4188 116.995 71.1391 116.917 70.8737 116.835C67.8517 115.894 66.5385 114.314 65.9682 113.129C65.5375 112.233 65.5294 111.563 65.5294 111.563C65.5294 111.563 65.667 111.461 65.9335 111.312C66.2385 111.143 66.7129 110.914 67.3413 110.714C67.7285 110.589 68.1746 110.477 68.6752 110.394C69.1358 110.32 69.6428 110.272 70.1935 110.265C71.5421 110.249 73.1532 110.484 74.9931 111.202C75.4831 111.394 75.9883 111.62 76.5094 111.884C76.6321 111.947 76.7554 112.011 76.8797 112.077C77.475 112.396 78.031 112.65 78.5515 112.848C79.0129 113.024 79.4464 113.156 79.8526 113.25C80.445 113.387 80.9801 113.443 81.4623 113.438C82.415 113.426 83.1625 113.172 83.7415 112.821C83.8603 112.749 83.9724 112.673 84.0771 112.594C84.3178 112.413 84.5236 112.217 84.6974 112.021C85.3236 111.319 85.5447 110.619 85.5447 110.619C85.5447 110.619 85.6466 111.064 85.6362 111.731C85.6335 111.887 85.6245 112.054 85.6073 112.231C85.5919 112.379 85.5716 112.533 85.543 112.691C85.181 114.7 83.5705 117.468 77.4874 117.632C77.3862 117.634 77.2829 117.636 77.1798 117.637Z" fill="#1D1E44"/>
<path d="M65.2944 112.724L65.2785 111.41C65.444 111.503 65.5294 111.563 65.5294 111.563C65.5294 111.563 65.5351 112.036 65.2944 112.724Z" fill="#1D1E44"/>
<path d="M32.8818 85.9424L94.0462 85.2005L93.0291 1.3391L31.8647 2.08097L32.8818 85.9424Z" fill="#0F1325"/>
<path d="M32.8789 85.6992L94.0433 84.9573L93.9658 78.5649L32.8014 79.3068L32.8789 85.6992Z" fill="#1D1E44"/>
<path d="M92.5884 83.5654L94.0431 84.9568C94.0431 84.9568 84.4338 90.8101 62.9147 91.0711C41.3937 91.3321 32.8789 85.6986 32.8789 85.6986L32.8618 84.2898L92.5884 83.5654Z" fill="#1D1E44"/>
<path d="M32.8403 82.501L94.0047 81.7591L93.9251 75.1958L32.7607 75.9377L32.8403 82.501Z" fill="#FAB71D"/>
<path d="M64.7595 9.22821L83.1438 21.895L70.5075 53.2063L65.2937 53.2695L64.7595 9.22821Z" fill="#F9A72B"/>
<path d="M62.1823 9.25907L44.1107 22.3681L57.5066 53.3636L62.7165 53.3004L62.1823 9.25907Z" fill="#F9A72B"/>
<path d="M100.545 35.3682C100.572 37.6376 98.1349 39.5079 95.1017 39.5447C92.0646 39.5815 89.5846 37.7708 89.5571 35.5015L89.5074 31.4032C89.4798 29.1324 91.9152 27.2635 94.9523 27.2267C97.9854 27.1899 100.467 28.9991 100.495 31.2699L100.545 35.3682Z" fill="white"/>
<path d="M36.172 36.1494C36.1995 38.4187 33.7603 40.2891 30.7271 40.3259C27.69 40.3627 25.2042 38.5521 25.1767 36.2828L25.127 32.1844C25.0995 29.9136 27.5406 28.0447 30.5777 28.0078C33.6109 27.9711 36.0948 29.7803 36.1223 32.0511L36.172 36.1494Z" fill="#CAC9C9"/>
<path d="M29.1838 37.8158C29.1821 37.8345 29.1502 38.3731 29.1615 39.3071C29.2096 42.6354 29.7534 50.9707 34.1826 58.5895C36.4019 62.3967 39.6145 66.0393 44.2975 68.7185C48.9768 71.402 55.1221 73.0718 62.9128 72.9716C71.0617 72.88 77.406 70.7996 82.1416 67.6579C89.2527 62.9401 92.8085 55.9988 94.662 49.7948C96.5058 43.5837 96.6236 38.0643 96.6017 36.0957C96.5958 35.6121 96.581 35.3432 96.5809 35.3331L93.4947 35.4411L93.5006 35.6108C93.5039 35.7273 93.5099 35.9029 93.5127 36.1331C93.5485 38.6067 93.3078 47.3371 89.2798 55.3363C87.2726 59.3387 84.3332 63.1394 80.1034 65.9325C75.8679 68.7242 70.3695 70.5625 62.8848 70.662C55.6982 70.7419 50.3405 69.2482 46.1867 66.8807C39.9628 63.3322 36.4408 57.6655 34.5211 52.2254C32.5996 46.794 32.2773 41.6411 32.2504 39.2696C32.2451 38.8264 32.2505 38.4809 32.2554 38.2477L32.2657 37.9856L32.2705 37.9035L29.1838 37.8172L29.1838 37.8158Z" fill="#C1C0C1"/>
<path d="M76.3592 56.2472C76.4242 61.6018 70.676 66.0108 63.5145 66.0977C56.3588 66.1845 50.5016 61.9162 50.4366 56.5616C50.3718 51.2156 56.1237 46.8023 63.2794 46.7155C70.4409 46.6286 76.2944 50.9012 76.3592 56.2472Z" fill="#F9A72B"/>
<path d="M94.046 85.2005L93.5937 85.206C93.894 85.047 94.0431 84.9574 94.0431 84.9574L94.046 85.2005ZM93.9247 75.1965L64.4858 75.5535L64.454 72.9302C71.8668 72.61 77.7094 70.599 82.1415 67.6582C88.1336 63.6837 91.6003 58.128 93.6526 52.7664L93.9247 75.1965Z" fill="#0A0D1A"/>
<path d="M94.0431 84.9564L92.5884 83.565L64.5872 83.9047L64.5655 82.1159L94.0043 81.7589L94.0431 84.9564Z" fill="#1D1E44"/>
<path d="M64.6736 91.0371L64.5871 83.9053L92.5883 83.5657L94.043 84.957C94.043 84.957 93.894 85.0466 93.5937 85.2057C93.4923 85.2588 93.3737 85.3206 93.236 85.39C92.8763 85.5699 92.3921 85.7989 91.785 86.0595C90.0559 86.803 87.3117 87.8135 83.4826 88.7321C82.8876 88.8746 82.2695 89.0145 81.6225 89.1519C80.3822 89.4131 79.0455 89.6624 77.6104 89.89C76.9303 89.9975 76.2289 90.101 75.5044 90.1976C73.7863 90.4257 71.9408 90.6208 69.9696 90.7699C69.4638 90.8077 68.9503 90.8427 68.429 90.8735C67.223 90.9472 65.9705 91.0027 64.6736 91.0371Z" fill="#1D1E44"/>
<path d="M94.0045 81.7591L64.5657 82.1162L64.4861 75.5528L93.9249 75.1958L93.9956 81.0238L94.0045 81.7591Z" fill="#B88614"/>
<path d="M93.3455 27.4248L93.0291 1.33818L93.3454 27.4234C93.4606 27.3975 93.5758 27.3731 93.693 27.3515C93.5758 27.3731 93.4587 27.3975 93.3455 27.4248Z" fill="#287D72"/>
<path d="M64.4263 70.6152L64.3711 66.0665C71.1283 65.655 76.4219 61.3853 76.3596 56.2465C76.3256 53.4433 74.6994 50.9343 72.1259 49.1938L83.1439 21.8946L64.7596 9.22779L65.2153 46.7978C64.8607 46.7633 64.5005 46.7389 64.1365 46.7246L63.5903 1.69464L93.0292 1.33757L93.3456 27.4242C91.1 27.9652 89.485 29.5507 89.5075 31.4027L89.5572 35.5011C89.5794 37.3301 91.1956 38.862 93.4115 39.3676C93.1431 43.2683 92.2197 49.497 89.28 55.3356C87.2727 59.338 84.3333 63.1387 80.1036 65.9318C76.164 68.527 71.1307 70.3008 64.4263 70.6152Z" fill="#0A0D1A"/>
<path d="M72.1256 49.1939C70.243 47.9229 67.8553 47.0609 65.215 46.7979L64.7594 9.22787L83.1437 21.8947L72.1256 49.1939Z" fill="#FAB71D"/>
<path d="M94.8638 27.2295C94.8676 27.2294 94.8714 27.2294 94.8752 27.2294C94.8714 27.2294 94.8676 27.2294 94.8638 27.2295ZM94.8903 27.2278C94.896 27.2277 94.9017 27.2276 94.9093 27.2275C94.9017 27.2276 94.896 27.2277 94.8903 27.2278ZM94.9206 27.2274C94.9301 27.2273 94.9415 27.2271 94.951 27.227C94.9415 27.2271 94.9301 27.2273 94.9206 27.2274Z" fill="#287D72"/>
<path d="M96.5033 39.3919C96.5991 37.9328 96.6103 36.7914 96.6018 36.0949C96.596 35.6114 96.5812 35.3424 96.5811 35.3323L93.4949 35.4403L93.5008 35.61C93.5041 35.7266 93.5101 35.9021 93.5129 36.1324C93.5229 36.8 93.5115 37.9242 93.4116 39.3675C91.1956 38.8619 89.5794 37.33 89.5573 35.501L89.5076 31.4027C89.4851 29.5507 91.1001 27.9652 93.3456 27.4241C93.4589 27.3969 93.576 27.3724 93.6932 27.3508C94.0715 27.28 94.4617 27.2379 94.8639 27.2287C94.8678 27.2286 94.8716 27.2286 94.8755 27.2286C94.8813 27.2285 94.8851 27.2284 94.8909 27.2269C94.8967 27.2269 94.9024 27.2268 94.9101 27.2267C94.9139 27.2266 94.9178 27.2266 94.9217 27.2266C94.9313 27.2264 94.9428 27.2263 94.9524 27.2262C97.9856 27.1894 100.468 28.9986 100.495 31.2694L100.545 35.3678C100.568 37.2745 98.8514 38.8986 96.5033 39.3919Z" fill="#BDBBBC"/>
<path d="M64.4541 72.9297L64.426 70.6157C71.1305 70.3013 76.1637 68.5275 80.1033 65.9323C84.3331 63.1392 87.2725 59.3385 89.2797 55.3361C92.2194 49.4975 93.1429 43.2688 93.4113 39.3681C93.5112 37.9248 93.5226 36.8006 93.5126 36.1329C93.5098 35.9027 93.5038 35.7271 93.5005 35.6106L93.4946 35.4409L96.5808 35.3329C96.5809 35.343 96.5957 35.6119 96.6016 36.0955C96.61 36.7919 96.5988 37.9334 96.503 39.3925C96.0556 39.4857 95.5866 39.5389 95.1016 39.5448L94.9495 39.5423C94.7899 41.7779 94.4176 44.7285 93.5942 47.9423L93.6527 52.7659C91.6004 58.1275 88.1337 63.6832 82.1415 67.6577C77.7095 70.5985 71.8668 72.6095 64.4541 72.9297Z" fill="#929091"/>
<path d="M64.3708 66.0664L64.1362 46.7245C64.5002 46.7388 64.8605 46.7632 65.2151 46.7978C67.8553 47.0608 70.243 47.9227 72.1256 49.1937C74.6991 50.9342 76.3253 53.4432 76.3593 56.2464C76.4216 61.3852 71.128 65.6549 64.3708 66.0664Z" fill="#FAB71D"/>
</svg>
