<svg width="302" height="276" viewBox="0 0 302 276" fill="none" xmlns="http://www.w3.org/2000/svg">
<path d="M91.2436 274.458C99.8794 277.963 181.158 271.953 181.158 271.953C232.973 258.431 272.596 230.885 289.36 196.327C299.011 176.795 301.551 164.274 301.551 128.214C301.551 101.169 299.519 85.1421 296.471 86.6446C293.931 88.1471 225.861 116.694 145.09 150.25C2.3454 210.35 -0.702518 211.853 14.5372 217.863C22.665 221.369 40.4446 234.391 54.1604 246.912C67.8761 259.433 84.1318 271.953 91.2436 274.458Z" fill="#C68004"/>
<path d="M261.928 43.0719C239.576 20.0335 224.337 9.01495 210.113 5.0083C198.937 2.0033 187.762 -6.10352e-05 184.714 -6.10352e-05C144.074 4.00662 76.5119 32.5544 44.5086 59.0987C18.6011 80.1337 9.45727 102.17 9.45727 142.237C9.45727 160.267 6.91737 179.8 3.86943 185.81C0.821497 191.319 -0.702534 196.327 0.313445 197.329C1.83741 198.331 236.529 101.169 277.168 82.6377L293.423 75.1252L261.928 43.0719Z" fill="#C68004"/>
</svg>
