<svg width="294" height="285" viewBox="0 0 294 285" fill="none" xmlns="http://www.w3.org/2000/svg">
<path d="M1.90182 169.017C4.18881 178.052 57.1498 239.999 57.1498 239.999C98.7229 273.753 144.38 289.379 182.156 282.431C203.612 278.647 215.206 273.281 244.268 251.934C266.065 235.923 277.778 224.797 274.763 223.23C272.048 222.073 208.743 184.113 133.882 138.882C0.939493 59.4192 -2.07582 57.8523 2.10251 73.6924C4.08877 82.3184 4.11962 104.357 2.14844 122.823C0.177256 141.289 -0.290249 161.803 1.90182 169.017Z" fill="#C68004"/>
<path d="M289.429 169.595C294.765 137.943 294.623 119.137 289.431 105.302C285.237 94.5162 280.236 84.3232 278.431 81.8668C251.143 51.4864 188.138 13.936 147.799 3.85779C115.509 -4.56899 92.3357 1.10748 60.0446 24.8273C45.5136 35.5012 28.268 45.0176 21.6199 46.1192C15.3755 46.9242 10.4369 48.6609 10.2311 50.0727C10.326 51.8939 227.571 183.519 266.564 205.301L282.242 213.954L289.429 169.595Z" fill="#C68004"/>
</svg>
