<svg width="848" height="1064" viewBox="0 0 848 1064" fill="none" xmlns="http://www.w3.org/2000/svg">
<path d="M83.0005 741.925C83.0005 731.984 91.0594 723.925 101 723.925H746C755.942 723.925 764 731.984 764 741.925V1044.98H83.0005V741.925Z" fill="#FF0001"/>
<path d="M577.93 463.648C556.997 451.131 519.025 437.704 488.842 431.787C459.632 426.325 410.706 424.276 383.687 427.235C342.794 432.014 285.349 451.131 259.06 468.427L251.514 473.661L247.62 467.972C232.041 445.669 201.128 434.973 177.76 444.303C172.892 446.124 167.781 447.035 166.077 446.124C164.616 445.441 164.129 445.441 165.103 446.579C166.077 447.49 162.669 452.951 157.314 458.413C147.577 468.654 157.314 485.04 157.314 495.282C157.557 500.516 174.771 537.849 180.126 549.911C181.343 552.642 161.452 573.807 157.314 574.945C146.847 578.131 149.942 560.152 143.614 570.393C130.713 590.648 137.841 598.158 157.314 612.496L177.76 638.667L132.66 643.219C165.452 657.794 149.456 661.881 147.265 671.667C141.18 696.473 131.755 684.629 157.314 695.78L171.918 723.09H254.679H337.439V709.435V695.78H422.633H507.584L508.315 708.752L509.045 721.952L591.318 722.635L673.348 723.09L706.209 717.628C743.451 701.47 752.944 661.871 725.682 634.561L691.292 623.182L698.594 612.496C715.877 594.744 746.128 575.39 735.175 555.135C728.359 542.163 717.406 533.06 703.288 528.508C698.176 526.915 661.596 542.628 662.082 541.946C670.358 525.787 687.884 504.84 686.424 495.282C680.825 458.869 666.776 434.518 631.238 444.076C620.528 447.034 615.416 450.221 605.68 460.234L593.266 472.751L577.93 463.648Z" fill="#F4CA9A"/>
<path d="M714.416 621.598L736.079 554.658C729.264 541.686 718.31 532.583 704.192 528.031C699.081 526.438 666.463 528.714 666.95 528.031C675.226 511.873 685.449 504.849 683.989 495.29C678.391 458.877 667.68 434.04 632.142 443.599C621.432 446.557 616.32 449.743 606.584 459.757L594.17 472.274L578.835 463.171C557.901 450.654 519.929 437.226 489.746 431.309C460.536 425.847 411.61 423.799 384.592 426.758C343.698 431.537 286.253 450.654 259.964 467.95L252.419 473.184L248.524 467.495C232.946 445.192 202.032 434.495 178.665 443.826C178.665 443.826 163.573 452.474 158.218 457.936C148.482 468.177 145.561 485.049 145.561 495.29C145.804 500.525 173.31 515.969 178.665 528.031C179.882 530.762 162.356 540.807 149.699 538.531C139.232 541.717 138.988 611.357 132.66 621.598C83.7339 604.529 55.2546 580.178 46.2483 569.254C37.2421 558.33 18.0125 534.889 21.9071 520.324C10.7101 520.324 21.9071 495.259 21.9071 488.204V475.46L46.2483 476.37C68.6423 477.281 71.5632 476.825 83.7339 471.363C107.345 460.44 150.185 414.696 168.441 380.786C173.31 371.455 181.342 353.932 185.967 341.87C202.763 298.174 225.887 260.169 251.202 234.452C308.89 175.281 420.373 154.343 514.574 185.067L526.258 188.936L584.433 223.528L594.17 232.404C616.807 252.658 646.017 300.678 662.325 343.918C677.904 385.566 698.837 416.061 732.915 447.467C751.901 464.991 755.796 467.495 771.374 472.274C784.762 476.143 792.551 477.053 807.399 476.598L826.385 475.687L825.655 489.342C824.681 510.962 824.195 539.441 807.399 563.565L777.703 597.702L714.416 621.598Z" fill="#FF0001"/>
<path d="M617.537 67.2101C616.32 120.692 613.399 143.677 601.716 185.552L597.091 201.483L611.209 217.413C636.767 246.771 657.214 281.591 673.035 323.238C690.561 369.437 709.304 397.43 744.842 430.656C776.486 460.469 787.439 465.476 822.491 465.476H847.562L846.345 480.724C843.668 509.172 823.708 549.681 800.34 574.032L790.847 583.818L797.906 573.577C814.702 549.454 824.681 523.509 825.655 501.889L826.385 488.234L807.399 489.145C792.551 489.6 784.762 488.69 771.374 484.821C755.796 480.042 751.901 477.538 732.915 460.014C698.837 428.608 677.904 398.112 662.325 356.465C646.017 313.225 616.807 265.205 594.17 244.951L584.433 236.075L577.861 250.185C572.263 262.247 569.829 264.978 561.796 267.936C553.763 270.895 549.382 275.446 554.494 275.446C555.467 275.446 557.658 276.357 559.362 277.495C562.039 279.088 560.579 282.729 552.546 294.336L542.566 309.356L547.678 314.135C554.494 320.507 557.415 328.245 557.415 340.079C557.415 365.341 526.258 381.499 501.43 368.982C491.937 364.43 481.957 348.727 481.957 338.942C481.957 323.921 493.884 308.673 508.732 305.032L517.495 302.756L520.659 262.474C522.12 240.172 524.31 217.413 525.041 211.724L526.258 201.483L514.574 197.614C420.373 166.891 308.89 187.828 251.202 246.999C225.887 272.715 202.763 310.721 185.967 354.417C181.342 366.479 173.31 384.003 168.441 393.333C150.186 427.243 107.345 472.986 83.7339 483.91C71.5633 489.372 68.6423 489.828 46.2484 488.917L21.9071 488.007V500.751C21.9071 507.806 23.611 519.185 25.8017 526.013C30.4266 540.578 44.3011 566.977 53.3073 577.901C56.7151 582.225 58.1756 585.184 56.7151 584.274C50.6298 580.86 31.1568 554.916 20.4466 536.254C9.24966 516.682 0 488.007 0 473.214V464.793L18.0125 465.931C42.3538 467.752 55.498 464.111 79.1091 449.546C117.812 425.65 154.08 377.63 175.014 322.556C189.862 282.729 206.657 253.371 231.729 222.875C261.425 186.69 305.726 162.111 363.658 149.822C380.454 146.181 394.572 145.043 422.321 144.815C461.51 144.587 483.661 147.774 516.034 158.015C528.205 161.884 533.56 162.794 534.29 160.973C534.777 159.38 537.942 148.684 541.349 137.077C544.757 125.698 549.382 112.271 551.573 107.492C554.98 99.754 555.711 99.5266 558.145 103.395C559.849 105.671 563.013 109.768 565.447 112.499C569.829 117.05 569.829 116.595 568.125 94.7473C566.664 72.4444 566.664 71.9894 574.697 56.5139L582.729 40.8108L587.111 48.3208L591.492 55.831L591.006 43.3141C590.275 29.6593 592.223 25.3353 607.071 8.72195L614.616 0.301332L616.807 7.58405C617.781 11.6805 618.268 38.3073 617.537 67.2101Z" fill="#D6920D"/>
<ellipse cx="518.468" cy="339.397" rx="24.3412" ry="22.7581" fill="#FAB71D"/>
<path d="M602.689 185.554C614.373 143.679 617.294 120.693 618.511 67.2118C619.241 38.3091 618.754 11.6822 617.781 7.58578L615.59 0.30307L608.044 8.72369C593.196 25.3371 591.249 29.661 591.979 43.3158L592.466 55.8328L588.084 48.3225L583.703 40.8125L575.67 56.5156C567.638 71.9911 567.638 72.4461 569.098 94.749C570.802 116.597 570.802 117.052 566.421 112.5C563.986 109.769 560.822 105.673 559.118 103.397C556.684 99.5283 555.954 99.7558 552.546 107.493C550.355 112.273 545.73 125.7 542.323 137.079C538.915 148.686 535.751 159.382 535.264 160.975C534.533 162.796 527.231 201.484 527.231 201.484L526.014 211.726C525.284 217.415 523.093 240.173 521.633 262.476L518.468 302.758V350.55L543.54 309.358L553.52 294.337C561.552 282.731 563.013 279.09 560.335 277.496C558.631 276.359 556.441 275.448 555.467 275.448C550.355 275.448 554.737 270.896 562.769 267.938C570.802 264.979 573.236 262.249 578.835 250.187L585.407 236.077L598.064 201.484L602.689 185.554Z" fill="#FAB71D"/>
<ellipse cx="160.652" cy="671.666" rx="55.9849" ry="52.3436" fill="white"/>
<ellipse cx="160.652" cy="671.667" rx="43.8142" ry="40.9645" fill="#ECEEED"/>
<ellipse cx="160.652" cy="578.357" rx="55.9849" ry="52.3436" fill="white"/>
<ellipse cx="160.652" cy="578.358" rx="43.8142" ry="40.9645" fill="#ECEEED"/>
<ellipse cx="686.424" cy="671.666" rx="55.9849" ry="52.3436" fill="white"/>
<ellipse cx="686.424" cy="671.667" rx="43.8142" ry="40.9645" fill="#ECEEED"/>
<ellipse cx="683.99" cy="573.807" rx="55.9849" ry="52.3436" fill="white"/>
<ellipse cx="683.99" cy="573.807" rx="43.8142" ry="40.9645" fill="#ECEEED"/>
<rect x="153.35" y="760.423" width="19.473" height="302.682" fill="#9F0507"/>
<rect x="676.687" y="760.423" width="19.473" height="302.682" fill="#9F0507"/>
<path d="M717.044 724.011H674.933V767.251C674.933 794.561 675.907 810.491 677.368 810.491C678.828 810.491 679.802 803.436 680.045 793.878L680.047 793.755C680.532 766.567 680.54 766.113 685.887 766.113C690.268 766.113 690.755 767.934 691.485 788.188C692.459 817.091 696.841 817.546 696.841 788.871C696.841 767.251 696.841 767.251 702.926 767.251C709.011 767.251 709.011 767.251 709.011 788.871C709.011 801.843 709.985 810.491 711.445 810.491C712.906 810.491 713.879 801.843 713.879 788.871C713.879 767.251 713.879 767.251 719.965 767.251C726.05 767.251 726.05 767.251 726.05 788.871C726.05 801.843 727.024 810.491 728.484 810.491C729.945 810.491 730.918 801.843 730.918 788.871C730.918 767.251 730.918 767.251 737.004 767.251C743.089 767.251 743.089 767.251 743.089 788.871C743.089 801.843 744.063 810.491 745.523 810.491C746.984 810.491 747.957 801.843 747.957 788.871C747.957 767.934 748.2 767.251 753.556 767.251C758.667 767.251 758.911 767.706 758.18 789.099C757.45 806.395 757.937 810.719 760.615 810.036C763.049 809.126 763.779 801.616 763.779 777.264C763.779 747.679 763.292 745.176 758.18 738.121C749.418 726.742 741.385 724.011 717.044 724.011Z" fill="#EDA423"/>
<path d="M173.504 767.251V724.011H130.907C98.7761 724.011 87.3357 732.203 85.6318 755.872C84.4147 777.037 85.8753 810.491 88.3094 810.491C89.7699 810.491 90.7435 801.843 90.7435 788.871C90.7435 768.844 91.2304 767.251 95.6118 767.251C99.7498 767.251 100.48 769.072 100.967 788.188C101.454 802.298 102.671 809.353 104.861 810.036C107.052 810.719 107.782 805.484 107.782 789.099C107.782 768.844 108.026 767.251 112.651 767.251C117.275 767.251 117.519 768.844 117.519 788.871C117.519 801.843 118.493 810.491 119.953 810.491C121.413 810.491 122.387 801.843 122.387 788.871C122.387 767.251 122.387 767.251 128.472 767.251C134.558 767.251 134.558 767.251 134.558 788.871C134.558 801.843 135.531 810.491 136.992 810.491C138.452 810.491 139.426 801.843 139.426 788.871C139.426 767.251 139.426 767.251 145.511 767.251C151.597 767.251 151.597 767.251 151.597 788.871C151.597 817.546 155.978 817.091 156.952 788.188C157.682 767.934 158.169 766.113 162.55 766.113C166.932 766.113 167.418 767.934 168.149 788.188C168.392 800.478 169.853 810.491 171.07 810.491C172.53 810.491 173.504 793.423 173.504 767.251Z" fill="#EDA423"/>
<ellipse cx="545.244" cy="660.288" rx="48.6825" ry="45.5161" fill="#F19F70"/>
<ellipse cx="301.831" cy="660.288" rx="48.6825" ry="45.5161" fill="#F19F70"/>
<ellipse cx="321.304" cy="551.047" rx="41.3801" ry="38.6887" fill="white"/>
<path d="M311.001 543.903C299.074 555.054 303.698 573.261 319.277 578.04C338.75 584.185 356.032 565.751 346.539 548.91C339.48 535.937 322.198 533.434 311.001 543.903Z" fill="black"/>
<ellipse cx="318.5" cy="549" rx="8.5" ry="7" fill="white"/>
<ellipse cx="520.903" cy="551.047" rx="41.3801" ry="38.6887" fill="white"/>
<path d="M495.994 543.903C484.067 555.054 488.692 573.261 504.27 578.04C523.743 584.185 541.025 565.751 531.532 548.91C524.473 535.937 507.191 533.434 495.994 543.903Z" fill="black"/>
<ellipse cx="502.5" cy="549" rx="8.5" ry="7" fill="white"/>
<path d="M422.321 538.531L432.057 571.53L445.445 594.289L446.662 598.84L445.445 603.392L424.755 613.633L422.321 614.771L418.67 613.633L399.197 603.392L397.979 598.84L399.197 594.289L411.367 571.53L422.321 538.531Z" fill="#F19F70"/>
<path d="M379.145 609.245C376.77 610.266 366.378 614.69 356.283 619.114C334.015 628.984 323.029 629.324 300.465 620.475C290.964 616.732 282.65 614.35 282.056 615.03C281.463 615.711 285.619 620.816 291.854 626.601C306.996 641.236 323.92 645.66 354.798 643.278C383.301 641.236 403.491 634.429 413.883 623.198L421.009 615.711L414.18 611.287C407.351 607.203 387.458 605.841 379.145 609.245Z" fill="black"/>
<path d="M427.838 611.968C422.197 617.073 422.197 617.073 428.135 622.518C444.465 637.833 459.904 642.257 494.939 642.598C527.005 642.598 529.974 641.917 542.741 633.409C556.696 624.22 566.197 610.266 555.211 615.371C541.553 621.838 522.848 627.283 513.941 627.283C508.597 627.283 494.345 622.518 482.172 617.073C457.529 605.842 437.042 603.8 427.838 611.968Z" fill="black"/>
<rect x="338.343" y="644.356" width="170.389" height="50.0678" fill="white"/>
<path d="M282.358 513.497L287.227 507.808L293.312 503.256L300.614 499.842L307.917 497.567L311.568 496.429H332.258L335.909 497.567L340.777 499.842L349.297 503.256L355.382 507.808L357.816 512.359L352.948 510.084L346.863 507.808L339.56 505.532H306.7L301.831 506.67L294.529 508.946L289.661 511.221L287.227 512.359L282.358 513.497Z" fill="black"/>
<path d="M559.849 514.635L554.98 508.566L548.895 503.711L541.593 500.07L534.29 497.642L530.639 496.429H509.949L506.298 497.642L501.43 500.07L492.91 503.711L486.825 508.566L484.391 513.421L489.259 510.994L495.344 508.566L502.647 506.139H535.507L540.376 507.353L547.678 509.78L552.546 512.208L554.98 513.421L559.849 514.635Z" fill="black"/>
<path d="M432.057 417.914L475.871 423.604L526.988 438.396L576.887 458.879L593.926 475.947L578.105 479.361L567.151 481.637H553.763H537.941L520.903 480.499L507.515 479.361L494.127 477.085L473.437 472.107L455.181 465.706L448.487 461.723L441.794 457.741L434.491 452.051L429.623 447.5L424.755 438.396L421.104 421.328L432.057 417.914Z" fill="white"/>
<path d="M410.15 419.052L366.336 424.741L315.219 439.534L265.32 460.016L248.281 477.085L264.102 480.499L275.056 482.774H288.444H304.266L321.304 481.636L334.692 480.499L348.08 478.223L368.77 473.244L387.026 466.844L393.72 462.861L400.413 458.878L407.716 453.189L412.584 448.637L417.452 439.534L421.104 422.465L410.15 419.052Z" fill="white"/>
<path d="M441.793 398.569H388.243L368.77 401.932L348.08 405.295L324.955 409.779L303.048 416.504L277.49 424.35L250.715 436.681L230.025 447.89L226.373 450.132L243.412 462.462L250.715 473.671L264.102 465.825L275.056 459.099L288.444 452.373L310.351 443.406L328.607 438.922L348.08 433.318L369.987 428.834L390.677 426.592L416.844 425.471H441.793V398.569Z" fill="#9F0505"/>
<path d="M401.63 398.569H455.181L474.654 401.983L495.344 405.397L518.468 409.948L540.375 416.776L565.934 424.741L592.709 437.258L613.399 448.637L617.05 450.913L600.012 463.43L592.709 474.809L579.321 466.844L568.368 460.016L554.98 453.189L533.073 444.085L514.817 439.534L495.344 433.844L473.437 429.293L452.747 427.017L426.58 425.879H401.63V398.569Z" fill="#9F0505"/>
<ellipse cx="642.609" cy="489.599" rx="55.9849" ry="52.3436" fill="white"/>
<ellipse cx="642.61" cy="489.6" rx="43.8142" ry="40.9645" fill="#ECEEED"/>
<ellipse cx="199.599" cy="489.599" rx="55.9849" ry="52.3436" fill="white"/>
<ellipse cx="199.599" cy="489.6" rx="43.8142" ry="40.9645" fill="#ECEEED"/>
<rect x="272.623" y="771.181" width="287.227" height="182.381" fill="black"/>
<path d="M335.91 830.454V797.397V764.34H304.996C274.327 764.568 260.209 766.848 251.689 773.687C245.36 778.475 240.979 788.734 240.979 798.081C240.979 803.096 247.551 855.759 255.584 915.033C271.406 1031.76 270.675 1029.02 287.227 1039.74L295.503 1044.98L418.914 1044.3L419.965 1044.29C540.147 1043.61 542.587 1043.6 549.383 1038.82C553.034 1036.09 557.902 1031.07 560.093 1027.43C564.961 1019.67 595.388 799.449 592.953 790.558C590.519 781.667 577.375 769.128 567.639 766.62C562.77 765.48 547.435 764.34 533.804 764.34H508.976L508.246 797.397L507.516 830.454H515.061C519.443 830.454 524.311 828.63 526.989 825.894C533.317 819.511 539.159 818.371 547.192 822.246C559.119 827.946 560.823 838.889 551.33 847.552C543.784 854.847 534.534 854.847 526.745 847.552C523.337 844.36 517.982 841.852 514.088 841.852H507.516V870.349V898.847H514.088C517.982 898.847 523.337 896.339 526.745 893.147C534.534 885.852 543.784 885.852 551.33 893.147C558.632 899.758 559.119 907.738 552.547 914.349C546.218 920.732 533.074 920.96 527.232 915.033C525.041 912.753 519.93 910.245 516.035 909.789L508.976 908.878L507.516 925.52C506.542 934.639 506.299 944.214 507.029 946.722C508.246 951.053 507.029 951.281 467.839 951.053H369.501L335.91 951.281V930.079V909.105L323.983 909.333C315.463 909.561 310.838 910.929 306.944 914.577C295.26 925.52 277.491 918.453 277.491 903.178C277.491 888.588 295.747 882.432 306.7 893.147C311.325 897.707 314.733 898.847 324.226 898.847H335.91V870.349V841.852H324.713C316.193 841.852 311.569 843.22 306.214 847.552C297.451 854.391 292.339 854.619 283.82 848.464C275.057 841.852 275.057 830.226 284.063 823.614C291.609 818.143 300.615 819.055 307.187 825.894C310.108 829.314 314.246 830.454 323.496 830.454H335.91Z" fill="#FAB71D"/>
<rect x="335.91" y="643.514" width="172.823" height="357.923" fill="#8E0404"/>
<rect x="335.91" y="643.514" width="172.823" height="50.1549" fill="white"/>
<rect x="335.91" y="951.283" width="172.823" height="50.1549" fill="white"/>
<path d="M335.91 951.283H508.733V921.646L454.417 903.408H393.929L360.599 912.527L335.91 925.066V951.283Z" fill="#D50F0E" fill-opacity="0.6"/>
<path d="M335.91 1001.44H508.733L479.106 1010.56L454.417 1015.12H393.929L364.302 1010.56L335.91 1001.44Z" fill="#D60F12"/>
<path d="M392.601 941.707C396.798 943.303 436.3 940.567 436.3 940.567C461.483 934.412 480.74 921.873 488.888 906.143C493.578 897.252 494.813 891.552 494.813 875.138C494.813 862.827 493.825 855.532 492.344 856.216C491.11 856.9 458.026 869.894 418.771 885.169C349.395 912.526 347.913 913.21 355.32 915.946C359.27 917.542 367.912 923.469 374.578 929.168C381.244 934.868 389.144 940.567 392.601 941.707Z" fill="#C68004"/>
<path d="M475.555 836.382C464.692 825.895 457.286 820.879 450.373 819.056C444.941 817.688 439.51 816.776 438.028 816.776C418.277 818.6 385.441 831.594 369.887 843.677C357.295 853.252 352.851 863.283 352.851 881.521C352.851 889.728 351.617 898.62 350.135 901.355C348.654 903.863 347.913 906.143 348.407 906.599C349.148 907.055 463.211 862.827 482.962 854.392L490.863 850.972L475.555 836.382Z" fill="#C68004"/>
</svg>
