<svg width="848" height="1063" viewBox="0 0 848 1063" fill="none" xmlns="http://www.w3.org/2000/svg">
<path d="M83.0005 741.623C83.0005 731.682 91.0594 723.623 101 723.623H746C755.942 723.623 764 731.682 764 741.623V1044.68H83.0005V741.623Z" fill="#FF0001"/>
<path d="M577.93 463.346C556.997 450.829 519.025 437.402 488.842 431.485C459.632 426.023 410.706 423.975 383.687 426.933C342.794 431.712 285.349 450.829 259.06 468.125L251.514 473.36L247.62 467.67C232.041 445.367 201.128 434.671 177.76 444.002C172.892 445.822 167.781 446.733 166.077 445.822C164.616 445.14 164.129 445.14 165.103 446.278C166.077 447.188 162.669 452.65 157.314 458.112C147.577 468.353 157.314 484.739 157.314 494.98C157.557 500.214 174.771 537.547 180.126 549.609C181.343 552.34 161.452 573.505 157.314 574.643C146.847 577.829 149.942 559.85 143.614 570.091C130.713 590.346 137.841 597.856 157.314 612.194L177.76 638.366L132.66 642.917C165.452 657.492 149.456 661.579 147.265 671.365C141.18 696.171 131.755 684.327 157.314 695.478L171.918 722.788H254.679H337.439V709.133V695.478H422.633H507.584L508.315 708.451L509.045 721.65L591.318 722.333L673.348 722.788L706.209 717.326C743.451 701.168 752.944 661.569 725.682 634.259L691.292 622.88L698.594 612.194C715.877 594.443 746.128 575.088 735.175 554.834C728.359 541.861 717.406 532.758 703.288 528.207C698.176 526.614 661.596 542.327 662.082 541.644C670.358 525.486 687.884 504.538 686.424 494.98C680.825 458.567 666.776 434.216 631.238 443.774C620.528 446.733 615.416 449.919 605.68 459.932L593.266 472.449L577.93 463.346Z" fill="#F4CA9A"/>
<path d="M714.416 621.296L736.079 554.356C729.264 541.384 718.31 532.281 704.192 527.729C699.081 526.136 666.463 528.412 666.95 527.729C675.226 511.571 685.449 504.547 683.989 494.989C678.391 458.576 667.68 433.738 632.142 443.297C621.432 446.255 616.32 449.442 606.584 459.455L594.17 471.972L578.835 462.869C557.901 450.352 519.929 436.925 489.746 431.007C460.536 425.546 411.61 423.497 384.592 426.456C343.698 431.235 286.253 450.352 259.964 467.648L252.419 472.882L248.524 467.193C232.946 444.89 202.032 434.194 178.665 443.524C178.665 443.524 163.573 452.172 158.218 457.634C148.482 467.876 145.561 484.747 145.561 494.989C145.804 500.223 173.31 515.667 178.665 527.729C179.882 530.46 162.356 540.505 149.699 538.229C139.232 541.415 138.988 611.055 132.66 621.296C83.7339 604.227 55.2546 579.876 46.2483 568.952C37.2421 558.028 18.0125 534.588 21.9071 520.022C10.7101 520.022 21.9071 494.958 21.9071 487.903V475.158L46.2483 476.068C68.6423 476.979 71.5632 476.524 83.7339 471.062C107.345 460.138 150.185 414.394 168.441 380.485C173.31 371.154 181.342 353.63 185.967 341.568C202.763 297.873 225.887 259.867 251.202 234.15C308.89 174.979 420.373 154.042 514.574 184.765L526.258 188.634L584.433 223.226L594.17 232.102C616.807 252.357 646.017 300.376 662.325 343.616C677.904 385.264 698.837 415.76 732.915 447.166C751.901 464.689 755.796 467.193 771.374 471.972C784.762 475.841 792.551 476.751 807.399 476.296L826.385 475.386L825.655 489.041C824.681 510.661 824.195 539.139 807.399 563.263L777.703 597.4L714.416 621.296Z" fill="#FF0001"/>
<path d="M617.537 66.9083C616.32 120.39 613.399 143.375 601.716 185.25L597.091 201.181L611.209 217.112C636.767 246.47 657.214 281.289 673.035 322.937C690.561 369.136 709.304 397.128 744.842 430.355C776.486 460.168 787.439 465.175 822.491 465.175H847.562L846.345 480.422C843.668 508.87 823.708 549.379 800.34 573.731L790.847 583.517L797.906 573.275C814.702 549.152 824.681 523.208 825.655 501.587L826.385 487.933L807.399 488.843C792.551 489.298 784.762 488.388 771.374 484.519C755.796 479.74 751.901 477.236 732.915 459.713C698.837 428.306 677.904 397.811 662.325 356.163C646.017 312.923 616.807 264.903 594.17 244.649L584.433 235.773L577.861 249.883C572.263 261.945 569.829 264.676 561.796 267.634C553.763 270.593 549.382 275.145 554.494 275.145C555.467 275.145 557.658 276.055 559.362 277.193C562.039 278.786 560.579 282.427 552.546 294.034L542.566 309.054L547.678 313.833C554.494 320.206 557.415 327.943 557.415 339.778C557.415 365.039 526.258 381.197 501.43 368.68C491.937 364.129 481.957 348.426 481.957 338.64C481.957 323.619 493.884 308.371 508.732 304.73L517.495 302.454L520.659 262.173C522.12 239.87 524.31 217.112 525.041 211.422L526.258 201.181L514.574 197.312C420.373 166.589 308.89 187.526 251.202 246.697C225.887 272.414 202.763 310.42 185.967 354.115C181.342 366.177 173.31 383.701 168.441 393.032C150.186 426.941 107.345 472.685 83.7339 483.609C71.5633 489.071 68.6423 489.526 46.2484 488.616L21.9071 487.705V500.45C21.9071 507.505 23.611 518.884 25.8017 525.711C30.4266 540.276 44.3011 566.676 53.3073 577.6C56.7151 581.924 58.1756 584.882 56.7151 583.972C50.6298 580.558 31.1568 554.614 20.4466 535.952C9.24966 516.38 0 487.705 0 472.912V464.492L18.0125 465.63C42.3538 467.45 55.498 463.809 79.1091 449.244C117.812 425.348 154.08 377.328 175.014 322.254C189.862 282.427 206.657 253.069 231.729 222.574C261.425 186.388 305.726 161.81 363.658 149.52C380.454 145.879 394.572 144.741 422.321 144.513C461.51 144.286 483.661 147.472 516.034 157.713C528.205 161.582 533.56 162.492 534.29 160.671C534.777 159.078 537.942 148.382 541.349 136.775C544.757 125.396 549.382 111.969 551.573 107.19C554.98 99.4523 555.711 99.2248 558.145 103.094C559.849 105.37 563.013 109.466 565.447 112.197C569.829 116.749 569.829 116.293 568.125 94.4455C566.664 72.1426 566.664 71.6876 574.697 56.2121L582.729 40.509L587.111 48.019L591.492 55.5293L591.006 43.0123C590.275 29.3575 592.223 25.0336 607.071 8.42019L614.616 -0.000426086L616.807 7.28229C617.781 11.3787 618.268 38.0056 617.537 66.9083Z" fill="#D6920D"/>
<ellipse cx="518.468" cy="339.095" rx="24.3412" ry="22.7581" fill="#FAB71D"/>
<path d="M602.689 185.252C614.373 143.377 617.294 120.392 618.511 66.9101C619.241 38.0073 618.754 11.3805 617.781 7.28403L615.59 0.00131226L608.044 8.42194C593.196 25.0353 591.249 29.3593 591.979 43.0141L592.466 55.531L588.084 48.0208L583.703 40.5107L575.67 56.2139C567.638 71.6894 567.638 72.1443 569.098 94.4473C570.802 116.295 570.802 116.75 566.421 112.199C563.986 109.468 560.822 105.371 559.118 103.095C556.684 99.2266 555.954 99.454 552.546 107.192C550.355 111.971 545.73 125.398 542.323 136.777C538.915 148.384 535.751 159.08 535.264 160.673C534.533 162.494 527.231 201.183 527.231 201.183L526.014 211.424C525.284 217.113 523.093 239.872 521.633 262.174L518.468 302.456V350.248L543.54 309.056L553.52 294.036C561.552 282.429 563.013 278.788 560.335 277.195C558.631 276.057 556.441 275.146 555.467 275.146C550.355 275.146 554.737 270.595 562.769 267.636C570.802 264.678 573.236 261.947 578.835 249.885L585.407 235.775L598.064 201.183L602.689 185.252Z" fill="#FAB71D"/>
<ellipse cx="160.652" cy="671.364" rx="55.9849" ry="52.3436" fill="white"/>
<ellipse cx="160.652" cy="671.365" rx="43.8142" ry="40.9645" fill="#ECEEED"/>
<ellipse cx="160.652" cy="578.055" rx="55.9849" ry="52.3436" fill="white"/>
<ellipse cx="160.652" cy="578.056" rx="43.8142" ry="40.9645" fill="#ECEEED"/>
<ellipse cx="686.424" cy="671.364" rx="55.9849" ry="52.3436" fill="white"/>
<ellipse cx="686.424" cy="671.365" rx="43.8142" ry="40.9645" fill="#ECEEED"/>
<ellipse cx="683.99" cy="573.506" rx="55.9849" ry="52.3436" fill="white"/>
<ellipse cx="683.99" cy="573.506" rx="43.8142" ry="40.9645" fill="#ECEEED"/>
<rect x="153.35" y="760.121" width="19.473" height="302.682" fill="#9F0507"/>
<rect x="676.688" y="760.121" width="19.473" height="302.682" fill="#9F0507"/>
<path d="M717.044 723.709H674.933V766.949C674.933 794.259 675.907 810.189 677.368 810.189C678.828 810.189 679.802 803.134 680.045 793.576L680.047 793.453C680.532 766.265 680.54 765.811 685.887 765.811C690.268 765.811 690.755 767.632 691.485 787.887C692.459 816.789 696.841 817.244 696.841 788.569C696.841 766.949 696.841 766.949 702.926 766.949C709.011 766.949 709.011 766.949 709.011 788.569C709.011 801.541 709.985 810.189 711.445 810.189C712.906 810.189 713.879 801.541 713.879 788.569C713.879 766.949 713.879 766.949 719.965 766.949C726.05 766.949 726.05 766.949 726.05 788.569C726.05 801.541 727.024 810.189 728.484 810.189C729.945 810.189 730.918 801.541 730.918 788.569C730.918 766.949 730.918 766.949 737.004 766.949C743.089 766.949 743.089 766.949 743.089 788.569C743.089 801.541 744.063 810.189 745.523 810.189C746.984 810.189 747.957 801.541 747.957 788.569C747.957 767.632 748.2 766.949 753.556 766.949C758.667 766.949 758.911 767.404 758.18 788.797C757.45 806.093 757.937 810.417 760.615 809.734C763.049 808.824 763.779 801.314 763.779 776.963C763.779 747.377 763.292 744.874 758.18 737.819C749.418 726.44 741.385 723.709 717.044 723.709Z" fill="#EDA423"/>
<path d="M173.504 766.949V723.709H130.907C98.7761 723.709 87.3357 731.902 85.6318 755.57C84.4147 776.735 85.8753 810.189 88.3094 810.189C89.7699 810.189 90.7435 801.541 90.7435 788.569C90.7435 768.542 91.2304 766.949 95.6118 766.949C99.7498 766.949 100.48 768.77 100.967 787.887C101.454 801.997 102.671 809.052 104.861 809.734C107.052 810.417 107.782 805.183 107.782 788.797C107.782 768.542 108.026 766.949 112.651 766.949C117.275 766.949 117.519 768.542 117.519 788.569C117.519 801.541 118.493 810.189 119.953 810.189C121.413 810.189 122.387 801.541 122.387 788.569C122.387 766.949 122.387 766.949 128.472 766.949C134.558 766.949 134.558 766.949 134.558 788.569C134.558 801.541 135.531 810.189 136.992 810.189C138.452 810.189 139.426 801.541 139.426 788.569C139.426 766.949 139.426 766.949 145.511 766.949C151.597 766.949 151.597 766.949 151.597 788.569C151.597 817.244 155.978 816.789 156.952 787.887C157.682 767.632 158.169 765.811 162.55 765.811C166.932 765.811 167.418 767.632 168.149 787.887C168.392 800.176 169.853 810.189 171.07 810.189C172.53 810.189 173.504 793.121 173.504 766.949Z" fill="#EDA423"/>
<ellipse cx="545.244" cy="659.986" rx="48.6825" ry="45.5161" fill="#F19F70"/>
<ellipse cx="301.831" cy="659.986" rx="48.6825" ry="45.5161" fill="#F19F70"/>
<ellipse cx="321.304" cy="550.745" rx="41.3801" ry="38.6887" fill="white"/>
<path d="M311.001 543.601C299.074 554.752 303.698 572.959 319.277 577.738C338.75 583.883 356.032 565.449 346.539 548.608C339.48 535.636 322.198 533.132 311.001 543.601Z" fill="black"/>
<ellipse cx="318.5" cy="549" rx="8.5" ry="7" fill="white"/>
<ellipse cx="520.903" cy="550.745" rx="41.3801" ry="38.6887" fill="white"/>
<path d="M495.994 543.601C484.067 554.752 488.692 572.959 504.27 577.738C523.743 583.883 541.025 565.449 531.532 548.608C524.473 535.636 507.191 533.132 495.994 543.601Z" fill="black"/>
<ellipse cx="502.5" cy="549" rx="8.5" ry="7" fill="white"/>
<path d="M422.321 538.229L432.057 571.229L445.445 593.987L446.662 598.538L445.445 603.09L424.755 613.331L422.321 614.469L418.67 613.331L399.197 603.09L397.979 598.538L399.197 593.987L411.367 571.229L422.321 538.229Z" fill="#F19F70"/>
<path d="M386.341 611.419C384.394 612.102 375.875 615.06 367.599 618.019C349.343 624.619 340.336 624.846 321.837 618.929C314.048 616.426 307.232 614.833 306.745 615.288C306.259 615.743 309.666 619.157 314.778 623.026C327.192 632.812 341.067 635.77 366.381 634.177C389.749 632.812 406.301 628.26 414.821 620.75L420.662 615.743L415.064 612.785C409.465 610.054 393.157 609.143 386.341 611.419Z" fill="black"/>
<path d="M426.261 613.24C421.636 616.654 421.636 616.654 426.504 620.295C439.892 630.537 452.55 633.495 481.272 633.723C507.561 633.723 509.995 633.267 520.462 627.578C531.902 621.433 539.691 612.102 530.685 615.516C519.488 619.84 504.153 623.482 496.851 623.482C492.469 623.482 480.785 620.295 470.806 616.654C450.602 609.144 433.807 607.778 426.261 613.24Z" fill="black"/>
<rect x="338.343" y="644.055" width="170.389" height="50.0678" fill="white"/>
<path d="M282.358 513.196L287.227 507.506L293.312 502.954L300.614 499.541L307.917 497.265L311.568 496.127H332.258L335.909 497.265L340.777 499.541L349.297 502.954L355.382 507.506L357.816 512.058L352.948 509.782L346.863 507.506L339.56 505.23H306.7L301.831 506.368L294.529 508.644L289.661 510.92L287.227 512.058L282.358 513.196Z" fill="black"/>
<path d="M559.849 514.333L554.98 508.265L548.895 503.41L541.593 499.768L534.29 497.341L530.639 496.127H509.949L506.298 497.341L501.43 499.768L492.91 503.41L486.825 508.265L484.391 513.12L489.259 510.692L495.344 508.265L502.647 505.837H535.507L540.376 507.051L547.678 509.478L552.546 511.906L554.98 513.12L559.849 514.333Z" fill="black"/>
<path d="M432.057 417.612L475.871 423.302L526.988 438.095L576.887 458.577L593.926 475.645L578.105 479.059L567.151 481.335H553.763H537.941L520.903 480.197L507.515 479.059L494.127 476.783L473.437 471.805L455.181 465.404L448.487 461.422L441.794 457.439L434.491 451.749L429.623 447.198L424.755 438.095L421.104 421.026L432.057 417.612Z" fill="white"/>
<path d="M410.15 418.75L366.336 424.44L315.219 439.232L265.32 459.715L248.281 476.783L264.102 480.197L275.056 482.473H288.444H304.266L321.304 481.335L334.692 480.197L348.08 477.921L368.77 472.943L387.026 466.542L393.72 462.559L400.413 458.577L407.716 452.887L412.584 448.335L417.452 439.232L421.104 422.164L410.15 418.75Z" fill="white"/>
<path d="M441.793 398.268H388.243L368.77 401.63L348.08 404.993L324.955 409.477L303.048 416.202L277.49 424.049L250.715 436.379L230.025 447.588L226.373 449.83L243.412 462.16L250.715 473.369L264.102 465.523L275.056 458.797L288.444 452.072L310.351 443.104L328.607 438.621L348.08 433.016L369.987 428.532L390.677 426.291L416.844 425.17H441.793V398.268Z" fill="#9F0505"/>
<path d="M401.63 398.268H455.181L474.654 401.681L495.344 405.095L518.468 409.647L540.375 416.474L565.934 424.439L592.709 436.956L613.399 448.335L617.05 450.611L600.012 463.128L592.709 474.507L579.321 466.542L568.368 459.714L554.98 452.887L533.073 443.784L514.817 439.232L495.344 433.543L473.437 428.991L452.747 426.715L426.58 425.577H401.63V398.268Z" fill="#9F0505"/>
<ellipse cx="642.609" cy="489.298" rx="55.9849" ry="52.3436" fill="white"/>
<ellipse cx="642.61" cy="489.299" rx="43.8142" ry="40.9645" fill="#ECEEED"/>
<ellipse cx="199.599" cy="489.298" rx="55.9849" ry="52.3436" fill="white"/>
<ellipse cx="199.599" cy="489.299" rx="43.8142" ry="40.9645" fill="#ECEEED"/>
<rect x="272.623" y="770.879" width="287.227" height="182.381" fill="black"/>
<path d="M335.91 830.152V797.095V764.039H304.996C274.327 764.267 260.209 766.546 251.689 773.386C245.36 778.173 240.979 788.432 240.979 797.779C240.979 802.795 247.551 855.457 255.584 914.731C271.406 1031.46 270.675 1028.72 287.227 1039.43L295.503 1044.68L418.914 1043.99L419.965 1043.99C540.147 1043.31 542.587 1043.3 549.383 1038.52C553.034 1035.79 557.902 1030.77 560.093 1027.12C564.961 1019.37 595.388 799.147 592.953 790.256C590.519 781.365 577.375 768.826 567.639 766.318C562.77 765.178 547.435 764.039 533.804 764.039H508.976L508.246 797.095L507.516 830.152H515.061C519.443 830.152 524.311 828.328 526.989 825.592C533.317 819.209 539.159 818.069 547.192 821.945C559.119 827.644 560.823 838.587 551.33 847.25C543.784 854.545 534.534 854.545 526.745 847.25C523.337 844.058 517.982 841.551 514.088 841.551H507.516V870.048V898.545H514.088C517.982 898.545 523.337 896.037 526.745 892.845C534.534 885.55 543.784 885.55 551.33 892.845C558.632 899.457 559.119 907.436 552.547 914.047C546.218 920.43 533.074 920.658 527.232 914.731C525.041 912.451 519.93 909.944 516.035 909.488L508.976 908.576L507.516 925.218C506.542 934.337 506.299 943.912 507.029 946.42C508.246 950.751 507.029 950.979 467.839 950.751H369.501L335.91 950.979V929.778V908.804L323.983 909.032C315.463 909.26 310.838 910.628 306.944 914.275C295.26 925.218 277.491 918.151 277.491 902.876C277.491 888.286 295.747 882.13 306.7 892.845C311.325 897.405 314.733 898.545 324.226 898.545H335.91V870.048V841.551H324.713C316.193 841.551 311.569 842.918 306.214 847.25C297.451 854.089 292.339 854.317 283.82 848.162C275.057 841.551 275.057 829.924 284.063 823.312C291.609 817.841 300.615 818.753 307.187 825.592C310.108 829.012 314.246 830.152 323.496 830.152H335.91Z" fill="#FAB71D"/>
<rect x="335.91" y="641.607" width="172.823" height="84.1747" fill="#8E0404"/>
<rect x="336" y="642" width="173" height="27" fill="white"/>
<rect x="336" y="700.175" width="173" height="25.9428" fill="white"/>
<path d="M336 699.903H508.823V692.933L454.507 688.644H394.019L360.689 690.789L336 693.738V699.903Z" fill="#D50F0E" fill-opacity="0.6"/>
<path d="M353.192 641.34L366.771 640.804L388.991 640H398.867H408.742L416.149 640.536L419.852 641.608H340.848L353.192 641.34Z" fill="#D90E12"/>
<path d="M335.91 725.783H508.733L479.106 727.928L454.417 729H393.929L364.302 727.928L335.91 725.783Z" fill="#D60F12"/>
<path d="M491.45 641.34L477.871 640.804L455.651 640H445.776H435.9L428.494 640.536L424.79 641.608H503.795L491.45 641.34Z" fill="#D90E12"/>
</svg>
