<svg width="1736" height="998" viewBox="0 0 1736 998" fill="none" xmlns="http://www.w3.org/2000/svg">
<path d="M98.6313 439.468C74.8269 448.562 62.3324 456.089 55.6716 464.89C50.5521 471.845 46.2305 479.083 45.4872 481.211C38.7677 510.725 45.0323 565.981 58.3732 595.837C68.812 619.878 84.137 632.496 116.056 643.826C130.419 648.925 145.36 656.222 149.404 660.05C153.05 663.736 156.668 666.217 157.714 665.791C158.883 665.01 138.719 473.635 133.868 440.014L131.847 426.537L98.6313 439.468Z" fill="#C68004"/>
<path d="M247.972 782.225C242.308 807.247 241.609 821.904 245.191 832.368C248.102 840.517 251.689 848.152 253.036 849.954C273.696 871.934 322.808 897.261 354.855 902.586C380.493 907.13 399.399 901.247 426.427 880.719C438.589 871.481 452.888 862.975 458.289 861.699C463.352 860.678 467.404 859.014 467.63 857.9C467.633 856.485 298.386 767.48 267.928 752.942L255.677 747.178L247.972 782.225Z" fill="#C68004"/>
<path d="M1408.38 447.304C1433.03 453.695 1447.54 454.799 1458.02 451.474C1466.18 448.762 1473.84 445.355 1475.67 444.047C1498.02 423.824 1524.47 375.019 1530.63 342.866C1535.83 317.152 1530.51 297.938 1510.9 270.139C1502.07 257.63 1494.02 242.988 1492.91 237.51C1492.03 232.379 1490.49 228.25 1489.39 227.991C1487.99 227.951 1395.13 396.095 1379.88 426.394L1373.84 438.584L1408.38 447.304Z" fill="#C68004"/>
<path d="M1400.71 872.579C1405.82 897.721 1411.2 911.356 1418.76 919.388C1424.75 925.591 1431.15 931.046 1433.12 932.125C1460.95 943.514 1516.05 946.082 1547.41 937.56C1572.62 931 1587.41 917.757 1603.59 887.793C1610.87 874.309 1620.4 860.601 1624.79 857.185C1628.98 854.144 1631.99 850.938 1631.74 849.829C1631.16 848.541 1440.55 838.123 1406.86 837.595L1393.34 837.459L1400.71 872.579Z" fill="#C68004"/>
<path d="M614.438 81.7421C600.425 103.169 594.67 116.647 594.382 127.713C594.272 136.373 594.974 144.792 595.607 146.956C607.304 174.847 644.478 215.938 672.635 232.262C695.061 245.586 714.812 246.765 747.266 237.104C761.87 232.756 778.22 229.85 783.722 230.565C788.818 231.401 793.192 231.275 793.792 230.312C794.286 228.989 666.778 85.7689 643.317 61.3803L633.851 51.649L614.438 81.7421Z" fill="#C68004"/>
<path d="M151.438 64.6034C137.425 86.03 131.67 99.5082 131.382 110.574C131.272 119.234 131.974 127.653 132.607 129.817C144.304 157.708 181.478 198.799 209.635 215.123C232.061 228.447 251.812 229.627 284.266 219.965C298.87 215.618 315.22 212.711 320.722 213.426C325.818 214.262 330.192 214.137 330.792 213.174C331.286 211.85 203.778 68.6302 180.317 44.2416L170.851 34.5103L151.438 64.6034Z" fill="#C68004"/>
<path d="M324.461 409.411C332.969 433.6 340.165 446.355 348.749 453.258C355.536 458.567 362.621 463.078 364.716 463.873C393.839 471.279 448.768 466.15 478.661 453.343C502.725 443.337 515.565 428.161 527.485 396.231C532.85 381.863 540.406 366.959 544.289 362.965C548.023 359.369 550.56 355.776 550.16 354.712C549.411 353.517 359.202 369.737 325.758 373.906L312.35 375.653L324.461 409.411Z" fill="#C68004"/>
<path d="M1520.78 607.599C1532.88 630.178 1541.94 641.664 1551.48 647.151C1559 651.343 1566.69 654.7 1568.88 655.16C1598.78 657.954 1652.27 644.355 1679.85 627.059C1702.1 613.435 1712.47 596.445 1719.37 563.046C1722.47 548.016 1727.66 532.117 1730.89 527.567C1734.03 523.434 1735.99 519.489 1735.43 518.501C1734.51 517.436 1549.05 563.004 1516.64 572.316L1503.66 576.125L1520.78 607.599Z" fill="#C68004"/>
<path d="M1092.06 133.35C1104.16 155.929 1113.22 167.414 1122.76 172.902C1130.27 177.094 1137.96 180.451 1140.16 180.911C1170.06 183.705 1223.55 170.106 1251.13 152.81C1273.38 139.186 1283.75 122.196 1290.65 88.7965C1293.75 73.7666 1298.94 57.8676 1302.17 53.3177C1305.31 49.1853 1307.27 45.2404 1306.71 44.2521C1305.78 43.187 1120.32 88.7545 1087.92 98.0673L1074.94 101.876L1092.06 133.35Z" fill="#C68004"/>
</svg>
