<svg width="761" height="267" viewBox="0 0 761 267" fill="none" xmlns="http://www.w3.org/2000/svg">
<path d="M199.7 138.143C199.723 138.171 199.259 137.792 198.974 136.944C198.666 136.102 198.463 134.836 198.403 133.242C198.337 131.646 198.42 129.719 198.656 127.529C198.905 125.341 199.292 122.885 199.9 120.243C200.204 118.922 200.549 117.552 200.944 116.141C201.36 114.737 201.823 113.292 202.346 111.817C203.383 108.865 204.711 105.81 206.481 102.785C207.388 101.285 208.391 99.7809 209.617 98.3603C210.834 96.9397 212.257 95.5706 214.076 94.4919C214.989 93.9619 216.015 93.5146 217.144 93.2733C218.267 93.0272 219.491 93.0075 220.632 93.2504C221.778 93.4868 222.817 93.9644 223.721 94.5344C224.635 95.1176 225.388 95.7677 226.122 96.5112L227.051 97.4869L228.002 98.5591C228.605 99.2804 229.195 100.016 229.733 100.799C230.818 102.351 231.744 104.066 232.283 105.954C232.813 107.839 232.858 109.918 232.296 111.793C231.748 113.677 230.687 115.276 229.523 116.633C227.137 119.326 224.348 121.227 221.696 122.905C219.03 124.57 216.453 125.999 214.104 127.349C211.754 128.694 209.625 129.952 207.806 131.158C205.984 132.36 204.475 133.508 203.304 134.529C202.137 135.556 201.32 136.46 200.8 137.103C200.537 137.423 200.352 137.68 200.23 137.855C200.106 138.028 200.041 138.118 200.041 138.118L199.7 138.143ZM199.874 137.6C199.988 137.412 200.154 137.146 200.392 136.814C200.881 136.119 201.66 135.137 202.788 134.009C203.913 132.882 205.387 131.619 207.17 130.304C208.948 128.978 211.028 127.591 213.307 126.115C215.582 124.637 218.066 123.075 220.573 121.311C223.053 119.538 225.658 117.596 227.625 115.143C228.587 113.918 229.375 112.568 229.719 111.132C230.072 109.699 229.975 108.202 229.502 106.743C229.014 105.284 228.189 103.874 227.173 102.554C226.674 101.889 226.115 101.253 225.543 100.625L224.669 99.7212L223.7 98.7872C222.564 97.7355 221.209 96.9054 219.937 96.7246C218.666 96.5186 217.398 96.9168 216.19 97.7281C214.984 98.537 213.903 99.6942 212.926 100.932C211.959 102.183 211.075 103.524 210.281 104.902C208.664 107.645 207.342 110.492 206.145 113.222C205.554 114.592 205.019 115.944 204.53 117.265C204.02 118.578 203.561 119.862 203.144 121.104C202.313 123.587 201.609 125.888 201.075 127.948C200.531 130.006 200.144 131.821 199.907 133.319C199.673 134.817 199.61 136.004 199.692 136.782C199.729 137.154 199.804 137.424 199.874 137.6Z" fill="white"/>
<path d="M198.534 135.835C198.549 135.648 198.539 135.368 198.462 135.003C198.307 134.236 197.89 133.119 197.216 131.753C196.539 130.387 195.624 128.761 194.486 126.947C193.355 125.129 191.991 123.128 190.45 120.989C189.679 119.92 188.854 118.823 187.971 117.711C187.107 116.587 186.188 115.446 185.211 114.304C183.247 112.033 181.127 109.686 178.756 107.522C177.584 106.429 176.336 105.397 175.034 104.475C173.729 103.569 172.346 102.769 170.951 102.337C169.551 101.905 168.218 101.883 167.065 102.442C165.903 102.976 164.857 104.155 164.085 105.483L163.438 106.651L162.876 107.763C162.517 108.526 162.173 109.294 161.895 110.071C161.32 111.622 160.956 113.205 160.927 114.738C160.913 116.268 161.27 117.727 162.039 118.997C162.799 120.273 163.958 121.34 165.246 122.239C167.864 124.027 170.94 125.144 173.844 126.136C176.771 127.111 179.616 127.899 182.237 128.667C184.859 129.431 187.266 130.167 189.364 130.93C191.467 131.682 193.255 132.472 194.67 133.23C196.086 133.988 197.126 134.707 197.803 135.233C198.129 135.481 198.369 135.688 198.534 135.835ZM198.531 136.38C198.531 136.38 198.442 136.312 198.271 136.182C198.101 136.05 197.847 135.857 197.499 135.625C196.81 135.157 195.756 134.524 194.332 133.874C192.905 133.229 191.116 132.561 189.013 131.929C186.911 131.291 184.498 130.693 181.845 130.074C179.193 129.45 176.299 128.815 173.249 127.98C170.209 127.127 166.97 126.101 163.878 124.204C162.357 123.237 160.862 122.009 159.772 120.363C158.671 118.729 158.09 116.727 158.03 114.774C157.977 112.815 158.348 110.912 158.92 109.12C159.198 108.218 159.543 107.347 159.903 106.486L160.49 105.192L161.085 103.994C161.564 103.074 162.089 102.239 162.787 101.421C163.481 100.619 164.331 99.8675 165.356 99.3163C166.375 98.7593 167.55 98.4313 168.7 98.3471C169.852 98.2571 170.968 98.3937 171.999 98.6415C174.063 99.1559 175.836 100.061 177.427 101.075C179.025 102.085 180.437 103.239 181.755 104.416C184.357 106.807 186.545 109.351 188.424 111.881C189.367 113.143 190.244 114.393 191.064 115.618C191.865 116.856 192.606 118.069 193.294 119.245C194.669 121.598 195.777 123.838 196.672 125.859C197.557 127.887 198.214 129.706 198.631 131.251C199.051 132.793 199.238 134.061 199.196 134.954C199.179 135.846 198.848 136.341 198.863 136.307L198.531 136.38Z" fill="white"/>
<path d="M138.758 264.148C178.626 266.544 218.606 266.553 258.474 264.175C255.705 220.278 252.934 176.383 250.164 132.488C215.851 134.534 181.44 134.527 147.128 132.466C144.339 176.359 141.549 220.255 138.758 264.148Z" fill="#FFD54F"/>
<path d="M342.133 144.265C342.173 144.335 341.505 143.715 341.444 142.618C341.328 141.523 341.557 139.988 342.123 138.137C342.678 136.279 343.59 134.107 344.818 131.69C346.078 129.29 347.612 126.621 349.575 123.85C351.501 121.058 353.81 118.142 356.52 115.197C359.218 112.243 362.371 109.29 366.156 106.577C368.061 105.235 370.119 103.945 372.429 102.831C374.731 101.716 377.286 100.753 380.188 100.224C383.052 99.6999 386.465 99.7288 389.476 100.873C390.973 101.425 392.297 102.219 393.418 103.106C394.528 103.963 395.493 105.085 396.158 105.86C397.76 107.733 399.128 109.692 400.124 111.961C401.091 114.2 401.526 116.886 400.671 119.413C399.838 121.945 397.916 123.939 395.907 125.408C393.867 126.884 391.681 127.981 389.509 128.913C385.148 130.755 380.825 132.037 376.718 133.141C372.611 134.244 368.726 135.194 365.168 136.113C358.039 137.916 352.253 139.718 348.408 141.343C346.485 142.151 345.051 142.9 344.108 143.451C343.631 143.722 343.282 143.947 343.049 144.1C342.813 144.251 342.691 144.33 342.691 144.33L342.133 144.265ZM342.653 143.519C342.874 143.351 343.174 143.12 343.57 142.853C344.487 142.218 345.888 141.345 347.777 140.381C351.538 138.42 357.319 136.278 364.313 134.032C367.807 132.897 371.602 131.719 375.546 130.396C379.469 129.051 383.615 127.644 387.477 125.76C389.4 124.823 391.243 123.755 392.768 122.518C394.281 121.276 395.402 119.855 395.775 118.357C396.608 115.378 394.351 111.832 391.524 108.892C388.71 105.7 385.617 104.88 381.818 105.844C378.068 106.816 374.438 109.144 371.169 111.514C367.869 113.919 364.861 116.55 362.063 119.108C359.285 121.686 356.792 124.259 354.538 126.673C352.325 129.112 350.313 131.378 348.669 133.46C346.996 135.527 345.643 137.388 344.631 138.951C343.628 140.517 342.987 141.801 342.752 142.674C342.65 143.058 342.639 143.327 342.653 143.519Z" fill="#E8EAF6"/>
<path d="M339.914 140.82C339.869 140.629 339.78 140.37 339.567 140.023C339.08 139.227 338.077 138.12 336.64 136.817C335.194 135.517 333.33 134.001 331.095 132.354C328.883 130.685 326.262 128.918 323.393 127.024C320.492 125.163 317.312 123.199 313.856 121.29C310.387 119.404 306.691 117.494 302.781 115.863C298.91 114.258 294.705 112.771 290.783 112.623C286.819 112.491 284.07 113.939 282.296 117.623C280.434 121.065 279.304 124.975 280.996 127.684C281.801 129.055 283.311 130.194 285.147 131.076C286.991 131.951 289.094 132.596 291.233 133.097C295.532 134.104 299.964 134.59 304.162 135.064C308.373 135.513 312.399 135.851 316.119 136.211C323.558 136.909 329.792 137.761 334.016 138.866C336.132 139.4 337.749 139.949 338.824 140.369C339.292 140.543 339.65 140.702 339.914 140.82ZM340.12 141.613C340.12 141.613 339.979 141.562 339.706 141.465C339.434 141.366 339.029 141.221 338.487 141.06C337.409 140.726 335.798 140.304 333.695 139.928C329.49 139.167 323.352 138.644 315.914 138.405C312.196 138.267 308.152 138.169 303.849 137.968C299.544 137.765 294.978 137.438 290.209 136.577C287.827 136.134 285.386 135.533 282.971 134.535C280.59 133.536 278.135 132.012 276.576 129.737C274.994 127.472 274.617 124.78 274.886 122.407C275.174 120.001 275.915 117.815 276.908 115.664C277.323 114.772 277.923 113.482 278.742 112.419C279.563 111.323 280.61 110.275 281.895 109.425C284.468 107.68 287.763 106.932 290.693 106.834C293.66 106.733 296.417 107.127 298.98 107.72C301.547 108.31 303.923 109.123 306.168 110.02C310.639 111.848 314.568 114.04 318.061 116.329C321.561 118.61 324.666 120.942 327.361 123.239C330.086 125.507 332.366 127.766 334.3 129.823C336.208 131.904 337.736 133.814 338.826 135.495C339.924 137.167 340.603 138.604 340.817 139.689C341.084 140.763 340.622 141.505 340.639 141.429L340.12 141.613Z" fill="#E8EAF6"/>
<path d="M431.608 262.598C377.76 261.233 323.503 262.033 269.003 265.056C267.379 239.912 265.389 168.505 264.159 143.313C321.012 140.193 377.629 139.388 433.838 140.838C432.708 166.02 432.337 237.432 431.608 262.598Z" fill="#FFAF99"/>
<path d="M601.217 126.115C601.217 126.115 635.97 47.936 646.387 35.4339C656.805 22.9318 680.149 29.2709 675.345 42.9431C670.541 56.6153 673.248 66.3355 682.23 67.6752C700.617 70.4175 723.242 9.15294 665.53 0.857959C607.819 -7.43703 574.866 125.516 574.866 125.516L601.217 126.115Z" fill="white"/>
<path d="M601.217 126.114L574.866 125.515C574.866 125.515 578.009 112.838 584.051 95.5586C589.92 98.6589 598.688 104.404 606.669 114.012C603.331 121.358 601.217 126.114 601.217 126.114Z" fill="#FE434C"/>
<path d="M627.032 16.8211C635.038 8.75338 643.898 3.00742 653.567 1.14062C658.549 8.40521 660.329 17.7626 659.537 28.8007C654.731 29.2186 649.847 31.2822 646.387 35.4336C644.877 37.2459 642.853 40.4446 640.501 44.5788C638.286 33.6542 633.891 24.3321 627.032 16.8211Z" fill="#FE434C"/>
<path d="M628.902 66.8065C625.161 74.3747 621.301 82.4513 617.693 90.1359C612.502 79.9626 605.42 71.7034 595.784 66.03C599.404 58.024 603.474 49.9518 607.978 42.3398C616.071 49.1596 623.303 57.0072 628.902 66.8065Z" fill="#FE434C"/>
<path d="M686.337 7.76758C694.006 12.4176 698.527 18.7141 700.742 25.4899C693.969 34.3921 685.497 39.0149 675.878 40.7435C676.363 37.311 674.998 34.4527 672.564 32.3828C679.641 25.2983 684.159 17.0599 686.337 7.76758Z" fill="#FE434C"/>
<path d="M682.23 67.6747C677.857 67.0224 674.985 64.3718 673.729 60.2582C682.618 59.6708 691.036 57.3611 698.962 53.251C695.032 62.3135 688.395 68.5941 682.23 67.6747Z" fill="#FE434C"/>
<path d="M565.472 117.319H724.358L728.123 261.649H568.86L565.472 117.319Z" fill="#E1283A"/>
<path d="M760.88 261.649L754.102 103.986L584.297 106.895L565.472 117.319H724.358L728.123 261.649H760.88Z" fill="#FE434C"/>
<path d="M643.672 255.553L646.307 111.224L665.321 99.4482" stroke="white" stroke-width="3" stroke-miterlimit="10" stroke-linecap="round" stroke-linejoin="round"/>
<path d="M577.763 105.606L743.823 103.709L747.178 254.043" stroke="white" stroke-width="3" stroke-miterlimit="10" stroke-linecap="round" stroke-linejoin="round"/>
<path d="M657.418 104.829C657.418 104.829 618.997 105.067 622.688 93.6092C626.379 82.1511 657.418 104.829 657.418 104.829Z" stroke="white" stroke-width="3" stroke-miterlimit="10" stroke-linecap="round" stroke-linejoin="round"/>
<path d="M569 170.13L727.868 163.545L758.238 144.191" stroke="white" stroke-width="3" stroke-miterlimit="10" stroke-linecap="round" stroke-linejoin="round"/>
<path d="M657.418 104.829C656.613 104.253 624.234 72.9818 640.984 66.6213C657.735 60.2609 657.418 104.829 657.418 104.829Z" stroke="white" stroke-width="3" stroke-miterlimit="10" stroke-linecap="round" stroke-linejoin="round"/>
<path d="M657.418 104.83C657.418 104.83 654.621 71.185 674.378 74.5727C694.136 77.9603 657.418 104.83 657.418 104.83Z" stroke="white" stroke-width="3" stroke-miterlimit="10" stroke-linecap="round" stroke-linejoin="round"/>
<path d="M657.805 104.677C657.805 104.677 683.67 81.3041 696.992 92.7411C707.623 101.867 657.805 104.677 657.805 104.677Z" stroke="white" stroke-width="3" stroke-miterlimit="10" stroke-linecap="round" stroke-linejoin="round"/>
<path d="M427.371 130.301L432.755 264.996H570.131L565.809 127.128L427.371 130.301Z" fill="#4BB4AD"/>
<path d="M458.687 107.194L427.371 130.3L565.809 127.127L589.271 101.104L458.687 107.194Z" fill="#258A86"/>
<path d="M498.752 264.997L492.045 128.819L522.238 104.231" stroke="white" stroke-width="3" stroke-miterlimit="10" stroke-linecap="round" stroke-linejoin="round"/>
<path d="M445.286 117.084L578.388 113.177" stroke="white" stroke-width="3" stroke-miterlimit="10" stroke-linecap="round" stroke-linejoin="round"/>
<path d="M429.214 176.411L567.25 173.071" stroke="white" stroke-width="3" stroke-miterlimit="10" stroke-linecap="round" stroke-linejoin="round"/>
<path d="M508.322 115.13C508.322 115.13 460.231 97.229 477.21 81.172C494.189 65.115 508.322 115.13 508.322 115.13Z" stroke="white" stroke-width="3" stroke-miterlimit="10" stroke-linecap="round" stroke-linejoin="round"/>
<path d="M488.632 217.933C480.606 215.165 467.331 201.046 468.566 187.203C470.126 169.711 481.84 167.548 486.162 168.655C490.484 169.762 491.675 174.996 484.001 173.071C476.328 171.147 461.766 160.903 465.479 145.123C469.191 129.343 483.233 125.289 489.588 125.467C495.942 125.646 498.511 135.434 488.323 134.326C478.136 133.219 463.009 110.241 482.107 101.105C501.209 91.9672 508.322 115.13 508.322 115.13" stroke="white" stroke-width="3" stroke-miterlimit="10" stroke-linecap="round" stroke-linejoin="round"/>
<path d="M508.322 115.162C508.322 115.162 508.939 82.1368 524.683 87.6737C540.427 93.2105 508.322 115.162 508.322 115.162Z" stroke="white" stroke-width="3" stroke-miterlimit="10" stroke-linecap="round" stroke-linejoin="round"/>
<path d="M28.248 125.68H151.638L154.562 264.884H30.8796L28.248 125.68Z" fill="#E1283A"/>
<path d="M180 264.884L174.737 112.82L42.8677 115.626L28.248 125.68H151.638L154.562 264.884H180Z" fill="#FE434C"/>
<path d="M86.967 260.822L89.0138 121.618L103.78 110.261" stroke="white" stroke-width="3" stroke-miterlimit="10" stroke-linecap="round" stroke-linejoin="round"/>
<path d="M35.7832 116.199L164.743 114.37L167.349 259.365" stroke="white" stroke-width="3" stroke-miterlimit="10" stroke-linecap="round" stroke-linejoin="round"/>
<path d="M97.6424 115.451C97.6424 115.451 67.8048 115.68 70.6711 104.629C73.5374 93.578 97.6424 115.451 97.6424 115.451Z" stroke="white" stroke-width="3" stroke-miterlimit="10" stroke-linecap="round" stroke-linejoin="round"/>
<path d="M28.9775 178.432L152.353 172.082L175.938 153.415" stroke="white" stroke-width="3" stroke-miterlimit="10" stroke-linecap="round" stroke-linejoin="round"/>
<path d="M97.6424 115.45C97.0174 114.895 71.8715 84.7339 84.88 78.5993C97.8885 72.4647 97.6424 115.45 97.6424 115.45Z" stroke="white" stroke-width="3" stroke-miterlimit="10" stroke-linecap="round" stroke-linejoin="round"/>
<path d="M97.6424 115.451C97.6424 115.451 95.4703 83.0009 110.814 86.2683C126.157 89.5356 97.6424 115.451 97.6424 115.451Z" stroke="white" stroke-width="3" stroke-miterlimit="10" stroke-linecap="round" stroke-linejoin="round"/>
<path d="M97.9429 115.303C97.9429 115.303 118.029 92.7605 128.375 103.791C136.631 112.593 97.9429 115.303 97.9429 115.303Z" stroke="white" stroke-width="3" stroke-miterlimit="10" stroke-linecap="round" stroke-linejoin="round"/>
<path d="M-76 135.449L-71.8189 265.361H34.8664L31.51 132.389L-76 135.449Z" fill="#4BB4AD"/>
<path d="M-51.6806 113.162L-76 135.448L31.51 132.387L49.7304 107.288L-51.6806 113.162Z" fill="#258A86"/>
<path d="M-62.0876 122.702L41.2788 118.934" stroke="white" stroke-width="3" stroke-miterlimit="10" stroke-linecap="round" stroke-linejoin="round"/>
<path d="M-74.5684 179.922L32.6288 176.701" stroke="white" stroke-width="3" stroke-miterlimit="10" stroke-linecap="round" stroke-linejoin="round"/>
<path d="M-13.1343 120.848C-13.1343 120.848 -12.6548 88.9958 -0.427932 94.336C11.7989 99.6763 -13.1343 120.848 -13.1343 120.848Z" stroke="white" stroke-width="3" stroke-miterlimit="10" stroke-linecap="round" stroke-linejoin="round"/>
</svg>
