<svg width="1920" height="1251" viewBox="0 0 1920 1251" fill="none" xmlns="http://www.w3.org/2000/svg">
<path d="M-79 725.904L100.974 605.738L477.093 376.509L960.674 110L1720.74 631.913L2004 806.809L1924.19 1180H-79V725.904Z" fill="#9AB97F"/>
<rect x="130" y="242" width="183" height="335" fill="#9AB97F"/>
<line x1="61.5" y1="-61.5" x2="1276.72" y2="-61.5" transform="matrix(0.817437 -0.576018 0.697248 0.71683 -59 836.658)" stroke="white" stroke-width="123" stroke-linecap="round"/>
<path d="M1957.56 817.539L947.253 57.9999" stroke="white" stroke-width="123" stroke-linecap="round"/>
<rect x="92" y="185" width="259" height="57" fill="#9AB97F"/>
<path d="M76.794 156.162C79.9471 144.475 91.6727 137.28 103.52 139.761L105.369 140.148C110.128 141.145 115.078 140.673 119.563 138.794L136.597 131.658C140.743 129.921 145.293 129.383 149.73 130.106L216.542 140.991C219.335 141.446 222.187 141.404 224.965 140.866L283.975 129.438C285.478 129.147 287.006 129 288.538 129H332.757C334.677 129 336.59 129.23 338.455 129.686L348.613 132.169C356.68 134.14 363.155 140.143 365.731 148.038L366.763 151.2C368.222 155.672 368.335 160.475 367.087 165.01L366.439 167.366C363.574 177.782 354.102 185 343.299 185H98.9006C89.0524 185 80.3039 178.69 77.1837 169.349C75.7607 165.089 75.624 160.498 76.794 156.162Z" fill="white"/>
<path d="M-15.222 1048.38C-10.6645 1044.75 -4.94112 1042.9 0.880081 1043.17L187.804 1052.1L405.331 1033.54C406.518 1033.44 407.71 1033.43 408.899 1033.51L697.703 1051.94C699.338 1052.04 700.98 1051.98 702.603 1051.75L951.716 1016.4C953.61 1016.14 955.53 1016.09 957.434 1016.28L1226.71 1042.74L1460.76 1082.23C1464.8 1082.91 1468.95 1082.54 1472.82 1081.16L1577.26 1043.88C1579.37 1043.13 1581.58 1042.67 1583.82 1042.53L1726.42 1033.56C1728.25 1033.45 1730.1 1033.55 1731.91 1033.85L1836.78 1051.48C1839.2 1051.89 1841.66 1051.92 1844.09 1051.58L1898.18 1044C1903.96 1043.19 1909.84 1044.52 1914.72 1047.73L1930.11 1057.87C1943.81 1066.91 1944.61 1086.72 1931.68 1096.82L1913.66 1110.91C1909.44 1114.21 1904.24 1116 1898.88 1116H-1.09463C-5.70159 1116 -10.2111 1114.67 -14.0849 1112.18L-30.8763 1101.37C-44.6865 1092.48 -45.6879 1072.66 -32.844 1062.42L-15.222 1048.38Z" fill="white"/>
<path d="M1165.5 727.5C1165.5 824.312 1076.51 904.5 964.5 904.5C852.489 904.5 763.5 824.312 763.5 727.5C763.5 630.688 852.489 550.5 964.5 550.5C1076.51 550.5 1165.5 630.688 1165.5 727.5Z" fill="#0F184E" stroke="white" stroke-width="17"/>
<line x1="967.5" y1="547" x2="967.5" y2="913" stroke="white" stroke-width="23"/>
<line x1="758.106" y1="726.5" x2="1174.09" y2="730.327" stroke="white" stroke-width="23"/>
<rect x="-15" y="1120" width="1943" height="131" fill="#9AB97F"/>
</svg>
