<svg width="1920" height="1516" viewBox="0 0 1920 1516" fill="none" xmlns="http://www.w3.org/2000/svg">
<rect opacity="0.98" x="2" width="1938" height="1514" fill="#E9FCD8"/>
<path d="M1161.5 1507C1650.55 1507 2047 1449.47 2047 1378.5C2047 1307.53 1650.55 1250 1161.5 1250C672.452 1250 276 1307.53 276 1378.5C276 1449.47 672.452 1507 1161.5 1507Z" fill="#FE434C"/>
<path d="M199.7 1387.14C199.723 1387.17 199.259 1386.79 198.974 1385.94C198.666 1385.1 198.463 1383.84 198.403 1382.24C198.337 1380.65 198.42 1378.72 198.656 1376.53C198.905 1374.34 199.292 1371.88 199.9 1369.24C200.204 1367.92 200.549 1366.55 200.944 1365.14C201.36 1363.74 201.823 1362.29 202.346 1360.82C203.383 1357.86 204.711 1354.81 206.481 1351.78C207.388 1350.28 208.391 1348.78 209.617 1347.36C210.834 1345.94 212.257 1344.57 214.076 1343.49C214.989 1342.96 216.015 1342.51 217.144 1342.27C218.267 1342.03 219.491 1342.01 220.632 1342.25C221.778 1342.49 222.817 1342.96 223.721 1343.53C224.635 1344.12 225.388 1344.77 226.122 1345.51L227.051 1346.49L228.002 1347.56C228.605 1348.28 229.195 1349.02 229.733 1349.8C230.818 1351.35 231.744 1353.07 232.283 1354.95C232.813 1356.84 232.858 1358.92 232.296 1360.79C231.748 1362.68 230.687 1364.28 229.523 1365.63C227.137 1368.33 224.348 1370.23 221.696 1371.91C219.03 1373.57 216.453 1375 214.104 1376.35C211.754 1377.69 209.625 1378.95 207.806 1380.16C205.984 1381.36 204.475 1382.51 203.304 1383.53C202.137 1384.56 201.32 1385.46 200.8 1386.1C200.537 1386.42 200.352 1386.68 200.23 1386.85C200.106 1387.03 200.041 1387.12 200.041 1387.12L199.7 1387.14ZM199.874 1386.6C199.988 1386.41 200.154 1386.15 200.392 1385.81C200.881 1385.12 201.66 1384.14 202.788 1383.01C203.913 1381.88 205.387 1380.62 207.17 1379.3C208.948 1377.98 211.028 1376.59 213.307 1375.12C215.582 1373.64 218.066 1372.07 220.573 1370.31C223.053 1368.54 225.658 1366.6 227.625 1364.14C228.587 1362.92 229.375 1361.57 229.719 1360.13C230.072 1358.7 229.975 1357.2 229.502 1355.74C229.014 1354.28 228.189 1352.87 227.173 1351.55C226.674 1350.89 226.115 1350.25 225.543 1349.62L224.669 1348.72L223.7 1347.79C222.564 1346.74 221.209 1345.91 219.937 1345.72C218.666 1345.52 217.398 1345.92 216.19 1346.73C214.984 1347.54 213.903 1348.69 212.926 1349.93C211.959 1351.18 211.075 1352.52 210.281 1353.9C208.664 1356.65 207.342 1359.49 206.145 1362.22C205.554 1363.59 205.019 1364.94 204.53 1366.26C204.02 1367.58 203.561 1368.86 203.144 1370.1C202.313 1372.59 201.609 1374.89 201.075 1376.95C200.531 1379.01 200.144 1380.82 199.907 1382.32C199.673 1383.82 199.61 1385 199.692 1385.78C199.729 1386.15 199.804 1386.42 199.874 1386.6Z" fill="white"/>
<path d="M198.534 1384.84C198.549 1384.65 198.539 1384.37 198.462 1384C198.307 1383.24 197.89 1382.12 197.216 1380.75C196.539 1379.39 195.624 1377.76 194.486 1375.95C193.355 1374.13 191.991 1372.13 190.45 1369.99C189.679 1368.92 188.854 1367.82 187.971 1366.71C187.107 1365.59 186.188 1364.45 185.211 1363.3C183.247 1361.03 181.127 1358.69 178.756 1356.52C177.584 1355.43 176.336 1354.4 175.034 1353.48C173.729 1352.57 172.346 1351.77 170.951 1351.34C169.551 1350.9 168.218 1350.88 167.065 1351.44C165.903 1351.98 164.857 1353.15 164.085 1354.48L163.438 1355.65L162.876 1356.76C162.517 1357.53 162.173 1358.29 161.895 1359.07C161.32 1360.62 160.956 1362.2 160.927 1363.74C160.913 1365.27 161.27 1366.73 162.039 1368C162.799 1369.27 163.958 1370.34 165.246 1371.24C167.864 1373.03 170.94 1374.14 173.844 1375.14C176.771 1376.11 179.616 1376.9 182.237 1377.67C184.859 1378.43 187.266 1379.17 189.364 1379.93C191.467 1380.68 193.255 1381.47 194.67 1382.23C196.086 1382.99 197.126 1383.71 197.803 1384.23C198.129 1384.48 198.369 1384.69 198.534 1384.84ZM198.531 1385.38C198.531 1385.38 198.442 1385.31 198.271 1385.18C198.101 1385.05 197.847 1384.86 197.499 1384.63C196.81 1384.16 195.756 1383.52 194.332 1382.87C192.905 1382.23 191.116 1381.56 189.013 1380.93C186.911 1380.29 184.498 1379.69 181.845 1379.07C179.193 1378.45 176.299 1377.82 173.249 1376.98C170.209 1376.13 166.97 1375.1 163.878 1373.2C162.357 1372.24 160.862 1371.01 159.772 1369.36C158.671 1367.73 158.09 1365.73 158.03 1363.77C157.977 1361.81 158.348 1359.91 158.92 1358.12C159.198 1357.22 159.543 1356.35 159.903 1355.49L160.49 1354.19L161.085 1352.99C161.564 1352.07 162.089 1351.24 162.787 1350.42C163.481 1349.62 164.331 1348.87 165.356 1348.32C166.375 1347.76 167.55 1347.43 168.7 1347.35C169.852 1347.26 170.968 1347.39 171.999 1347.64C174.063 1348.16 175.836 1349.06 177.427 1350.07C179.025 1351.08 180.437 1352.24 181.755 1353.42C184.357 1355.81 186.545 1358.35 188.424 1360.88C189.367 1362.14 190.244 1363.39 191.064 1364.62C191.865 1365.86 192.606 1367.07 193.294 1368.25C194.669 1370.6 195.777 1372.84 196.672 1374.86C197.557 1376.89 198.214 1378.71 198.631 1380.25C199.051 1381.79 199.238 1383.06 199.196 1383.95C199.179 1384.85 198.848 1385.34 198.863 1385.31L198.531 1385.38Z" fill="white"/>
<path d="M138.758 1513.15C178.626 1515.54 218.606 1515.55 258.474 1513.18C255.705 1469.28 252.934 1425.38 250.164 1381.49C215.851 1383.53 181.44 1383.53 147.128 1381.47C144.339 1425.36 141.549 1469.25 138.758 1513.15Z" fill="#FFD54F"/>
<path d="M342.133 1393.26C342.173 1393.33 341.505 1392.71 341.444 1391.62C341.328 1390.52 341.557 1388.99 342.123 1387.14C342.678 1385.28 343.59 1383.11 344.818 1380.69C346.078 1378.29 347.612 1375.62 349.575 1372.85C351.501 1370.06 353.81 1367.14 356.52 1364.2C359.218 1361.24 362.371 1358.29 366.156 1355.58C368.061 1354.23 370.119 1352.95 372.429 1351.83C374.731 1350.72 377.286 1349.75 380.188 1349.22C383.052 1348.7 386.465 1348.73 389.476 1349.87C390.973 1350.42 392.297 1351.22 393.418 1352.11C394.528 1352.96 395.493 1354.08 396.158 1354.86C397.76 1356.73 399.128 1358.69 400.124 1360.96C401.091 1363.2 401.526 1365.89 400.671 1368.41C399.838 1370.94 397.916 1372.94 395.907 1374.41C393.867 1375.88 391.681 1376.98 389.509 1377.91C385.148 1379.75 380.825 1381.04 376.718 1382.14C372.611 1383.24 368.726 1384.19 365.168 1385.11C358.039 1386.92 352.253 1388.72 348.408 1390.34C346.485 1391.15 345.051 1391.9 344.108 1392.45C343.631 1392.72 343.282 1392.95 343.049 1393.1C342.813 1393.25 342.691 1393.33 342.691 1393.33L342.133 1393.26ZM342.653 1392.52C342.874 1392.35 343.174 1392.12 343.57 1391.85C344.487 1391.22 345.888 1390.35 347.777 1389.38C351.538 1387.42 357.319 1385.28 364.313 1383.03C367.807 1381.9 371.602 1380.72 375.546 1379.4C379.469 1378.05 383.615 1376.64 387.477 1374.76C389.4 1373.82 391.243 1372.75 392.768 1371.52C394.281 1370.28 395.402 1368.85 395.775 1367.36C396.608 1364.38 394.351 1360.83 391.524 1357.89C388.71 1354.7 385.617 1353.88 381.818 1354.84C378.068 1355.82 374.438 1358.14 371.169 1360.51C367.869 1362.92 364.861 1365.55 362.063 1368.11C359.285 1370.69 356.792 1373.26 354.538 1375.67C352.325 1378.11 350.313 1380.38 348.669 1382.46C346.996 1384.53 345.643 1386.39 344.631 1387.95C343.628 1389.52 342.987 1390.8 342.752 1391.67C342.65 1392.06 342.639 1392.33 342.653 1392.52Z" fill="#E8EAF6"/>
<path d="M339.914 1389.82C339.869 1389.63 339.78 1389.37 339.567 1389.02C339.08 1388.23 338.077 1387.12 336.64 1385.82C335.194 1384.52 333.33 1383 331.095 1381.35C328.883 1379.69 326.262 1377.92 323.393 1376.02C320.492 1374.16 317.312 1372.2 313.856 1370.29C310.387 1368.4 306.691 1366.49 302.781 1364.86C298.91 1363.26 294.705 1361.77 290.783 1361.62C286.819 1361.49 284.07 1362.94 282.296 1366.62C280.434 1370.07 279.304 1373.98 280.996 1376.68C281.801 1378.06 283.311 1379.19 285.147 1380.08C286.991 1380.95 289.094 1381.6 291.233 1382.1C295.532 1383.1 299.964 1383.59 304.162 1384.06C308.373 1384.51 312.399 1384.85 316.119 1385.21C323.558 1385.91 329.792 1386.76 334.016 1387.87C336.132 1388.4 337.749 1388.95 338.824 1389.37C339.292 1389.54 339.65 1389.7 339.914 1389.82ZM340.12 1390.61C340.12 1390.61 339.979 1390.56 339.706 1390.46C339.434 1390.37 339.029 1390.22 338.487 1390.06C337.409 1389.73 335.798 1389.3 333.695 1388.93C329.49 1388.17 323.352 1387.64 315.914 1387.41C312.196 1387.27 308.152 1387.17 303.849 1386.97C299.544 1386.76 294.978 1386.44 290.209 1385.58C287.827 1385.13 285.386 1384.53 282.971 1383.54C280.59 1382.54 278.135 1381.01 276.576 1378.74C274.994 1376.47 274.617 1373.78 274.886 1371.41C275.174 1369 275.915 1366.82 276.908 1364.66C277.323 1363.77 277.923 1362.48 278.742 1361.42C279.563 1360.32 280.61 1359.28 281.895 1358.42C284.468 1356.68 287.763 1355.93 290.693 1355.83C293.66 1355.73 296.417 1356.13 298.98 1356.72C301.547 1357.31 303.923 1358.12 306.168 1359.02C310.639 1360.85 314.568 1363.04 318.061 1365.33C321.561 1367.61 324.666 1369.94 327.361 1372.24C330.086 1374.51 332.366 1376.77 334.3 1378.82C336.208 1380.9 337.736 1382.81 338.826 1384.49C339.924 1386.17 340.603 1387.6 340.817 1388.69C341.084 1389.76 340.622 1390.5 340.639 1390.43L340.12 1390.61Z" fill="#E8EAF6"/>
<path d="M431.608 1511.6C377.76 1510.23 323.503 1511.03 269.003 1514.06C267.379 1488.91 265.389 1417.5 264.159 1392.31C321.012 1389.19 377.629 1388.39 433.838 1389.84C432.708 1415.02 432.337 1486.43 431.608 1511.6Z" fill="#FFAF99"/>
<path d="M1364 1237.23C1377.48 1237.23 1388.41 1228.89 1388.41 1218.59C1388.41 1208.3 1377.48 1199.95 1364 1199.95C1350.52 1199.95 1339.59 1208.3 1339.59 1218.59C1339.59 1228.89 1350.52 1237.23 1364 1237.23Z" fill="#80442D"/>
<path d="M1412.82 1237.23C1426.3 1237.23 1437.23 1228.89 1437.23 1218.59C1437.23 1208.3 1426.3 1199.95 1412.82 1199.95C1399.34 1199.95 1388.41 1208.3 1388.41 1218.59C1388.41 1228.89 1399.34 1237.23 1412.82 1237.23Z" fill="#80442D"/>
<path d="M1388.41 1203.99C1401.89 1203.99 1412.82 1195.65 1412.82 1185.35C1412.82 1175.05 1401.89 1166.71 1388.41 1166.71C1374.93 1166.71 1364 1175.05 1364 1185.35C1364 1195.65 1374.93 1203.99 1388.41 1203.99Z" fill="#80442D"/>
<path d="M1364 1169.79C1377.48 1169.79 1388.41 1161.44 1388.41 1151.15C1388.41 1140.85 1377.48 1132.5 1364 1132.5C1350.52 1132.5 1339.59 1140.85 1339.59 1151.15C1339.59 1161.44 1350.52 1169.79 1364 1169.79Z" fill="#80442D"/>
<path d="M1437.23 1203.99C1450.72 1203.99 1461.64 1195.65 1461.64 1185.35C1461.64 1175.05 1450.72 1166.71 1437.23 1166.71C1423.75 1166.71 1412.82 1175.05 1412.82 1185.35C1412.82 1195.65 1423.75 1203.99 1437.23 1203.99Z" fill="#80442D"/>
<path d="M1461.64 1238.99C1475.13 1238.99 1486.06 1230.65 1486.06 1220.35C1486.06 1210.05 1475.13 1201.71 1461.64 1201.71C1448.16 1201.71 1437.23 1210.05 1437.23 1220.35C1437.23 1230.65 1448.16 1238.99 1461.64 1238.99Z" fill="#80442D"/>
<path d="M1388.41 1135.97C1401.89 1135.97 1412.82 1127.62 1412.82 1117.32C1412.82 1107.03 1401.89 1098.68 1388.41 1098.68C1374.93 1098.68 1364 1107.03 1364 1117.32C1364 1127.62 1374.93 1135.97 1388.41 1135.97Z" fill="#80442D"/>
<path d="M1412.82 1169.79C1426.3 1169.79 1437.23 1161.44 1437.23 1151.15C1437.23 1140.85 1426.3 1132.5 1412.82 1132.5C1399.34 1132.5 1388.41 1140.85 1388.41 1151.15C1388.41 1161.44 1399.34 1169.79 1412.82 1169.79Z" fill="#80442D"/>
<path d="M601.217 1375.11C601.217 1375.11 635.97 1296.94 646.387 1284.43C656.805 1271.93 680.149 1278.27 675.345 1291.94C670.541 1305.62 673.248 1315.34 682.23 1316.68C700.617 1319.42 723.242 1258.15 665.53 1249.86C607.819 1241.56 574.866 1374.52 574.866 1374.52L601.217 1375.11Z" fill="white"/>
<path d="M601.217 1375.11L574.866 1374.51C574.866 1374.51 578.009 1361.84 584.051 1344.56C589.92 1347.66 598.688 1353.4 606.669 1363.01C603.331 1370.36 601.217 1375.11 601.217 1375.11Z" fill="#FE434C"/>
<path d="M627.032 1265.82C635.038 1257.75 643.898 1252.01 653.567 1250.14C658.549 1257.41 660.329 1266.76 659.537 1277.8C654.731 1278.22 649.847 1280.28 646.387 1284.43C644.877 1286.25 642.853 1289.44 640.501 1293.58C638.286 1282.65 633.891 1273.33 627.032 1265.82Z" fill="#FE434C"/>
<path d="M628.902 1315.81C625.161 1323.37 621.301 1331.45 617.693 1339.14C612.502 1328.96 605.42 1320.7 595.784 1315.03C599.404 1307.02 603.474 1298.95 607.978 1291.34C616.071 1298.16 623.303 1306.01 628.902 1315.81Z" fill="#FE434C"/>
<path d="M686.337 1256.77C694.006 1261.42 698.527 1267.71 700.742 1274.49C693.969 1283.39 685.497 1288.01 675.878 1289.74C676.363 1286.31 674.998 1283.45 672.564 1281.38C679.641 1274.3 684.159 1266.06 686.337 1256.77Z" fill="#FE434C"/>
<path d="M682.23 1316.67C677.857 1316.02 674.985 1313.37 673.729 1309.26C682.618 1308.67 691.036 1306.36 698.962 1302.25C695.032 1311.31 688.395 1317.59 682.23 1316.67Z" fill="#FE434C"/>
<path d="M565.472 1366.32H724.358L728.123 1510.65H568.86L565.472 1366.32Z" fill="#E1283A"/>
<path d="M760.88 1510.65L754.102 1352.99L584.297 1355.9L565.472 1366.32H724.358L728.123 1510.65H760.88Z" fill="#FE434C"/>
<path d="M643.672 1504.55L646.307 1360.22L665.321 1348.45" stroke="white" stroke-width="3" stroke-miterlimit="10" stroke-linecap="round" stroke-linejoin="round"/>
<path d="M577.763 1354.61L743.823 1352.71L747.178 1503.04" stroke="white" stroke-width="3" stroke-miterlimit="10" stroke-linecap="round" stroke-linejoin="round"/>
<path d="M657.418 1353.83C657.418 1353.83 618.997 1354.07 622.688 1342.61C626.379 1331.15 657.418 1353.83 657.418 1353.83Z" stroke="white" stroke-width="3" stroke-miterlimit="10" stroke-linecap="round" stroke-linejoin="round"/>
<path d="M569 1419.13L727.868 1412.55L758.238 1393.19" stroke="white" stroke-width="3" stroke-miterlimit="10" stroke-linecap="round" stroke-linejoin="round"/>
<path d="M657.418 1353.83C656.613 1353.25 624.234 1321.98 640.984 1315.62C657.735 1309.26 657.418 1353.83 657.418 1353.83Z" stroke="white" stroke-width="3" stroke-miterlimit="10" stroke-linecap="round" stroke-linejoin="round"/>
<path d="M657.418 1353.83C657.418 1353.83 654.621 1320.19 674.378 1323.57C694.136 1326.96 657.418 1353.83 657.418 1353.83Z" stroke="white" stroke-width="3" stroke-miterlimit="10" stroke-linecap="round" stroke-linejoin="round"/>
<path d="M657.805 1353.68C657.805 1353.68 683.67 1330.3 696.992 1341.74C707.623 1350.87 657.805 1353.68 657.805 1353.68Z" stroke="white" stroke-width="3" stroke-miterlimit="10" stroke-linecap="round" stroke-linejoin="round"/>
<path d="M427.371 1379.3L432.755 1514H570.131L565.809 1376.13L427.371 1379.3Z" fill="#4BB4AD"/>
<path d="M458.687 1356.19L427.371 1379.3L565.809 1376.13L589.271 1350.1L458.687 1356.19Z" fill="#258A86"/>
<path d="M498.752 1514L492.045 1377.82L522.238 1353.23" stroke="white" stroke-width="3" stroke-miterlimit="10" stroke-linecap="round" stroke-linejoin="round"/>
<path d="M445.286 1366.08L578.388 1362.18" stroke="white" stroke-width="3" stroke-miterlimit="10" stroke-linecap="round" stroke-linejoin="round"/>
<path d="M429.214 1425.41L567.25 1422.07" stroke="white" stroke-width="3" stroke-miterlimit="10" stroke-linecap="round" stroke-linejoin="round"/>
<path d="M508.322 1364.13C508.322 1364.13 460.231 1346.23 477.21 1330.17C494.189 1314.12 508.322 1364.13 508.322 1364.13Z" stroke="white" stroke-width="3" stroke-miterlimit="10" stroke-linecap="round" stroke-linejoin="round"/>
<path d="M488.632 1466.93C480.606 1464.16 467.331 1450.05 468.566 1436.2C470.126 1418.71 481.84 1416.55 486.162 1417.65C490.484 1418.76 491.675 1424 484.001 1422.07C476.328 1420.15 461.766 1409.9 465.479 1394.12C469.191 1378.34 483.233 1374.29 489.588 1374.47C495.942 1374.65 498.511 1384.43 488.323 1383.33C478.136 1382.22 463.009 1359.24 482.107 1350.1C501.209 1340.97 508.322 1364.13 508.322 1364.13" stroke="white" stroke-width="3" stroke-miterlimit="10" stroke-linecap="round" stroke-linejoin="round"/>
<path d="M508.322 1364.16C508.322 1364.16 508.939 1331.14 524.683 1336.67C540.427 1342.21 508.322 1364.16 508.322 1364.16Z" stroke="white" stroke-width="3" stroke-miterlimit="10" stroke-linecap="round" stroke-linejoin="round"/>
<path d="M28.248 1374.68H151.638L154.562 1513.88H30.8796L28.248 1374.68Z" fill="#E1283A"/>
<path d="M180 1513.88L174.737 1361.82L42.8677 1364.63L28.248 1374.68H151.638L154.562 1513.88H180Z" fill="#FE434C"/>
<path d="M86.967 1509.82L89.0138 1370.62L103.78 1359.26" stroke="white" stroke-width="3" stroke-miterlimit="10" stroke-linecap="round" stroke-linejoin="round"/>
<path d="M35.7832 1365.2L164.743 1363.37L167.349 1508.37" stroke="white" stroke-width="3" stroke-miterlimit="10" stroke-linecap="round" stroke-linejoin="round"/>
<path d="M97.6424 1364.45C97.6424 1364.45 67.8048 1364.68 70.6711 1353.63C73.5374 1342.58 97.6424 1364.45 97.6424 1364.45Z" stroke="white" stroke-width="3" stroke-miterlimit="10" stroke-linecap="round" stroke-linejoin="round"/>
<path d="M28.9775 1427.43L152.353 1421.08L175.938 1402.42" stroke="white" stroke-width="3" stroke-miterlimit="10" stroke-linecap="round" stroke-linejoin="round"/>
<path d="M97.6424 1364.45C97.0174 1363.89 71.8715 1333.73 84.88 1327.6C97.8885 1321.46 97.6424 1364.45 97.6424 1364.45Z" stroke="white" stroke-width="3" stroke-miterlimit="10" stroke-linecap="round" stroke-linejoin="round"/>
<path d="M97.6424 1364.45C97.6424 1364.45 95.4703 1332 110.814 1335.27C126.157 1338.54 97.6424 1364.45 97.6424 1364.45Z" stroke="white" stroke-width="3" stroke-miterlimit="10" stroke-linecap="round" stroke-linejoin="round"/>
<path d="M97.9429 1364.3C97.9429 1364.3 118.029 1341.76 128.375 1352.79C136.631 1361.59 97.9429 1364.3 97.9429 1364.3Z" stroke="white" stroke-width="3" stroke-miterlimit="10" stroke-linecap="round" stroke-linejoin="round"/>
<path d="M-76 1384.45L-71.8189 1514.36H34.8664L31.51 1381.39L-76 1384.45Z" fill="#4BB4AD"/>
<path d="M-51.6806 1362.16L-76 1384.45L31.51 1381.39L49.7304 1356.29L-51.6806 1362.16Z" fill="#258A86"/>
<path d="M-62.0876 1371.7L41.2788 1367.93" stroke="white" stroke-width="3" stroke-miterlimit="10" stroke-linecap="round" stroke-linejoin="round"/>
<path d="M-74.5684 1428.92L32.6288 1425.7" stroke="white" stroke-width="3" stroke-miterlimit="10" stroke-linecap="round" stroke-linejoin="round"/>
<path d="M-13.1343 1369.85C-13.1343 1369.85 -12.6548 1338 -0.427932 1343.34C11.7989 1348.68 -13.1343 1369.85 -13.1343 1369.85Z" stroke="white" stroke-width="3" stroke-miterlimit="10" stroke-linecap="round" stroke-linejoin="round"/>
</svg>
