<svg width="216" height="266" viewBox="0 0 216 266" fill="none" xmlns="http://www.w3.org/2000/svg">
<path d="M169.439 229.306C173.384 226.096 209.204 195.828 206.048 146.756C203.05 99.9776 167.072 74.4481 162.339 71.3907C162.023 88.5122 161.55 105.634 161.234 122.755C142.298 108.538 128.097 88.8179 118.629 67.5689C109.161 46.167 104.27 23.2364 102.061 0C78.549 28.2811 66.8721 65.4287 69.8702 101.506C60.4025 91.5696 53.4594 79.4928 49.9879 66.3459C34.9973 86.9835 21.5847 109.15 14.9572 133.609C10.8546 149.049 5.80512 179.012 22.5315 206.987C28.8433 217.535 36.4175 224.72 42.0981 229.306" fill="#FBE099"/>
<path d="M79.324 219.676C62.5977 210.504 49.3428 181.458 59.4417 160.209C64.8068 150.884 72.0654 133.61 71.7498 124.743C77.2727 132.54 83.5845 140.795 89.8963 148.285C89.4229 123.52 104.571 101.965 118.773 82.5508C117.353 104.106 135.815 123.367 134.71 145.075C140.391 137.431 146.861 130.399 153.804 123.826C154.593 132.998 163.903 144.922 170.214 151.954C185.047 171.216 177.315 201.179 150.017 219.523" fill="#FBC143"/>
<path d="M152.115 264.884C152.115 247.916 166.317 234.157 183.832 234.157C201.348 234.157 215.549 247.916 215.549 264.884H152.115Z" fill="#6E4D41"/>
<path d="M183.832 234.31H31.5591V265.037H183.832V234.31Z" fill="#6E4D41"/>
<path d="M0 264.884C0 247.916 14.2016 234.157 31.7169 234.157C49.2323 234.157 63.4339 247.916 63.4339 264.884H0Z" fill="#C79E8F"/>
</svg>
