<svg width="40" height="37" viewBox="0 0 40 37" fill="none" xmlns="http://www.w3.org/2000/svg">
<path d="M35.6105 22.6505C35.1964 22.7659 34.8439 22.9719 34.5356 23.2233L23.1341 18.8058L23.0901 18.233L22.7465 17.4048L30.9319 8.5163C31.3857 8.67289 31.8746 8.72643 32.3856 8.6399C33.8747 8.37205 34.8615 7.02871 34.5884 5.63589C34.302 4.24307 32.8659 3.32823 31.3769 3.59196C29.8878 3.85157 28.9097 5.19494 29.1828 6.58776L29.3106 6.98746L20.9402 16.0738L20.5614 15.9955L18.2793 4.62215C19.1075 4.05761 19.5614 3.09335 19.3675 2.09612C19.0812 0.7033 17.645 -0.215622 16.1559 0.0439873C14.6669 0.299473 13.6801 1.64697 13.962 3.03567C14.1691 4.04525 14.962 4.78286 15.9401 5.03423L18.2309 16.4282L17.7992 16.7372L5.48587 11.953L5.39326 11.2236C4.97915 9.85553 3.45487 9.06432 2.00107 9.45167C0.538448 9.84727 -0.311831 11.2607 0.10669 12.6329C0.520805 13.9928 2.04519 14.7799 3.49899 14.3925L4.49023 13.9104L16.7947 18.674L16.8256 19.3333L17.1735 20.1575L8.77234 29.2849L7.72378 29.2767C6.23473 29.5322 5.2435 30.8756 5.52986 32.2601C5.81181 33.6612 7.2436 34.5801 8.72824 34.3205C10.2173 34.0568 11.1997 32.7217 10.9266 31.3206L10.6138 30.5624L18.9798 21.4843L19.2618 21.5626L21.4116 32.3096C20.5878 32.8741 20.1297 33.8384 20.3367 34.8356C20.6143 36.2284 22.0505 37.1474 23.5395 36.8878C25.0286 36.624 26.0066 35.2889 25.7334 33.8961C25.5264 32.8906 24.7334 32.1406 23.7466 31.8893L21.601 21.1877L22.187 20.7673L33.6324 25.2013L33.7249 25.8317C34.139 27.1916 35.6633 27.9786 37.1171 27.5913C38.5709 27.1998 39.4212 25.7823 39.0115 24.4224C38.5886 23.0544 37.0731 22.2714 35.6105 22.6505Z" fill="white"/>
</svg>
