<svg width="119" height="107" viewBox="0 0 119 107" fill="none" xmlns="http://www.w3.org/2000/svg">
<path d="M17.2046 42.6133L101.658 64.1009" stroke="white" stroke-width="2" stroke-miterlimit="10" stroke-linecap="round" stroke-linejoin="round"/>
<path d="M13.0699 35.1943L18.0597 43.2998L8.63486 46.686" stroke="white" stroke-width="2" stroke-miterlimit="10" stroke-linecap="round" stroke-linejoin="round"/>
<path d="M106.784 71.6895L101.214 63.8804L110.329 59.911" stroke="white" stroke-width="2" stroke-miterlimit="10" stroke-linecap="round" stroke-linejoin="round"/>
<path d="M24.437 33.814L32.8053 47.4077L16.9991 53.0867" stroke="white" stroke-width="2" stroke-miterlimit="10" stroke-linecap="round" stroke-linejoin="round"/>
<path d="M94.2527 72.7922L84.9112 59.6966L100.196 53.04" stroke="white" stroke-width="2" stroke-miterlimit="10" stroke-linecap="round" stroke-linejoin="round"/>
<path d="M29.9875 80.6041L89.0118 26.1435" stroke="white" stroke-width="2" stroke-miterlimit="10" stroke-linecap="round" stroke-linejoin="round"/>
<path d="M20.9872 79.7987L31.0353 80.3085L29.9997 89.5404" stroke="white" stroke-width="2" stroke-miterlimit="10" stroke-linecap="round" stroke-linejoin="round"/>
<path d="M98.6252 26.264L88.5976 26.3709L88.9326 17.064" stroke="white" stroke-width="2" stroke-miterlimit="10" stroke-linecap="round" stroke-linejoin="round"/>
<path d="M24.8314 70.1386L41.6829 70.9937L39.946 86.4762" stroke="white" stroke-width="2" stroke-miterlimit="10" stroke-linecap="round" stroke-linejoin="round"/>
<path d="M93.9866 36.6851L77.1707 36.8643L77.7324 21.2568" stroke="white" stroke-width="2" stroke-miterlimit="10" stroke-linecap="round" stroke-linejoin="round"/>
<path d="M72.6243 91.4522L47.1956 15.5039" stroke="white" stroke-width="2" stroke-miterlimit="10" stroke-linecap="round" stroke-linejoin="round"/>
<path d="M80.9064 95.044L71.848 90.6924L68.2923 99.2831" stroke="white" stroke-width="2" stroke-miterlimit="10" stroke-linecap="round" stroke-linejoin="round"/>
<path d="M38.7061 11.0181L47.4484 15.9005L51.6549 7.57868" stroke="white" stroke-width="2" stroke-miterlimit="10" stroke-linecap="round" stroke-linejoin="round"/>
<path d="M82.2063 84.7366L67.0146 77.4388L61.0514 91.846" stroke="white" stroke-width="2" stroke-miterlimit="10" stroke-linecap="round" stroke-linejoin="round"/>
<path d="M37.7353 22.3728L52.3957 30.5606L59.4499 16.6052" stroke="white" stroke-width="2" stroke-miterlimit="10" stroke-linecap="round" stroke-linejoin="round"/>
<path d="M73.39 56.9081C75.1518 50.0691 70.3613 42.9427 62.6901 40.9909C55.0189 39.0391 47.3719 43.001 45.61 49.84C43.8482 56.679 48.6387 63.8054 56.3099 65.7572C63.9811 67.709 71.6281 63.7472 73.39 56.9081Z" stroke="white" stroke-width="2" stroke-miterlimit="10" stroke-linecap="round" stroke-linejoin="round"/>
</svg>
