<svg width="470" height="343" viewBox="0 0 470 343" fill="none" xmlns="http://www.w3.org/2000/svg">
<path d="M149.962 0.046875C126.946 39.6429 103.993 79.2964 80.9761 118.892H105.709L44.6073 211.857L96.6808 214.612L42.6998 316.012C69.2771 322.783 103.929 329.211 144.749 330.473C200.065 332.252 245.908 324.046 277.826 315.897L221.492 216.62L263.647 213.751L200.574 115.621C209.857 115.277 219.14 114.933 228.423 114.531C202.29 76.4271 176.158 38.2083 149.962 0.046875Z" fill="#126C0F"/>
<path d="M354.962 108.997C357.849 106.472 357.849 102.378 354.962 99.8529C352.074 97.3278 347.393 97.3279 344.505 99.8529C341.618 102.378 341.618 106.472 344.505 108.997C347.393 111.522 352.074 111.522 354.962 108.997Z" fill="white"/>
<path d="M387.546 311.553C377.744 308.145 371.736 311.553 371.736 311.553C371.736 311.553 370.471 306.112 364.242 304.834C364.242 304.834 364.241 304.834 364.241 304.834C382.956 292.125 394.7 273.821 394.7 253.474C394.7 226.812 374.534 203.661 344.943 192.006C351.59 185.585 355.553 177.544 355.553 168.81C355.553 154.631 345.126 142.273 329.678 135.731C335.962 131.182 339.871 124.824 339.871 117.783C339.871 114.971 339.239 112.271 338.091 109.748C338.094 109.75 338.097 109.751 338.1 109.752C339.849 109.302 340.61 102.333 337.368 98.6145C332.301 92.8032 287.972 89.1292 280.686 94.1155C276.79 96.7818 275.594 102.441 277.322 105.012C277.324 105.011 277.326 105.011 277.328 105.01C274.343 108.75 272.623 113.116 272.623 117.783C272.623 124.356 276.029 130.334 281.593 134.802C264.871 141.051 253.387 153.928 253.387 168.81C253.387 176.798 256.7 184.207 262.35 190.327C230.291 201.329 208.036 225.464 208.036 253.474C208.036 275.544 221.855 295.209 243.398 307.939C243.397 307.939 243.395 307.94 243.394 307.94C230.465 309.767 232.246 321.04 232.246 321.04C232.246 321.04 227.233 318.002 220.864 319.108C214.494 320.214 211.28 322.971 211.28 322.971C216.766 337.996 384.713 336.641 398.297 321.597C398.297 321.597 397.348 314.961 387.546 311.553Z" fill="white"/>
<path d="M339.224 72.8766C333.386 67.1999 306.549 70.9194 301.208 72.5142C295.867 74.1091 288.053 89.0912 287.535 90.7217L336.842 98.0334L338.81 90.5405L348.754 99.0555C348.754 99.0555 345.063 78.5533 339.224 72.8766Z" fill="#FE434C"/>
<path d="M288.527 158.121C290.495 158.121 292.09 156.726 292.09 155.005C292.09 153.284 290.495 151.889 288.527 151.889C286.559 151.889 284.963 153.284 284.963 155.005C284.963 156.726 286.559 158.121 288.527 158.121Z" fill="#303E4E"/>
<path d="M286.194 181.018C288.162 181.018 289.757 179.623 289.757 177.902C289.757 176.181 288.162 174.786 286.194 174.786C284.226 174.786 282.63 176.181 282.63 177.902C282.63 179.623 284.226 181.018 286.194 181.018Z" fill="#303E4E"/>
<path d="M272.116 218.861C274.083 218.861 275.679 217.465 275.679 215.744C275.679 214.024 274.083 212.628 272.116 212.628C270.148 212.628 268.552 214.024 268.552 215.744C268.552 217.465 270.148 218.861 272.116 218.861Z" fill="#303E4E"/>
<path d="M262.684 251.3C264.652 251.3 266.248 249.905 266.248 248.184C266.248 246.463 264.652 245.068 262.684 245.068C260.717 245.068 259.121 246.463 259.121 248.184C259.121 249.905 260.717 251.3 262.684 251.3Z" fill="#303E4E"/>
<path d="M268.552 289.625C270.52 289.625 272.115 288.23 272.115 286.509C272.115 284.788 270.52 283.393 268.552 283.393C266.584 283.393 264.988 284.788 264.988 286.509C264.988 288.23 266.584 289.625 268.552 289.625Z" fill="#303E4E"/>
<path d="M259.121 114.931L293.201 108.319C293.201 108.319 296.412 110.875 296.412 114.443C296.412 118.011 293.201 119.189 293.201 119.189L259.121 114.931Z" fill="#EE6A06"/>
<path d="M307.708 107.429C307.926 106.061 307.197 104.841 306.08 104.705C304.963 104.569 303.881 105.568 303.663 106.936C303.445 108.304 304.173 109.523 305.29 109.66C306.407 109.796 307.489 108.797 307.708 107.429Z" fill="#303E4E"/>
<path d="M286.265 106.878C286.483 105.51 285.754 104.29 284.637 104.154C283.52 104.018 282.438 105.016 282.22 106.385C282.002 107.753 282.731 108.972 283.848 109.108C284.965 109.245 286.047 108.246 286.265 106.878Z" fill="#303E4E"/>
<path d="M291.285 125.935C295.535 127.891 300.075 126.184 301.631 123.21" stroke="#303E4E" stroke-width="1.66167" stroke-miterlimit="10" stroke-linecap="round" stroke-linejoin="round"/>
<path d="M303.268 103.48C303.268 103.48 306.286 101.498 309.349 104.325" stroke="#303E4E" stroke-width="1.66167" stroke-miterlimit="10" stroke-linecap="round" stroke-linejoin="round"/>
<path d="M281.825 102.914C281.825 102.914 284.621 100.972 287.458 103.741" stroke="#303E4E" stroke-width="1.66167" stroke-miterlimit="10" stroke-linecap="round" stroke-linejoin="round"/>
<path d="M378.54 324.822C378.54 324.822 342.406 304.867 346.239 281.041C350.072 257.215 383.56 268.509 383.56 268.509C383.56 268.509 406.433 228.188 443.101 242.807C479.769 257.426 441.114 285.585 441.114 285.585C441.114 285.585 465.102 284.302 463.481 297.701C461.861 311.099 422.613 336.288 422.613 336.288L378.54 324.822Z" fill="white"/>
<path d="M41.3433 336.58C39.5697 333.328 8.33236 328.287 1.9414 313.07C-4.44954 297.853 17.7111 296.583 17.7111 296.583C17.7111 296.583 -7.26275 276.57 17.5092 267.636C40.8038 259.236 53.7781 278.11 53.7781 278.11C53.7781 278.11 71.7745 267.828 84.5644 281.242C108.162 305.993 68.2979 336.392 68.2979 336.392L41.3433 336.58Z" fill="white"/>
<path d="M273.607 339.083C266.214 337.076 280.234 331.15 290.625 330.595C301.016 330.039 306.216 330.486 306.216 330.486C306.216 330.486 308.392 323.068 322.464 317.972C336.535 312.877 350.677 317.776 350.677 317.776C350.677 317.776 358.758 305.473 380.31 308.223C401.861 310.972 402.678 321.616 402.678 321.616C402.678 321.616 419.738 319.099 428.664 321.435C437.59 323.77 435.403 329.585 435.403 329.585C435.403 329.585 465.084 326.961 468.84 333.218C472.596 339.474 280.999 341.091 273.607 339.083Z" fill="white"/>
<path d="M20.4114 339.883C11.7711 337.838 28.7067 332.102 34.5286 331.832C40.3504 331.563 50.4776 333.723 50.4776 333.723C50.4776 333.723 47.679 317.381 66.5221 315.762C85.3652 314.143 99.7691 331.377 99.7691 331.377C99.7691 331.377 109.451 326.99 119.177 328.782C128.902 330.573 134.649 335.367 134.649 335.367C134.649 335.367 144.354 334.184 151.791 335.619C159.229 337.055 163.236 338.532 158.799 340.405C154.361 342.277 29.5681 342.05 20.4114 339.883Z" fill="white"/>
<path d="M398.324 314.14C395.665 301.496 398.851 281.744 424.33 254.838" stroke="#E6D8D6" stroke-width="1.66167" stroke-miterlimit="10" stroke-linecap="round" stroke-linejoin="round"/>
<path d="M370.475 271.592C370.475 271.592 363.097 298.782 397.654 309.321" stroke="#E6D8D6" stroke-width="1.66167" stroke-miterlimit="10" stroke-linecap="round" stroke-linejoin="round"/>
<path d="M436.086 301.982C436.086 301.982 425.676 313.013 398.148 313.237" stroke="#E6D8D6" stroke-width="1.66167" stroke-miterlimit="10" stroke-linecap="round" stroke-linejoin="round"/>
<path d="M56.8954 316.284C54.79 307.187 49.3663 296.152 36.7362 285.665" stroke="#E6D8D6" stroke-width="1.66167" stroke-miterlimit="10" stroke-linecap="round" stroke-linejoin="round"/>
<path d="M24.9126 306.572C24.9126 306.572 47.1483 305.848 56.8972 316.534" stroke="#E6D8D6" stroke-width="1.66167" stroke-miterlimit="10" stroke-linecap="round" stroke-linejoin="round"/>
<path d="M55.3437 311.007C55.3437 311.007 70.9876 300.693 67.4999 292.154" stroke="#E6D8D6" stroke-width="1.66167" stroke-miterlimit="10" stroke-linecap="round" stroke-linejoin="round"/>
<path d="M273.606 339.083C266.214 337.075 280.233 331.15 290.624 330.594C301.015 330.038 306.216 330.485 306.216 330.485C306.216 330.485 308.391 323.067 322.463 317.972C336.535 312.877 350.676 317.775 350.676 317.775C350.676 317.775 358.758 305.473 380.309 308.222C401.861 310.971 402.677 321.616 402.677 321.616C402.677 321.616 419.737 319.099 428.663 321.434C437.589 323.77 435.402 329.584 435.402 329.584C435.402 329.584 465.084 326.961 468.84 333.217C472.596 339.473 280.998 341.09 273.606 339.083Z" stroke="#E6D8D6" stroke-width="1.66167" stroke-miterlimit="10" stroke-linecap="round" stroke-linejoin="round"/>
<path d="M20.4111 339.881C11.7708 337.836 28.7064 332.101 34.5283 331.831C40.3501 331.561 50.4773 333.722 50.4773 333.722C50.4773 333.722 47.6787 317.379 66.5218 315.76C85.3649 314.141 99.7687 331.376 99.7687 331.376C99.7687 331.376 109.451 326.989 119.176 328.78C128.902 330.572 134.649 335.366 134.649 335.366C134.649 335.366 144.353 334.182 151.791 335.618C159.228 337.054 163.236 338.531 158.798 340.403C154.361 342.276 29.5677 342.049 20.4111 339.881Z" stroke="#E6D8D6" stroke-width="1.66167" stroke-miterlimit="10" stroke-linecap="round" stroke-linejoin="round"/>
</svg>
