<svg width="453" height="556" viewBox="0 0 453 556" fill="none" xmlns="http://www.w3.org/2000/svg">
<path fill-rule="evenodd" clip-rule="evenodd" d="M235.56 95.8623V153.38L199.32 191.724L163.08 153.38L126.84 191.724L90.6 153.38L54.36 191.724L18.12 153.38V95.8623H235.56ZM271.074 528.294L398.639 341.363C450.644 373.093 468.401 443.456 438.413 498.481C408.424 553.506 341.924 572.295 289.919 540.564L270.531 529.349L271.074 528.294ZM126.84 383.448C126.84 389.967 122.31 415.179 108.72 434.351L108.358 435.022L36.24 393.035C22.1064 383.448 18.12 367.631 18.12 354.69V268.414C78.1878 268.414 126.84 319.892 126.84 383.448Z" fill="#B10202"/>
<path fill-rule="evenodd" clip-rule="evenodd" d="M398.64 341.366L271.075 528.297L270.532 529.352L108.358 435.024L108.72 434.353C122.31 415.18 126.84 389.968 126.84 383.45C126.84 319.893 78.1878 268.415 18.12 268.415V153.381L54.36 191.726L90.6 153.381L126.84 191.726L163.08 153.381L199.32 191.726L235.56 153.381V220.484C235.56 236.014 241.993 245.888 253.68 252.79C262.015 257.679 398.64 341.366 398.64 341.366Z" fill="white"/>
<path fill-rule="evenodd" clip-rule="evenodd" d="M253.68 19.1724V76.6896C253.68 87.2345 245.526 95.8621 235.56 95.8621H18.12C8.154 95.8621 0 87.2345 0 76.6896V19.1724C0 8.62758 8.154 0 18.12 0H235.56C245.526 0 253.68 8.62758 253.68 19.1724Z" fill="white"/>
</svg>
