<svg width="236" height="236" viewBox="0 0 236 236" fill="none" xmlns="http://www.w3.org/2000/svg">
<path d="M19.315 115.793L89.6488 97.5896L77.5725 26.3696L119.295 86.8356L184.417 55.9032L139.888 111.477L192.206 163.584L122.963 137.468L90.175 200.591L91.9052 128.878L19.315 115.793Z" fill="#A2351A"/>
<path d="M77.5715 26.373L120.302 117.261L89.6479 97.593L77.5715 26.373Z" fill="#F68B25"/>
<path d="M192.207 163.589L117.995 115.396L122.963 137.473L192.207 163.589Z" fill="#EA701F"/>
<path d="M117.995 115.394L19.3153 115.796L91.9055 128.881L117.995 115.394Z" fill="#F68B25"/>
<path d="M90.1753 200.597L117.995 115.396L122.963 137.473L90.1753 200.597Z" fill="#F68B25"/>
<path d="M184.417 55.9048L117.995 115.392L139.888 111.479L184.417 55.9048Z" fill="#A2351A"/>
<path d="M184.419 55.9063L119.296 86.8388L119.004 114.496L184.419 55.9063Z" fill="#F68B25"/>
</svg>
