<svg width="553" height="554" viewBox="0 0 553 554" fill="none" xmlns="http://www.w3.org/2000/svg">
<path d="M375.237 549.032C375.023 551.459 370.527 553.512 364.746 553.512H363.248C357.681 553.512 352.971 551.459 352.757 549.032L328.135 108.801H398.147L375.237 549.032Z" fill="#6E4D41"/>
<path d="M45.0899 524.76C44.4476 527.187 39.5232 528.68 33.9565 527.934L32.4578 527.747C26.8911 527 22.609 524.573 22.8231 522.146L72.4951 83.4092L141.865 91.6239L45.0899 524.76Z" fill="#6E4D41"/>
<path d="M594.693 89.5699C546.734 64.3659 437.542 46.8164 310.792 46.8164C184.043 46.8164 75.0644 64.3659 26.8911 89.5699H0.770508V118.321C0.770508 157.901 139.51 189.826 310.792 189.826C482.075 189.826 620.814 157.714 620.814 118.321V89.5699H594.693Z" fill="#47322A"/>
<path d="M310.792 161.075C482.013 161.075 620.814 129.061 620.814 89.5702C620.814 50.0792 482.013 18.0654 310.792 18.0654C139.572 18.0654 0.770508 50.0792 0.770508 89.5702C0.770508 129.061 139.572 161.075 310.792 161.075Z" fill="#6E4D41"/>
<path d="M55.3788 0.373047C55.3788 0.373047 50.5943 78.2463 101.567 78.722C152.54 79.1977 147.163 0.373047 147.163 0.373047H55.3788Z" fill="#F1AF78"/>
<path d="M62.1325 14.1826C62.1325 14.1826 29.0344 9.69783 33.0501 33.8399C37.0658 57.9819 78.7457 68.615 78.7457 68.615" stroke="#F1AF78" stroke-width="2" stroke-miterlimit="10"/>
<path d="M434.777 140.209H130.671C121.624 140.209 115.187 132.33 117.884 124.529L126.756 99.6447C128.496 94.6522 133.715 91.2979 139.543 91.2979H425.905C431.733 91.2979 436.865 94.6522 438.692 99.6447L447.564 124.529C450.261 132.33 443.824 140.209 434.777 140.209Z" stroke="#126C0F" stroke-width="1.5" stroke-miterlimit="10" stroke-linecap="round" stroke-linejoin="round"/>
<path d="M435.56 131.863H131.454C122.407 131.863 115.97 123.984 118.666 116.183L127.539 91.299C129.279 86.3065 134.498 82.9521 140.326 82.9521H426.688C432.516 82.9521 437.648 86.3065 439.475 91.299L448.347 116.183C451.131 123.906 444.694 131.863 435.56 131.863Z" fill="#126C0F"/>
<path d="M179.818 124.297C202.206 124.297 220.354 112.178 220.354 97.2279C220.354 82.2783 202.206 70.1592 179.818 70.1592C157.431 70.1592 139.282 82.2783 139.282 97.2279C139.282 112.178 157.431 124.297 179.818 124.297Z" fill="#FBE099"/>
<path d="M155.462 75.6192C147.198 84.2781 147.981 89.8947 148.503 91.8449C151.721 104.404 180.166 109.787 199.042 103.624C203.392 102.22 211.047 99.7238 213.482 93.2491C215.57 87.6325 212.525 82.1719 211.482 80.4558C207.741 77.7255 200.086 72.811 188.952 70.9388C172.511 68.0525 159.463 73.669 155.462 75.6192Z" fill="#B0CFF8"/>
<path d="M186.864 82.7959C187.299 82.5619 191.91 80.4557 192.171 76.6333C192.345 73.981 190.257 71.9528 188.256 70.0026C185.473 67.3503 182.428 65.9462 180.427 65.2441C178.862 68.2084 177.122 70.1587 175.73 71.4068C173.903 73.201 172.164 74.2931 171.816 76.3213C171.555 77.8814 172.251 79.2076 172.424 79.5976C174.425 83.342 181.732 85.1362 186.864 82.7959Z" fill="#FD4926"/>
<path d="M282.724 124.297C305.111 124.297 323.26 112.178 323.26 97.2279C323.26 82.2783 305.111 70.1592 282.724 70.1592C260.336 70.1592 242.188 82.2783 242.188 97.2279C242.188 112.178 260.336 124.297 282.724 124.297Z" fill="#FBE099"/>
<path d="M255.497 77.1795C252.365 79.4417 247.233 83.8101 247.755 88.8027C248.625 97.8516 267.501 102.22 276.374 103.39C294.032 105.652 317.084 100.894 319.171 91.2209C319.954 87.6325 317.78 83.8881 314.909 80.8458C311.604 78.3496 301.252 71.0949 285.507 70.2368C270.198 69.3787 259.15 75.0732 255.497 77.1795Z" fill="#B0CFF8"/>
<path d="M274.025 74.9951C274.721 78.6615 279.331 80.7677 282.55 81.2357C286.377 81.8598 291.945 80.9237 292.988 77.9594C293.945 75.3071 290.988 71.0167 285.073 69.1445C284.638 67.8184 284.203 66.5703 283.768 65.2441C277.157 66.2582 273.242 71.0167 274.025 74.9951Z" fill="#FD4926"/>
<path d="M387.195 124.297C409.583 124.297 427.731 112.178 427.731 97.2279C427.731 82.2783 409.583 70.1592 387.195 70.1592C364.808 70.1592 346.659 82.2783 346.659 97.2279C346.659 112.178 364.808 124.297 387.195 124.297Z" fill="#FBE099"/>
<path d="M360.403 76.9462C354.314 80.6125 352.314 85.059 353.357 90.8316C355.271 101.129 375.452 105.029 387.021 105.263C401.113 105.653 421.729 101.129 423.469 91.2997C423.817 89.4275 423.817 85.059 417.119 78.8964C413.553 76.5561 403.549 70.5495 389.022 70.0815C374.495 69.6134 365.101 74.1379 360.403 76.9462Z" fill="#B0CFF8"/>
<path d="M383.977 69.7686C382.585 72.2649 380.498 72.5769 379.715 74.9172C379.367 76.0873 379.28 77.7254 379.976 78.8955C382.324 82.7959 393.372 83.342 396.329 78.8175C398.504 75.4632 395.285 70.8607 394.937 70.3926C391.632 65.7902 385.63 65.2441 384.847 65.2441C385.021 67.3504 384.499 68.8325 383.977 69.7686Z" fill="#FD4926"/>
</svg>
