<svg width="61" height="1475" viewBox="0 0 61 1475" fill="none" xmlns="http://www.w3.org/2000/svg">
<path d="M0 201.004C0 239.637 61 239.694 61 201.004C61 162.36 0 162.304 0 201.004Z" fill="white"/>
<path d="M0 531.004C0 569.637 61 569.694 61 531.004C61 492.36 0 492.304 0 531.004Z" fill="white"/>
<path d="M0 284.004C0 322.637 61 322.694 61 284.004C61 245.36 0 245.304 0 284.004Z" fill="white"/>
<path d="M0 367.004C0 405.637 61 405.694 61 367.004C61 328.36 0 328.304 0 367.004Z" fill="white"/>
<path d="M0 450.004C0 488.637 61 488.694 61 450.004C61 411.36 0 411.304 0 450.004Z" fill="#FFF000"/>
<path d="M0 112.004C0 150.637 61 150.694 61 112.004C61 73.3604 0 73.3039 0 112.004Z" fill="white"/>
<path d="M0 29.0035C0 67.6373 61 67.6937 61 29.0035C61 -9.63962 0 -9.69605 0 29.0035Z" fill="#FFF000"/>
<path d="M0 613.004C0 651.637 61 651.694 61 613.004C61 574.36 0 574.304 0 613.004Z" fill="white"/>
<path d="M0 949.004C0 987.637 61 987.694 61 949.004C61 910.36 0 910.304 0 949.004Z" fill="white"/>
<path d="M0 696.004C0 734.637 61 734.694 61 696.004C61 657.36 0 657.304 0 696.004Z" fill="white"/>
<path d="M0 1279C0 1317.64 61 1317.69 61 1279C61 1240.36 0 1240.3 0 1279Z" fill="white"/>
<path d="M0 1032C0 1070.64 61 1070.69 61 1032C61 993.36 0 993.304 0 1032Z" fill="#FFF000"/>
<path d="M0 1115C0 1153.64 61 1153.69 61 1115C61 1076.36 0 1076.3 0 1115Z" fill="white"/>
<path d="M0 1198C0 1236.64 61 1236.69 61 1198C61 1159.36 0 1159.3 0 1198Z" fill="white"/>
<path d="M0 860.004C0 898.637 61 898.694 61 860.004C61 821.36 0 821.304 0 860.004Z" fill="white"/>
<path d="M0 777.004C0 815.637 61 815.694 61 777.004C61 738.36 0 738.304 0 777.004Z" fill="white"/>
<path d="M0 1362C0 1400.64 61 1400.69 61 1362C61 1323.36 0 1323.3 0 1362Z" fill="white"/>
<path d="M0 1446C0 1484.64 61 1484.69 61 1446C61 1407.36 0 1407.3 0 1446Z" fill="white"/>
</svg>
