<svg width="506" height="635" viewBox="0 0 506 635" fill="none" xmlns="http://www.w3.org/2000/svg">
<path d="M475.682 588.529C475.682 591.562 473.047 594.026 469.805 594.026C466.549 594.026 463.919 591.562 463.919 588.529C463.919 585.489 466.549 583.024 469.805 583.024C473.047 583.024 475.682 585.489 475.682 588.529Z" fill="#FBC760"/>
<path d="M11.7714 588.529C11.7714 591.562 9.13701 594.026 5.88577 594.026C2.64333 594.026 0 591.562 0 588.529C0 585.489 2.64333 583.024 5.88577 583.024C9.13701 583.024 11.7714 585.489 11.7714 588.529Z" fill="#FBC760"/>
<path d="M93.3258 454.613H72.6642C83.2329 420.786 94.2333 382.612 101.916 348.269C104.93 381.631 99.6521 421.788 93.3258 454.613ZM47.4956 400.759V341.709C49.8129 359.799 49.39 380.304 47.4956 400.759Z" fill="#D5F1FC"/>
<path d="M60.4872 619.605C60.4872 628.11 53.1256 635 44.0371 635C34.9618 635 27.5959 628.11 27.5959 619.605V608.347C27.5959 599.838 34.9618 592.947 44.0371 592.947C53.1256 592.947 60.4872 599.838 60.4872 608.347V619.605Z" fill="#260C14"/>
<path d="M253.848 619.605C253.848 628.11 246.482 635 237.398 635C228.31 635 220.944 628.11 220.944 619.605V608.344C220.944 599.838 228.31 592.947 237.398 592.947C246.482 592.947 253.848 599.838 253.848 608.344V619.605" fill="#260C14"/>
<path d="M447.209 619.605C447.209 628.11 439.843 635 430.763 635C421.67 635 414.304 628.11 414.304 619.605V608.344C414.304 599.838 421.67 592.947 430.763 592.947C439.843 592.947 447.209 599.838 447.209 608.344V619.605" fill="#260C14"/>
<path d="M447.209 571.162V478.041C447.209 465.102 439.566 454.614 430.147 454.614H44.6584C35.2262 454.614 27.5959 465.102 27.5959 478.041V571.162H447.209Z" fill="#5F0D29"/>
<path d="M470.377 597.432C470.377 606.246 462.738 613.382 453.306 613.382H21.4855C12.0622 613.382 4.4231 606.246 4.4231 597.432V582.052C4.4231 573.238 12.0622 566.093 21.4855 566.093H453.306C462.738 566.093 470.377 573.238 470.377 582.052V597.432Z" fill="#F14624"/>
<path d="M233.878 588.529C233.878 591.562 231.244 594.026 227.992 594.026C224.75 594.026 222.115 591.562 222.115 588.529C222.115 585.489 224.75 583.024 227.992 583.024C231.244 583.024 233.878 585.489 233.878 588.529Z" fill="#FBC760"/>
<path d="M250.958 588.529C250.958 591.562 248.324 594.026 245.081 594.026C241.83 594.026 239.195 591.562 239.195 588.529C239.195 585.489 241.83 583.024 245.081 583.024C248.324 583.024 250.958 585.489 250.958 588.529Z" fill="#FBC760"/>
<path d="M268.047 588.529C268.047 591.562 265.412 594.026 262.161 594.026C258.914 594.026 256.284 591.562 256.284 588.529C256.284 585.489 258.914 583.024 262.161 583.024C265.412 583.024 268.047 585.489 268.047 588.529Z" fill="#FBC760"/>
<path d="M285.127 588.529C285.127 591.562 282.492 594.026 279.25 594.026C275.994 594.026 273.364 591.562 273.364 588.529C273.364 585.489 275.994 583.024 279.25 583.024C282.492 583.024 285.127 585.489 285.127 588.529Z" fill="#FBC760"/>
<path d="M302.216 588.529C302.216 591.562 299.581 594.026 296.33 594.026C293.083 594.026 290.453 591.562 290.453 588.529C290.453 585.489 293.083 583.024 296.33 583.024C299.581 583.024 302.216 585.489 302.216 588.529Z" fill="#FBC760"/>
<path d="M319.3 588.529C319.3 591.562 316.661 594.026 313.423 594.026C310.172 594.026 307.542 591.562 307.542 588.529C307.542 585.489 310.172 583.024 313.423 583.024C316.661 583.024 319.3 585.489 319.3 588.529Z" fill="#FBC760"/>
<path d="M336.389 588.529C336.389 591.562 333.75 594.026 330.503 594.026C327.252 594.026 324.626 591.562 324.626 588.529C324.626 585.489 327.252 583.024 330.503 583.024C333.75 583.024 336.389 585.489 336.389 588.529Z" fill="#FBC760"/>
<path d="M353.469 588.529C353.469 591.562 350.839 594.026 347.592 594.026C344.341 594.026 341.707 591.562 341.707 588.529C341.707 585.489 344.341 583.024 347.592 583.024C350.839 583.024 353.469 585.489 353.469 588.529Z" fill="#FBC760"/>
<path d="M370.558 588.529C370.558 591.562 367.928 594.026 364.672 594.026C361.43 594.026 358.787 591.562 358.787 588.529C358.787 585.489 361.43 583.024 364.672 583.024C367.928 583.024 370.558 585.489 370.558 588.529Z" fill="#FBC760"/>
<path d="M389.885 588.529C389.885 591.562 387.251 594.026 383.999 594.026C380.757 594.026 378.114 591.562 378.114 588.529C378.114 585.489 380.757 583.024 383.999 583.024C387.251 583.024 389.885 585.489 389.885 588.529Z" fill="#FBC760"/>
<path d="M406.965 588.529C406.965 591.562 404.33 594.026 401.088 594.026C397.845 594.026 395.202 591.562 395.202 588.529C395.202 585.489 397.845 583.024 401.088 583.024C404.33 583.024 406.965 585.489 406.965 588.529Z" fill="#FBC760"/>
<path d="M426.301 588.529C426.301 591.562 423.657 594.026 420.415 594.026C417.159 594.026 414.529 591.562 414.529 588.529C414.529 585.489 417.159 583.024 420.415 583.024C423.657 583.024 426.301 585.489 426.301 588.529Z" fill="#FBC760"/>
<path d="M445.623 588.529C445.623 591.562 442.993 594.026 439.737 594.026C436.495 594.026 433.86 591.562 433.86 588.529C433.86 585.489 436.495 583.024 439.737 583.024C442.993 583.024 445.623 585.489 445.623 588.529Z" fill="#FBC760"/>
<path d="M464.95 588.529C464.95 591.562 462.316 594.026 459.064 594.026C455.822 594.026 453.188 591.562 453.188 588.529C453.188 585.489 455.822 583.024 459.064 583.024C462.316 583.024 464.95 585.489 464.95 588.529Z" fill="#FBC760"/>
<path d="M97.0393 510.953C98.1142 510.953 99.5108 510.301 100.128 509.469L106.256 501.335C106.877 500.522 107.643 500.633 107.969 501.59L111.141 511.08C111.463 512.036 112.573 513.075 113.604 513.376L123.767 516.313C124.789 516.601 124.917 517.327 124.032 517.912L115.366 523.661C114.489 524.246 113.785 525.553 113.793 526.565L113.956 536.505C113.974 537.511 113.278 537.849 112.41 537.247L103.881 531.314C103.013 530.712 101.471 530.485 100.449 530.815L90.3915 534.025C89.365 534.346 88.8143 533.831 89.1491 532.875L92.5501 523.451C92.8938 522.499 92.6515 521.06 92.0083 520.249L85.6291 512.295C84.9771 511.492 85.3384 510.829 86.4133 510.845L97.0393 510.953" fill="#FBC760"/>
<path d="M389.788 510.953C388.713 510.953 387.321 510.301 386.691 509.469L380.576 501.335C379.955 500.522 379.188 500.633 378.862 501.59L375.686 511.08C375.369 512.036 374.258 513.075 373.228 513.376L363.073 516.313C362.042 516.601 361.91 517.327 362.791 517.912L371.452 523.661C372.342 524.246 373.047 525.553 373.029 526.565L372.875 536.505C372.858 537.511 373.554 537.849 374.421 537.247L382.95 531.314C383.818 530.712 385.36 530.485 386.382 530.815L396.44 534.025C397.467 534.346 398.026 533.835 397.674 532.875L394.281 523.451C393.938 522.499 394.189 521.06 394.823 520.249L401.198 512.295C401.854 511.492 401.502 510.829 400.418 510.845L389.788 510.953Z" fill="#FBC760"/>
<path d="M215.609 497.044C218.353 496.583 221.538 494.275 222.684 491.902L234.041 468.577C235.195 466.208 237.209 466.155 238.517 468.446L251.403 491.065C252.712 493.355 256.051 495.481 258.804 495.772L286.039 498.659C288.801 498.96 289.48 500.728 287.55 502.603L268.536 521.059C266.606 522.935 265.483 526.548 266.043 529.1L271.514 554.212C272.074 556.762 270.479 557.911 267.977 556.778L243.341 545.566C240.83 544.433 236.803 544.545 234.385 545.826L210.542 558.452C208.124 559.749 206.454 558.687 206.842 556.104L210.63 530.727C211.014 528.143 209.648 524.599 207.591 522.836L187.387 505.532C185.33 503.781 185.889 501.969 188.634 501.52L215.609 497.044" fill="#FBC760"/>
<path d="M225.574 14.8917C131.037 16.1568 55.7073 93.8291 57.1523 188.545C57.1523 188.545 97.273 47.4293 225.574 14.8917Z" fill="white"/>
<path d="M54.39 523.14C54.39 525.961 51.9362 528.257 48.9096 528.257C45.8786 528.257 43.4248 525.961 43.4248 523.14C43.4248 520.303 45.8786 518.013 48.9096 518.013C51.9362 518.013 54.39 520.303 54.39 523.14Z" fill="#FBC760"/>
<path d="M81.7743 522.059C81.7743 524.885 79.3249 527.176 76.2939 527.176C73.2762 527.176 70.8223 524.885 70.8223 522.059C70.8223 519.235 73.2762 516.932 76.2939 516.932C79.3249 516.932 81.7743 519.235 81.7743 522.059Z" fill="#FBC760"/>
<path d="M135.579 502.41C135.579 505.237 133.12 507.54 130.098 507.54C127.081 507.54 124.618 505.237 124.618 502.41C124.618 499.587 127.081 497.283 130.098 497.283C133.12 497.283 135.579 499.587 135.579 502.41Z" fill="#FBC760"/>
<path d="M174.232 485.613C174.232 488.448 171.779 490.735 168.761 490.735C165.73 490.735 163.276 488.448 163.276 485.613C163.276 482.782 165.73 480.487 168.761 480.487C171.779 480.487 174.232 482.782 174.232 485.613Z" fill="#FBC760"/>
<path d="M217.754 489.319C217.754 492.141 215.309 494.444 212.282 494.444C209.251 494.444 206.798 492.141 206.798 489.319C206.798 486.483 209.251 484.192 212.282 484.192C215.309 484.192 217.754 486.483 217.754 489.319Z" fill="#FBC760"/>
<path d="M295.374 524.295C295.374 527.113 292.921 529.42 289.894 529.42C286.872 529.42 284.414 527.113 284.414 524.295C284.414 521.463 286.872 519.168 289.894 519.168C292.921 519.168 295.374 521.463 295.374 524.295Z" fill="#FBC760"/>
<path d="M327.939 534.539C327.939 537.374 325.49 539.661 322.468 539.661C319.432 539.661 316.987 537.374 316.987 534.539C316.987 531.708 319.432 529.421 322.468 529.421C325.49 529.421 327.939 531.708 327.939 534.539Z" fill="#FBC760"/>
<path d="M419.785 522.059C419.785 524.885 417.331 527.176 414.304 527.176C411.282 527.176 408.824 524.885 408.824 522.059C408.824 519.235 411.282 516.932 414.304 516.932C417.331 516.932 419.785 519.235 419.785 522.059Z" fill="#FBC760"/>
<path d="M362.214 544.789C362.214 547.619 359.76 549.914 356.734 549.914C353.703 549.914 351.249 547.619 351.249 544.789C351.249 541.962 353.703 539.662 356.734 539.662C359.76 539.662 362.214 541.962 362.214 544.789Z" fill="#FBC760"/>
<path d="M427.306 169.448C427.306 169.432 427.306 169.419 427.306 169.403C427.306 169.415 427.306 169.436 427.306 169.448ZM427.306 169.296C427.306 169.279 427.306 169.255 427.306 169.238C427.306 169.255 427.306 169.279 427.306 169.296ZM427.306 169.139C427.306 169.114 427.306 169.102 427.306 169.082C427.306 169.102 427.306 169.119 427.306 169.139ZM427.306 168.979C427.306 168.962 427.306 168.941 427.306 168.925C427.306 168.941 427.306 168.962 427.306 168.979ZM427.306 168.777C427.306 168.76 427.306 168.744 427.306 168.723C427.306 168.744 427.306 168.76 427.306 168.777ZM427.301 168.624C427.301 168.599 427.301 168.587 427.301 168.566C427.301 168.583 427.301 168.608 427.301 168.624ZM427.301 168.459C427.301 168.443 427.301 168.426 427.301 168.41C427.301 168.426 427.301 168.443 427.301 168.459ZM427.301 168.307C427.301 168.29 427.301 168.266 427.301 168.249C427.301 168.266 427.301 168.29 427.301 168.307ZM427.297 168.101C427.297 168.093 427.297 168.088 427.297 168.08C427.297 168.088 427.297 168.093 427.297 168.101ZM427.297 167.944C427.297 167.928 427.297 167.915 427.297 167.899C427.297 167.911 427.297 167.928 427.297 167.944ZM427.297 167.788C427.297 167.771 427.297 167.755 427.297 167.738C427.297 167.751 427.297 167.775 427.297 167.788ZM427.293 167.627C427.293 167.61 427.293 167.598 427.293 167.582C427.293 167.598 427.293 167.61 427.293 167.627ZM427.288 167.268C427.288 167.264 427.288 167.248 427.288 167.24C427.288 167.252 427.288 167.256 427.288 167.268ZM427.288 167.116C427.288 167.095 427.288 167.083 427.288 167.066C427.288 167.083 427.288 167.095 427.288 167.116ZM427.284 166.959C427.284 166.943 427.284 166.922 427.284 166.906C427.284 166.922 427.284 166.943 427.284 166.959ZM427.284 166.794C427.279 166.782 427.279 166.762 427.279 166.753C427.279 166.766 427.279 166.778 427.284 166.794ZM427.279 166.597C427.279 166.588 427.279 166.593 427.279 166.584C427.279 166.588 427.279 166.593 427.279 166.597ZM427.275 166.44C427.275 166.424 427.275 166.42 427.275 166.403C427.275 166.415 427.275 166.428 427.275 166.44ZM427.27 166.279C427.27 166.267 427.27 166.251 427.27 166.238C427.27 166.255 427.27 166.267 427.27 166.279ZM427.27 166.119C427.266 166.106 427.266 166.094 427.266 166.082C427.266 166.094 427.266 166.106 427.27 166.119ZM427.261 165.764C427.261 165.756 427.261 165.76 427.261 165.756C427.261 165.756 427.261 165.76 427.261 165.764ZM427.257 165.612C427.257 165.599 427.257 165.587 427.257 165.575C427.257 165.583 427.257 165.599 427.257 165.612ZM427.253 165.443C427.253 165.435 427.253 165.422 427.253 165.418C427.253 165.426 427.253 165.435 427.253 165.443ZM427.239 164.936C427.239 164.928 427.239 164.92 427.239 164.915C427.239 164.92 427.239 164.928 427.239 164.936ZM427.235 164.775C427.235 164.763 427.235 164.763 427.235 164.751C427.235 164.759 427.235 164.767 427.235 164.775ZM427.226 164.602V164.594C427.226 164.598 427.226 164.598 427.226 164.602ZM427.217 164.264C427.217 164.26 427.217 164.264 427.217 164.26V164.264ZM427.213 164.104C427.213 164.095 427.213 164.095 427.213 164.087C427.213 164.095 427.213 164.095 427.213 164.104ZM427.204 163.939C427.204 163.935 427.204 163.931 427.204 163.926C427.204 163.931 427.204 163.935 427.204 163.939Z" fill="#A1ABDD"/>
<path d="M427.305 449.825H296.674C303.348 431.208 309.397 412.384 314.758 393.375C329.636 340.551 339.059 286.532 345.39 232.27C353.178 165.546 354.364 98.2788 350.526 31.2669C395.423 60.8663 425.27 109.088 427.204 163.927C427.204 163.931 427.204 163.935 427.204 163.939C427.208 163.988 427.208 164.042 427.212 164.087C427.212 164.096 427.212 164.096 427.212 164.104C427.212 164.153 427.217 164.207 427.217 164.26C427.217 164.265 427.217 164.26 427.217 164.265C427.221 164.376 427.226 164.483 427.226 164.594V164.602C427.23 164.648 427.23 164.701 427.235 164.751C427.235 164.763 427.235 164.763 427.235 164.776C427.235 164.825 427.235 164.866 427.239 164.916C427.239 164.92 427.239 164.928 427.239 164.936C427.243 165.093 427.248 165.258 427.252 165.418C427.252 165.423 427.252 165.435 427.252 165.443C427.252 165.488 427.252 165.53 427.257 165.575C427.257 165.587 427.257 165.6 427.257 165.612C427.257 165.657 427.257 165.707 427.261 165.756C427.261 165.76 427.261 165.756 427.261 165.765C427.261 165.872 427.265 165.975 427.265 166.082C427.265 166.094 427.265 166.107 427.27 166.119C427.27 166.16 427.27 166.197 427.27 166.238C427.27 166.251 427.27 166.267 427.27 166.28C427.274 166.321 427.274 166.362 427.274 166.403C427.274 166.42 427.274 166.424 427.274 166.44C427.274 166.49 427.274 166.535 427.279 166.585C427.279 166.593 427.279 166.589 427.279 166.597C427.279 166.651 427.279 166.7 427.279 166.754C427.279 166.762 427.279 166.782 427.283 166.795C427.283 166.832 427.283 166.869 427.283 166.906C427.283 166.922 427.283 166.943 427.283 166.96C427.283 166.997 427.283 167.03 427.287 167.067C427.287 167.083 427.287 167.096 427.287 167.116C427.287 167.157 427.287 167.199 427.287 167.24C427.287 167.248 427.287 167.265 427.287 167.269C427.292 167.368 427.292 167.479 427.292 167.582C427.292 167.598 427.292 167.611 427.292 167.627C427.292 167.664 427.296 167.701 427.296 167.738C427.296 167.755 427.296 167.771 427.296 167.788C427.296 167.825 427.296 167.862 427.296 167.899C427.296 167.916 427.296 167.928 427.296 167.944C427.296 167.99 427.296 168.035 427.296 168.08C427.296 168.089 427.296 168.093 427.296 168.101C427.301 168.155 427.301 168.196 427.301 168.249C427.301 168.266 427.301 168.291 427.301 168.307C427.301 168.34 427.301 168.373 427.301 168.41C427.301 168.427 427.301 168.443 427.301 168.46C427.301 168.497 427.301 168.53 427.301 168.567C427.301 168.587 427.301 168.6 427.301 168.624C427.301 168.657 427.301 168.69 427.305 168.723C427.305 168.744 427.305 168.76 427.305 168.777C427.305 168.826 427.305 168.876 427.305 168.925C427.305 168.942 427.305 168.962 427.305 168.979C427.305 169.012 427.305 169.045 427.305 169.082C427.305 169.102 427.305 169.115 427.305 169.139C427.305 169.172 427.305 169.205 427.305 169.238C427.305 169.255 427.305 169.28 427.305 169.296C427.305 169.333 427.305 169.362 427.305 169.403C427.305 169.42 427.305 169.432 427.305 169.448C427.305 169.502 427.305 169.551 427.305 169.605L427.204 456.938" fill="#5E6F94"/>
<path d="M348.936 483.603L348.125 484.031L339.662 480.739L339.627 480.32L339.367 479.701L345.451 473.098L346.535 473.182C347.645 472.995 348.368 471.991 348.169 470.961C347.953 469.922 346.887 469.246 345.786 469.432C344.676 469.629 343.944 470.623 344.152 471.661L344.248 471.965L338.023 478.716L337.742 478.645L336.045 470.203C336.658 469.786 337.001 469.061 336.847 468.319C336.64 467.281 335.574 466.605 334.473 466.798C333.362 466.993 332.631 467.989 332.838 469.02C332.992 469.77 333.587 470.322 334.31 470.507L336.01 478.975L335.693 479.21L326.53 475.65L326.468 475.114C326.16 474.088 325.032 473.503 323.948 473.8C322.855 474.08 322.234 475.143 322.538 476.157C322.847 477.171 323.983 477.752 325.067 477.464L325.798 477.108L334.944 480.648L334.97 481.131L335.222 481.762L328.975 488.527L328.199 488.519C327.089 488.72 326.358 489.71 326.574 490.748C326.781 491.787 327.838 492.471 328.948 492.281C330.05 492.08 330.79 491.086 330.574 490.048L330.349 489.488L336.57 482.742L336.777 482.8L338.371 490.781C337.768 491.202 337.424 491.919 337.578 492.656C337.786 493.694 338.852 494.378 339.962 494.185C341.072 493.987 341.795 492.994 341.588 491.956C341.433 491.219 340.839 490.661 340.116 490.468L338.517 482.507L338.953 482.201L347.456 485.494L347.535 485.96C347.834 486.974 348.971 487.563 350.055 487.283C351.13 486.982 351.76 485.928 351.456 484.913C351.147 483.908 350.011 483.323 348.936 483.603" fill="white"/>
<path d="M434.222 554.559L433.759 554.797L428.847 552.898L428.83 552.65L428.675 552.296L432.2 548.463L432.83 548.513C433.473 548.41 433.905 547.821 433.777 547.224C433.654 546.622 433.037 546.226 432.398 546.342C431.755 546.453 431.332 547.034 431.455 547.628L431.504 547.805L427.891 551.715L427.737 551.686L426.746 546.791C427.107 546.54 427.305 546.123 427.222 545.695C427.098 545.093 426.481 544.689 425.834 544.812C425.191 544.924 424.768 545.497 424.887 546.098C424.975 546.532 425.318 546.857 425.75 546.96L426.728 551.868L426.547 552.008L421.23 549.947L421.195 549.63C421.014 549.044 420.362 548.698 419.732 548.867C419.107 549.036 418.745 549.654 418.917 550.244C419.098 550.83 419.75 551.163 420.38 550.994L420.807 550.792L426.111 552.835L426.129 553.125L426.274 553.479L422.649 557.415H422.204C421.556 557.521 421.138 558.099 421.248 558.696C421.376 559.296 421.997 559.7 422.635 559.586C423.279 559.465 423.702 558.894 423.578 558.292L423.451 557.962L427.054 554.052L427.178 554.084L428.098 558.717C427.746 558.96 427.547 559.38 427.64 559.803C427.755 560.402 428.371 560.794 429.019 560.682C429.662 560.579 430.085 559.998 429.966 559.396C429.878 558.968 429.534 558.646 429.103 558.535L428.182 553.928L428.433 553.746L433.372 555.643L433.407 555.918C433.587 556.512 434.239 556.85 434.878 556.681C435.504 556.512 435.865 555.902 435.684 555.32C435.504 554.728 434.852 554.39 434.222 554.559" fill="white"/>
<path d="M447.209 478.04C447.209 478.016 447.209 477.99 447.209 477.966C447.209 477.99 447.209 478.016 447.209 478.04ZM447.209 477.953C447.209 477.932 447.209 477.911 447.209 477.892C447.209 477.911 447.209 477.932 447.209 477.953ZM447.209 477.863C447.209 477.847 447.209 477.834 447.209 477.818C447.209 477.829 447.209 477.847 447.209 477.863ZM447.205 477.789C447.205 477.771 447.205 477.755 447.205 477.744C447.205 477.755 447.205 477.771 447.205 477.789ZM447.205 477.697C447.205 477.689 447.205 477.678 447.205 477.668C447.205 477.678 447.205 477.689 447.205 477.697ZM447.205 477.623C447.205 477.615 447.205 477.604 447.205 477.594C447.205 477.604 447.205 477.612 447.205 477.623ZM447.205 477.549C447.205 477.541 447.205 477.528 447.205 477.52C447.205 477.528 447.205 477.541 447.205 477.549ZM447.205 477.475C447.205 477.467 447.205 477.454 447.201 477.446C447.205 477.454 447.205 477.467 447.205 477.475ZM447.201 477.396C447.201 477.388 447.201 477.38 447.201 477.372C447.201 477.38 447.201 477.388 447.201 477.396ZM447.201 477.327C447.201 477.314 447.201 477.306 447.201 477.298C447.201 477.306 447.201 477.314 447.201 477.327ZM447.201 477.245C447.196 477.24 447.196 477.232 447.196 477.224C447.196 477.232 447.196 477.24 447.201 477.245ZM447.196 477.174C447.196 477.166 447.196 477.158 447.196 477.15C447.196 477.158 447.196 477.166 447.196 477.174ZM447.196 477.1C447.196 477.092 447.196 477.084 447.192 477.076C447.196 477.084 447.196 477.092 447.196 477.1ZM447.192 477.026C447.192 477.018 447.192 477.01 447.192 477.002C447.192 477.01 447.192 477.018 447.192 477.026ZM447.192 476.952C447.192 476.944 447.187 476.936 447.187 476.928C447.187 476.936 447.192 476.944 447.192 476.952ZM447.187 476.873C447.187 476.87 447.187 476.862 447.187 476.857C447.187 476.862 447.187 476.87 447.187 476.873ZM447.183 476.799C447.183 476.791 447.183 476.788 447.183 476.783C447.183 476.788 447.183 476.791 447.183 476.799ZM447.183 476.725C447.183 476.722 447.183 476.714 447.183 476.709C447.183 476.717 447.183 476.722 447.183 476.725ZM447.178 476.651C447.178 476.648 447.178 476.643 447.178 476.638C447.178 476.643 447.178 476.648 447.178 476.651ZM447.174 476.574V476.569V476.574ZM447.169 476.498C447.169 476.498 447.169 476.498 447.169 476.495C447.169 476.498 447.169 476.498 447.169 476.498Z" fill="#C6789F"/>
<path d="M237.398 635C228.31 635 220.944 628.111 220.944 619.605V613.382H253.848V619.605C253.848 628.111 246.482 635 237.398 635Z" fill="#200910"/>
<path d="M430.763 635C421.67 635 414.304 628.111 414.304 619.605V613.382H447.209V619.605C447.209 628.111 439.843 635 430.763 635Z" fill="#200910"/>
<path d="M447.209 566.093H245.724C248.451 560.852 251.13 555.59 253.756 550.307L267.976 556.779C268.633 557.077 269.223 557.217 269.73 557.217C271.166 557.217 271.928 556.095 271.514 554.213L266.042 529.101C265.483 526.549 266.606 522.936 268.536 521.061L287.55 502.604C289.48 500.729 288.801 498.961 286.039 498.66L277.915 497.799C283.955 483.546 289.634 469.16 294.925 454.655H430.763C439.508 455.083 446.575 464.524 447.169 476.424C447.169 476.45 447.169 476.474 447.169 476.495C447.169 476.498 447.169 476.498 447.169 476.498C447.174 476.524 447.174 476.545 447.174 476.569V476.574C447.174 476.598 447.178 476.619 447.178 476.638C447.178 476.643 447.178 476.648 447.178 476.651C447.178 476.672 447.178 476.693 447.183 476.709C447.183 476.714 447.183 476.722 447.183 476.725C447.183 476.746 447.183 476.767 447.183 476.783C447.183 476.788 447.183 476.791 447.183 476.8C447.183 476.817 447.187 476.836 447.187 476.857C447.187 476.862 447.187 476.87 447.187 476.873C447.187 476.894 447.187 476.91 447.187 476.928C447.187 476.936 447.191 476.944 447.191 476.952C447.191 476.968 447.191 476.986 447.191 477.002C447.191 477.01 447.191 477.018 447.191 477.026C447.191 477.042 447.191 477.06 447.191 477.076C447.196 477.084 447.196 477.092 447.196 477.1C447.196 477.116 447.196 477.134 447.196 477.15C447.196 477.158 447.196 477.166 447.196 477.174C447.196 477.192 447.196 477.208 447.196 477.224C447.196 477.232 447.196 477.24 447.2 477.245C447.2 477.261 447.2 477.282 447.2 477.299C447.2 477.306 447.2 477.315 447.2 477.327C447.2 477.34 447.2 477.356 447.2 477.372C447.2 477.381 447.2 477.388 447.2 477.397C447.2 477.414 447.2 477.43 447.2 477.446C447.205 477.454 447.205 477.467 447.205 477.475C447.205 477.491 447.205 477.505 447.205 477.521C447.205 477.528 447.205 477.541 447.205 477.55C447.205 477.566 447.205 477.578 447.205 477.594C447.205 477.604 447.205 477.615 447.205 477.624C447.205 477.641 447.205 477.653 447.205 477.669C447.205 477.678 447.205 477.69 447.205 477.697C447.205 477.715 447.205 477.727 447.205 477.744C447.205 477.756 447.205 477.772 447.205 477.789C447.209 477.797 447.209 477.805 447.209 477.818C447.209 477.834 447.209 477.847 447.209 477.863C447.209 477.871 447.209 477.884 447.209 477.892C447.209 477.912 447.209 477.933 447.209 477.953C447.209 477.958 447.209 477.962 447.209 477.967C447.209 477.99 447.209 478.016 447.209 478.04V500.507H447.112V532.109H447.209V566.093V566.093ZM427.054 554.052L427.177 554.084L428.098 558.717C427.746 558.96 427.547 559.38 427.64 559.804C427.741 560.332 428.239 560.702 428.798 560.702C428.869 560.702 428.944 560.694 429.019 560.683C429.662 560.58 430.085 559.999 429.966 559.397C429.878 558.968 429.534 558.647 429.102 558.535L428.182 553.928L428.433 553.747L433.371 555.643L433.407 555.918C433.556 556.409 434.028 556.726 434.548 556.726C434.653 556.726 434.768 556.71 434.878 556.681C435.504 556.512 435.865 555.902 435.684 555.321C435.539 554.83 435.063 554.513 434.552 554.513C434.442 554.513 434.332 554.53 434.222 554.56L433.759 554.798L428.847 552.898L428.829 552.65L428.675 552.296L432.199 548.464L432.829 548.514C433.473 548.411 433.904 547.821 433.777 547.224C433.671 546.691 433.173 546.321 432.618 546.321C432.548 546.321 432.473 546.326 432.398 546.342C431.755 546.453 431.332 547.034 431.455 547.628L431.503 547.805L427.891 551.715L427.737 551.686L426.746 546.791C427.107 546.54 427.305 546.123 427.221 545.695C427.111 545.164 426.622 544.789 426.063 544.789C425.988 544.789 425.913 544.797 425.834 544.813C425.19 544.924 424.767 545.497 424.886 546.099C424.974 546.532 425.318 546.857 425.75 546.96L426.728 551.868L426.547 552.008L421.23 549.948L421.195 549.631C421.045 549.144 420.573 548.828 420.058 548.828C419.952 548.828 419.842 548.839 419.732 548.868C419.106 549.037 418.745 549.655 418.917 550.244C419.067 550.727 419.534 551.036 420.045 551.036C420.155 551.036 420.269 551.023 420.38 550.994L420.807 550.793L426.111 552.835L426.129 553.125L426.274 553.48L422.648 557.415H422.203C421.556 557.521 421.137 558.099 421.248 558.696C421.362 559.233 421.864 559.608 422.419 559.608C422.49 559.608 422.56 559.603 422.635 559.586C423.278 559.466 423.701 558.894 423.578 558.292L423.45 557.963L427.054 554.052V554.052ZM356.734 539.662C353.703 539.662 351.249 541.962 351.249 544.789C351.249 547.619 353.703 549.914 356.734 549.914C359.76 549.914 362.214 547.619 362.214 544.789C362.214 541.962 359.76 539.662 356.734 539.662ZM322.468 529.421C319.432 529.421 316.987 531.709 316.987 534.54C316.987 537.375 319.432 539.662 322.468 539.662C325.49 539.662 327.939 537.375 327.939 534.54C327.939 531.709 325.49 529.421 322.468 529.421ZM379.708 500.791C379.356 500.791 379.043 501.063 378.862 501.59L375.686 511.081C375.369 512.037 374.259 513.075 373.228 513.376L363.073 516.314C362.042 516.602 361.91 517.328 362.791 517.912L371.452 523.662C372.342 524.246 373.047 525.553 373.029 526.566L372.875 536.505C372.862 537.173 373.166 537.544 373.624 537.544C373.858 537.544 374.131 537.449 374.422 537.247L382.951 531.314C383.545 530.902 384.462 530.662 385.308 530.662C385.691 530.662 386.061 530.712 386.383 530.815L396.44 534.025C396.647 534.091 396.837 534.125 397 534.125C397.652 534.125 397.951 533.642 397.674 532.876L394.282 523.451C393.938 522.5 394.189 521.061 394.823 520.249L401.198 512.296C401.846 511.501 401.511 510.846 400.454 510.846C400.44 510.846 400.432 510.846 400.418 510.846L389.788 510.953C388.713 510.953 387.321 510.301 386.691 509.469L380.576 501.336C380.299 500.969 379.99 500.791 379.708 500.791V500.791ZM436.235 522.059C433.208 522.059 430.763 524.354 430.763 527.176C430.763 530.012 433.208 532.311 436.235 532.311C439.266 532.311 441.711 530.012 441.711 527.176C441.711 524.354 439.266 522.059 436.235 522.059ZM289.894 519.169C286.872 519.169 284.413 521.464 284.413 524.296C284.413 527.114 286.872 529.421 289.894 529.421C292.92 529.421 295.374 527.114 295.374 524.296C295.374 521.464 292.92 519.169 289.894 519.169ZM414.304 516.932C411.282 516.932 408.824 519.235 408.824 522.059C408.824 524.885 411.282 527.176 414.304 527.176C417.331 527.176 419.785 524.885 419.785 522.059C419.785 519.235 417.331 516.932 414.304 516.932ZM336.57 482.742L336.777 482.8L338.372 490.781C337.768 491.203 337.424 491.919 337.579 492.656C337.759 493.58 338.618 494.218 339.583 494.218C339.711 494.218 339.834 494.21 339.962 494.185C341.072 493.988 341.795 492.994 341.588 491.956C341.433 491.219 340.839 490.662 340.116 490.468L338.517 482.507L338.953 482.201L347.456 485.495L347.535 485.96C347.782 486.805 348.61 487.352 349.504 487.352C349.685 487.352 349.87 487.328 350.055 487.283C351.13 486.982 351.76 485.928 351.456 484.914C351.2 484.081 350.372 483.532 349.482 483.532C349.302 483.532 349.117 483.553 348.936 483.603L348.125 484.031L339.662 480.74L339.627 480.32L339.367 479.702L345.451 473.099L346.535 473.182C347.645 472.996 348.368 471.991 348.169 470.961C347.98 470.037 347.116 469.4 346.152 469.4C346.033 469.4 345.909 469.411 345.786 469.432C344.676 469.63 343.945 470.623 344.152 471.661L344.249 471.965L338.024 478.716L337.742 478.646L336.046 470.203C336.658 469.786 337.002 469.062 336.847 468.319C336.662 467.4 335.808 466.766 334.847 466.766C334.724 466.766 334.6 466.774 334.473 466.798C333.363 466.993 332.631 467.99 332.838 469.02C332.992 469.77 333.587 470.322 334.31 470.507L336.01 478.976L335.693 479.211L326.53 475.65L326.468 475.114C326.212 474.269 325.406 473.722 324.521 473.722C324.331 473.722 324.138 473.746 323.948 473.8C322.856 474.081 322.234 475.143 322.538 476.157C322.794 476.997 323.613 477.538 324.499 477.538C324.688 477.538 324.878 477.512 325.067 477.464L325.798 477.109L334.944 480.648L334.971 481.131L335.222 481.762L328.975 488.528L328.199 488.519C327.089 488.72 326.358 489.711 326.574 490.749C326.754 491.671 327.609 492.31 328.574 492.31C328.697 492.31 328.821 492.302 328.948 492.281C330.05 492.08 330.79 491.087 330.574 490.049L330.349 489.489L336.57 482.742" fill="#5F0D29"/>
<path d="M453.306 613.382H219.688C223.56 606.674 227.384 599.941 231.142 593.174C232.785 592.199 233.878 590.484 233.878 588.53C233.878 588.432 233.874 588.337 233.869 588.237C237.905 580.894 241.861 573.515 245.724 566.093H447.209H453.306C462.738 566.093 470.377 573.238 470.377 582.052V597.432C470.377 606.246 462.738 613.382 453.306 613.382ZM459.064 583.025C455.822 583.025 453.187 585.489 453.187 588.53C453.187 591.563 455.822 594.027 459.064 594.027C462.315 594.027 464.95 591.563 464.95 588.53C464.95 585.489 462.315 583.025 459.064 583.025ZM439.737 583.025C436.495 583.025 433.86 585.489 433.86 588.53C433.86 591.563 436.495 594.027 439.737 594.027C442.993 594.027 445.623 591.563 445.623 588.53C445.623 585.489 442.993 583.025 439.737 583.025ZM420.415 583.025C417.159 583.025 414.529 585.489 414.529 588.53C414.529 591.563 417.159 594.027 420.415 594.027C423.657 594.027 426.301 591.563 426.301 588.53C426.301 585.489 423.657 583.025 420.415 583.025ZM401.088 583.025C397.846 583.025 395.202 585.489 395.202 588.53C395.202 591.563 397.846 594.027 401.088 594.027C404.33 594.027 406.965 591.563 406.965 588.53C406.965 585.489 404.33 583.025 401.088 583.025ZM383.999 583.025C380.757 583.025 378.113 585.489 378.113 588.53C378.113 591.563 380.757 594.027 383.999 594.027C387.25 594.027 389.885 591.563 389.885 588.53C389.885 585.489 387.25 583.025 383.999 583.025ZM364.672 583.025C361.43 583.025 358.787 585.489 358.787 588.53C358.787 591.563 361.43 594.027 364.672 594.027C367.928 594.027 370.558 591.563 370.558 588.53C370.558 585.489 367.928 583.025 364.672 583.025ZM347.592 583.025C344.341 583.025 341.707 585.489 341.707 588.53C341.707 591.563 344.341 594.027 347.592 594.027C350.839 594.027 353.469 591.563 353.469 588.53C353.469 585.489 350.839 583.025 347.592 583.025ZM330.503 583.025C327.252 583.025 324.626 585.489 324.626 588.53C324.626 591.563 327.252 594.027 330.503 594.027C333.75 594.027 336.389 591.563 336.389 588.53C336.389 585.489 333.75 583.025 330.503 583.025ZM313.423 583.025C310.172 583.025 307.542 585.489 307.542 588.53C307.542 591.563 310.172 594.027 313.423 594.027C316.661 594.027 319.3 591.563 319.3 588.53C319.3 585.489 316.661 583.025 313.423 583.025ZM296.33 583.025C293.083 583.025 290.453 585.489 290.453 588.53C290.453 591.563 293.083 594.027 296.33 594.027C299.581 594.027 302.216 591.563 302.216 588.53C302.216 585.489 299.581 583.025 296.33 583.025ZM279.25 583.025C275.994 583.025 273.364 585.489 273.364 588.53C273.364 591.563 275.994 594.027 279.25 594.027C282.492 594.027 285.127 591.563 285.127 588.53C285.127 585.489 282.492 583.025 279.25 583.025ZM262.161 583.025C258.914 583.025 256.284 585.489 256.284 588.53C256.284 591.563 258.914 594.027 262.161 594.027C265.412 594.027 268.047 591.563 268.047 588.53C268.047 585.489 265.412 583.025 262.161 583.025ZM245.081 583.025C241.83 583.025 239.195 585.489 239.195 588.53C239.195 591.563 241.83 594.027 245.081 594.027C248.324 594.027 250.958 591.563 250.958 588.53C250.958 585.489 248.324 583.025 245.081 583.025Z" fill="#F14624"/>
<path d="M231.142 593.174C232.054 591.53 232.966 589.885 233.869 588.237C233.873 588.336 233.878 588.432 233.878 588.53C233.878 590.484 232.785 592.198 231.142 593.174Z" fill="#C5664C"/>
<path d="M245.081 594.026C241.83 594.026 239.195 591.562 239.195 588.529C239.195 585.489 241.83 583.024 245.081 583.024C248.324 583.024 250.958 585.489 250.958 588.529C250.958 591.562 248.324 594.026 245.081 594.026Z" fill="#C5664C"/>
<path d="M262.161 594.026C258.914 594.026 256.284 591.562 256.284 588.529C256.284 585.489 258.914 583.024 262.161 583.024C265.412 583.024 268.047 585.489 268.047 588.529C268.047 591.562 265.412 594.026 262.161 594.026Z" fill="#C5664C"/>
<path d="M279.25 594.026C275.994 594.026 273.364 591.562 273.364 588.529C273.364 585.489 275.994 583.024 279.25 583.024C282.492 583.024 285.127 585.489 285.127 588.529C285.127 591.562 282.492 594.026 279.25 594.026Z" fill="#C5664C"/>
<path d="M296.33 594.026C293.083 594.026 290.453 591.562 290.453 588.529C290.453 585.489 293.083 583.024 296.33 583.024C299.581 583.024 302.216 585.489 302.216 588.529C302.216 591.562 299.581 594.026 296.33 594.026Z" fill="#C5664C"/>
<path d="M313.423 594.026C310.172 594.026 307.542 591.562 307.542 588.529C307.542 585.489 310.172 583.024 313.423 583.024C316.661 583.024 319.3 585.489 319.3 588.529C319.3 591.562 316.661 594.026 313.423 594.026Z" fill="#C5664C"/>
<path d="M330.503 594.026C327.252 594.026 324.626 591.562 324.626 588.529C324.626 585.489 327.252 583.024 330.503 583.024C333.75 583.024 336.389 585.489 336.389 588.529C336.389 591.562 333.75 594.026 330.503 594.026Z" fill="#C5664C"/>
<path d="M347.592 594.026C344.341 594.026 341.707 591.562 341.707 588.529C341.707 585.489 344.341 583.024 347.592 583.024C350.839 583.024 353.469 585.489 353.469 588.529C353.469 591.562 350.839 594.026 347.592 594.026Z" fill="#C5664C"/>
<path d="M364.672 594.026C361.43 594.026 358.787 591.562 358.787 588.529C358.787 585.489 361.43 583.024 364.672 583.024C367.928 583.024 370.558 585.489 370.558 588.529C370.558 591.562 367.928 594.026 364.672 594.026Z" fill="#C5664C"/>
<path d="M383.999 594.026C380.757 594.026 378.114 591.562 378.114 588.529C378.114 585.489 380.757 583.024 383.999 583.024C387.251 583.024 389.885 585.489 389.885 588.529C389.885 591.562 387.251 594.026 383.999 594.026Z" fill="#C5664C"/>
<path d="M401.088 594.026C397.845 594.026 395.202 591.562 395.202 588.529C395.202 585.489 397.845 583.024 401.088 583.024C404.33 583.024 406.965 585.489 406.965 588.529C406.965 591.562 404.33 594.026 401.088 594.026Z" fill="#C5664C"/>
<path d="M420.415 594.026C417.159 594.026 414.529 591.562 414.529 588.529C414.529 585.489 417.159 583.024 420.415 583.024C423.657 583.024 426.301 585.489 426.301 588.529C426.301 591.562 423.657 594.026 420.415 594.026Z" fill="#C5664C"/>
<path d="M439.737 594.026C436.495 594.026 433.86 591.562 433.86 588.529C433.86 585.489 436.495 583.024 439.737 583.024C442.993 583.024 445.623 585.489 445.623 588.529C445.623 591.562 442.993 594.026 439.737 594.026Z" fill="#C5664C"/>
<path d="M459.064 594.026C455.822 594.026 453.188 591.562 453.188 588.529C453.188 585.489 455.822 583.024 459.064 583.024C462.316 583.024 464.95 585.489 464.95 588.529C464.95 591.562 462.316 594.026 459.064 594.026Z" fill="#C5664C"/>
<path d="M373.624 537.545C373.166 537.545 372.862 537.174 372.875 536.506L373.029 526.567C373.047 525.554 372.342 524.247 371.452 523.663L362.791 517.913C361.91 517.329 362.042 516.603 363.073 516.315L373.228 513.377C374.258 513.076 375.369 512.038 375.686 511.082L378.862 501.591C379.043 501.065 379.356 500.793 379.708 500.793C379.99 500.793 380.298 500.97 380.576 501.337L386.691 509.471C387.321 510.303 388.713 510.954 389.788 510.954L400.418 510.847C400.431 510.847 400.44 510.847 400.453 510.847C401.511 510.847 401.846 511.502 401.198 512.297L394.823 520.25C394.189 521.062 393.938 522.501 394.281 523.452L397.674 532.877C397.951 533.643 397.652 534.126 397 534.126C396.837 534.126 396.647 534.092 396.44 534.026L386.382 530.817C386.061 530.714 385.691 530.664 385.307 530.664C384.462 530.664 383.545 530.903 382.95 531.316L374.421 537.249C374.131 537.45 373.858 537.545 373.624 537.545Z" fill="#FBC760"/>
<path d="M269.73 557.217C269.223 557.217 268.633 557.077 267.976 556.779L253.755 550.306C254.28 549.255 254.799 548.199 255.319 547.145C263.328 530.884 270.866 514.43 277.915 497.799L286.039 498.66C288.801 498.961 289.479 500.729 287.55 502.604L268.536 521.06C266.606 522.936 265.483 526.549 266.042 529.1L271.514 554.213C271.928 556.095 271.166 557.217 269.73 557.217Z" fill="#FBC760"/>
<path d="M289.894 529.42C286.872 529.42 284.414 527.113 284.414 524.295C284.414 521.463 286.872 519.168 289.894 519.168C292.921 519.168 295.374 521.463 295.374 524.295C295.374 527.113 292.921 529.42 289.894 529.42Z" fill="#FBC760"/>
<path d="M322.468 539.661C319.432 539.661 316.987 537.374 316.987 534.539C316.987 531.708 319.432 529.421 322.468 529.421C325.49 529.421 327.939 531.708 327.939 534.539C327.939 537.374 325.49 539.661 322.468 539.661Z" fill="#FBC760"/>
<path d="M414.304 527.176C411.282 527.176 408.824 524.885 408.824 522.059C408.824 519.235 411.282 516.932 414.304 516.932C417.331 516.932 419.785 519.235 419.785 522.059C419.785 524.885 417.331 527.176 414.304 527.176Z" fill="#FBC760"/>
<path d="M436.235 532.311C433.208 532.311 430.763 530.012 430.763 527.176C430.763 524.354 433.208 522.058 436.235 522.058C439.266 522.058 441.711 524.354 441.711 527.176C441.711 530.012 439.266 532.311 436.235 532.311Z" fill="#C5664C"/>
<path d="M356.734 549.914C353.703 549.914 351.249 547.619 351.249 544.789C351.249 541.962 353.703 539.662 356.734 539.662C359.76 539.662 362.214 541.962 362.214 544.789C362.214 547.619 359.76 549.914 356.734 549.914Z" fill="#FBC760"/>
<path d="M339.583 494.217C338.618 494.217 337.759 493.579 337.578 492.655C337.424 491.918 337.768 491.202 338.371 490.78L336.777 482.799L336.57 482.741L330.349 489.488L330.574 490.048C330.79 491.086 330.05 492.079 328.948 492.28C328.82 492.301 328.697 492.309 328.574 492.309C327.609 492.309 326.754 491.67 326.574 490.748C326.358 489.71 327.089 488.72 328.199 488.519L328.975 488.527L335.222 481.761L334.97 481.13L334.944 480.647L325.798 477.108L325.067 477.463C324.878 477.512 324.688 477.538 324.499 477.538C323.613 477.538 322.794 476.997 322.538 476.156C322.234 475.142 322.855 474.08 323.948 473.8C324.137 473.745 324.331 473.721 324.521 473.721C325.406 473.721 326.212 474.268 326.468 475.113L326.53 475.649L335.693 479.21L336.01 478.975L334.31 470.506C333.587 470.321 332.992 469.769 332.838 469.019C332.631 467.989 333.362 466.993 334.473 466.798C334.6 466.773 334.724 466.765 334.847 466.765C335.808 466.765 336.662 467.4 336.847 468.319C337.001 469.061 336.658 469.785 336.045 470.202L337.742 478.645L338.023 478.716L344.248 471.965L344.152 471.661C343.944 470.622 344.676 469.629 345.786 469.431C345.909 469.41 346.033 469.399 346.152 469.399C347.116 469.399 347.98 470.036 348.169 470.96C348.368 471.991 347.645 472.995 346.535 473.182L345.451 473.098L339.367 479.701L339.627 480.319L339.662 480.739L348.125 484.031L348.936 483.603C349.116 483.553 349.301 483.532 349.482 483.532C350.372 483.532 351.2 484.081 351.456 484.913C351.76 485.927 351.13 486.982 350.055 487.282C349.87 487.327 349.685 487.352 349.504 487.352C348.61 487.352 347.782 486.804 347.535 485.959L347.456 485.494L338.953 482.201L338.517 482.506L340.116 490.468C340.839 490.661 341.433 491.218 341.588 491.955C341.795 492.993 341.072 493.987 339.962 494.185C339.834 494.209 339.711 494.217 339.583 494.217" fill="#C5789F"/>
<path d="M428.799 560.702C428.239 560.702 427.741 560.332 427.64 559.804C427.547 559.381 427.746 558.96 428.098 558.718L427.178 554.085L427.054 554.052L423.451 557.963L423.578 558.292C423.702 558.894 423.279 559.466 422.635 559.587C422.561 559.603 422.49 559.608 422.42 559.608C421.864 559.608 421.362 559.233 421.248 558.697C421.138 558.099 421.556 557.521 422.204 557.415H422.649L426.274 553.48L426.129 553.125L426.111 552.836L420.807 550.793L420.38 550.994C420.27 551.023 420.155 551.036 420.045 551.036C419.534 551.036 419.067 550.727 418.917 550.244C418.745 549.655 419.107 549.037 419.732 548.868C419.842 548.839 419.952 548.828 420.058 548.828C420.574 548.828 421.045 549.145 421.195 549.631L421.23 549.948L426.547 552.008L426.728 551.868L425.75 546.96C425.318 546.857 424.975 546.532 424.887 546.099C424.768 545.497 425.191 544.924 425.834 544.813C425.913 544.797 425.988 544.789 426.063 544.789C426.622 544.789 427.111 545.164 427.222 545.695C427.305 546.123 427.107 546.54 426.746 546.791L427.737 551.686L427.891 551.715L431.504 547.805L431.455 547.628C431.332 547.034 431.755 546.453 432.398 546.342C432.473 546.326 432.548 546.322 432.618 546.322C433.173 546.322 433.671 546.692 433.777 547.224C433.905 547.821 433.473 548.411 432.83 548.514L432.2 548.464L428.675 552.297L428.83 552.651L428.847 552.898L433.759 554.798L434.222 554.56C434.332 554.53 434.442 554.513 434.552 554.513C435.063 554.513 435.539 554.83 435.684 555.321C435.865 555.902 435.504 556.512 434.878 556.681C434.768 556.71 434.654 556.726 434.548 556.726C434.028 556.726 433.557 556.409 433.407 555.918L433.372 555.643L428.433 553.747L428.182 553.928L429.103 558.535C429.534 558.647 429.878 558.969 429.966 559.397C430.085 559.999 429.662 560.58 429.019 560.683C428.944 560.694 428.869 560.702 428.799 560.702" fill="#C5789F"/>
<path d="M162.047 540.659L161.249 541.083L152.773 537.799L152.738 537.374L152.478 536.753L158.571 530.147L159.655 530.234C160.756 530.052 161.487 529.05 161.28 528.012C161.073 526.974 160.007 526.298 158.897 526.483C157.787 526.686 157.064 527.675 157.271 528.721L157.359 529.014L151.148 535.763L150.861 535.702L149.165 527.259C149.778 526.837 150.121 526.121 149.967 525.376C149.76 524.345 148.685 523.661 147.584 523.855C146.473 524.04 145.742 525.046 145.958 526.076C146.103 526.821 146.698 527.378 147.429 527.555L149.125 536.032L148.804 536.254L139.658 532.714L139.583 532.157C139.27 531.145 138.143 530.567 137.059 530.847C135.975 531.135 135.35 532.191 135.658 533.213C135.966 534.217 137.094 534.807 138.178 534.519L138.909 534.165L148.055 537.712L148.081 538.195L148.341 538.808L142.094 545.583L141.31 545.576C140.209 545.769 139.478 546.767 139.685 547.805C139.9 548.843 140.958 549.527 142.068 549.325C143.169 549.131 143.901 548.143 143.694 547.103L143.469 546.54L149.685 539.798L149.888 539.851L151.491 547.829C150.888 548.254 150.544 548.97 150.689 549.712C150.897 550.751 151.963 551.435 153.073 551.233C154.183 551.047 154.914 550.042 154.698 549.004C154.553 548.262 153.958 547.71 153.227 547.525L151.628 539.563L152.077 539.258L160.575 542.559L160.646 543.016C160.963 544.03 162.091 544.627 163.166 544.334C164.25 544.038 164.879 542.982 164.567 541.97C164.258 540.956 163.131 540.366 162.047 540.659Z" fill="white"/>
<path d="M75.8405 477.842L75.3735 478.09L70.4615 476.189L70.435 475.942L70.2896 475.58L73.8184 471.756L74.4439 471.805C75.0915 471.69 75.5233 471.104 75.3912 470.515C75.2722 469.914 74.651 469.518 74.0166 469.629C73.369 469.745 72.9505 470.313 73.0695 470.919L73.1223 471.096L69.5142 475.007L69.3513 474.973L68.3732 470.073C68.7256 469.83 68.915 469.423 68.8357 468.987C68.7168 468.385 68.0957 467.989 67.4569 468.092C66.8137 468.208 66.3907 468.784 66.5052 469.389C66.5889 469.814 66.9327 470.144 67.3644 470.252L68.3468 475.159L68.1661 475.287L62.8576 473.235L62.8135 472.913C62.6329 472.329 61.9764 471.991 61.3508 472.16C60.7209 472.329 60.3597 472.947 60.5315 473.528C60.7209 474.112 61.3684 474.45 61.994 474.289L62.4258 474.08L67.7256 476.136L67.7432 476.408L67.8886 476.77L64.2673 480.705L63.818 480.698C63.1748 480.808 62.7518 481.39 62.8707 481.984C62.9941 482.589 63.6021 482.985 64.2497 482.869C64.8929 482.758 65.3158 482.185 65.1968 481.584L65.069 481.254L68.6728 477.343L68.7918 477.38L69.7124 482C69.36 482.251 69.1705 482.668 69.2587 483.096C69.3688 483.698 69.9988 484.084 70.6332 483.973C71.2808 483.867 71.6993 483.289 71.5804 482.684C71.4922 482.259 71.1486 481.938 70.7301 481.823L69.8006 477.211L70.0561 477.034L74.9858 478.941L75.0211 479.218C75.2017 479.804 75.8581 480.132 76.4925 479.972C77.1137 479.804 77.4837 479.194 77.3031 478.605C77.1224 478.019 76.4661 477.673 75.8405 477.842" fill="white"/>
<path d="M19.8864 588.529C19.8864 591.562 17.2519 594.026 14.0006 594.026C10.7538 594.026 8.12378 591.562 8.12378 588.529C8.12378 585.489 10.7538 583.024 14.0006 583.024C17.2519 583.024 19.8864 585.489 19.8864 588.529Z" fill="#FBC760"/>
<path d="M36.9665 588.529C36.9665 591.562 34.3408 594.026 31.0896 594.026C27.8428 594.026 25.2126 591.562 25.2126 588.529C25.2126 585.489 27.8428 583.024 31.0896 583.024C34.3408 583.024 36.9665 585.489 36.9665 588.529Z" fill="#FBC760"/>
<path d="M56.2975 588.529C56.2975 591.562 53.6675 594.026 50.4119 594.026C47.1606 594.026 44.5349 591.562 44.5349 588.529C44.5349 585.489 47.1606 583.024 50.4119 583.024C53.6675 583.024 56.2975 585.489 56.2975 588.529Z" fill="#FBC760"/>
<path d="M73.3778 588.529C73.3778 591.562 70.7477 594.026 67.5009 594.026C64.2496 594.026 61.624 591.562 61.624 588.529C61.624 585.489 64.2496 583.024 67.5009 583.024C70.7477 583.024 73.3778 585.489 73.3778 588.529Z" fill="#FBC760"/>
<path d="M92.7133 588.529C92.7133 591.562 90.0789 594.026 86.8277 594.026C83.5852 594.026 80.9419 591.562 80.9419 588.529C80.9419 585.489 83.5852 583.024 86.8277 583.024C90.0789 583.024 92.7133 585.489 92.7133 588.529Z" fill="#FBC760"/>
<path d="M112.031 588.529C112.031 591.562 109.406 594.026 106.154 594.026C102.908 594.026 100.278 591.562 100.278 588.529C100.278 585.489 102.908 583.024 106.154 583.024C109.406 583.024 112.031 585.489 112.031 588.529Z" fill="#FBC760"/>
<path d="M131.363 588.529C131.363 591.562 128.732 594.026 125.477 594.026C122.234 594.026 119.6 591.562 119.6 588.529C119.6 585.489 122.234 583.024 125.477 583.024C128.732 583.024 131.363 585.489 131.363 588.529Z" fill="#FBC760"/>
<path d="M148.451 588.529C148.451 591.562 145.813 594.026 142.566 594.026C139.314 594.026 136.689 591.562 136.689 588.529C136.689 585.489 139.314 583.024 142.566 583.024C145.813 583.024 148.451 585.489 148.451 588.529Z" fill="#FBC760"/>
<path d="M165.531 588.529C165.531 591.562 162.901 594.026 159.655 594.026C156.403 594.026 153.769 591.562 153.769 588.529C153.769 585.489 156.403 583.024 159.655 583.024C162.901 583.024 165.531 585.489 165.531 588.529Z" fill="#FBC760"/>
<path d="M182.62 588.529C182.62 591.562 179.986 594.026 176.735 594.026C173.483 594.026 170.858 591.562 170.858 588.529C170.858 585.489 173.483 583.024 176.735 583.024C179.986 583.024 182.62 585.489 182.62 588.529Z" fill="#FBC760"/>
<path d="M199.7 588.529C199.7 591.562 197.066 594.026 193.823 594.026C190.572 594.026 187.938 591.562 187.938 588.529C187.938 585.489 190.572 583.024 193.823 583.024C197.066 583.024 199.7 585.489 199.7 588.529Z" fill="#FBC760"/>
<path d="M216.789 588.529C216.789 591.562 214.155 594.026 210.912 594.026C207.661 594.026 205.027 591.562 205.027 588.529C205.027 585.489 207.661 583.024 210.912 583.024C214.155 583.024 216.789 585.489 216.789 588.529Z" fill="#FBC760"/>
<path d="M427.452 454.145H126.513C148.761 382.951 172.907 292.496 164.052 259.085C158.968 231.756 114.522 230.425 146.999 160.446C167.934 140.201 181.758 106.176 178.974 78.1136C193.181 61.7377 203.609 46.9277 211.05 33.5847V69.3488C211.002 68.3474 210.988 67.4944 210.988 66.8392C210.988 65.8749 211.019 65.3516 211.019 65.3516L208.327 65.2074H208.323C208.323 65.228 208.288 65.8173 208.288 66.8392C208.292 69.9627 208.578 77.1163 211.05 84.3813V111.916C206.12 115.007 200.979 119.993 200.671 127.406C200.38 134.613 205.248 149.877 210.191 163.352C205.843 164.955 202.887 168.651 201.539 171.766H184.529C180.899 171.766 177.956 174.972 177.956 178.924C177.956 181.479 179.185 183.721 181.035 184.986V197.603C181.035 198.176 181.458 198.625 181.974 198.625C182.159 198.625 182.331 198.572 182.476 198.473V231.587C181.833 232.696 181.458 234.002 181.458 235.407V245.594C181.458 249.546 184.401 252.76 188.031 252.76H197.402C199.384 252.76 201.16 251.804 202.367 250.296C202.587 250.032 202.781 249.752 202.948 249.455C203.605 248.342 203.984 247.015 203.984 245.594V235.407C203.984 234.567 203.851 233.763 203.609 233.013V221.706L205.116 245.969C203.481 247.634 202.336 251.486 202.336 255.978C202.336 261.508 204.081 266.082 206.332 266.77L204.477 314.328C204.477 318.861 207.169 322.566 210.587 322.879L197.868 422.548L194.261 451.006H281.476L158.219 454.145C158.219 454.145 49.8439 454.697 47.5311 454.145V328.285V250.296C47.5311 250.296 47.8218 176.2 47.5311 169.121C47.2447 161.955 49.1831 149.032 49.1831 149.032L52.4872 128.943L59.0954 110.4C60.7475 101.128 73.9639 81.0394 73.9639 81.0394L82.2242 70.2224L93.7886 56.3148L107.005 43.9525L123.526 31.5902C123.53 32.1053 135.09 23.8638 135.09 23.8638L151.611 16.1374L171.435 8.41092L199.52 2.2298C199.52 2.2298 227.222 0.000427246 228.465 0.000427246H246.629C344.461 0.000427246 424.152 72.6659 427.35 163.459C425.416 108.62 395.569 60.3985 350.673 30.799C354.51 97.8109 353.325 165.078 345.536 231.802C339.205 286.064 329.782 340.083 314.905 392.907C309.543 411.916 303.495 430.74 296.82 449.357H427.452V454.145ZM427.452 168.935C427.452 168.894 427.452 168.865 427.452 168.828C427.452 168.861 427.452 168.898 427.452 168.935ZM427.452 168.77C427.452 168.737 427.452 168.704 427.452 168.671C427.452 168.704 427.452 168.733 427.452 168.77ZM427.452 168.614C427.452 168.577 427.452 168.544 427.452 168.511C427.452 168.544 427.452 168.581 427.452 168.614ZM427.452 168.457C427.452 168.408 427.452 168.358 427.452 168.309C427.452 168.354 427.452 168.412 427.452 168.457ZM427.447 167.781C427.447 167.728 427.447 167.687 427.443 167.633C427.447 167.683 427.447 167.732 427.447 167.781ZM427.443 167.431C427.443 167.394 427.443 167.357 427.443 167.32C427.443 167.353 427.443 167.398 427.443 167.431ZM427.443 167.27C427.443 167.233 427.438 167.196 427.438 167.159C427.438 167.2 427.443 167.229 427.443 167.27ZM427.438 167.114C427.438 167.011 427.438 166.9 427.434 166.801C427.438 166.904 427.438 167.011 427.438 167.114ZM427.434 166.772C427.434 166.731 427.434 166.689 427.434 166.648C427.434 166.694 427.434 166.726 427.434 166.772ZM427.43 166.438C427.43 166.401 427.43 166.364 427.43 166.327C427.43 166.364 427.43 166.397 427.43 166.438ZM427.425 166.286C427.425 166.232 427.425 166.183 427.425 166.129C427.425 166.178 427.425 166.232 427.425 166.286ZM427.425 166.117C427.421 166.067 427.421 166.022 427.421 165.972C427.421 166.018 427.421 166.071 427.425 166.117ZM427.416 165.77C427.416 165.729 427.416 165.692 427.416 165.651C427.416 165.688 427.416 165.733 427.416 165.77ZM427.408 165.288C427.403 165.239 427.403 165.189 427.403 165.144C427.403 165.189 427.403 165.243 427.408 165.288ZM427.399 164.95C427.394 164.79 427.39 164.625 427.385 164.468C427.39 164.633 427.394 164.786 427.399 164.95ZM427.385 164.448C427.381 164.398 427.381 164.357 427.381 164.308C427.381 164.353 427.381 164.402 427.385 164.448ZM427.381 164.283C427.377 164.233 427.377 164.18 427.372 164.134C427.377 164.184 427.377 164.233 427.381 164.283ZM427.372 164.126C427.372 164.015 427.368 163.908 427.363 163.797C427.368 163.904 427.372 164.019 427.372 164.126ZM427.363 163.792C427.363 163.739 427.359 163.685 427.359 163.636C427.359 163.685 427.363 163.743 427.363 163.792ZM427.359 163.619C427.355 163.574 427.355 163.52 427.35 163.471C427.355 163.516 427.355 163.574 427.359 163.619ZM125.641 30.5889C125.381 30.5559 125.121 30.5271 124.861 30.4982C125.13 30.321 125.399 30.1438 125.672 29.9707C125.654 30.3045 125.645 30.5147 125.641 30.5889Z" fill="#D5F1FC" fill-opacity="0.4"/>
</svg>
