<svg width="993" height="1404" viewBox="0 0 993 1404" fill="none" xmlns="http://www.w3.org/2000/svg">
<path d="M785.779 1085.73C798.584 1079.78 795.89 1065.31 795.89 1065.31C795.89 1065.31 826.432 1081.95 858.581 1075.71C890.73 1069.47 892.337 1053.52 892.337 1053.52C813.774 987.737 739.573 898.366 693.326 822.408C707.184 812.882 706.698 793.614 706.698 793.614C706.698 793.614 721.625 815.811 746.765 818.787C771.906 821.762 788.404 804.519 788.404 804.519C740.034 769.603 673.275 682.846 635.694 617.443C642.756 608.684 635.469 595.071 635.469 595.071C635.469 595.071 650.504 614.192 670.049 614.192C689.593 614.192 696.359 599.509 696.359 599.509C650.854 559.347 609.944 497.914 582.356 447.576C581.422 444.121 579.825 441.601 579.825 441.601C579.825 441.601 593.317 452.243 605.653 451.245C617.989 450.247 623.386 441.601 623.386 441.601C623.386 441.601 586.764 418.987 560.165 380.077C541.911 353.376 527.834 328.869 520.797 316.118C526.402 321.388 537.136 328.453 551.323 323.712C565.764 318.886 564.798 304.745 564.798 304.745C508.745 270.116 473.95 220.694 451.447 162.721C451.447 162.721 432.153 213.987 407.85 248.814C377.054 292.947 344.437 316.58 344.437 316.58C344.437 316.58 352.364 324.006 363.461 323.712C374.558 323.418 382.485 311.262 382.485 311.262C382.485 311.262 370.595 332.674 384.863 336.936C387.489 337.72 390.141 337.59 392.721 336.866C383.344 352.773 371.405 371.708 357.984 389.934C338.421 416.5 294.72 452.658 294.72 452.658C294.72 452.658 301.043 461.297 322.383 456.196C344.546 450.897 355.081 431.957 355.081 431.957C355.081 431.957 348.498 447 352.394 454.69C324.687 511.448 282.201 576.381 234.707 618.66C234.707 618.66 252.091 634.215 282.911 626.873C297.029 623.51 307.825 615.946 315.391 608.735C288.919 672.131 237.348 748.937 179.536 800.076C179.536 800.076 182.506 815.755 210.743 818.787C232.097 821.079 243.958 808.084 243.958 808.084C243.958 808.084 242.387 826.389 258.1 827.746C258.16 827.752 258.22 827.745 258.281 827.75C221.133 901.128 150.731 990.092 81.3731 1055.6C81.3731 1055.6 100.663 1072.24 144.868 1070.85C189.073 1069.47 209.699 1043.81 209.699 1043.81C209.699 1043.81 207.869 1048.62 207.603 1054.91C160.842 1149.14 90.8225 1240.77 1 1330.17C1 1330.17 13.056 1345.42 53.2427 1336.41C93.4291 1327.4 102.27 1318.38 102.27 1318.38C102.27 1318.38 89.4105 1347.5 110.308 1353.74C131.204 1359.98 164.158 1342.65 164.158 1342.65C164.158 1342.65 156.166 1364.84 184.273 1369C212.381 1373.16 230.063 1355.13 230.063 1355.13C230.063 1355.13 243.727 1373.16 270.25 1373.85C296.773 1374.55 303.203 1362.06 303.203 1362.06C303.203 1362.06 299.988 1391.88 342.586 1396.73C385.183 1401.59 398.847 1368.3 398.847 1368.3C398.847 1368.3 400.454 1384.95 417.333 1385.64C434.211 1386.33 440.641 1373.85 440.641 1373.85C440.641 1373.85 451.089 1395.62 476.809 1397.22C502.528 1398.81 513.78 1374.55 513.78 1374.55C513.78 1374.55 532.266 1401.59 567.63 1402.28C602.995 1402.97 625.499 1367.61 625.499 1367.61C625.499 1367.61 639.162 1386.33 664.078 1384.95C688.993 1383.56 701.853 1361.37 701.853 1361.37C701.853 1361.37 727.573 1391.88 770.17 1391.19C812.768 1390.49 822.413 1350.34 822.413 1350.34C822.413 1350.34 827.235 1371.08 851.347 1369.69C875.459 1368.3 875.459 1344.73 875.459 1344.73C875.459 1344.73 889.926 1363.45 907.608 1365.53C925.29 1367.61 931.72 1346.12 931.72 1346.12C931.72 1346.12 937.346 1361.37 959.851 1361.37C982.355 1361.37 992 1344.04 992 1344.04C901.541 1256.51 835.079 1164.42 785.779 1085.73Z" fill="#126C0F"/>
<path d="M344.437 316.582C344.437 316.582 352.364 324.008 363.461 323.714C374.558 323.42 382.485 311.264 382.485 311.264C382.485 311.264 370.595 332.675 384.863 336.937C399.131 341.199 414.192 318.633 414.192 318.633C414.192 318.633 411.021 343.251 432.423 345.986C453.825 348.721 458.581 318.633 458.581 318.633C458.581 318.633 464.922 346.67 494.251 342.567C523.579 338.464 516.445 311.264 516.445 311.264C516.445 311.264 529.987 330.844 551.323 323.714C565.764 318.888 564.798 304.747 564.798 304.747" stroke="#289B24" stroke-width="2" stroke-miterlimit="10" stroke-linecap="round" stroke-linejoin="round"/>
<path d="M294.72 452.662C294.72 452.662 301.043 461.301 322.383 456.199C344.546 450.901 355.081 431.96 355.081 431.96C355.081 431.96 344.41 456.329 358.257 458.892C381.823 463.253 403.654 431.96 403.654 431.96C403.654 431.96 396.715 462.555 421.001 464.218C445.287 465.881 454.624 443.6 454.624 443.6C454.624 443.6 464.947 474.86 489.619 472.865C514.291 470.869 517.375 449.253 517.375 449.253C517.375 449.253 536.306 470.204 564.812 466.546C593.317 462.888 579.825 441.604 579.825 441.604C579.825 441.604 593.317 452.246 605.653 451.248C617.989 450.251 623.386 441.604 623.386 441.604" stroke="#289B24" stroke-width="2" stroke-miterlimit="10" stroke-linecap="round" stroke-linejoin="round"/>
<path d="M234.707 618.662C234.707 618.662 252.09 634.216 282.911 626.874C313.732 619.532 328.766 592.168 328.766 592.168C328.766 592.168 316.738 624.805 335.532 628.843C354.325 632.881 367.856 610.189 367.856 610.189C367.856 610.189 360.338 637.44 384.394 640.166C408.449 642.892 417.469 618.662 417.469 618.662C417.469 618.662 416.718 650.234 445.283 646.897C473.849 643.56 468.587 614.86 468.587 614.86C468.587 614.86 473.097 642.779 500.911 640.166C528.724 637.553 530.98 614.193 530.98 614.193C530.98 614.193 543.759 642.779 572.324 640.166C600.89 637.553 590.366 610.189 590.366 610.189C590.366 610.189 603.897 629.1 625.697 623.315C647.497 617.53 635.469 595.073 635.469 595.073C635.469 595.073 650.504 614.193 670.048 614.193C689.593 614.193 696.359 599.51 696.359 599.51" stroke="#289B24" stroke-width="2" stroke-miterlimit="10" stroke-linecap="round" stroke-linejoin="round"/>
<path d="M81.373 1055.6C81.373 1055.6 100.663 1072.24 144.868 1070.86C189.073 1069.47 209.699 1043.81 209.699 1043.81C209.699 1043.81 196.753 1077.79 234.707 1083.34C272.661 1088.88 282.306 1054.91 282.306 1054.91C282.306 1054.91 266.231 1090.96 295.165 1097.2C324.1 1103.44 336.156 1084.03 336.156 1084.03C336.156 1084.03 335.352 1103.44 353.838 1105.52C372.324 1107.6 380.361 1088.19 380.361 1088.19C380.361 1088.19 377.95 1102.37 394.024 1105.68C410.099 1108.99 412.51 1094.43 412.51 1094.43C412.51 1094.43 418.94 1122.86 451.893 1118.7C484.846 1114.54 483.97 1088.88 483.97 1088.88C483.97 1088.88 486.453 1122.3 516.191 1119.11C545.929 1115.92 542.715 1088.88 542.715 1088.88C542.715 1088.88 556.378 1115.92 590.135 1108.3C623.891 1100.67 613.443 1066.7 613.443 1066.7C613.443 1066.7 627.106 1103.44 665.685 1100.67C704.264 1097.9 696.359 1070.16 696.359 1070.16C696.359 1070.16 705.872 1084.03 722.75 1081.95C739.628 1079.87 739.628 1060.46 739.628 1060.46C739.628 1060.46 750.077 1089.58 774.993 1088.19C799.908 1086.8 795.89 1065.31 795.89 1065.31C795.89 1065.31 826.431 1081.95 858.581 1075.71C890.73 1069.47 892.337 1053.52 892.337 1053.52" stroke="#289B24" stroke-width="2" stroke-miterlimit="10" stroke-linecap="round" stroke-linejoin="round"/>
<path d="M1 1330.17C1 1330.17 13.056 1345.43 53.2426 1336.41C93.4291 1327.4 102.27 1318.38 102.27 1318.38C102.27 1318.38 89.4105 1347.51 110.307 1353.75C131.204 1359.99 164.157 1342.65 164.157 1342.65C164.157 1342.65 156.166 1364.84 184.273 1369C212.381 1373.16 230.063 1355.13 230.063 1355.13C230.063 1355.13 243.727 1373.16 270.25 1373.85C296.773 1374.55 303.203 1362.07 303.203 1362.07C303.203 1362.07 299.988 1391.88 342.586 1396.73C385.183 1401.59 398.847 1368.31 398.847 1368.31C398.847 1368.31 400.454 1384.95 417.333 1385.64C434.211 1386.33 440.641 1373.85 440.641 1373.85C440.641 1373.85 451.089 1395.62 476.809 1397.22C502.528 1398.81 513.78 1374.55 513.78 1374.55C513.78 1374.55 532.266 1401.59 567.63 1402.28C602.994 1402.98 625.499 1367.61 625.499 1367.61C625.499 1367.61 639.162 1386.33 664.078 1384.95C688.994 1383.56 701.853 1361.37 701.853 1361.37C701.853 1361.37 727.573 1391.88 770.17 1391.19C812.768 1390.49 822.413 1350.34 822.413 1350.34C822.413 1350.34 827.235 1371.08 851.347 1369.69C875.459 1368.31 875.459 1344.73 875.459 1344.73C875.459 1344.73 889.926 1363.45 907.608 1365.53C925.29 1367.61 931.72 1346.12 931.72 1346.12C931.72 1346.12 937.346 1361.37 959.851 1361.37C982.355 1361.37 992 1344.04 992 1344.04" stroke="#289B24" stroke-width="2" stroke-miterlimit="10" stroke-linecap="round" stroke-linejoin="round"/>
<path d="M179.536 800.078C179.536 800.078 182.506 815.757 210.743 818.788C232.097 821.08 243.958 808.085 243.958 808.085C243.958 808.085 242.387 826.39 258.1 827.748C273.812 829.105 290.311 812.419 290.311 812.419C290.311 812.419 283.24 841.614 311.523 842.701C339.806 843.789 347.662 818.788 347.662 818.788C347.662 818.788 353.947 844.284 379.873 842.701C405.799 841.119 418.369 818.788 418.369 818.788C418.369 818.788 414.441 850.293 448.224 851.713C482.006 853.133 486.72 812.419 486.72 812.419C486.72 812.419 490.648 834.045 516.574 833.244C542.5 832.442 550.356 808.085 550.356 808.085C550.356 808.085 563.262 839.117 596.877 838.449C630.491 837.782 637.562 804.546 637.562 804.546C637.562 804.546 652.489 830.807 679.986 827.286C707.484 823.766 706.698 793.615 706.698 793.615C706.698 793.615 721.625 815.812 746.765 818.788C771.906 821.763 788.404 804.521 788.404 804.521" stroke="#289B24" stroke-width="2" stroke-miterlimit="10" stroke-linecap="round" stroke-linejoin="round"/>
<path d="M532.178 518.117C553.307 518.117 570.435 503.341 570.435 485.114C570.435 466.887 553.307 452.111 532.178 452.111C511.05 452.111 493.922 466.887 493.922 485.114C493.922 503.341 511.05 518.117 532.178 518.117Z" fill="#FAB71D"/>
<path d="M365.746 692.681C386.594 692.681 403.495 678.101 403.495 660.116C403.495 642.131 386.594 627.551 365.746 627.551C344.898 627.551 327.998 642.131 327.998 660.116C327.998 678.101 344.898 692.681 365.746 692.681Z" fill="#FE434C"/>
<path d="M589.571 903.621C614.925 903.621 635.479 885.89 635.479 864.017C635.479 842.144 614.925 824.412 589.571 824.412C564.216 824.412 543.662 842.144 543.662 864.017C543.662 885.89 564.216 903.621 589.571 903.621Z" fill="#000DFF"/>
<path d="M309.403 1164.56C335.398 1164.56 356.471 1146.38 356.471 1123.95C356.471 1101.52 335.398 1083.34 309.403 1083.34C283.407 1083.34 262.334 1101.52 262.334 1123.95C262.334 1146.38 283.407 1164.56 309.403 1164.56Z" fill="#FF00E5"/>
<path d="M770.855 1281.27C791.984 1281.27 809.112 1266.5 809.112 1248.27C809.112 1230.04 791.984 1215.27 770.855 1215.27C749.727 1215.27 732.599 1230.04 732.599 1248.27C732.599 1266.5 749.727 1281.27 770.855 1281.27Z" fill="#FE434C"/>
<path d="M417.774 240.469C417.774 240.469 450.608 272.07 520.705 276.198" stroke="white" stroke-width="2" stroke-miterlimit="10" stroke-linecap="round" stroke-linejoin="round"/>
<path d="M354.19 485.173C354.19 485.173 459.701 560.702 636.21 555.834" stroke="white" stroke-width="2" stroke-miterlimit="10" stroke-linecap="round" stroke-linejoin="round"/>
<path d="M532.179 350.035C532.179 350.035 450.827 391.04 357.148 401.248" stroke="white" stroke-width="2" stroke-miterlimit="10" stroke-linecap="round" stroke-linejoin="round"/>
<path d="M263.471 845.068C263.471 845.068 468.498 1018.14 800.887 993.626" stroke="white" stroke-width="2" stroke-miterlimit="10" stroke-linecap="round" stroke-linejoin="round"/>
<path d="M763.415 1096.25C763.415 1096.25 466.604 1285.1 98.7939 1253.63" stroke="white" stroke-width="2" stroke-miterlimit="10" stroke-linecap="round" stroke-linejoin="round"/>
<path d="M532.208 438.165C532.208 438.165 508.509 383.218 532.179 383.218C554.228 383.218 532.208 438.165 532.208 438.165Z" stroke="white" stroke-width="2" stroke-miterlimit="10" stroke-linecap="round" stroke-linejoin="round"/>
<path d="M365.775 613.79C365.775 613.79 342.391 559.573 365.746 559.573C387.503 559.573 365.775 613.79 365.775 613.79Z" stroke="white" stroke-width="2" stroke-miterlimit="10" stroke-linecap="round" stroke-linejoin="round"/>
<path d="M589.606 807.678C589.606 807.678 561.167 741.74 589.571 741.74C616.031 741.74 589.606 807.678 589.606 807.678Z" stroke="white" stroke-width="2" stroke-miterlimit="10" stroke-linecap="round" stroke-linejoin="round"/>
<path d="M309.439 1066.19C309.439 1066.19 280.28 998.582 309.403 998.582C336.531 998.582 309.439 1066.19 309.439 1066.19Z" stroke="white" stroke-width="2" stroke-miterlimit="10" stroke-linecap="round" stroke-linejoin="round"/>
<path d="M770.885 1201.32C770.885 1201.32 747.185 1146.37 770.856 1146.37C792.905 1146.37 770.885 1201.32 770.885 1201.32Z" stroke="white" stroke-width="2" stroke-miterlimit="10" stroke-linecap="round" stroke-linejoin="round"/>
<path d="M247.352 755.128C247.352 755.128 421.244 769.307 629.308 637.168" stroke="white" stroke-width="2" stroke-miterlimit="10" stroke-linecap="round" stroke-linejoin="round"/>
<path d="M525.023 452.779C525.023 452.779 520.868 438.328 532.208 438.165C543.548 438.002 539.224 452.919 539.224 452.919L525.023 452.779Z" fill="#FF9843"/>
<path d="M358.686 628.209C358.686 628.209 354.585 613.951 365.775 613.789C376.964 613.628 372.698 628.348 372.698 628.348L358.686 628.209Z" fill="#FF9843"/>
<path d="M580.984 825.216C580.984 825.216 575.998 807.875 589.606 807.679C603.214 807.483 598.026 825.385 598.026 825.385L580.984 825.216Z" fill="#FF9843"/>
<path d="M300.599 1084.16C300.599 1084.16 295.486 1066.38 309.438 1066.18C323.39 1065.98 318.071 1084.34 318.071 1084.34L300.599 1084.16Z" fill="#FF9843"/>
<path d="M763.7 1215.93C763.7 1215.93 759.545 1201.48 770.885 1201.32C782.225 1201.15 777.901 1216.07 777.901 1216.07L763.7 1215.93Z" fill="#FF9843"/>
<path d="M425.969 100.396L460.285 0L485.973 106.89L598.876 127.224L502.99 160.312L529.798 250.95L453.178 190.07L357.528 235.257L398.097 153.282L325.248 99.6332L425.969 100.396Z" fill="#FF1029"/>
<path d="M440.787 266.653C448.604 266.653 454.94 261.186 454.94 254.443C454.94 247.7 448.604 242.233 440.787 242.233C432.97 242.233 426.633 247.7 426.633 254.443C426.633 261.186 432.97 266.653 440.787 266.653Z" fill="#000DFF"/>
<path d="M508.074 371.953C515.891 371.953 522.228 366.486 522.228 359.743C522.228 352.999 515.891 347.533 508.074 347.533C500.258 347.533 493.921 352.999 493.921 359.743C493.921 366.486 500.258 371.953 508.074 371.953Z" fill="#FF00E5"/>
<path d="M486.748 282.755C494.565 282.755 500.902 277.288 500.902 270.545C500.902 263.802 494.565 258.335 486.748 258.335C478.931 258.335 472.595 263.802 472.595 270.545C472.595 277.288 478.931 282.755 486.748 282.755Z" fill="#000DFF"/>
<path d="M450.582 392.896C458.398 392.896 464.735 387.429 464.735 380.686C464.735 373.943 458.398 368.476 450.582 368.476C442.765 368.476 436.428 373.943 436.428 380.686C436.428 387.429 442.765 392.896 450.582 392.896Z" fill="#FF00E5"/>
<path d="M395.543 407.113C403.359 407.113 409.696 401.646 409.696 394.903C409.696 388.159 403.359 382.693 395.543 382.693C387.726 382.693 381.389 388.159 381.389 394.903C381.389 401.646 387.726 407.113 395.543 407.113Z" fill="#FF00E5"/>
<path d="M433.639 535.547C441.456 535.547 447.792 530.08 447.792 523.337C447.792 516.594 441.456 511.127 433.639 511.127C425.822 511.127 419.485 516.594 419.485 523.337C419.485 530.08 425.822 535.547 433.639 535.547Z" fill="#FF0000"/>
<path d="M486.855 553.531C494.672 553.531 501.009 548.065 501.009 541.321C501.009 534.578 494.672 529.111 486.855 529.111C479.038 529.111 472.702 534.578 472.702 541.321C472.702 548.065 479.038 553.531 486.855 553.531Z" fill="#FF0000"/>
<path d="M544.55 565.742C552.367 565.742 558.704 560.275 558.704 553.532C558.704 546.788 552.367 541.322 544.55 541.322C536.734 541.322 530.397 546.788 530.397 553.532C530.397 560.275 536.734 565.742 544.55 565.742Z" fill="#FF0000"/>
<path d="M601.34 570.211C609.157 570.211 615.493 564.745 615.493 558.001C615.493 551.258 609.157 545.792 601.34 545.792C593.523 545.792 587.187 551.258 587.187 558.001C587.187 564.745 593.523 570.211 601.34 570.211Z" fill="#FF0000"/>
<path d="M594.246 668.799C602.063 668.799 608.399 663.332 608.399 656.589C608.399 649.845 602.063 644.379 594.246 644.379C586.429 644.379 580.092 649.845 580.092 656.589C580.092 663.332 586.429 668.799 594.246 668.799Z" fill="#000DFF"/>
<path d="M544.55 697.61C552.367 697.61 558.704 692.144 558.704 685.4C558.704 678.657 552.367 673.19 544.55 673.19C536.734 673.19 530.397 678.657 530.397 685.4C530.397 692.144 536.734 697.61 544.55 697.61Z" fill="#000DFF"/>
<path d="M486.748 721.125C494.565 721.125 500.902 715.658 500.902 708.915C500.902 702.172 494.565 696.705 486.748 696.705C478.931 696.705 472.595 702.172 472.595 708.915C472.595 715.658 478.931 721.125 486.748 721.125Z" fill="#000DFF"/>
<path d="M424.009 740.374C431.826 740.374 438.162 734.907 438.162 728.164C438.162 721.421 431.826 715.954 424.009 715.954C416.192 715.954 409.855 721.421 409.855 728.164C409.855 734.907 416.192 740.374 424.009 740.374Z" fill="#000DFF"/>
<path d="M361.27 758.156C369.086 758.156 375.423 752.69 375.423 745.946C375.423 739.203 369.086 733.736 361.27 733.736C353.453 733.736 347.116 739.203 347.116 745.946C347.116 752.69 353.453 758.156 361.27 758.156Z" fill="#000DFF"/>
<path d="M297.459 767.783C305.275 767.783 311.612 762.317 311.612 755.573C311.612 748.83 305.275 743.363 297.459 743.363C289.642 743.363 283.305 748.83 283.305 755.573C283.305 762.317 289.642 767.783 297.459 767.783Z" fill="#000DFF"/>
<path d="M288.509 876.228C296.326 876.228 302.662 870.762 302.662 864.019C302.662 857.275 296.326 851.809 288.509 851.809C280.692 851.809 274.355 857.275 274.355 864.019C274.355 870.762 280.692 876.228 288.509 876.228Z" fill="#FF0000"/>
<path d="M333.77 903.623C341.587 903.623 347.924 898.156 347.924 891.413C347.924 884.67 341.587 879.203 333.77 879.203C325.953 879.203 319.617 884.67 319.617 891.413C319.617 898.156 325.953 903.623 333.77 903.623Z" fill="#FF0000"/>
<path d="M387.012 932.744C394.829 932.744 401.166 927.278 401.166 920.534C401.166 913.791 394.829 908.324 387.012 908.324C379.196 908.324 372.859 913.791 372.859 920.534C372.859 927.278 379.196 932.744 387.012 932.744Z" fill="#FF0000"/>
<path d="M441.267 957.165C449.083 957.165 455.42 951.698 455.42 944.955C455.42 938.212 449.083 932.745 441.267 932.745C433.45 932.745 427.113 938.212 427.113 944.955C427.113 951.698 433.45 957.165 441.267 957.165Z" fill="#FF0000"/>
<path d="M500.902 973.498C508.719 973.498 515.055 968.031 515.055 961.288C515.055 954.545 508.719 949.078 500.902 949.078C493.085 949.078 486.749 954.545 486.749 961.288C486.749 968.031 493.085 973.498 500.902 973.498Z" fill="#FF0000"/>
<path d="M558.42 991.565C566.237 991.565 572.574 986.099 572.574 979.355C572.574 972.612 566.237 967.146 558.42 967.146C550.603 967.146 544.267 972.612 544.267 979.355C544.267 986.099 550.603 991.565 558.42 991.565Z" fill="#FF0000"/>
<path d="M626.046 1003.77C633.862 1003.77 640.199 998.308 640.199 991.564C640.199 984.821 633.862 979.354 626.046 979.354C618.229 979.354 611.892 984.821 611.892 991.564C611.892 998.308 618.229 1003.77 626.046 1003.77Z" fill="#FF0000"/>
<path d="M698.486 1006.15C706.303 1006.15 712.64 1000.68 712.64 993.94C712.64 987.197 706.303 981.73 698.486 981.73C690.67 981.73 684.333 987.197 684.333 993.94C684.333 1000.68 690.67 1006.15 698.486 1006.15Z" fill="#FF0000"/>
<path d="M763.415 1008.21C771.232 1008.21 777.569 1002.75 777.569 996.005C777.569 989.261 771.232 983.795 763.415 983.795C755.598 983.795 749.262 989.261 749.262 996.005C749.262 1002.75 755.598 1008.21 763.415 1008.21Z" fill="#FF0000"/>
<path d="M733.35 1127.34C741.167 1127.34 747.503 1121.88 747.503 1115.13C747.503 1108.39 741.167 1102.92 733.35 1102.92C725.533 1102.92 719.196 1108.39 719.196 1115.13C719.196 1121.88 725.533 1127.34 733.35 1127.34Z" fill="#00FFF2"/>
<path d="M674.224 1156.18C682.041 1156.18 688.377 1150.71 688.377 1143.97C688.377 1137.22 682.041 1131.76 674.224 1131.76C666.407 1131.76 660.07 1137.22 660.07 1143.97C660.07 1150.71 666.407 1156.18 674.224 1156.18Z" fill="#00FFF2"/>
<path d="M616.039 1180.55C623.856 1180.55 630.193 1175.08 630.193 1168.34C630.193 1161.6 623.856 1156.13 616.039 1156.13C608.222 1156.13 601.886 1161.6 601.886 1168.34C601.886 1175.08 608.222 1180.55 616.039 1180.55Z" fill="#00FFF2"/>
<path d="M558.42 1204.57C566.237 1204.57 572.574 1199.11 572.574 1192.36C572.574 1185.62 566.237 1180.15 558.42 1180.15C550.603 1180.15 544.267 1185.62 544.267 1192.36C544.267 1199.11 550.603 1204.57 558.42 1204.57Z" fill="#00FFF2"/>
<path d="M500.902 1222.72C508.719 1222.72 515.055 1217.26 515.055 1210.51C515.055 1203.77 508.719 1198.3 500.902 1198.3C493.085 1198.3 486.749 1203.77 486.749 1210.51C486.749 1217.26 493.085 1222.72 500.902 1222.72Z" fill="#00FFF2"/>
<path d="M441.267 1240.49C449.083 1240.49 455.42 1235.03 455.42 1228.28C455.42 1221.54 449.083 1216.07 441.267 1216.07C433.45 1216.07 427.113 1221.54 427.113 1228.28C427.113 1235.03 433.45 1240.49 441.267 1240.49Z" fill="#00FFF2"/>
<path d="M379.848 1252.7C387.665 1252.7 394.002 1247.23 394.002 1240.49C394.002 1233.75 387.665 1228.28 379.848 1228.28C372.032 1228.28 365.695 1233.75 365.695 1240.49C365.695 1247.23 372.032 1252.7 379.848 1252.7Z" fill="#00FFF2"/>
<path d="M316.903 1263.59C324.719 1263.59 331.056 1258.13 331.056 1251.38C331.056 1244.64 324.719 1239.17 316.903 1239.17C309.086 1239.17 302.749 1244.64 302.749 1251.38C302.749 1258.13 309.086 1263.59 316.903 1263.59Z" fill="#00FFF2"/>
<path d="M252.347 1267.83C260.164 1267.83 266.501 1262.36 266.501 1255.62C266.501 1248.88 260.164 1243.41 252.347 1243.41C244.531 1243.41 238.194 1248.88 238.194 1255.62C238.194 1262.36 244.531 1267.83 252.347 1267.83Z" fill="#00FFF2"/>
<path d="M185.759 1269.37C193.576 1269.37 199.912 1263.91 199.912 1257.16C199.912 1250.42 193.576 1244.95 185.759 1244.95C177.942 1244.95 171.605 1250.42 171.605 1257.16C171.605 1263.91 177.942 1269.37 185.759 1269.37Z" fill="#00FFF2"/>
<path d="M124.373 1269.37C132.19 1269.37 138.527 1263.91 138.527 1257.16C138.527 1250.42 132.19 1244.95 124.373 1244.95C116.556 1244.95 110.22 1250.42 110.22 1257.16C110.22 1263.91 116.556 1269.37 124.373 1269.37Z" fill="#00FFF2"/>
<path d="M381.389 513.379C389.206 513.379 395.542 507.912 395.542 501.169C395.542 494.426 389.206 488.959 381.389 488.959C373.572 488.959 367.235 494.426 367.235 501.169C367.235 507.912 373.572 513.379 381.389 513.379Z" fill="#FF0000"/>
<path d="M682.977 585.361C681.936 591.336 676.153 596.691 665.957 601.118C655.76 605.544 641.351 608.958 623.552 611.162C605.753 613.366 584.912 614.319 562.219 613.965C539.526 613.612 515.426 611.958 491.295 609.1C467.163 606.242 443.473 602.235 421.577 597.308C399.681 592.381 380.007 586.63 363.679 580.384C347.352 574.137 334.69 567.518 326.417 560.903C318.143 554.289 314.421 547.809 315.461 541.833" stroke="white"/>
<rect width="9.42421" height="13.5794" rx="4.71211" transform="matrix(0.814799 0.54117 -0.627103 0.80786 317.349 552.234)" fill="white"/>
<ellipse cx="9.1011" cy="8.83351" rx="9.1011" ry="8.83351" transform="matrix(0.814799 0.54117 -0.627103 0.80786 309.28 555.889)" fill="#FFF000"/>
<rect width="9.48484" height="13.486" rx="4.74242" transform="matrix(0.906763 0.385727 -0.465731 0.90261 358.265 576.286)" fill="white"/>
<ellipse cx="9.15965" cy="8.77278" rx="9.15965" ry="8.77278" transform="matrix(0.906763 0.385727 -0.465731 0.90261 350.994 581.241)" fill="#00FF00"/>
<rect width="9.51637" height="13.437" rx="4.75818" transform="matrix(0.963776 0.239999 -0.307557 0.95936 409.506 592.624)" fill="white"/>
<ellipse cx="9.1901" cy="8.74088" rx="9.1901" ry="8.74088" transform="matrix(0.963776 0.239999 -0.307557 0.95936 403.143 598.586)" fill="#FFF000"/>
<rect width="9.52416" height="13.4248" rx="4.76208" transform="matrix(0.988149 0.143753 -0.200766 0.981277 459.463 603.805)" fill="white"/>
<ellipse cx="9.19762" cy="8.73297" rx="9.19762" ry="8.73297" transform="matrix(0.988149 0.143753 -0.200766 0.981277 453.771 610.332)" fill="#00FF00"/>
<rect width="9.52109" height="13.4296" rx="4.76055" transform="matrix(1.0037 0.0373162 -0.0815736 0.991758 509.649 610.304)" fill="white"/>
<ellipse cx="9.19466" cy="8.73608" rx="9.19466" ry="8.73608" transform="matrix(1.0037 0.0373162 -0.0815736 0.991758 504.761 617.365)" fill="#FFF000"/>
<rect width="9.50615" height="13.4529" rx="4.75307" transform="matrix(1.00761 -0.0697567 0.0385303 0.988109 566.02 613.979)" fill="white"/>
<ellipse cx="9.18023" cy="8.75125" rx="9.18023" ry="8.75125" transform="matrix(1.00761 -0.0697567 0.0385303 0.988109 561.996 621.484)" fill="#00FF00"/>
<rect width="9.48001" height="13.4935" rx="4.74" transform="matrix(0.999709 -0.176476 0.157521 0.970536 622.84 610.577)" fill="white"/>
<ellipse cx="9.15499" cy="8.77764" rx="9.15499" ry="8.77764" transform="matrix(0.999709 -0.176476 0.157521 0.970536 619.732 618.43)" fill="#FFF000"/>
<rect width="9.42705" height="13.575" rx="4.71352" transform="matrix(0.968548 -0.323536 0.318862 0.923515 668.775 598.094)" fill="white"/>
<ellipse cx="9.10384" cy="8.83069" rx="9.10384" ry="8.83069" transform="matrix(0.968548 -0.323536 0.318862 0.923515 667.019 606.262)" fill="#00FF00"/>
<path d="M569.952 395.804C571.918 401.082 570.622 407.357 566.139 414.27C561.655 421.183 554.072 428.598 543.821 436.093C533.571 443.589 520.855 451.016 506.398 457.953C491.941 464.889 476.028 471.198 459.566 476.52C443.104 481.841 426.416 486.071 410.454 488.968C394.493 491.864 379.571 493.371 366.541 493.402C353.51 493.432 342.626 491.986 334.51 489.146C326.394 486.307 321.205 482.128 319.239 476.85" stroke="white"/>
<rect width="7.15495" height="11.9962" rx="3.57747" transform="matrix(0.989103 0.248175 -0.0461526 0.983146 324.992 484.858)" fill="white"/>
<ellipse cx="6.90964" cy="7.80367" rx="6.90964" ry="7.80367" transform="matrix(0.989103 0.248175 -0.0461526 0.983146 321.511 490.455)" fill="#FFF000"/>
<rect width="6.93189" height="12.2815" rx="3.46595" transform="matrix(1.01348 0.0416548 0.112551 0.983388 361.331 491.735)" fill="white"/>
<ellipse cx="6.69423" cy="7.98922" rx="6.69423" ry="7.98922" transform="matrix(1.01348 0.0416548 0.112551 0.983388 358.922 498.153)" fill="#000DFF"/>
<rect width="6.81243" height="12.4279" rx="3.40621" transform="matrix(0.995563 -0.151362 0.245518 0.964579 400.792 488.936)" fill="white"/>
<ellipse cx="6.57886" cy="8.08448" rx="6.57886" ry="8.08448" transform="matrix(0.995563 -0.151362 0.245518 0.964579 399.398 495.898)" fill="#FFF000"/>
<rect width="6.78254" height="12.4639" rx="3.39127" transform="matrix(0.963042 -0.274933 0.327436 0.943823 437.181 482.277)" fill="white"/>
<ellipse cx="6.55" cy="8.10789" rx="6.55" ry="8.10789" transform="matrix(0.963042 -0.274933 0.327436 0.943823 436.458 489.493)" fill="#000DFF"/>
<rect width="6.79431" height="12.4498" rx="3.39715" transform="matrix(0.909363 -0.404784 0.413914 0.91363 471.661 471.668)" fill="white"/>
<ellipse cx="6.56136" cy="8.0987" rx="6.56136" ry="8.0987" transform="matrix(0.909363 -0.404784 0.413914 0.91363 471.678 479.071)" fill="#FFF000"/>
<rect width="6.85144" height="12.3806" rx="3.42572" transform="matrix(0.838596 -0.525482 0.497458 0.875475 508.799 456.753)" fill="white"/>
<ellipse cx="6.61654" cy="8.05368" rx="6.61654" ry="8.05368" transform="matrix(0.838596 -0.525482 0.497458 0.875475 509.556 464.248)" fill="#000DFF"/>
<rect width="6.94995" height="12.259" rx="3.47498" transform="matrix(0.753782 -0.633682 0.577965 0.82909 543.116 435.836)" fill="white"/>
<ellipse cx="6.71167" cy="7.97457" rx="6.71167" ry="7.97457" transform="matrix(0.753782 -0.633682 0.577965 0.82909 544.603 443.327)" fill="#FFF000"/>
<rect width="7.14472" height="12.0097" rx="3.57236" transform="matrix(0.618094 -0.760491 0.685141 0.74932 566.588 410.869)" fill="white"/>
<ellipse cx="6.89976" cy="7.81241" rx="6.89976" ry="7.81241" transform="matrix(0.618094 -0.760491 0.685141 0.74932 569.065 418.19)" fill="#000DFF"/>
<path d="M584.71 378.759C582.657 382.344 577.906 384.714 570.728 385.733C563.549 386.752 554.085 386.401 542.874 384.699C531.664 382.997 518.926 379.978 505.39 375.815C491.854 371.652 477.783 366.425 463.982 360.434C450.181 354.442 436.919 347.803 424.954 340.896C412.989 333.989 402.555 326.949 394.248 320.177C385.94 313.406 379.923 307.036 376.538 301.431C373.153 295.826 372.468 291.097 374.521 287.512" stroke="white"/>
<rect width="5.95373" height="9.06188" rx="2.97686" transform="matrix(0.569387 0.76377 -0.853427 0.59968 373.167 294.394)" fill="white"/>
<ellipse cx="5.7496" cy="5.89484" rx="5.7496" ry="5.89484" transform="matrix(0.569387 0.76377 -0.853427 0.59968 367.451 295.296)" fill="#FFF000"/>
<rect width="5.9197" height="9.11087" rx="2.95985" transform="matrix(0.724321 0.641742 -0.733154 0.722212 391.977 316.655)" fill="white"/>
<ellipse cx="5.71674" cy="5.92671" rx="5.71674" ry="5.92671" transform="matrix(0.724321 0.641742 -0.733154 0.722212 386.428 318.515)" fill="#00FFF2"/>
<rect width="5.90185" height="9.13637" rx="2.95092" transform="matrix(0.840275 0.513714 -0.60877 0.810569 418.828 335.849)" fill="white"/>
<ellipse cx="5.6995" cy="5.9433" rx="5.6995" ry="5.9433" transform="matrix(0.840275 0.513714 -0.60877 0.810569 413.583 338.501)" fill="#FFF000"/>
<rect width="5.89742" height="9.14266" rx="2.94871" transform="matrix(0.902374 0.423409 -0.52137 0.856787 446.141 351.569)" fill="white"/>
<ellipse cx="5.69522" cy="5.94739" rx="5.69522" ry="5.94739" transform="matrix(0.902374 0.423409 -0.52137 0.856787 441.165 354.694)" fill="#00FFF2"/>
<rect width="5.89916" height="9.14019" rx="2.94958" transform="matrix(0.95795 0.319255 -0.420261 0.897438 474.711 364.379)" fill="white"/>
<ellipse cx="5.6969" cy="5.94578" rx="5.6969" ry="5.94578" transform="matrix(0.95795 0.319255 -0.420261 0.897438 470.089 367.979)" fill="#FFF000"/>
<rect width="5.90765" height="9.1281" rx="2.95382" transform="matrix(1.00002 0.210813 -0.314017 0.927536 507.667 376.484)" fill="white"/>
<ellipse cx="5.7051" cy="5.93792" rx="5.7051" ry="5.93792" transform="matrix(1.00002 0.210813 -0.314017 0.927536 503.458 380.515)" fill="#00FFF2"/>
<rect width="5.92243" height="9.10697" rx="2.96121" transform="matrix(1.02804 0.0998685 -0.203646 0.946699 542.586 384.207)" fill="white"/>
<ellipse cx="5.71938" cy="5.92417" rx="5.71938" ry="5.92417" transform="matrix(1.02804 0.0998685 -0.203646 0.946699 538.844 388.615)" fill="#FFF000"/>
<rect width="5.95215" height="9.06416" rx="2.97607" transform="matrix(1.04324 -0.0565279 -0.0439756 0.954501 573.142 384.317)" fill="white"/>
<ellipse cx="5.74808" cy="5.89633" rx="5.74808" ry="5.89633" transform="matrix(1.04324 -0.0565279 -0.0439756 0.954501 570.135 389.159)" fill="#00FFF2"/>
<path d="M739.966 730.517C738.726 737.636 731.66 743.994 719.17 749.228C706.68 754.461 689.011 758.468 667.173 761.019C645.334 763.571 619.753 764.617 591.89 764.097C564.028 763.578 534.429 761.503 504.784 757.992C475.139 754.481 446.029 749.602 419.115 743.634C392.202 737.666 368.012 730.726 347.926 723.209C327.841 715.692 312.254 707.747 302.055 699.826C291.855 691.905 287.244 684.164 288.484 677.045" stroke="white"/>
<rect width="11.5098" height="16.2955" rx="5.75492" transform="matrix(0.821886 0.531111 -0.637318 0.800295 290.867 689.451)" fill="white"/>
<ellipse cx="11.1152" cy="10.6004" rx="11.1152" ry="10.6004" transform="matrix(0.821886 0.531111 -0.637318 0.800295 280.984 693.774)" fill="#FFF000"/>
<rect width="11.6253" height="16.1139" rx="5.81264" transform="matrix(0.910274 0.378354 -0.473758 0.898864 341.252 718.302)" fill="white"/>
<ellipse cx="11.2267" cy="10.4823" rx="11.2267" ry="10.4823" transform="matrix(0.910274 0.378354 -0.473758 0.898864 332.357 724.179)" fill="#00FFF2"/>
<rect width="11.6851" height="16.0182" rx="5.84257" transform="matrix(0.964874 0.236385 -0.311654 0.958271 404.266 737.999)" fill="white"/>
<ellipse cx="11.2845" cy="10.42" rx="11.2845" ry="10.42" transform="matrix(0.964874 0.236385 -0.311654 0.958271 396.492 745.08)" fill="#FFF000"/>
<rect width="11.6999" height="15.9944" rx="5.84996" transform="matrix(0.988308 0.142966 -0.201672 0.981142 465.67 751.544)" fill="white"/>
<ellipse cx="11.2988" cy="10.4045" rx="11.2988" ry="10.4045" transform="matrix(0.988308 0.142966 -0.201672 0.981142 458.724 759.301)" fill="#00FFF2"/>
<rect width="11.6941" height="16.0038" rx="5.84705" transform="matrix(1.00348 0.0397372 -0.0787728 0.991834 527.326 759.506)" fill="white"/>
<ellipse cx="11.2932" cy="10.4106" rx="11.2932" ry="10.4106" transform="matrix(1.00348 0.0397372 -0.0787728 0.991834 521.368 767.903)" fill="#FFF000"/>
<rect width="11.6657" height="16.0493" rx="5.83287" transform="matrix(1.00769 -0.0642294 0.0448945 0.987522 596.556 764.131)" fill="white"/>
<ellipse cx="11.2658" cy="10.4402" rx="11.2658" ry="10.4402" transform="matrix(1.00769 -0.0642294 0.0448945 0.987522 591.663 773.061)" fill="#00FFF2"/>
<rect width="11.6161" height="16.1285" rx="5.80805" transform="matrix(1.00075 -0.168182 0.166937 0.968542 666.294 760.32)" fill="white"/>
<ellipse cx="11.2178" cy="10.4917" rx="11.2178" ry="10.4917" transform="matrix(1.00075 -0.168182 0.166937 0.968542 662.529 769.668)" fill="#FFF000"/>
<rect width="11.5152" height="16.2871" rx="5.75762" transform="matrix(0.971797 -0.312338 0.33116 0.918763 722.611 745.637)" fill="white"/>
<ellipse cx="11.1204" cy="10.5949" rx="11.1204" ry="10.5949" transform="matrix(0.971797 -0.312338 0.33116 0.918763 720.506 755.366)" fill="#00FFF2"/>
<path d="M719.323 868.269C720.531 877.366 715.035 887.232 703.149 897.305C691.262 907.378 673.219 917.46 650.048 926.975C626.877 936.491 599.032 945.254 568.104 952.763C537.176 960.273 503.77 966.383 469.793 970.743C435.816 975.104 401.934 977.63 370.081 978.178C338.229 978.725 309.029 977.284 284.15 973.935C259.27 970.586 239.198 965.396 225.08 958.661C210.961 951.926 203.073 943.777 201.865 934.681" stroke="white"/>
<rect width="13.4809" height="20.2297" rx="6.74044" transform="matrix(0.938262 0.351132 -0.333143 0.940991 208.983 949.205)" fill="white"/>
<ellipse cx="13.0187" cy="13.1596" rx="13.0187" ry="13.1596" transform="matrix(0.938262 0.351132 -0.333143 0.940991 199.644 957.398)" fill="#FFF000"/>
<rect width="13.4482" height="20.2776" rx="6.72408" transform="matrix(0.986498 0.171172 -0.156911 0.986396 275.011 969.865)" fill="white"/>
<ellipse cx="12.9871" cy="13.1908" rx="12.9871" ry="13.1908" transform="matrix(0.986498 0.171172 -0.156911 0.986396 267.323 979.676)" fill="#FF00E5"/>
<rect width="13.431" height="20.3026" rx="6.71551" transform="matrix(1.00056 0.00685237 0.00227634 0.999435 351.659 975.605)" fill="white"/>
<ellipse cx="12.9705" cy="13.2071" rx="12.9705" ry="13.2071" transform="matrix(1.00056 0.00685237 0.00227634 0.999435 345.644 986.566)" fill="#FFF000"/>
<rect width="13.4268" height="20.3088" rx="6.71339" transform="matrix(0.995216 -0.0989761 0.104353 0.994419 424.306 974.268)" fill="white"/>
<ellipse cx="12.9664" cy="13.2111" rx="12.9664" ry="13.2111" transform="matrix(0.995216 -0.0989761 0.104353 0.994419 419.449 985.814)" fill="#FF00E5"/>
<rect width="13.4285" height="20.3064" rx="6.71423" transform="matrix(0.976649 -0.213065 0.214337 0.977135 495.21 966.008)" fill="white"/>
<ellipse cx="12.9681" cy="13.2095" rx="12.9681" ry="13.2095" transform="matrix(0.976649 -0.213065 0.214337 0.977135 491.676 978.052)" fill="#FFF000"/>
<rect width="13.4366" height="20.2945" rx="6.71829" transform="matrix(0.945064 -0.324227 0.321739 0.947711 573.264 951.439)" fill="white"/>
<ellipse cx="12.9759" cy="13.2018" rx="12.9759" ry="13.2018" transform="matrix(0.945064 -0.324227 0.321739 0.947711 571.097 963.825)" fill="#FF00E5"/>
<rect width="13.4508" height="20.2738" rx="6.72539" transform="matrix(0.900958 -0.430891 0.425308 0.906445 648.825 926.374)" fill="white"/>
<ellipse cx="12.9896" cy="13.1883" rx="12.9896" ry="13.1883" transform="matrix(0.900958 -0.430891 0.425308 0.906445 648.054 938.942)" fill="#FFF000"/>
<rect width="13.4794" height="20.2319" rx="6.73968" transform="matrix(0.819389 -0.570096 0.561737 0.829437 705.646 891.892)" fill="white"/>
<ellipse cx="13.0172" cy="13.1611" rx="13.0172" ry="13.1611" transform="matrix(0.819389 -0.570096 0.561737 0.829437 706.844 904.444)" fill="#FF00E5"/>
<path d="M868.594 1224.08C864.456 1234.12 851.871 1241.44 831.557 1245.63C811.242 1249.82 783.597 1250.8 750.198 1248.52C716.8 1246.23 678.303 1240.72 636.905 1232.3C595.508 1223.89 552.02 1212.73 508.925 1199.46C465.831 1186.2 423.973 1171.08 385.742 1154.99C347.511 1138.89 313.656 1122.13 286.109 1105.66C258.563 1089.18 237.864 1073.32 225.195 1058.98C212.526 1044.63 208.135 1032.08 212.273 1022.05" stroke="white"/>
<rect width="17.3665" height="24.5058" rx="7" transform="matrix(0.699448 0.662634 -0.803254 0.658885 211.84 1040.78)" fill="white"/>
<ellipse cx="16.7711" cy="15.9412" rx="16.7711" ry="15.9412" transform="matrix(0.699448 0.662634 -0.803254 0.658885 195.708 1044.37)" fill="#FFF000"/>
<rect width="17.5522" height="24.2124" rx="7" transform="matrix(0.81884 0.530876 -0.662627 0.784944 277.731 1096.67)" fill="white"/>
<ellipse cx="16.9504" cy="15.7504" rx="16.9504" ry="15.7504" transform="matrix(0.81884 0.530876 -0.662627 0.784944 262.573 1102.79)" fill="#0FB50C"/>
<rect width="17.6485" height="24.0577" rx="7" transform="matrix(0.90271 0.403678 -0.51463 0.872604 365.401 1142.69)" fill="white"/>
<ellipse cx="17.0434" cy="15.6498" rx="17.0434" ry="15.6498" transform="matrix(0.90271 0.403678 -0.51463 0.872604 351.528 1150.87)" fill="#FFF000"/>
<rect width="17.6722" height="24.0193" rx="7" transform="matrix(0.945659 0.317794 -0.410331 0.915029 452.648 1179.31)" fill="white"/>
<ellipse cx="17.0663" cy="15.6248" rx="17.0663" ry="15.6248" transform="matrix(0.945659 0.317794 -0.410331 0.915029 439.793 1188.7)" fill="#0FB50C"/>
<rect width="17.6629" height="24.0344" rx="7" transform="matrix(0.982641 0.220984 -0.290522 0.947859 542.067 1207.86)" fill="white"/>
<ellipse cx="17.0573" cy="15.6346" rx="17.0573" ry="15.6346" transform="matrix(0.982641 0.220984 -0.290522 0.947859 530.48 1218.46)" fill="#FFF000"/>
<rect width="17.6173" height="24.1081" rx="7" transform="matrix(1.00908 0.121476 -0.166722 0.966105 643.855 1233.63)" fill="white"/>
<ellipse cx="17.0132" cy="15.6825" rx="17.0132" ry="15.6825" transform="matrix(1.00908 0.121476 -0.166722 0.966105 633.686 1245.3)" fill="#0FB50C"/>
<rect width="17.5375" height="24.236" rx="7" transform="matrix(1.02464 0.0199232 -0.0414431 0.969669 749.113 1247.25)" fill="white"/>
<ellipse cx="16.9362" cy="15.7657" rx="16.9362" ry="15.7657" transform="matrix(1.02464 0.0199232 -0.0414431 0.969669 740.492 1259.84)" fill="#FFF000"/>
<rect width="17.3752" height="24.4922" rx="7" transform="matrix(1.02731 -0.124546 0.132138 0.950754 837.845 1241.34)" fill="white"/>
<ellipse cx="16.7795" cy="15.9324" rx="16.7795" ry="15.9324" transform="matrix(1.02731 -0.124546 0.132138 0.950754 831.577 1254.94)" fill="#0FB50C"/>
</svg>
