<svg width="485" height="618" viewBox="0 0 485 618" fill="none" xmlns="http://www.w3.org/2000/svg">
<path d="M12.9417 474.133L115.269 451.794L312.609 457.808L465.906 427.962L467.617 600.181L27.1133 604.523L12.9417 474.133Z" fill="#CFF3F3"/>
<rect x="11.6137" y="11.3861" width="455.232" height="589.872" transform="matrix(0.999951 -0.0098582 0.0099353 0.999951 -0.112559 4.8299)" stroke="white" stroke-width="23"/>
<path d="M172.853 438.007C175.394 436.599 174.824 433.246 174.824 433.246C174.824 433.246 180.956 437.048 187.355 435.536C193.755 434.025 194.039 430.321 194.039 430.321C178.213 415.211 163.203 394.619 153.8 377.084C156.543 374.846 156.402 370.376 156.402 370.376C156.402 370.376 159.431 375.497 164.454 376.138C169.477 376.779 172.729 372.746 172.729 372.746C162.998 364.738 149.478 344.738 141.829 329.635C143.218 327.589 141.733 324.444 141.733 324.444C141.733 324.444 144.777 328.851 148.676 328.813C152.576 328.775 153.892 325.354 153.892 325.354C144.72 316.124 136.416 301.949 130.796 290.322C130.602 289.522 130.277 288.941 130.277 288.941C130.277 288.941 132.994 291.384 135.452 291.128C137.911 290.872 138.968 288.855 138.968 288.855C138.968 288.855 131.609 283.679 126.213 274.703C122.509 268.543 119.644 262.884 118.211 259.939C119.341 261.15 121.499 262.769 124.319 261.641C127.189 260.492 126.963 257.213 126.963 257.213C115.7 249.287 108.644 237.888 104.021 224.479C104.021 224.479 100.289 236.413 95.5208 244.543C89.4783 254.844 83.0251 260.393 83.0251 260.393C83.0251 260.393 84.6237 262.1 86.8371 262.01C89.0505 261.92 90.604 259.084 90.604 259.084C90.604 259.084 88.2811 264.076 91.1376 265.037C91.6633 265.213 92.1921 265.178 92.7053 265.005C90.8712 268.715 88.5326 273.132 85.897 277.388C82.0551 283.591 73.4194 292.067 73.4194 292.067C73.4194 292.067 74.7009 294.06 78.9468 292.834C83.3564 291.561 85.4148 287.145 85.4148 287.145C85.4148 287.145 84.136 290.649 84.931 292.425C79.5339 305.651 71.2069 320.802 61.8286 330.706C61.8286 330.706 65.3327 334.281 71.465 332.517C74.2741 331.709 76.4106 329.933 77.9034 328.244C72.7681 343.007 62.6558 360.932 51.2393 372.912C51.2393 372.912 51.8679 376.545 57.5088 377.193C61.7745 377.683 64.1111 374.644 64.1111 374.644C64.1111 374.644 63.8398 378.895 66.9779 379.179C66.9899 379.18 67.0019 379.178 67.014 379.179C59.7716 396.279 45.9303 417.062 32.2433 432.399C32.2433 432.399 36.1303 436.223 44.9468 435.814C53.7632 435.405 57.8193 429.411 57.8193 429.411C57.8193 429.411 57.4652 430.531 57.4268 431.991C48.3144 453.95 34.5555 475.349 16.8406 496.272C16.8406 496.272 19.2811 499.788 27.2782 497.617C35.2753 495.446 37.0185 493.337 37.0185 493.337C37.0185 493.337 34.5199 500.12 38.7036 501.527C42.8873 502.934 49.422 498.847 49.422 498.847C49.422 498.847 47.8786 504.011 53.4962 504.921C59.1138 505.831 62.6001 501.613 62.6001 501.613C62.6001 501.613 65.3677 505.77 70.6611 505.878C75.9545 505.987 77.2086 503.078 77.2086 503.078C77.2086 503.078 76.6359 510.003 85.1461 511.046C93.6562 512.088 96.3055 504.338 96.3055 504.338C96.3055 504.338 96.6646 508.197 100.034 508.324C103.403 508.452 104.657 505.543 104.657 505.543C104.657 505.543 106.792 510.574 111.927 510.894C117.062 511.214 119.251 505.56 119.251 505.56C119.251 505.56 123.002 511.799 130.059 511.89C137.116 511.982 141.525 503.732 141.525 503.732C141.525 503.732 144.294 508.049 149.262 507.678C154.23 507.307 156.744 502.133 156.744 502.133C156.744 502.133 161.946 509.162 170.444 508.917C178.941 508.673 180.773 499.336 180.773 499.336C180.773 499.336 181.783 504.139 186.59 503.77C191.398 503.401 191.343 497.93 191.343 497.93C191.343 497.93 194.273 502.246 197.806 502.694C201.338 503.142 202.571 498.141 202.571 498.141C202.571 498.141 203.729 501.67 208.219 501.626C212.709 501.582 214.593 497.54 214.593 497.54C196.344 477.408 182.871 456.168 172.853 438.007Z" fill="#1A6D17"/>
<path d="M296.596 447.508C297.759 447.171 298.957 447.014 300.189 447.002C309.45 446.911 317.038 456.211 317.153 467.758C317.268 479.305 309.866 488.753 300.605 488.845L104.654 520.135L104.238 478.292L296.596 447.508Z" fill="#6E4D41"/>
<path d="M104.654 520.136C113.908 520.045 121.317 510.604 121.202 499.049C121.088 487.495 113.493 478.202 104.238 478.293C94.9844 478.384 87.5755 487.825 87.6903 499.379C87.8051 510.934 95.4001 520.227 104.654 520.136Z" fill="#C79E8F"/>
<path d="M115.988 497.362C115.803 492.078 113.484 486.743 109.424 483.779C106.303 481.493 102.064 480.738 98.7177 482.617C96.1338 484.091 94.3956 486.859 93.0911 489.696C91.3619 493.369 90.1392 497.725 91.4106 501.622C92.4405 504.689 94.8283 506.946 96.488 509.681C97.5719 511.48 98.4253 513.535 100.037 514.786C101.648 516.037 103.816 516.197 105.709 515.671C113.018 513.572 116.264 504.997 115.988 497.362Z" stroke="#6E4D41" stroke-width="1.5" stroke-miterlimit="10" stroke-linecap="round" stroke-linejoin="round"/>
<path d="M109.176 492.396C108.117 489.764 106.127 487.322 103.525 486.95C101.156 486.611 98.7724 488.119 97.5281 490.303C96.2838 492.487 96.0447 495.241 96.4363 497.771C96.8279 500.301 97.818 502.717 98.907 505.023C99.8599 507.041 101.181 509.272 103.283 509.577C106.286 510.018 109.679 506.184 110.283 503.173C110.949 499.872 110.405 495.425 109.176 492.396Z" stroke="#6E4D41" stroke-width="1.5" stroke-miterlimit="10" stroke-linecap="round" stroke-linejoin="round"/>
<path d="M105.783 503.001C105.455 503.511 104.892 503.879 104.326 503.848C103.659 503.782 103.153 503.172 102.747 502.597C101.259 500.367 97.5496 492.476 103.358 493.649C106.529 494.27 107.292 500.597 105.783 503.001Z" stroke="#6E4D41" stroke-width="1.5" stroke-miterlimit="10" stroke-linecap="round" stroke-linejoin="round"/>
<path d="M103.489 496.798C104.134 498.022 104.515 499.394 104.529 500.806" stroke="#6E4D41" stroke-width="1.5" stroke-miterlimit="10" stroke-linecap="round" stroke-linejoin="round"/>
<path d="M277.787 492.544C278.375 491.344 277.294 489.834 276.058 489.52C274.822 489.207 273.56 489.581 272.295 489.63C271.029 489.678 269.559 489.258 269.113 487.96C269.636 486.941 270.731 486.459 271.759 486.051C280.888 482.703 290.918 482.894 299.807 478.897C300.768 478.453 301.86 477.718 301.849 476.596C299.674 475.604 297.24 475.447 294.876 475.506C289.679 475.558 284.524 476.477 279.369 477.361C255.124 481.618 144.454 502.112 120.351 507.2" stroke="#131B24" stroke-width="1.5" stroke-miterlimit="10" stroke-linecap="round" stroke-linejoin="round"/>
<path d="M181.828 484.731C193.414 484.037 204.877 480.847 215.317 475.459C217.671 474.241 219.99 472.915 222.55 472.456C225.111 471.996 228.016 472.619 229.67 474.775C228.977 475.505 228.186 476.382 228.33 477.43C228.544 478.876 265.162 472.578 266.528 472.601C277.326 472.893 306.215 466.671 316.964 465.516" stroke="#131B24" stroke-width="1.5" stroke-miterlimit="10" stroke-linecap="round" stroke-linejoin="round"/>
<path d="M201.005 463.4C202.48 464.29 203.89 465.326 205.233 466.435C205.569 466.721 205.939 467.08 206.077 467.513C206.318 468.271 205.892 469.035 205.365 469.583C203.914 471.154 201.788 471.718 199.759 472.1C195.536 472.902 191.242 473.234 186.948 473.602C180.423 474.101 122.444 483.143 115.952 483.641" stroke="#131B24" stroke-width="1.5" stroke-miterlimit="10" stroke-linecap="round" stroke-linejoin="round"/>
<path d="M212.453 502.311C209.018 498.617 203.49 498.888 198.699 499.515C187.72 501.035 126.959 511.734 116.296 514.879" stroke="#131B24" stroke-width="1.5" stroke-miterlimit="10" stroke-linecap="round" stroke-linejoin="round"/>
<path d="M296.61 448.846C297.995 450.824 299.421 453.525 298.209 455.6C297.717 456.401 296.923 456.952 296.094 457.322C293.806 458.395 291.277 458.673 288.78 458.842C280.789 459.356 237.907 465.534 229.905 464.961C222.471 464.419 215.003 463.914 207.568 463.372" stroke="#131B24" stroke-width="1.5" stroke-miterlimit="10" stroke-linecap="round" stroke-linejoin="round"/>
<path d="M284.727 450.014C285.331 450.37 285.869 450.907 286.142 451.593C286.416 452.278 286.358 453.147 285.863 453.695C285.435 454.206 284.737 454.358 284.105 454.4C281.808 454.604 279.569 453.974 277.332 453.453C273.893 452.655 270.423 452.146 266.922 451.891" stroke="#131B24" stroke-width="1.5" stroke-miterlimit="10" stroke-linecap="round" stroke-linejoin="round"/>
<path d="M119.511 489.762C121.111 489.891 122.707 489.585 124.303 489.244C134.411 487.189 144.481 484.81 154.698 483.659C159.29 483.143 164.019 482.879 168.496 484.211C169.298 484.456 170.236 484.954 170.278 485.858C170.284 486.474 169.856 486.985 169.393 487.351C168.336 488.194 167.109 488.749 165.881 489.232C160.405 491.386 139.767 489.852 126.78 497.111C125.786 497.664 123.898 498.805 121.718 500.636" stroke="#131B24" stroke-width="1.5" stroke-miterlimit="10" stroke-linecap="round" stroke-linejoin="round"/>
<path d="M363.567 512.595C367.123 510.149 376.259 503.206 379.926 491.41C384.237 477.536 377.989 466.303 376.219 463.191C374.086 459.489 371.655 456.722 369.898 454.878C369.865 456.697 369.63 458.857 368.887 461.275C367.354 466.493 364.374 470.287 362.198 472.593C361.732 466.844 360.063 458.443 354.354 450.04C352.123 446.762 349.062 442.351 342.786 438.648C339.288 436.568 336.003 435.416 333.644 434.762C334.981 440.586 335.541 445.53 335.73 449.123C336.16 456.352 336.479 462.737 333.383 470.254C332.284 472.845 331.128 474.887 330.272 476.207C328.878 474.909 326.758 472.561 325.548 469.147C323.918 464.637 324.748 460.737 325.242 458.998C324.382 459.895 323.27 461.217 322.059 462.836C319.485 466.288 312.876 475.405 313.204 487.838C313.522 499.256 319.486 507.53 322.332 510.971" stroke="#FF8000" stroke-width="1.5" stroke-miterlimit="10" stroke-linecap="round" stroke-linejoin="round"/>
<path d="M301.256 525.691C302.891 525.59 304.478 525.744 305.964 526.067L367.992 530.701L368.885 543.424L353.5 544.211L286.764 539.158C286.285 532.183 292.771 526.113 301.256 525.691Z" fill="#6E4D41"/>
<path d="M353.5 544.252L306.57 540.696" stroke="#131B24" stroke-width="1.5" stroke-miterlimit="10" stroke-linecap="round" stroke-linejoin="round"/>
<path d="M353.5 544.252C353.022 537.234 359.456 531.164 367.992 530.742C376.477 530.32 383.792 535.62 384.271 542.679L353.5 544.252Z" fill="#C79E8F"/>
<path d="M380.74 542.418C380.46 539.967 378.902 537.614 376.535 536.114C374.116 534.573 370.938 533.885 367.924 534.211C364.91 534.537 362.008 535.792 359.981 537.673C358.004 539.427 356.698 541.851 357.131 544.216" stroke="#131B24" stroke-width="1.5" stroke-miterlimit="10" stroke-linecap="round" stroke-linejoin="round"/>
<path d="M377.526 543.254C376.523 540.091 372.51 537.719 368.576 538.012C364.59 538.305 361.141 541.173 360.764 544.434" stroke="#131B24" stroke-width="1.5" stroke-miterlimit="10" stroke-linecap="round" stroke-linejoin="round"/>
<path d="M373.437 543.42C373.332 543.21 372.449 541.781 370.501 541.334C370.142 541.253 368.605 540.93 367.026 541.622C365.193 542.444 364.748 543.971 364.699 544.183" stroke="#131B24" stroke-width="1.5" stroke-miterlimit="10" stroke-linecap="round" stroke-linejoin="round"/>
<path d="M347.271 514.362C349.309 513.622 351.556 513.262 353.909 513.323C362.4 513.578 369.056 519.477 368.717 526.502L332.922 532.015L317.525 531.575L317.4 519.013L347.271 514.362Z" fill="#6E4D41"/>
<path d="M332.872 532.057L364.53 527.177" stroke="#131B24" stroke-width="1.5" stroke-miterlimit="10" stroke-linecap="round" stroke-linejoin="round"/>
<path d="M332.872 532.057C333.211 525.032 326.556 519.133 318.064 518.879C309.572 518.624 302.416 524.151 302.077 531.176L332.872 532.057Z" fill="#C79E8F"/>
<path d="M326.532 532.247C326.547 528.525 323.548 525.255 319.294 524.324C314.784 523.353 310.201 525.302 308.286 528.197C307.279 529.73 307.141 531.254 307.201 532.142" stroke="#131B24" stroke-width="1.5" stroke-miterlimit="10" stroke-linecap="round" stroke-linejoin="round"/>
<path d="M321.109 531.963C321.196 530.439 320.21 528.969 318.567 528.308C316.204 527.274 313.863 528.439 313.762 528.524C311.676 529.645 311.491 531.592 311.493 531.804" stroke="#131B24" stroke-width="1.5" stroke-miterlimit="10" stroke-linecap="round" stroke-linejoin="round"/>
<path d="M329.805 532.215C329.895 530.987 329.824 528.915 328.473 526.856C325.928 522.82 319.61 520.091 313.385 521.463C308.027 522.658 304.078 526.674 303.563 531.416" stroke="#131B24" stroke-width="1.5" stroke-miterlimit="10" stroke-linecap="round" stroke-linejoin="round"/>
<path d="M346.034 461.965C345.485 468.443 343.974 475.86 340.779 483.802C340.031 485.628 339.281 487.37 338.428 489.028C336.245 485.538 334.012 482.092 331.83 478.602C330.255 479.718 324.418 484.174 323.316 491.588C323.075 493.113 322.081 501.075 328.943 507.225C330.079 508.272 333.38 511.116 338.607 512.206C348.856 514.305 359.841 508.19 365.142 501.243C373.118 490.758 367.428 479.097 366.802 477.919C366.097 479.026 365.291 480.218 364.382 481.412C361.504 485.12 358.259 487.944 355.365 490.045C355.321 485.604 354.647 479.477 351.868 472.567C350.138 468.312 348.005 464.738 346.034 461.965Z" fill="#FBC143"/>
<line y1="-11.5" x2="451.561" y2="-11.5" transform="matrix(0.999951 -0.0098582 0.0099353 0.999951 15.5779 369.188)" stroke="white" stroke-width="23"/>
<line y1="-11.5" x2="612.875" y2="-11.5" transform="matrix(-0.013015 -0.999915 0.999917 -0.012914 254.39 615.107)" stroke="white" stroke-width="23"/>
</svg>
