<svg width="193" height="221" viewBox="0 0 193 221" fill="none" xmlns="http://www.w3.org/2000/svg">
<path d="M65.6761 187.831C65.6761 187.831 65.6303 188.531 65.5434 189.845C65.5336 190.5 65.3993 191.317 65.2175 192.276C65.1241 192.754 65.0602 193.275 64.9259 193.815C64.7801 194.352 64.626 194.922 64.4638 195.526C63.7462 197.907 62.6568 200.799 60.6662 203.769C58.7117 206.742 55.9577 209.877 52.1602 212.522C48.3642 215.131 43.5051 217.222 37.9971 217.989C37.3139 218.11 36.6127 218.119 35.9115 218.188C35.1759 218.222 34.5747 218.347 33.713 218.302C32.3548 218.253 31.0736 218.303 29.5139 218.07C26.4618 217.791 23.6325 217.006 20.7556 215.961C17.9017 214.893 15.2231 213.354 12.7017 211.568C10.2213 209.726 8.01947 207.518 6.10593 205.072C4.23991 202.592 2.78183 199.829 1.694 196.921C0.665145 193.991 0.147447 190.912 0 187.813L0.0523968 185.554C0.0343755 184.894 0.14738 184.067 0.258784 183.251C0.419338 181.584 0.833826 180.091 1.21883 178.572C2.16904 175.58 3.48956 172.683 5.25728 170.033C7.0758 167.423 9.21213 165.002 11.7171 162.976C14.2434 160.984 17.017 159.292 19.9856 158.068C22.9722 156.922 26.0457 155.989 29.1584 155.709C30.6984 155.464 32.2417 155.489 33.7572 155.434L34.0405 155.426L34.1831 155.423L34.2535 155.422L34.5255 155.429L35.0252 155.469L36.018 155.55C36.7061 155.62 37.2713 155.622 38.0479 155.746C39.5633 156.03 41.1541 156.219 42.4647 156.665C43.143 156.868 43.8147 157.069 44.4815 157.267C45.1319 157.504 45.7643 157.777 46.3901 158.035C48.9147 159.039 51.0871 160.461 53.0711 161.846C56.9539 164.778 59.6358 168.199 61.4674 171.37C63.3498 174.538 64.2345 177.561 64.8472 180.002C64.9799 180.619 65.1044 181.203 65.2224 181.752C65.3256 182.302 65.36 182.827 65.4256 183.31C65.5451 184.276 65.6467 185.094 65.6319 185.767C65.6631 187.101 65.6794 187.813 65.6794 187.813L65.6761 187.831ZM64.8587 187.812C64.8587 187.812 64.7981 187.12 64.6867 185.826C64.6654 185.176 64.5163 184.388 64.3 183.47C64.1919 183.012 64.1132 182.513 63.9608 181.995C63.7839 181.484 63.5955 180.943 63.3973 180.368C62.5585 178.106 61.1856 175.441 58.9149 172.913C56.6721 170.384 53.6248 167.966 49.9108 166.2C48.0382 165.345 46.0558 164.579 43.9342 164.066C43.4084 163.934 42.8776 163.801 42.3435 163.668C41.7996 163.579 41.2508 163.491 40.6986 163.401C39.5748 163.154 38.5721 163.178 37.5154 163.045C37.001 162.98 36.2408 163.013 35.6085 162.992L34.6123 162.979L34.111 162.973C33.9063 162.97 34.319 162.977 34.2584 162.979L34.2044 162.983L34.0946 162.991L33.8768 163.007C32.7152 163.109 31.5307 163.113 30.3692 163.363C28.0215 163.689 25.7016 164.372 23.4473 165.264C21.1684 166.133 19.0633 167.408 17.0187 168.805C15.0314 170.28 13.226 172.011 11.6467 173.952C10.1083 175.921 8.90252 178.129 7.99982 180.462C7.62628 181.651 7.20517 182.857 7.02988 183.988C6.907 184.559 6.75962 185.114 6.72849 185.864L6.5515 187.812C6.54659 190.326 6.8169 192.852 7.52465 195.291C8.29137 197.709 9.35962 200.049 10.798 202.19C12.284 204.295 14.0238 206.241 16.034 207.899C18.0835 209.5 20.287 210.929 22.6789 211.955C25.043 212.948 27.6054 213.779 30.0137 214.105C31.1539 214.367 32.6005 214.397 33.9194 214.504C34.3977 214.566 35.1268 214.507 35.7149 214.517C36.3342 214.495 36.9584 214.538 37.5662 214.468C42.4549 214.089 47.0209 212.724 50.8217 210.678C54.6193 208.623 57.5945 205.921 59.7128 203.194C61.8737 200.469 63.0451 197.671 63.7758 195.35C63.9445 194.763 64.1034 194.208 64.2541 193.684C64.3737 193.156 64.4229 192.652 64.5032 192.191C64.6588 191.266 64.7751 190.476 64.7718 189.811C64.8291 188.495 64.8603 187.793 64.8603 187.793L64.8587 187.812Z" fill="#9B6103"/>
<path d="M127.668 187.828C127.668 187.828 127.622 188.528 127.535 189.842C127.525 190.497 127.391 191.314 127.209 192.272C127.116 192.75 127.052 193.272 126.918 193.812C126.772 194.347 126.618 194.919 126.455 195.522C125.738 197.904 124.648 200.795 122.658 203.765C120.703 206.739 117.95 209.874 114.152 212.518C110.356 215.127 105.497 217.219 99.9888 217.985C99.3056 218.106 98.6044 218.115 97.9032 218.185C97.1676 218.218 96.5664 218.344 95.7047 218.298C94.3465 218.25 93.0654 218.3 91.5057 218.067C88.4536 217.787 85.6242 217.002 82.7473 215.957C79.8934 214.89 77.2147 213.35 74.695 211.563C72.213 209.721 70.0111 207.513 68.0992 205.068C66.2332 202.587 64.7752 199.825 63.689 196.916C62.6585 193.986 62.1424 190.907 61.9933 187.808L62.0458 185.549C62.0278 184.889 62.1408 184.062 62.2522 183.246C62.4127 181.579 62.8272 180.086 63.2122 178.567C64.1624 175.575 65.4828 172.678 67.2506 170.028C69.0691 167.418 71.2055 164.997 73.7105 162.971C76.2367 160.979 79.012 159.287 81.979 158.063C84.9656 156.917 88.0391 155.984 91.1518 155.704C92.6918 155.459 94.2351 155.484 95.7505 155.429L96.0339 155.422L96.1748 155.418L96.2453 155.417L96.5172 155.425L97.0169 155.464L98.0097 155.546C98.6978 155.615 99.263 155.617 100.04 155.741C101.555 156.025 103.146 156.214 104.456 156.66C105.135 156.863 105.806 157.064 106.473 157.262C107.124 157.499 107.756 157.772 108.382 158.03C110.906 159.034 113.079 160.456 115.063 161.841C118.946 164.773 121.627 168.194 123.459 171.365C125.341 174.534 126.226 177.557 126.837 179.997C126.97 180.614 127.096 181.198 127.212 181.747C127.316 182.297 127.35 182.822 127.416 183.305C127.535 184.271 127.637 185.089 127.622 185.762C127.653 187.096 127.67 187.808 127.67 187.808L127.668 187.828ZM126.85 187.808C126.85 187.808 126.79 187.117 126.678 185.823C126.657 185.172 126.508 184.384 126.292 183.466C126.184 183.008 126.105 182.509 125.953 181.992C125.776 181.481 125.587 180.939 125.389 180.365C124.55 178.102 123.177 175.438 120.907 172.909C118.664 170.381 115.617 167.963 111.902 166.196C110.03 165.342 108.048 164.575 105.926 164.063C105.4 163.931 104.869 163.798 104.335 163.665C103.791 163.576 103.242 163.488 102.69 163.397C101.566 163.151 100.564 163.175 99.5071 163.042C98.9927 162.978 98.2341 163.01 97.6017 162.99L96.6057 162.977L96.1043 162.971C95.8995 162.968 96.3125 162.975 96.2502 162.977L96.1961 162.981L96.088 162.989L95.8701 163.006C94.7086 163.107 93.524 163.111 92.3625 163.361C90.0148 163.688 87.695 164.37 85.4407 165.262C83.1618 166.131 81.0566 167.406 79.012 168.804C77.0247 170.278 75.2193 172.01 73.64 173.95C72.1033 175.919 70.8958 178.127 69.9931 180.46C69.6196 181.649 69.1985 182.855 69.0249 183.987C68.9004 184.557 68.7546 185.112 68.7235 185.862L68.5465 187.81C68.5416 190.324 68.8119 192.85 69.5196 195.289C70.2864 197.707 71.3546 200.047 72.793 202.188C74.2773 204.293 76.0172 206.24 78.029 207.897C80.0785 209.498 82.282 210.928 84.6739 211.953C87.038 212.946 89.6003 213.777 92.0086 214.103C93.1488 214.365 94.5955 214.395 95.9143 214.502C96.3927 214.564 97.1218 214.506 97.7099 214.515C98.3292 214.493 98.9534 214.536 99.5612 214.466C104.45 214.087 109.017 212.723 112.817 210.677C116.616 208.621 119.591 205.919 121.709 203.192C123.869 200.467 125.04 197.67 125.771 195.348C125.939 194.762 126.098 194.205 126.249 193.682C126.369 193.154 126.418 192.65 126.498 192.189C126.654 191.264 126.77 190.474 126.767 189.809C126.824 188.493 126.854 187.791 126.854 187.791V187.808H126.85Z" fill="#9B6103"/>
<path d="M65.6761 84.3183C65.6761 84.3183 65.6303 85.0185 65.5434 86.3326C65.5336 86.9875 65.3993 87.8041 65.2175 88.7628C65.1241 89.2407 65.0602 89.7625 64.9259 90.3023C64.7801 90.8392 64.626 91.4093 64.4638 92.0127C63.7462 94.3945 62.6568 97.286 60.6662 100.258C58.7117 103.229 55.9577 106.366 52.1602 109.01C48.3642 111.619 43.5051 113.711 37.9971 114.477C37.3139 114.598 36.6127 114.607 35.9115 114.677C35.1759 114.71 34.5747 114.836 33.713 114.79C32.3548 114.742 31.0736 114.792 29.5139 114.559C26.4618 114.279 23.6325 113.494 20.7556 112.449C17.9017 111.382 15.2231 109.842 12.7017 108.056C10.2213 106.213 8.01947 104.006 6.10593 101.561C4.23991 99.081 2.78183 96.3181 1.694 93.41C0.665145 90.4793 0.147447 87.4003 0 84.3017L0.0523968 82.0423C0.0343755 81.3845 0.14738 80.5558 0.258784 79.7392C0.419338 78.0727 0.833826 76.58 1.21883 75.0602C2.16904 72.0689 3.48956 69.1715 5.25728 66.522C7.0758 63.9118 9.21213 61.4907 11.7171 59.4643C14.2434 57.4726 17.017 55.7804 19.9856 54.557C22.9722 53.4107 26.0457 52.4776 29.1584 52.1979C30.6984 51.9529 32.2417 51.9771 33.7572 51.9226L34.0405 51.9166L34.1831 51.9136L34.2535 51.9121L34.5255 51.9197L35.0252 51.959L36.018 52.0406C36.7061 52.1086 37.2713 52.1117 38.0479 52.2357C39.5633 52.52 41.1541 52.709 42.4647 53.1551C43.143 53.3578 43.8147 53.5589 44.4815 53.757C45.1319 53.9944 45.7643 54.2666 46.3901 54.5252C48.9147 55.5294 51.0871 56.9509 53.0711 58.3362C56.9539 61.2684 59.6358 64.6891 61.4674 67.8603C63.3498 71.0285 64.2345 74.0516 64.8472 76.4923C64.9799 77.1093 65.1044 77.693 65.2224 78.242C65.3256 78.7925 65.36 79.3173 65.4256 79.7997C65.5451 80.766 65.6467 81.5842 65.6319 82.2556C65.6631 83.5894 65.6794 84.3017 65.6794 84.3017L65.6761 84.3183ZM64.8587 84.3002C64.8587 84.3002 64.7981 83.6091 64.6867 82.3146C64.6654 81.6658 64.5163 80.8764 64.3 79.9584C64.1919 79.5002 64.1132 79.0027 63.9608 78.484C63.7839 77.9744 63.5955 77.4315 63.3973 76.8583C62.5585 74.596 61.1856 71.9314 58.9149 69.4029C56.6721 66.8744 53.6248 64.4562 49.9108 62.6899C48.0382 61.8355 46.0558 61.0689 43.9342 60.5562C43.4084 60.4246 42.8776 60.2915 42.3435 60.1585C41.7996 60.0692 41.2508 59.9815 40.6986 59.8908C39.5748 59.6443 38.5721 59.6684 37.5154 59.5353C37.001 59.4703 36.2408 59.5036 35.6085 59.4825L34.6123 59.4704L34.111 59.4643C33.9063 59.4612 34.319 59.4689 34.2584 59.4704L34.2044 59.4734L34.0946 59.481L33.8768 59.4976C32.7152 59.5989 31.5307 59.6034 30.3692 59.853C28.0215 60.1796 25.7016 60.8617 23.4473 61.7539C21.1684 62.6234 19.0633 63.8982 17.0187 65.2956C15.0314 66.77 13.226 68.5016 11.6467 70.4418C10.1083 72.4108 8.90252 74.6202 7.99982 76.9521C7.62628 78.1407 7.20517 79.3475 7.02988 80.4786C6.907 81.0488 6.75962 81.6038 6.72849 82.3539L6.5515 84.3017C6.54659 86.8165 6.8169 89.342 7.52465 91.7813C8.29137 94.1994 9.35962 96.5389 10.798 98.6802C12.284 100.785 14.0238 102.732 16.034 104.389C18.0835 105.991 20.287 107.42 22.6789 108.445C25.043 109.44 27.6054 110.27 30.0137 110.595C31.1539 110.857 32.6005 110.887 33.9194 110.995C34.3977 111.057 35.1268 110.998 35.7149 111.007C36.3342 110.985 36.9584 111.028 37.5662 110.958C42.4549 110.579 47.0209 109.215 50.8217 107.169C54.6193 105.113 57.5945 102.411 59.7128 99.6829C61.8737 96.9578 63.0451 94.1601 63.7758 91.8388C63.9445 91.252 64.1034 90.697 64.2541 90.1723C64.3737 89.6445 64.4229 89.1409 64.5032 88.6797C64.6588 87.7542 64.7751 86.9647 64.7718 86.2993C64.8291 84.9837 64.8603 84.282 64.8603 84.282L64.8587 84.3002Z" fill="#9B6103"/>
<path d="M96.6727 136.812C96.6727 136.812 96.6268 137.513 96.54 138.828C96.5301 139.483 96.3957 140.3 96.2139 141.258C96.1205 141.735 96.0567 142.257 95.9223 142.796C95.7765 143.333 95.6225 143.903 95.4603 144.507C94.7428 146.89 93.6532 149.78 91.6627 152.752C89.7082 155.723 86.9543 158.858 83.1567 161.503C79.3607 164.112 74.5015 166.203 68.9935 166.97C68.3104 167.091 67.6092 167.1 66.908 167.17C66.1724 167.203 65.5711 167.328 64.7094 167.283C63.3512 167.235 62.0701 167.286 60.5104 167.053C57.4583 166.772 54.6289 165.989 51.7521 164.944C48.8982 163.876 46.2195 162.336 43.6982 160.55C41.2178 158.708 39.016 156.501 37.1041 154.055C35.2364 151.575 33.7782 148.812 32.692 145.904C32.2333 144.427 31.7435 142.946 31.5158 141.413C31.3683 140.652 31.2094 139.888 31.1783 139.114L31.0849 137.956L31.0406 137.377L31.0193 137.086L31.0079 136.941L31.0029 136.868C31.0029 136.775 30.9948 136.971 31.0013 136.643C31.0685 135.197 30.9669 133.954 31.2569 132.232C31.4175 130.565 31.832 129.074 32.217 127.554C33.1672 124.562 34.4877 121.666 36.2554 119.016C38.0739 116.406 40.2103 113.985 42.7152 111.958C45.2415 109.968 48.0167 108.275 50.9853 107.051C53.9719 105.903 57.0454 104.97 60.1566 104.692C61.6966 104.447 63.2399 104.471 64.7553 104.417L65.0387 104.411L65.1812 104.408L65.2517 104.406L65.5236 104.414L66.0233 104.453L67.0162 104.535C67.7042 104.603 68.2694 104.606 69.0459 104.73C70.5614 105.014 72.1522 105.203 73.4629 105.649C74.1411 105.852 74.8128 106.053 75.4795 106.251C76.13 106.489 76.7608 106.761 77.3882 107.019C79.9129 108.024 82.0852 109.445 84.0692 110.83C87.952 113.763 90.6339 117.183 92.4655 120.354C94.3463 123.523 95.2326 126.547 95.8453 128.986C95.978 129.603 96.1025 130.187 96.2205 130.736C96.3237 131.287 96.3564 131.811 96.4236 132.294C96.5432 133.26 96.6448 134.078 96.6301 134.75C96.6612 136.085 96.6776 136.796 96.6776 136.796L96.6727 136.812ZM95.8551 136.793C95.8551 136.793 95.7945 136.102 95.6831 134.807C95.6618 134.158 95.5127 133.371 95.2948 132.451C95.1884 131.993 95.1081 131.495 94.9574 130.977C94.7804 130.467 94.592 129.924 94.3938 129.351C93.555 127.089 92.1821 124.424 89.9114 121.896C87.6685 119.367 84.6213 116.949 80.9073 115.183C79.0347 114.328 77.0524 113.561 74.9308 113.049C74.4049 112.916 73.8741 112.784 73.34 112.65C72.7944 112.56 72.2472 112.473 71.6951 112.382C70.5712 112.135 69.5686 112.16 68.5119 112.027C67.9974 111.963 67.239 111.995 66.6066 111.975L65.6104 111.961L65.1092 111.955C64.9044 111.952 65.3172 111.96 65.2566 111.961L65.2009 111.965L65.0928 111.972L64.8749 111.989C63.7133 112.09 62.5289 112.095 61.3673 112.344C59.0196 112.671 56.6997 113.353 54.4454 114.244C52.1665 115.113 50.0613 116.388 48.0167 117.785C46.0311 119.26 44.224 120.991 42.6447 122.931C41.108 124.902 39.9022 127.11 38.9978 129.442C38.6243 130.63 38.2033 131.837 38.028 132.968C37.7184 134.007 37.6889 135.589 37.5447 136.942C37.5546 136.657 37.548 136.897 37.5512 136.849L37.5529 136.908L37.5561 137.026L37.5627 137.262L37.5758 137.733L37.5987 138.679C37.5807 139.312 37.6824 139.935 37.7708 140.56C37.8773 141.821 38.2246 143.04 38.5228 144.272C39.2895 146.689 40.3576 149.03 41.7961 151.171C43.282 153.275 45.022 155.221 47.0322 156.879C49.0817 158.48 51.2851 159.909 53.6771 160.935C56.0411 161.928 58.6034 162.758 61.0117 163.085C62.152 163.347 63.5986 163.377 64.9175 163.484C65.3942 163.546 66.1249 163.487 66.7131 163.496C67.3324 163.475 67.9548 163.517 68.5643 163.448C73.453 163.068 78.0189 161.704 81.8198 159.658C85.6173 157.603 88.5942 154.901 90.7125 152.172C92.8734 149.447 94.0448 146.651 94.7755 144.33C94.9442 143.742 95.1031 143.187 95.2539 142.663C95.3734 142.134 95.4227 141.632 95.5029 141.169C95.6586 140.245 95.7749 139.456 95.7716 138.789C95.829 137.475 95.86 136.773 95.86 136.773L95.8551 136.793Z" fill="#9B6103"/>
<path d="M158.665 136.812C158.665 136.812 158.619 137.513 158.532 138.828C158.522 139.483 158.386 140.3 158.204 141.258C158.111 141.735 158.047 142.257 157.913 142.796C157.767 143.333 157.613 143.903 157.45 144.507C156.733 146.89 155.643 149.78 153.653 152.752C151.698 155.723 148.944 158.858 145.147 161.503C141.351 164.112 136.492 166.203 130.984 166.97C130.301 167.091 129.599 167.1 128.9 167.17C128.164 167.203 127.563 167.328 126.701 167.283C125.343 167.235 124.062 167.286 122.502 167.053C119.45 166.772 116.622 165.989 113.744 164.944C110.89 163.876 108.211 162.336 105.692 160.55C103.21 158.708 101.009 156.501 99.0959 154.055C97.2299 151.575 95.7702 148.812 94.684 145.904C94.2252 144.427 93.7354 142.946 93.5076 141.413C93.3602 140.652 93.2013 139.888 93.1702 139.114L93.0768 137.956L93.0325 137.377L93.0096 137.086L92.9981 136.941L92.9932 136.868C92.9932 136.775 92.985 136.971 92.9916 136.643C93.0587 135.197 92.9572 133.954 93.2471 132.232C93.4077 130.565 93.8222 129.074 94.2072 127.554C95.1574 124.562 96.4778 121.666 98.2455 119.016C100.064 116.406 102.2 113.985 104.705 111.958C107.232 109.968 110.005 108.275 112.974 107.051C115.961 105.903 119.034 104.97 122.147 104.692C123.687 104.447 125.23 104.471 126.745 104.417L127.029 104.411L127.17 104.408L127.24 104.406L127.512 104.414L128.012 104.453L129.005 104.535C129.693 104.603 130.258 104.606 131.035 104.73C132.55 105.014 134.141 105.203 135.451 105.649C136.13 105.852 136.801 106.053 137.468 106.251C138.119 106.49 138.749 106.761 139.377 107.019C141.901 108.024 144.074 109.445 146.058 110.83C149.941 113.763 152.622 117.183 154.454 120.354C156.336 123.523 157.221 126.547 157.834 128.986C157.967 129.603 158.091 130.187 158.209 130.736C158.312 131.287 158.347 131.811 158.412 132.294C158.532 133.26 158.633 134.078 158.619 134.75C158.65 136.085 158.666 136.796 158.666 136.796L158.665 136.812ZM157.847 136.793C157.847 136.793 157.786 136.102 157.675 134.807C157.654 134.158 157.505 133.371 157.288 132.451C157.18 131.993 157.102 131.495 156.951 130.977C156.774 130.467 156.586 129.924 156.386 129.351C155.547 127.089 154.174 124.424 151.903 121.896C149.66 119.367 146.613 116.949 142.899 115.183C141.027 114.328 139.044 113.561 136.923 113.049C136.397 112.916 135.866 112.784 135.332 112.65C134.786 112.56 134.239 112.473 133.687 112.382C132.563 112.135 131.56 112.16 130.504 112.027C129.989 111.962 129.231 111.995 128.598 111.974L127.602 111.96L127.101 111.954C126.896 111.951 127.309 111.958 127.247 111.96L127.193 111.963L127.085 111.971L126.867 111.987C125.705 112.089 124.521 112.093 123.359 112.343C121.011 112.669 118.692 113.351 116.437 114.242C114.158 115.111 112.053 116.386 110.009 117.784C108.021 119.258 106.216 120.99 104.637 122.93C103.1 124.9 101.894 127.108 100.99 129.44C100.618 130.629 100.195 131.836 100.022 132.967C99.7103 134.006 99.6823 135.588 99.5382 136.941C99.5464 136.655 99.5415 136.896 99.5432 136.847L99.5448 136.906L99.5481 137.024L99.5546 137.26L99.5677 137.732L99.5907 138.677C99.5726 139.311 99.6742 139.934 99.7627 140.558C99.8691 141.82 100.216 143.038 100.515 144.271C101.281 146.687 102.349 149.028 103.788 151.17C105.272 153.273 107.012 155.22 109.024 156.877C111.074 158.479 113.277 159.908 115.669 160.933C118.031 161.927 120.595 162.758 123.004 163.083C124.145 163.345 125.592 163.375 126.909 163.483C127.388 163.545 128.117 163.486 128.705 163.495C129.324 163.474 129.947 163.516 130.556 163.446C135.445 163.067 140.011 161.703 143.812 159.657C147.609 157.601 150.586 154.899 152.704 152.171C154.865 149.446 156.037 146.65 156.767 144.328C156.936 143.74 157.095 143.185 157.246 142.662C157.365 142.133 157.414 141.63 157.493 141.168C157.649 140.244 157.765 139.454 157.762 138.787C157.819 137.473 157.85 136.772 157.85 136.772L157.847 136.793Z" fill="#9B6103"/>
<path d="M189.661 190.527C189.661 190.527 189.615 191.227 189.528 192.543C189.519 193.198 189.384 194.014 189.202 194.973C189.109 195.449 189.045 195.971 188.911 196.511C188.765 197.048 188.611 197.618 188.449 198.221C187.731 200.605 186.642 203.495 184.651 206.466C182.697 209.438 179.943 212.573 176.145 215.218C172.349 217.826 167.49 219.918 161.982 220.685C161.299 220.804 160.598 220.815 159.896 220.884C159.161 220.916 158.56 221.041 157.698 220.996C156.34 220.948 155.059 220.998 153.499 220.765C150.447 220.485 147.619 219.7 144.741 218.655C141.887 217.587 139.208 216.048 136.688 214.262C134.206 212.42 132.004 210.212 130.092 207.767C128.225 205.287 126.767 202.524 125.681 199.616C125.222 198.138 124.732 196.658 124.504 195.124C124.355 194.364 124.198 193.6 124.167 192.826L124.073 191.667L124.029 191.088L124.008 190.798L123.996 190.653L123.991 190.58C123.991 190.486 123.983 190.683 123.99 190.355C124.057 188.909 123.955 187.666 124.245 185.945C124.406 184.278 124.82 182.786 125.205 181.266C126.156 178.273 127.476 175.377 129.244 172.728C131.062 170.117 133.199 167.696 135.704 165.67C138.23 163.68 141.005 161.986 143.974 160.763C146.96 159.616 150.034 158.683 153.145 158.404C154.685 158.159 156.228 158.183 157.744 158.128L158.027 158.121L158.17 158.118L158.24 158.116L158.512 158.124L159.012 158.163L160.005 158.245C160.693 158.314 161.258 158.316 162.034 158.44C163.55 158.724 165.141 158.913 166.451 159.359C167.13 159.562 167.801 159.763 168.468 159.961C169.118 160.2 169.751 160.471 170.377 160.729C172.901 161.733 175.074 163.155 177.058 164.54C180.94 167.473 183.622 170.893 185.454 174.065C187.336 177.233 188.221 180.257 188.834 182.696C188.966 183.313 189.091 183.897 189.209 184.446C189.312 184.995 189.347 185.521 189.412 186.004C189.532 186.97 189.633 187.788 189.619 188.46C189.65 189.794 189.666 190.506 189.666 190.506L189.661 190.527ZM188.842 190.509C188.842 190.509 188.781 189.818 188.67 188.523C188.649 187.874 188.5 187.085 188.282 186.167C188.175 185.709 188.095 185.211 187.944 184.693C187.767 184.183 187.579 183.64 187.379 183.067C186.54 180.805 185.167 178.14 182.897 175.612C180.654 173.083 177.606 170.665 173.892 168.899C172.02 168.044 170.038 167.278 167.916 166.763C167.39 166.632 166.859 166.5 166.325 166.366C165.78 166.276 165.232 166.189 164.68 166.098C163.556 165.851 162.554 165.876 161.497 165.742C160.983 165.679 160.222 165.711 159.592 165.691L158.594 165.678L158.093 165.671C157.888 165.667 158.301 165.676 158.24 165.678L158.186 165.681L158.076 165.688L157.858 165.705C156.697 165.806 155.512 165.811 154.351 166.059C152.003 166.385 149.683 167.067 147.429 167.959C145.15 168.829 143.045 170.104 141 171.501C139.015 172.976 137.208 174.707 135.628 176.647C134.09 178.618 132.884 180.826 131.981 183.158C131.608 184.346 131.187 185.553 131.012 186.684C130.702 187.723 130.672 189.305 130.528 190.659C130.538 190.373 130.532 190.613 130.535 190.565L130.536 190.624L130.54 190.742L130.546 190.978L130.559 191.449L130.582 192.395C130.564 193.028 130.666 193.651 130.754 194.276C130.861 195.537 131.208 196.756 131.506 197.988C132.273 200.405 133.341 202.746 134.78 204.886C136.264 206.991 138.004 208.937 140.016 210.595C142.065 212.196 144.269 213.625 146.661 214.651C149.025 215.644 151.587 216.474 153.995 216.801C155.136 217.063 156.582 217.093 157.901 217.2C158.379 217.262 159.108 217.203 159.697 217.212C160.316 217.191 160.94 217.233 161.548 217.165C166.437 216.786 171.003 215.422 174.803 213.376C178.601 211.321 181.578 208.618 183.696 205.89C185.857 203.165 187.028 200.369 187.759 198.047C187.928 197.461 188.087 196.906 188.237 196.382C188.357 195.853 188.406 195.351 188.486 194.888C188.642 193.964 188.758 193.175 188.755 192.508C188.812 191.192 188.844 190.492 188.844 190.492L188.842 190.509Z" fill="#9B6103"/>
<path d="M96.6729 32.4108C96.6729 32.4108 96.6271 33.1109 96.5402 34.4251C96.5304 35.0799 96.396 35.8965 96.2142 36.8553C96.1208 37.3331 96.0569 37.8549 95.9226 38.3947C95.7768 38.9316 95.6228 39.5017 95.4606 40.1051C94.743 42.4869 93.6535 45.3784 91.6629 48.35C89.7084 51.3216 86.9545 54.4579 83.1569 57.1029C79.361 59.7115 74.5018 61.8031 68.9938 62.5698C68.3106 62.6908 67.6094 62.6998 66.9082 62.7693C66.1726 62.8026 65.5714 62.9281 64.7097 62.8828C63.3515 62.8344 62.0704 62.8843 60.5107 62.6514C57.4586 62.3716 54.6292 61.5868 51.7523 60.5418C48.8984 59.4742 46.2198 57.9346 43.6984 56.1487C41.218 54.3052 39.0162 52.0989 37.1026 49.6535C35.2366 47.1734 33.7769 44.4105 32.6907 41.5024C32.232 40.025 31.7421 38.546 31.5144 37.0111C31.3669 36.2504 31.208 35.4882 31.1769 34.7124L31.0835 33.554L31.0393 32.9733L31.018 32.683L31.0065 32.5378L31.0016 32.4651C31.0016 32.3729 30.9934 32.5695 31 32.2398C31.0672 30.7941 30.9656 29.551 31.2556 27.8286C31.4161 26.1621 31.8306 24.6695 32.2156 23.1497C33.1658 20.1584 34.4862 17.2609 36.254 14.6114C38.0725 12.0013 40.2088 9.58016 42.7138 7.55373C45.24 5.56209 48.0137 3.86987 50.9823 2.64646C53.9689 1.49865 57.0424 0.565589 60.1551 0.287333C61.6951 0.042347 63.2384 0.0665328 64.7538 0.0120914L65.0373 0.00452275L65.1798 0.00147682L65.2503 0L65.5222 0.00756869L66.0219 0.0468889L67.0147 0.128483C67.7028 0.198047 68.268 0.199602 69.0446 0.323607C70.56 0.607912 72.1508 0.796901 73.4614 1.24302C74.1397 1.44566 74.8114 1.64681 75.4782 1.84491C76.1286 2.08385 76.761 2.35454 77.3868 2.61314C79.9114 3.61728 82.0838 5.03883 84.0678 6.42406C87.9506 9.35633 90.6325 12.777 92.4641 15.9482C94.3448 19.1164 95.2311 22.1394 95.8439 24.5802C95.9766 25.1972 96.1011 25.7809 96.2191 26.3299C96.3223 26.8804 96.3567 27.4052 96.4222 27.8876C96.5418 28.8539 96.6434 29.6721 96.6286 30.3435C96.6598 31.6773 96.6762 32.3895 96.6762 32.3895L96.6729 32.4108ZM95.8554 32.3926C95.8554 32.3926 95.7948 31.7015 95.6834 30.407C95.6621 29.7583 95.513 28.9688 95.2951 28.0524C95.1886 27.5942 95.1084 27.0951 94.9576 26.5779C94.7807 26.0683 94.5922 25.5254 94.3924 24.9523C93.5536 22.69 92.1807 20.0254 89.91 17.4969C87.6672 14.9684 84.6199 12.5502 80.9059 10.7839C79.0333 9.92947 77.0509 9.16274 74.9293 8.65009C74.4034 8.51852 73.8726 8.38544 73.3385 8.25236C72.793 8.16314 72.2458 8.07548 71.6937 7.98626C70.5699 7.73825 69.5672 7.76237 68.5105 7.6308C67.9961 7.56578 67.2375 7.59909 66.6051 7.57792L65.6074 7.56582L65.1061 7.55973C64.9013 7.55671 65.3141 7.56431 65.2535 7.56582L65.1978 7.56887L65.0897 7.57635L64.8718 7.59305C63.7119 7.69438 62.5258 7.69889 61.3659 7.94841C59.0182 8.27506 56.6984 8.95712 54.4441 9.84935C52.1652 10.7189 50.06 11.9937 48.0154 13.391C46.0281 14.8655 44.2227 16.5971 42.6434 18.5373C41.105 20.5062 39.9008 22.7156 38.9965 25.0476C38.623 26.2362 38.202 27.4429 38.0267 28.5741C37.717 29.613 37.6875 31.1948 37.5433 32.5483C37.5531 32.2625 37.5466 32.503 37.5499 32.4546L37.5515 32.5136L37.5548 32.6316L37.5614 32.8675L37.5745 33.3392L37.5974 34.2844C37.5794 34.918 37.6809 35.5411 37.7694 36.1657C37.8759 37.4269 38.2233 38.6458 38.5214 39.8783C39.2865 42.2964 40.3563 44.6359 41.7947 46.7773C43.2807 48.8823 45.0205 50.8285 47.0307 52.486C49.0802 54.0875 51.2838 55.5166 53.6757 56.5419C56.0398 57.5354 58.6021 58.3672 61.0104 58.6923C62.1506 58.9539 63.5972 58.9841 64.916 59.0915C65.3928 59.1535 66.1235 59.0946 66.7116 59.1037C67.3309 59.0825 67.9551 59.1248 68.5629 59.0552C73.4516 58.6757 78.0176 57.3116 81.8184 55.2655C85.6176 53.2104 88.5928 50.508 90.7111 47.7814C92.872 45.0563 94.0435 42.2586 94.7741 39.9373C94.9429 39.3505 95.1018 38.7955 95.2525 38.2708C95.3721 37.743 95.4212 37.2394 95.5015 36.7782C95.6571 35.8527 95.7735 35.0632 95.7702 34.3978C95.8275 33.0822 95.8587 32.3805 95.8587 32.3805L95.8554 32.3926Z" fill="#9B6103"/>
<path d="M127.668 84.3183C127.668 84.3183 127.622 85.0185 127.535 86.3326C127.525 86.9875 127.391 87.8041 127.209 88.7628C127.116 89.2407 127.052 89.7625 126.918 90.3023C126.772 90.8392 126.618 91.4093 126.455 92.0127C125.738 94.3945 124.648 97.286 122.658 100.258C120.703 103.229 117.95 106.366 114.152 109.01C110.356 111.619 105.497 113.711 99.9888 114.477C99.3056 114.598 98.6044 114.607 97.9032 114.677C97.1676 114.71 96.5664 114.836 95.7047 114.79C94.3465 114.742 93.0654 114.792 91.5057 114.559C88.4536 114.279 85.6242 113.494 82.7473 112.449C79.8934 111.382 77.2147 109.842 74.695 108.056C72.213 106.213 70.0111 104.006 68.0992 101.561C66.2332 99.081 64.7752 96.3181 63.689 93.41C62.6585 90.4793 62.1424 87.4003 61.9933 84.3017L62.0458 82.0423C62.0278 81.3845 62.1408 80.5558 62.2522 79.7392C62.4127 78.0727 62.8272 76.58 63.2122 75.0602C64.1624 72.0689 65.4828 69.1715 67.2506 66.522C69.0691 63.9118 71.2055 61.4907 73.7105 59.4643C76.2367 57.4726 79.012 55.7804 81.979 54.557C84.9656 53.4107 88.0391 52.4776 91.1518 52.1979C92.6918 51.9529 94.2351 51.9771 95.7505 51.9226L96.0339 51.9166L96.1748 51.9136L96.2453 51.9121L96.5172 51.9197L97.0169 51.959L98.0097 52.0406C98.6978 52.1086 99.263 52.1117 100.04 52.2357C101.555 52.52 103.146 52.709 104.456 53.1551C105.135 53.3578 105.806 53.5589 106.473 53.757C107.124 53.9944 107.756 54.2666 108.382 54.5252C110.906 55.5294 113.079 56.9509 115.063 58.3362C118.946 61.2684 121.627 64.6891 123.459 67.8603C125.341 71.0285 126.226 74.0516 126.837 76.4923C126.97 77.1093 127.096 77.693 127.212 78.242C127.316 78.7925 127.35 79.3173 127.416 79.7997C127.535 80.766 127.637 81.5842 127.622 82.2556C127.653 83.5894 127.67 84.3017 127.67 84.3017L127.668 84.3183ZM126.85 84.3002C126.85 84.3002 126.79 83.6091 126.678 82.3146C126.657 81.6658 126.508 80.8764 126.292 79.9584C126.184 79.5002 126.105 79.0027 125.953 78.484C125.776 77.9744 125.587 77.4315 125.389 76.8583C124.55 74.596 123.177 71.9314 120.907 69.4029C118.664 66.8744 115.617 64.4562 111.902 62.6899C110.03 61.8355 108.048 61.0689 105.926 60.5562C105.4 60.4246 104.869 60.2915 104.335 60.1585C103.791 60.0692 103.242 59.9815 102.69 59.8908C101.566 59.6443 100.564 59.6684 99.5071 59.5353C98.9927 59.4703 98.2341 59.5036 97.6017 59.4825L96.6057 59.4704L96.1043 59.4643C95.8995 59.4612 96.3125 59.4689 96.2502 59.4704L96.1961 59.4734L96.088 59.481L95.8701 59.4976C94.7086 59.5989 93.524 59.6034 92.3625 59.853C90.0148 60.1796 87.695 60.8617 85.4407 61.7539C83.1618 62.6234 81.0566 63.8982 79.012 65.2956C77.0247 66.77 75.2193 68.5016 73.64 70.4418C72.1033 72.4108 70.8958 74.6202 69.9931 76.9521C69.6196 78.1407 69.1985 79.3475 69.0249 80.4786C68.9004 81.0488 68.7546 81.6038 68.7235 82.3539L68.5465 84.3017C68.5416 86.8165 68.8119 89.342 69.5196 91.7813C70.2864 94.1994 71.3546 96.5389 72.793 98.6802C74.2773 100.785 76.0172 102.732 78.029 104.389C80.0785 105.991 82.282 107.42 84.6739 108.445C87.038 109.44 89.6003 110.27 92.0086 110.595C93.1488 110.857 94.5955 110.887 95.9143 110.995C96.3927 111.057 97.1218 110.998 97.7099 111.007C98.3292 110.985 98.9534 111.028 99.5612 110.958C104.45 110.579 109.017 109.215 112.817 107.169C116.616 105.113 119.591 102.411 121.709 99.6829C123.869 96.9578 125.04 94.1601 125.771 91.8388C125.939 91.252 126.098 90.697 126.249 90.1723C126.369 89.6445 126.418 89.1409 126.498 88.6797C126.654 87.7542 126.77 86.9647 126.767 86.2993C126.824 84.9837 126.854 84.282 126.854 84.282V84.3002H126.85Z" fill="#9B6103"/>
<path d="M35.9622 218.288C53.3083 218.288 67.3701 205.478 67.3701 189.676C67.3701 173.874 53.3083 161.064 35.9622 161.064C18.6161 161.064 4.5542 173.874 4.5542 189.676C4.5542 205.478 18.6161 218.288 35.9622 218.288Z" fill="#80442D"/>
<path d="M98.7764 218.288C116.123 218.288 130.184 205.478 130.184 189.676C130.184 173.874 116.123 161.064 98.7764 161.064C81.4303 161.064 67.3684 173.874 67.3684 189.676C67.3684 205.478 81.4303 218.288 98.7764 218.288Z" fill="#80442D"/>
<path d="M67.3701 167.272C84.7162 167.272 98.778 154.462 98.778 138.66C98.778 122.858 84.7162 110.048 67.3701 110.048C50.0239 110.048 35.9622 122.858 35.9622 138.66C35.9622 154.462 50.0239 167.272 67.3701 167.272Z" fill="#80442D"/>
<path d="M35.9622 114.781C53.3083 114.781 67.3701 101.971 67.3701 86.1687C67.3701 70.3667 53.3083 57.5566 35.9622 57.5566C18.6161 57.5566 4.5542 70.3667 4.5542 86.1687C4.5542 101.971 18.6161 114.781 35.9622 114.781Z" fill="#80442D"/>
<path d="M130.184 167.272C147.53 167.272 161.592 154.462 161.592 138.66C161.592 122.858 147.53 110.048 130.184 110.048C112.838 110.048 98.7764 122.858 98.7764 138.66C98.7764 154.462 112.838 167.272 130.184 167.272Z" fill="#80442D"/>
<path d="M161.592 220.988C178.938 220.988 193 208.178 193 192.376C193 176.574 178.938 163.764 161.592 163.764C144.246 163.764 130.184 176.574 130.184 192.376C130.184 208.178 144.246 220.988 161.592 220.988Z" fill="#80442D"/>
<path d="M67.3701 62.8713C84.7162 62.8713 98.778 50.0614 98.778 34.2594C98.778 18.4574 84.7162 5.64746 67.3701 5.64746C50.0239 5.64746 35.9622 18.4574 35.9622 34.2594C35.9622 50.0614 50.0239 62.8713 67.3701 62.8713Z" fill="#80442D"/>
<path d="M98.7764 114.781C116.123 114.781 130.184 101.971 130.184 86.1687C130.184 70.3667 116.123 57.5566 98.7764 57.5566C81.4303 57.5566 67.3684 70.3667 67.3684 86.1687C67.3684 101.971 81.4303 114.781 98.7764 114.781Z" fill="#80442D"/>
</svg>
